<svg id="Layer_1" data-name="Layer 1" xmlns="http://www.w3.org/2000/svg" viewBox="0 0 960 720"><defs><style>.cls-1{fill:#c4ccd3;}.cls-2{fill:#4d3831;}.cls-3{fill:#6b4f42;}.cls-4{fill:#90715f;}</style></defs><rect class="cls-1" width="957.8" height="720.67"/><path class="cls-2" d="M833.4,720c-12.9-3-4.3-21.8-27.9-9.4,14.1,15.4-9.4,7.6-19.9,9.4-12.8-12.2-27.9-6.9-44.8-7.7,6.6,12.7-9.7,6.1-19,7.7-1.7-7.6-5.8-32.9,7-22.7,4.2-10.4-6-16.1-11-4.4-25.9,7.2-8-8.8-1.4-23.8-12.9-8.4-2.6-32.9-24-5.7-6.3-1.7-7.8.6-9.7,2.2-9.1,2.3,5.4-18.2-9.4-12.3-10.8,3.9-63.7,28-49.2,14.8,15.5-4.1,30.4-15.2,45.8-18.2-.6-9.8,9.6-27.1-4.3-26.7-39.1-65.7-125.7-10.9-185.6-18.8,33.7-10.9,64.5-7.6,94.6-21.9,11.9-10.5,14.4-8.4,4.4,2.8,1,7,26.5.9,11.9-.5,54.9-27,12.3-49.9,32.3-78.4-8.1-6.1-32.8-.5-42.4,7.3-23.2-14.5-91.6-6.7-85.5,18.8,10.3-20.7,38.8-14.8,53.9-19.2-25.8,11.5,13.1,28.1,27.2,34.1-2.8,13.1-3.4,30.1-20.4,20-20-10.9-22.7,11.8-45.5,6.1-1.8-11.8-19.9-3.8-29.1-6-.7,16.1-25.6,10.6-26,32.8-.8-21.1,18.2-56.5-20.3-48.7,10.5-14,.2-17.8-10.9-8.9-14.3-3.2-29,2.1-43.2,1.4-19.5-7-3.6-7,7.4-13-27.9-14.7-72.1,17.9-95.2,5,2-78.6-30.2-120.1-25.2-8.2,4.3,33.2-102,26.5-131.9,42.5-32.5-1.7-118.6,44.3-113.6-2.5C-18,578.5,10.2,504.5,2.3,478.7c44.9,59.4,36.4,37.7,107.1,30.2,12.1-1.5,24.7.8,33.4,1.2,2.2,3.7,1,1.7-.2-.3,2.8-2.7,5.1-6,8.3-8.1,23.3-6.3-5.4-8.7-.5-8.4,38.9-59.7,26-16.7,75.1-16.7,5.8-2.2,7.2-19.6,8.6-26.3,4.6-8,17.9-20.2,18.9-24.1-2.3-20.8,5-33.9-18.8-40.3-1.2,5.4.1,13.8-8.1,12.5-24.9-4.2-8.4-13-14.2-36.6,16.2,9.5,66.6-10.7,59.1,13.7-1.8,7.2-2.9,9.2,5,6.9,7.8,44.1-15.5-4.5-2.4,47.8,10.8,1.5,37.2,14.4,29-7.8,15.2,20.5,37.6,24.1,34.5,61.3-.5,6.8-3.2,40.2,6.3,26,9.4-18.4-16.9-61.4-5.7-64.8,42-1.4-4.3,53,47.2,37,7.6-3.7,14,4.6,21.4,7.4-13.5,18.6,43.4,10.2,56.1,15.8,12-9.5,1.9-37,23.9-24.9,10.9-12-23.9-6.4-29.4-15.8,21.6-8.1-20.2-20.2-5.6-29.5-6.9-15.2-17-32.1,8.4-23,2.8,15,9.6,21,24.4,34.4,40,2.1,116.8-20.8,152.7,1.9,10.9,6.5,8.8-6.8,19.2-4.4,14.2,7.5,47.3-5.7,41.8,9.8-17.2,17.9-33.2-4.5-51.4.5-16.4,6.9-68.7-5-63,19.7,19.6-16.1,13.5,7.4,33.9,10.5,10.6-7.2,22.7-10.2,35.6-11.7,15.1-1.4,23.1,1.3.8,10.1,13.2,18.5,21.8-11.6,14.3,15.1l10.7-2.5c20.7,15.8,3.1-12.7,12.4-10.9,6.3-1.4,6.7-5.3,2.7-10.8,35.8-36.9,10.9,29.6-3.7,44.8-1,2.6-.2,12.4,4.3,8.3,1.9-25.4,31-10.5,27.3,3.6,20-2.1,35.9,20.2,57,37.5-.6-21.2-37.5-111.5-15.1-84.9,19.2,40.6,10.4,114.7,71.1,71.6-3.8-18.1-11.8-31.8-8.9-50.4-24,8.9-21.4-13.7-48.1-11.5,17.2.7,30.1-37.5,35.4-22.7,4.9,2.1-14.9,23.4,8.3,10.6,13.2,7.4,46.7-17.5,24.7-20.4-42,22.9-12.8-11.2-52.4-14.5-6-5.5,22.3-13.1-1.1-17.4,1.3-17.9-10.3-26.8-23.2-37.3-27.3,65.9-16.8-36-37.9,32.1.1,2-19.6,3.8-15.8,12-11.1-1.9-34.4,9.8-35-3.9,19.3-.5,32.4-29.2,9.1-34.4-10.8,8.5-16.4,17.3-28,2.5,13.6,5.3-5.8-31.2,11-52.1,11.4-31.1,14.5-12.6-9.4-28.7,44-8.3-2.3-34.1-15.6-7.3-1.3,9.8-.4,19.9-.4,34.4-11.8-24.7-7.4-61.6-35.5-43.8,3.4,7.2,1.4,22,13.2,17.6-7-9.5-6.3-9.9,4.9-8.4.6,27.1,5.5,73.8,3.5,96.4-22.3-13.2-62.9,3.2-41.8-32.3,0,48.8-.4-7,11.5-9.9-6.5-8.8-6.1-35.8,1-14.9,1.2-10.6.4-18.6-13-12.1-7.8-15.7,1.2-14.2,14.8-11.3,11.9-37.4-37.4-20.3-37.6-47.2-13.4-10.6-69.8,12.1-76.2-.3-6.4-3.1-1.9-1.8-.7,4.6-23.6,8.8-22.6-12.2-49.9-6.1,30.8,16.6-42,2.5-58.9,4.1-83-5.3-42.8-11.8,14.1-9.9,2.2,17.2,6.3,5.4,25.3-.6,5.8-1.4,38.7,4.8,29.1-5-37.7,0-25.3-14.2,5-13.3-35.3,9.7-11.4,9.4,14.6,1.7-41.5,13.7,18.3,4,33.9,4.8,29.8-7.8-20.6,17.1,39.8,5.9-18.6-9-3.4-8.5,4.7-8.3,11-6.1,80.5,9.1,35.8-6l13.2-1.1c-26.5-3.5-15.1-11.6,3.6-8.8-9.3,4.3-6.9,3.6-.2,3.6,16.9,7.5,6.6,27.5,35.9,22,9.6-11.3,51.6,1.2,73.5-4.6,32.5-11,64.1.8,95.6-3.1-3.1-17.1-54-5.7-42-16.3-6-5.8-18.4,2.7-18.9-4.6,24-9.1-3.6-1.9-14.4,1.3,17.4,7.2-11.6,8-15.7,11.4-6-5.2-16-10.3-22.8-12.8-5.8-15.6,8.3-16.1,20.2-15.5,5.5-17.9-36.1,4.7-44.9,12.8,27.1,10.7-32.7,11.5-31.9-.4,10.8-7.7,20-13.1,27-22.1,12.6,2,59.5,2.6,50.2-10.7-12.6-4.4-17.9-1.2-28.4-.3-7.5-40.1-49.8-11.8-9.5-49.7,39.2,5.5,99.5,9,125.9-3,7,10.4,3.8,12.4,21.8,8,.6,12.3,12.1,1.6,22.5-.8-14.8,11.4-27.1,16.1-2.8,18.5-10.4,28,23.6-2.6,3.6-4.5,26.1,1.5,28.1-2.6.9-5.8,23.4-18,44.3.8,70.7-5.9,14.7,24.6-25.8.9-14.7,22.2,17-3.2,48.1-3.3,39.9-25.8,24.5,6.7,24.5,61.2-7.1,44.4-31.3,10.6-29.2,29.5-63.9,10.4,39.4-8,38.3-.5,2-21.5,10.9,19.6-40.5,7.3-49.7,11.2,8.5,8.2,24.1,2.8,29.3,6.7-4,23.1-34.6,15.3-43.5-16.8-22.5.1,21.2,24.7-19.4,29.9,35.2,12.2,55.4,17.7,8.5,12.3,1.7,13,36.2,2.4,47.1,5.7-19.2-31.2,74.5,4.8,77.9-22.1,5.1-1.3,14.6,6.3,19,1.3-14.3-41.8,45.9,43.5-5.3,29.5,1.4,14.6,27.7-3.7,20.6,21.9-12.5-1.4-26.9-13-38.2-5.3-14.1,1.7-67.2-4.6-29.5,5.7-16.9,2.7-46.4,7.3-16.3-1.4-16.8,4-21.1-5.9-33.7-13,18.9-3.8,48.6,3,59.6-6.2-32.8,3.2-126.8-9.4-52.4,13.6-36.5,3.4-81,26.3-115.1,16.4,64.6-10.2,2.7-6.9-27.4,2.4-6.1-2.3-27.3,5.6-16.2,10.1,58.1,4,74.1-.3,137.4-6,49.1-6.2-2,17.6,41.5,15.5,16.4,16.2-18.9,20.4-19.1.6-3.6,26.6-1.4,53.6-9.9,15.5-1.7-18.8-18.1-31.5-33.6-17.6-10.2,2.3-41.7-12.5-37.3,4.2-24.5-10.4-14,37.5-19.1,46.7,5.8,25.1,10.8,2.3,28.8-14.1-19.8-9,7.2-31.5,8.5,5.9-15,11.2,24.1,81.2,23.2,3,4.8,15.9,8.2,27.3,12.7,42.4,2-19.6,4-3.7,10.4,3.4,5.5,9.8-12.9,14.6.3,22.1,10-3.6,26.2-17.3,25.1-1.5,50.6-34.9,50.1,19.2,100.3,7.4-3.5,15-28.3,3.6-46,6.9-95.2,11.7,9.6,18.4,46,25v72.6c-29.4-4.9-63.2,8.5-63.7,18.3-10.7-4-6.8-61.2-15.8-33.1-8.1-25.9-9.6-17.1-32.1-10.7-3.7-1.9-19.1,27.8-2.8,26.8,6.3-14.2,17.2-2.5,6.7,4.7,10.1-16.2,47,10.8,12.4,21.3,17.7-3.8-6.5,4.7-13,7.2,9.7,9.7-7.7,17.2-17.1,36.7-6.6-14.9-2.3-24.8-13.1-25.4-40,2.6-41.8,29.7-32.1,62.3-4.2,20.5,14.3,3.6,27.3,5.8,3.8-7.9,32.7-1.6,12.7-22.7-.4-24.3,1.4-21.9,5.6-5.1,31.9,16.9,5.2-36.3,24.3-9,5.9,27.1,20.9-12.4,29.1,19.8-8.1-9.4-14.7,4.3-20.5,9.6-2.5-4.5-5.4-10.6-11.6-8.6-8.5,4.8-9.4,30.8,3.9,29.4,11.2-4,4.2,15.9,10.2,22.7,21.2-.2,27.5-11.8,29,17.9,1.4,5.1-1.6,7-3.1.8C880.4,654.5,856.6,713.1,833.4,720ZM715.6,248.4c2.5-1.1,2.4-1.9.4-3.6C715.9,246,715.7,247.2,715.6,248.4Zm72.3-79.1c16.6-4,9-8.6-4.2-7C785.1,163,782.3,174.8,787.9,169.3ZM567,265.4c22.9,7.4,59.1-4.2,17.3-4.4C573.1,261.8,544.9,258,567,265.4Zm249.5-95.9c-8,5.4-20.9,7-9.6,16.4C809.6,181.3,815.2,171.5,816.5,169.5Zm9.1,269.1c-1,6,.4,13.5,6.4,17.6C839.1,449.3,835.4,434,825.6,438.6Zm-36-221.2c-11.2.5-12.3,3.3-7.9,13.4C791.6,230.2,791.6,226,789.6,217.4ZM377,510.5c7.7-21.5-28.9-11.9-6.1,3.1C377.5,530.1,422,499,377,510.5Zm258.1,19c19,32.5,19.9,1.1,13.8-19.8C632.8,498.7,636,525.7,635.1,529.5Zm148.5-331c-18.2.8-77.2-6.5-31,3.7-11.7,23.2-4.1,27,19.3,26.4-9.2-28.3,39-8,6.1-23.8C789,202.8,805.1,203.9,783.6,198.5ZM585.4,284.1c25,16.9,65.8-.1,96.4,3.2C681.4,274.5,559.4,271.7,585.4,284.1Zm150.4,30c22.4-6.2-15.5-16-32.7-9.4.4,5.4-3,14.7-12.3,9.7,3.1,5.1,2.9,14.3,5.2,23-8.8.8,4.7,18.6-.1,13.1,6.4-6,14.6-20.6,10.3-4.2,11.4-5.6,17.7-7.7,1.7-9.2,14.8-49.2,32.6,4.1,7.7,29.5,1-4-.1.6-1.4,5.6l-1.4-.4C744.5,358.6,741,341.3,735.8,314.1Zm48.6,356.8c2.9,6.7,6.2,49.3,13.9,32.6C805.5,681.4,797.3,609.4,784.4,670.9Zm-25.8,32.9c15.5-2.7,17.3-28.1-.3-34.7C751,675.9,759.7,693.4,758.6,703.8Zm-49.3-57.9c-.2-.5,23.8,2.2,17.9-10C713.6,623.6,688.8,621.4,709.3,645.9Zm-60.6-81c-11.8-26-12-2.2-18.2,13.7C643.6,580.6,648.5,582.3,648.7,564.9ZM840.9,667.7c12.5,55.6,25.9-6.4-7.3-32.6C828.3,640.9,840,658.2,840.9,667.7ZM786,183.9c2.1-20.9-26.4,8.7-36,8.6C766.4,193.1,784.9,197.7,786,183.9ZM240.7,366.6c-8.5,12.5,4.2,15.6,10.7,23.9C254.1,378.1,254.7,372.6,240.7,366.6ZM507.3,510.7c-19.2,2.3-29.2,3.3-38.9,5.1C465.1,531.7,491.6,517.4,507.3,510.7Zm235.1,55.6c-16.7,14.9,13.5,7,32.1,10.4Zm55.7-161.8c19.9,19,16.4,30.9,22.9,10.1Zm40.5,270.7c-8.7-.4-4.2,12.9-6.3,19.1C847.7,691.6,842.8,685.5,838.6,675.2ZM821,393.1c-24.1-7.9-13.9,11,.8,5.7C826.5,393.5,824.1,381.1,821,393.1ZM678.7,509.9c27.7-8.9-13.6-4.1-19.2-11.5C650,507.3,675.7,507.8,678.7,509.9Zm61.8,68.2c-2.9,15.6,8.5,5.6,17.6,4.5ZM721,536.5c-7.8-10.9-9.9-10.1-13.3,1.8C710.8,546.3,716.1,540.5,721,536.5Zm-38,89.9c3.9,17.5,8.2,31,6.4,5.6C700.4,626.1,691,628.4,683,626.4ZM93.9,535.6c-7.8-2.5-39,2.3-44.3,8.6Zm536.3,9c7.5-1.7-1.9-13.8-2-19.7C620.1,526.2,630,538.6,630.2,544.6ZM758.6,230.9c4.4,8.2,12.1,14.5,15.9,6.1ZM195.2,504.4c2.9,9.5,4.9,6.7,10.8,1.6C202,503.6,199.7,499.8,195.2,504.4ZM895.7,178.5c7.1-3.3-2.9-8.6-5.1-13C884.8,168.9,894.1,174.2,895.7,178.5ZM820.9,467c9.1-.5,3.8-11.9-1.2-14C820,457.9,820.5,462.8,820.9,467ZM197.1,519.1c3.2-2.3-5.3-8.8-7.6-5.1ZM743.6,214.8c-4-2.6-4.9,8.6-1.3,7.9C742.7,220.1,743.2,217.4,743.6,214.8Zm56.6-25.1c2.2-4.1-2.1-3.7-5.2-4.5C792.5,188.8,797.4,188.7,800.2,189.7Zm27.6,8.1c1.4-3.7-6.1-2.6-4.4,0ZM710.9,226.3c-1.8-1.9-2.3.6-3.4,2C709.1,230.2,709.8,227.4,710.9,226.3ZM687.6,437.4c1.9-2.7,1.4-2,.9-1.2S692.9,436.1,687.6,437.4Zm37.1-220.2c-.3,2.2,2.5.6,3.9.7C728.9,215.8,726.1,217.4,724.7,217.2Zm9.1,14.8c-2.4-1.8-2.2-2.1-3.2-.1C731.1,233.3,732.4,232.5,733.8,232Zm-38.5-50Zm214.2-13.6ZM891.1,672.9c-.3-.2-.7-.5-.9-.1S890.6,673.5,891.1,672.9ZM701.2,300.1c-.3-.3-.5-.2-.6.1S701.1,300.4,701.2,300.1Zm-51.8,22.1c-.3.1-.2,0,0,0S649.1,322,649.4,322.2Zm85.9,235.3c-.2-.5-.5-.2-.8.1S735,557.7,735.3,557.5ZM748.9,227c-.7-.2-.2,1.1.1.4S748.9,227.2,748.9,227Zm55.3,157.1c.4.2.5.2.6-.2S804.3,383.7,804.2,384.1Zm-60-156.6v.7C744.6,228,744.6,227.8,744.2,227.5Z"/><path class="cls-3" d="M675.7,409.1c24.9-34.2,40.3,20.9,5,22-9.5-.3-17.8-4.3-6.7,7.7-12.3-5-21-11.6-28.9-10.8-13.6,7.2-17.5,21.3-37.2,9.5l-123.8,8.8c-14.6-13.4-21.8-19.4-24.4-34.4-25.3-9.2-15.5,7.9-8.4,23-14.5,9.3,27.1,21.4,5.6,29.5,8.8,9.9,26.1,3.1,32.8,12.7.2.8-3,3.4-3.4,3.1-21.9-12-12.1,15.4-23.9,24.9-12.7-5.3-69.3,2.5-56.2-15.8-35.2-22.9-51.1,20.4-50.5-40.1-16.6-5.2-27.2-11.4-18.6,11.5-12-2.2-14.4-38.7-20.5-20.8-7.3-7.3-16.8-26.8-12.4-4.5-10.9-2.3-21.8-1.1-30.6-5.2-.9-10.6-12.1-42.2,4.6-22.3-5.8-23.5,1.9-54.9-32.2-42.1-39.6-6.4-33.3-4.8-33.7,28.1,13.6,5.9,22,7.4,21.9-8,10.9,5.5,24.5,8.8,17.3,26.6,3.8,17.7-5.6,22-17.4,37.8,5.2,38.2-43.6,29.3-46.9,7.9-6.2-8.4-6.7-22.7-19.9-14.3-5.7,2.2-16.8-6.1-11.4,4,15.8,12.4-10.5,10.2-5.9,19.1,44.2-17.1,13.7,6.5.4,26.3-6-1.2,9.9,1.7,10.7,4.5a31.9,31.9,0,0,0-18.5,12c1.2,2,2.4,4,.2.3C112.1,495.9,35.8,539,29,508.3c-61.5-61.4-3.7-43.2-8-66-31.9,3.3-16.2-27-3.5-30.7-3.9-16.4-22-24,2.2-30,20.6-9.5-6.2-16.8,2.8-29.6,14.2,8,22.9,6.5,32.7-6.1,13.7,1.3,1,14.5-5,20.5,1.1,5,48.7-27.8,26.4,3.1,27.9-2.7-12.9,10.7-15.1,23.8,20.1,2.6,14.8,7.6,6.1,22.3,5.9,1.8,15-6.3,24.5-3.2-25.7-36,26.7-1.3,26.7-28-9.1-5.6-18.7-10.6-28.1-15.7,20.8-7.5,28.3-24.9,26.3,5.7,11.9-3.4,27.8-10.3,31.6-23,14,1.9,10.3,11.3,8.8,22.1,4.7-.5,19.5-2.6,17.4-7.8,12.5-10.6,39.6-15.7,27.8-32.6,19.3,4,8.5-16.1,26,.8-19.3,13.7,5,11.6,8.2,25.4,16.3,1.5,15.5-5.2,9.4-18-7.3-2.4-19.2,3.5-9.1-8.8,8.6-15.4,40.2,8.1,42.3-10.2,13.4,24.3,16.9-7.1,23.8-5.6,3.1,18.7,4.3,56,13.3,18.9,19.3-38.2-.6,14.8,7.8,21.8,3.5-42.6,12.5-50.2,14.8-7.2,3.4-8.9,5.2-26.3,7.2-5.9,9.8,0,24.4,11.7,31.1,1.4.3-5.1-3.4-6.1-7.9-3.8-36.3-11.8,28.4-44.5,47.4-38.5,7.2-.3,8,7.6,10.9,12.5,2.4-13.4,26.4-1.5,17.1-12.2,35.9.1,77.6-3.9,109.7,6.4-23.9,21.6,7.6,15,28.6,18.7,2-43.4-22.6-13.8-12.9-36.6,20.5,5.2,42.3,7.7,35.7,34.6-14-2.7-22.4-4.7-14.8,11.3,13.5-6.5,14.2,1.4,13,12.1-5.2-37.3-12.9,95-12.5,24.8-5,53.6-108.2,14.1-110.5,40.3,19.6-1.7,10.4,24.9,29.9,18.8,13-13.7,63.2-1.8,57.2-17.2,19.4-.8,109.8,17.5,66.7-10.3-8.8-27.7,10.4-89.6-15.9-96.5,11.9,19.6-8.4,5.7-7.2-8.4,27.9-17.8,23.8,19.1,35.5,43.8,1.9-19.1-7.2-35.5,10.1-44.2,25.2-8.3,35.6,12.9,5.9,17.1,8,8.7,16.8,6.4,18.6,7.3a510.2,510.2,0,0,0-19.6,51.5c.1,6.8,14.4,28.1-.6,22,9.3,7.6,6.6,6.8-3.7,8.7,5.7,9.6,4,5.5-5.1,7.4C644.1,430.2,689.4,427,675.7,409.1ZM359.5,364c-18,7.8,33.2,28.7,8.2,32.4-1.9.8-4.7,3.8-2.5,5.7,15.7-2.1,6.3,9.8-3.2,10.8l14.1,4.1c42.7-4.5,11.8-117,3.6-45.2-5.9-.7-5.8-11.4-5.3-16.8C367,357.5,342.6,354.3,359.5,364ZM55.9,468.5c10.1,21.3,57.7,10.1,81.2,12.7C191.2,473.2,79.7,466.5,55.9,468.5Zm331.8-53.6c2.1,16.1-16.3,10.8-23.1,21,9.2,3.3,11.5-6.3,19.8,3.5-5.7,2.5-15.4,1.8-6.2,7.8-12.5,5.7,4.1,9.6,1.5,8.9L405,441.6C366.6,457.7,411.7,408.3,387.7,414.9Zm119.1-48.6c.1-30.8-.1-74.1-19.4-20,2,25.6,1.8-1.5,12.5.2-1.3,9.8,1.4,19.6,2,29.4,11.3-1.5-5.2-12.5-2.2-21.5C501.5,357.5,502.3,358.9,506.8,366.3ZM155.6,389.7c8.1-17.5-3.2-10-12.7-3.5,10.9,8.8,10.3,26.5,14.1,38.7C181.9,432.7,157.8,399.3,155.6,389.7ZM138.5,399c-6.6-56.8-11.8,8.5-1.9,26.9C155,437,137.5,385.1,138.5,399ZM30.3,388.4c15.2,12.3,19.1,1.7,8.3-11.4C31.2,378.7,20.4,396.7,30.3,388.4Zm515-35.2c10.5,1.2,21.8-10.3,12.2-15.7C542.7,323.4,547.4,342.8,545.3,353.2ZM270,357.8c17.4-22.5-29.5-25.8-10.1-2.9C264.1,351.4,266.4,349.7,270,357.8Zm320.4-6.4c-10.2,5.2-9.2,20.6.1,26.9C593.8,369.8,590.4,359.3,590.4,351.4ZM43.3,491.6c-1.2,12,14.4,2.2,22,2.7C65.1,485.5,49.9,492.9,43.3,491.6Zm70-23.3c7.7-18.7,11.2-18.8-4.8-19.1C109.4,452.7,110.3,456.2,113.3,468.3ZM146,456.4l-18.5-7.6C125.3,462,129.5,456.3,146,456.4ZM40.6,393c18.8,10.7,23.7,7.2,11.5-5.7C50,395,59.5,395.1,40.6,393Zm326.5-6.7c-3.9,5.1-4.3,4.8-.5,6.8C369.7,391.9,368.3,389.5,367.1,386.3Zm6.5-50.2c-.4-.9-.6-1.8-1.5-1.3S372.3,336.2,373.6,336.1Zm226.2,2.4c-.3-.2-.8-.8-1-.1S599.3,339.1,599.8,338.5ZM50.9,403c.1-.2,0-.1,0,0S51.1,403,50.9,403Z"/><path class="cls-3" d="M303.2,539.6c27.5-3.1,59.1-18.1,85.2-8.5-10.7,6-27.3,6.1-7.4,13,16.6-3.6,39.6,3.5,52.5-7.9,15,3.6-5.2,16.6,7.1,15.4,21-4.9,19,8.8,18,21.9C429.7,559.7,432,590,419,598.3c13.3,21.4,24.9,14,36.4,2,7.6-35.2,56.1-6.1,84.4-9.3-8.8,1.6-40.2,9.3-59.8,13.4,39.5-7.1,15.5,20.2,44.3,5.6,8.2-21.3,124.6-35.3,141.3,13.2,25.3,9.7-25.9,8.4-35.6,15.9-11.2-1.6-28.4-11.1-17.5,7.2,19.8-12.3-5.1,21.6-16.1,6.2,8.2-44.3,14.1-4.3,18.5-34.5-4.6-8.6,3.1-5.2,8-2.7-1-8,2.6-15.8-9.6-12.7-9.5-.1-20.5,6.2-22.8-4.8-9.4,10.8-32.8,16-29.3,32.7-10.5,1.1-2.3,6.9,1.3,12.6-19.2-16.8-30.7,15.4-36.9-14,7.1-3.4,35.8-13.4,16.9-17.3-38.8,11.5-91.7,2.8-117.2,34.4,5.2,1.9,11.7.2,16.2-1.2-5.4,13.5,4.4,29,.5,44.3,7.6-6.8,56-20.4,35.6-26.9,3.7-21.9,24-.6,8.3-1.6,9.7,6.9,6.1,1.5,12.8-9.9-4.8,19.8-3.1,25.7-14.3,37.3-15.3-2.4-46.4,19.3-50.5,4.4-13.7-2.5-2,22.5-20.8,17.9,2.9-10.5-30.8-10.6-40.5-23.2-8.5-4.8-39.7-.1-33.5-14.7,24.2-6.4,43.6-51.7,66.9-23.5.2.4-2,2.5-2.8,2.3-11.2-5.4-8.4,4.6,3.1,9-69,18.6-26.6,17.3,14.3,29.4-1.6-21.5,12.9,19.4,8.9-17.1-2.8-18.3-13.9-8.6-22.7-6.3,3.2-8.3,13.6-35.7-.1-33.7-44.9,16.2-112.4,15.2-122.3,49.2,22.9,5.4-2.1,15.7-12,21.3,12.2-42.1,22.4-36.9-23.3-30.9-32.4,5.6-64.1,17.1-97.3,13.8,18.3-11.2,36.9-10.1,49.9-14,73.8-20.2,148.5-41.1,223.7-58.2-20.4-10.4-87.3,10-74.4-11.9-46.3-20.9-91.8,22.8-155.6,25.5-45.8,9.9-93.1,14.4-137.6,29.1,32.4-2.1,9.7,4.3-8.7,13.3,24.6,4-36.1,7.5-46.8,9.2-1.1-18.1,34.4-.5,39.1-19.2-58.5,4.5-48.3-11.2,1.7-20.3,27.7-12.1,120.4,1.7,94.4-16.7,9.3.2,53.1-15.2,40.2-2.6-8.4,15.3,26.9-.4,36.3.3,2.2-8.2-16.8-3.7-22.5-5.8,18.9-10,33.9-4.6,49.3-5.1-14.5-.7,74.2-25.1,65.8-51.6-109,17.8-161,28.5-262.4,50.1-17.6-2.2,49.3-20.4,5-21.4,72.4-12.4,143.7-30.4,216.1-42.4,8.8-30.6-4.1-63.6,11.6-95.2C309.2,490.5,253.5,583.7,303.2,539.6Zm12.2,44.8c7.6,13.2,39.2-2.6,55.2-.8C368.6,561.6,331.8,585.4,315.4,584.4Zm35.4-31c3.8,5.3,23.7,4.2,24.9-5.4Zm283.9,49.1c-2.8,12.2-6.8,20.5,3.4,29.4C642.5,623.4,635.4,613.1,634.7,602.5ZM379.4,589.6c5.7-2.3,4.5-6.2.8-8.4C373.2,582.9,373,585.6,379.4,589.6Zm39.4,59.6c2.3-2,2-3.9-.3-4.5C415.5,646.2,415.6,647.3,418.8,649.2Zm-38.7-73.6c.2-3.4-2.9-1.3-5.1-1.1C374.9,577.6,378,575.6,380.1,575.6Zm-25.5,31.7c.6,2.4,4-.8,5.8-1C359.8,603.9,356.4,607.1,354.6,607.3ZM661.1,623c-.2.3-.3.6.2.4S661.2,623.1,661.1,623Z"/><path class="cls-2" d="M436.9,134.2c25.8-1.8,67.7,7.4,98.7,7.1,24.3.1,54-9.3,63.5,20.9-6.8-1.3-10-3.2-7.9,4.2-2,.3-4.1.5.5,0-1,1.5,28.6,7.5,40.1,11.7,9.3-8.3,27.1-6.6,10.4,8.4-34.4-8.1-45.8,16.7-72.4,3,11.3-25-52.1-3.9-53.4-5-20,2.5-10.6-4.7-16.3-17.7-5.8,31-98.2,22.9-69.5,46.2-11.8,12.2-20.8-2.3-19.4-15.4,8.9,7,4.9-12.3,13.5-8.8,1-.5,1.3-2.4,1.9-3.7l-30.5-7.2c23.9,9.8,6.6,20.8-8.1,17.9-21.3,4.4-19.9-4.1-27.1-17.3-14.5-2.3-64.8-20.7-57.8,6.4l-5.9-7.5c-16.6-10.5-43.1-3.7-61.5-12.3,5,21.4-38.5,12.5-53.4,19-11.8,11,10.2,27-.4,41.1-28.8-7.9-27-7.6-23.9-36-24.9-13.5,4.1-10,21.4-1.2-17.7-17.1-18.3-12.7-39-10.6,10.3,9.9,3.7,14.1-8.2,19.9-11.5-2.2-24.3-1.4-19.2-13.8-20.4,15.7-26,10.5-48-6,8.4-2.3,40.9,9.2,39.7-9.7-8,7.8-51.7-7.2-41.6,9.7C51.4,197,85,193.7,27.1,191.6c36.2-9.2,23.8-9.3-9-14.9,22.3-1.1,10.5-16.4-4.1-18.4C5.6,184.5-1.1,142,2.3,129.6c39.7,12.1,91.4.8,125.4,19.2-8.1,12.6,49-12.7,58.1-12.5,89.3,12.6,124.5,12.9,208.3,10.1-24.6-19-25.3-19.9-.9-24.9,12.1,11.5,48.6,5.1,20.6,24.4,6.1,6.4,16.1,1.4,27.4,2.9C435,143.6,438.6,140.3,436.9,134.2Zm-14.7,36c-2.9,16.9,24.9,3.3,29.5-6.6C435.8,153.4,428.9,165.2,422.2,170.2Zm83.2-6.4c-1.1,8.2,38.8,11.5,36.2,1C513.9,171.9,533.3,158,505.4,163.8Zm55-.9c-4.7,7.6,15.9,13.7,20.1,5.5ZM276.2,150.2l-10.5,4.1C272.2,156.3,277.1,158.8,276.2,150.2Zm-14.3,8.6c-5.7-6.6-8.1-6.7-15.2-4.3C251.1,160,254,158.7,261.9,158.8ZM128.4,171.2c2.8,7.3,2.8,8.1,8.3,2.3ZM144.8,150c-3.9-.7-1.6,4-1.9,6.5C147,157.2,144.6,152.7,144.8,150Zm275.8,13.4c-2.8-2.4-3,1.5-4.3,3.5C419.2,168.9,419.2,165.1,420.6,163.4Zm2.8-5.3c-.3-2.6-1.5-.5-11.2,0Zm21.1-16.2c.6-2.8-.8-.9-10.5-3Zm-180.3,6c-1.2,1.3-1,1.7.4,2.3S265.1,148.7,264.2,147.9ZM419.7,153c-.2-1.3-.7-.8-1.6-.7S418.9,153,419.7,153Zm-5.9,4.5c.7-.1.2-.5.1-.9S413.7,157.1,413.8,157.5Zm-70,17.2c.3.2.5.1.6-.2S343.9,174.3,343.8,174.7ZM394,126.6c-.5-.1-.4.3-.2.7S394.2,127,394,126.6ZM161.1,205.1c.3.1.4-.1.3-.4S161,204.8,161.1,205.1Z"/><path class="cls-4" d="M127.7,148.8C96.2,120.9-8.5,163.5,2.3,99.7l16.4,2.8,14-1.8c-6.8-2.7-13.2-3.9-20-6.8,6-10.9,47.5,1,33.1-9.4,118.9.9-37.7,9.9,75,27.9,7.6-3.6,18.8-20.6,2.6-22.1,14.2-1.1,36.8-8.3,42.7,9.9-8.3,18.8,109.6,43.8,28.3,12.7,15.1-4.4,97.8,1.2,38.1-17.2,25.9.2,43.1,9.1,63.6,8,4.4,12.2,44.7,32.1,28.2,7.1.1-11.9,52,15.1,69.8,35.6C297.3,154.5,220.9,127.7,127.7,148.8Zm17.9-50.5c-10.3-5.9-6.3,10.3-1.6,15-.9-10.2,10.5-6.9,16.9-6.5C158.1,97.9,155.4,93.4,145.6,98.3Z"/><path class="cls-4" d="M182.7,614.3c-13.5-.1-66.5,15.5-32.8,11.7-5.7,3.1-10.4,8.5-17.1,5.2-44.4-2.1-88.2,12.6-130.5,15C.8,624.6,0,610.6,25,608.1c-4.5-3.6-12.3-11.1-22.7-5.8-7.1-24.9,107.8-20.2,37.6,4.5,43.7,6,381.1-100.1,219.5-5.5-7.2,3.9-16.3,4.4-26.5,6.8,7.3,1,8.7,1.9,2.4,5.6C220.6,596,202,618.3,182.7,614.3Zm.8-2.4c8-1.6-2.2-14.5-2.4-20.6C170.8,593,182.6,605.1,183.5,611.9Z"/><path class="cls-4" d="M202.6,333.1c12.7,15.3-30.1,36.9-45.2,40.4,1.6-10.8,5.1-20.2-8.8-22.1-4,16.5-45.5,35.5-29.1,4.9-15-.4-22.1,16.4-42.9,13.2,5.4-8.5,12-7.7-.6-14.9-4.8.5-22.8,17.4-25.8,11.8,6-4.5,8.8-11.5,12.8-17.5-15.8-6.6-15.8,14.9-32.8,6.8-27.4-11.1,11.2,19.2-10.5,25.9-37.5,6.8,16.8,27.1-11.3,31.1,2.4,45.5-20.5-46.9,2.9-32.9.3-26.7-20.7,5.6-.3-39,7.4-14.2,86.4-4.8,89-15.7,12.9-1.3-6.7-9.4,4.7-14.1,22,.2,48.9.8,14,11.2,24.8,4.4,52.4-15.5,78-14,13.4-.8,74.3-2.3,65.1,3.6C241.9,314.7,113,320.9,202.6,333.1Z"/><path class="cls-4" d="M607.6,658.2c12.1-16.6,50.2-36.5,64.2-23.2-18.9-1.2-10.5,7.7-5.7,15.3-24.3,11-43.7,17.9-66.7,29.9-20-.5-19.6,16.3-.1,9.3,11.4-8.8,27.1-21.1,47.1-20.4,14.8.5-8.9,17.5,12.7,6.1-30.8,20.9-10,38.6-42.7,16.2,13.5-6.6-5.8-7.7-7.7,3.1,31.7,14.3-42.6-.6-53.1-7.5-9.4,18.6-46.7,9.1-41.1,33-37.8-.2-216.6,4-121.2-9.7,4.8-21.8,21.8,4.1,31.5-1.3,27.5,13.5,7.7-27,32.8-9.6,67.9,1.3-8.1-4.9,61.4-31.2,18.5-8.2,26-.4,40.8,8C571.7,665.4,588.4,662.1,607.6,658.2Z"/><path class="cls-2" d="M347.1,615.3c206.9-26.9-189.4,70-251.9,79.1-93.1,10.6,15.2-1.3,32.4-14.7C85.9,687.9,44.5,698,2.3,703c-11.7-41.3,40.2-17.7,55.1-33.1-5-18.9,78.8-14.1,107.2-7.1,32.1-9.7,97.9.3,95.6-26.7C289.1,654.4,323.5,631.6,347.1,615.3Z"/><path class="cls-4" d="M149.8,686.2c47.2,1.8,90.7-13,136.9-20.5-6.6,6.4-9.7,26.9-14.3,37.5C198.5,734.7,99.5,714.3,11.2,720c23.2-10.8,53.8-5.5,76.6-17.3-9.5-7.3-22.7-1-33.8-1.7C89.6,693.7,115.2,702.9,149.8,686.2Z"/><path class="cls-3" d="M841.4,714c25.4-12.6,38.9-57.6,57.4-19.3-2.3-30.6-4.5-24.7-29.6-22.3-3.2-38.4-25.5-9.5-18.7-47.4,17-20.7,65.7,44.4,86,67.8-25.8-3-24.9,13.1-7.4,27.2C907.1,716.9,826.6,727.4,841.4,714Z"/><path class="cls-3" d="M548.3,695c14.4-18.5,51.8,15.6,72.5,4.2-14.4-2.2-13.5-15.3,2.6-12.1-8.2,3.6-7.1,6.2-1.1,8.6,6-.7,15.9,18,18.7-4.1.2-2.7,33-25.6,6.8-10.5,12.9-20-13.9-8.8-24.7-8.1,19.2-6.1,37.3-18,57.2-20.2,2.2,4.6-5.1,14.5,2.4,12.8,58.4-39.5,11.8,21.5-15.9,32.9-24.8,6.9-57.4,39.5-74,8.7C586.3,724,575.7,720,558.4,720,547.9,710,551.8,705.1,548.3,695Zm31.7,4.7c-3.5,6.3,4.2,4.7,8.5,6.2C591.1,700.8,583.2,701.6,580,699.7Z"/><path class="cls-4" d="M157.8,203.3c-2.2,7.8-4.5,6.4-13.4,6.3,11.4,5.2,9.4,7.9,7.9,18.9l-23.5-3.7,15.3,5.6c-25.6,5.6,14.1-.7,20.9,7.7-26.9,5.4-104.5-10.8-96.9,7.5-20,.4-40.2-.9-60,.6,23.8-15.2-22.8-21.7.1-29.1-13.1,6,54.9,9.2,62.7,9.9,32,13.4,9-7.3-2.5-20.8-6.1-6.8,26.4-1.2,34.4-2.9-4.5,8.7,9.9,8.5,15.2,12.1C99.2,190.6,129.5,207.6,157.8,203.3ZM137,236.4c-5.6-1.9-8.7-6.3-9.7,3.7Zm-78.3,2c.5-3-6-1-8.3-1.8C49.8,240.2,56.3,237.7,58.7,238.4Z"/><path class="cls-3" d="M104.7,311c7.9,42.4-95.4-3.5-97,44.8-33.2-46.7,75.2-17,88.9-37.7-26.3-6.4-86.8,14-94.3-9.9,95.8-5.8,13.9-16.9,63.2-21.7-26.3-11.2-51,5.8-51.1-11,35.5-.4,111.4-8.3,44.7-10.2-7.8-4-5-2-26.9-13.7,17.8-1.9,79-1.3,53.1,19.5,9-.7,9.2-.4,15.7-1.6v-1.3c-13.3,11.6-34.6,13.1-25.4,30.7C109.5,301.9,98.1,296.7,104.7,311ZM59.8,280.9c-1.4-1.5-2-3.8-3.1-5.5C52,275.6,60.4,283.7,59.8,280.9Zm20.3,26.9-21.4,3.3C67.3,315.6,100.9,317,80.1,307.8ZM70,279.4Z"/><path class="cls-2" d="M929.1,720c-43.5-42.1,36.4-8.2-16.2-55.5-12.1-3.1-30.5-37.5-17.7-30.3,1.8,17.1,12,20.9,26.7,21.8,15.5,7.4,25.3-13.3,23.5-24,6.5-12.8,15.7,4.8,13.4,14.1-10.7-2.4-12.3.3-9.7,10.6,0,21.5,15.7,36.1,5.9,63.3-10.7-9.2-5.2-21.2-5.7-29.4C932.1,688.6,956.4,729.4,929.1,720Z"/><path class="cls-3" d="M102.8,203.3C40.2,207.5,56.6,198.2,0,188.7c6.8-.8,4.5-.5,2.3-.2-1.7-9.7,1.8-13.1,10.9-15.4-34-3.8,26.9-25.5,16.1,1.9-25.4,1.5,15.8,5.6,25.4,7.7-2.9,9.6-24.6.8-27.6,8.9,33.2-.5,62.9,11.9,85.9-8.1-7.8,17.6,31.7,17.1,33.8,1C187.4,207.1,120,203.1,102.8,203.3Z"/><path class="cls-2" d="M394.9,701.9c-23.9,11-43.1,21.6-70.7,18.1,7.8-7,50.4-12,28.6-27.2-8.6-1.7-7.1,13.5-21.7,12.9C288.8,680.4,374.1,672.9,394.9,701.9Z"/><path class="cls-2" d="M239.5,720c31.1-10.2,73.4-61.3,76.7,0-12.9,1.9-24.2-2.3-35.5-6.5C268.4,720.2,254.1,721,239.5,720Z"/><path class="cls-3" d="M54,701c84.3-4-17.8,14.2-39.2,16.6C-19.1,704.7,39.2,690.9,54,701Z"/><path class="cls-4" d="M2.3,318.1c28.5,4.1,74.3-8,94.5,4.6C70.7,318,4.5,347,2.3,318.1Z"/><path class="cls-2" d="M622.2,720c16.2-13.7,49.4-18.6,67.6-36.8,7.5,8.8.4,12.3-6.6,18.4,23.9-1.5-2.3,5.6-12,11.2,18,10.6-14.1,10-20.6,2.6,4.9-3.2,10.4-1.2,9.9-10.9C646.4,710.9,636.9,721.6,622.2,720Z"/><path class="cls-3" d="M2.3,227.4c22,2.8,9.7,13.7,2.9,25.5,5.6,10.4,11.2,21.1.2,31.4,28.2,8.1,24.6,15.3-3.1,13.9C3.3,271.7,2.1,257.7,2.3,227.4Z"/><path class="cls-3" d="M316.2,720c-5.2-35-21.3-30,16.8-40-10.7,11.7-22.3,18.4-1.9,25.7,14.6.6,13.1-14.5,21.7-12.9C375.7,705.7,326.6,719.5,316.2,720Z"/><path class="cls-4" d="M679,720c-17.5-9.5,11.7-16.3,21.1-18.4-5.2-4.7-3.9-5.7,1.9-6.8,19.1-11.8,28.1,29,9.9,25.2C718.4,694,697.3,728.7,679,720Z"/><path class="cls-2" d="M85.9,85.7c-28-.4-55.8-2.2-83.6-4.9C8.7,59.3,63.8,83.4,85.9,85.7Z"/><path class="cls-3" d="M49.1,223.9c-5,1.2-12.6,8-16.9-.9-15.5-2-28.3-.7-29.9-9.6,28.3,2.3-17.8-3.3,16.2-4.9C29.5,216.2,55.7,195.5,49.1,223.9Z"/><path class="cls-2" d="M2.3,40.9c8.3,7.7,24.9,10.8,24,24C2.7,70.2-.1,63.5,2.3,40.9Z"/><path class="cls-3" d="M2.3,80.8C46.9,86.6,71.8,82,12.7,93.9c6.7,2.9,13.2,4.1,20,6.8C8.7,104.4-1.4,102.8,2.3,80.8Z"/><path class="cls-3" d="M21.8,588.8C2,593.4.5,586.9,2.3,568.4,19.8,567.8,25.2,568.8,21.8,588.8Z"/><path class="cls-4" d="M2.3,298.2c18.5-1,80.9-4.5,35.6,5.9C32,301.7-2.6,317.4,2.3,298.2Zm16,2.4c.3-2.2-1.6-.9-3.1-.8C15.2,301.7,17,300.6,18.3,300.6Z"/><path class="cls-2" d="M2.3,440.8c8.6,1.4,19.6-2.5,23.5,7.8C10.3,454.2-1.5,464.1,2.3,440.8Z"/><path class="cls-3" d="M742.8,720c-7.7-15.7,22-5.2,30.5-7.4C801.9,724.5,755.3,718.8,742.8,720Z"/><path class="cls-4" d="M49,207.4c-17.2,3.5-30.7,1.1-46.7,3C-3.7,194.2,51.1,200.5,49,207.4Z"/><path class="cls-2" d="M36,201.9c-11.7-2.7-37.7,3.8-33.7-13.4,2.2-.3,4.5-.6-2.3.2C19.5,194.1,62.3,193.5,36,201.9Z"/><path class="cls-4" d="M2.3,662.2c13-.6,26.3-5.1,39.1-2.3C36.9,671.2-3,679.2,2.3,662.2Z"/><path class="cls-3" d="M2.3,602.3l11-2.6C41.1,609.9-6.4,623.7,2.3,602.3Z"/><path class="cls-4" d="M2.3,66.8c23.4-3.3,37.8,1,47.7,9.9C36.6,72.1,6.4,79.3,2.3,66.8Z"/><path class="cls-3" d="M811.5,720c-12-12.7,3.7-10.9,14.7-14.7C828.3,719,825.1,721.7,811.5,720Z"/><path class="cls-3" d="M514.5,720c-4.9-17.6,10-10.1,21.9-10.2C537.2,724.3,524.9,719.3,514.5,720Z"/><path class="cls-4" d="M534.5,720c1.2-19.9,17.6-14.8,23.9,0Z"/><path class="cls-3" d="M943.1,720c1.8-7.2-5.7-34,6.2-29.4C943.2,708.2,962.2,723.4,943.1,720Z"/><path class="cls-2" d="M204.6,720c12.2-1.9,26.8-16.6,33.9,0Z"/><path class="cls-3" d="M632.1,720l28.5-15.5C653.1,721.5,653.4,720.3,632.1,720Z"/><path class="cls-3" d="M2.3,128.6l37.8,7C28.2,132.8,12.3,133.1,2.3,128.6Z"/><path class="cls-3" d="M267.4,720c10-8.8,18.5-6.9,28.9,0Z"/><path class="cls-3" d="M698.9,720c5.6-3.7,9.4-10.3,12.8-13.2C716.4,719.1,710.4,721.5,698.9,720Z"/><path class="cls-3" d="M2.3,370c9.9-6.2,9.5.3,9,9.8C5.1,378.2.7,377.4,2.3,370Z"/><path class="cls-4" d="M587.3,720c.9-3.4.6-10.9,5.5-12.8C602.4,718.9,603.5,721.3,587.3,720Z"/><path class="cls-3" d="M2.3,198.4l27.1,3.4C21.9,199.8,4.2,205.6,2.3,198.4Z"/><path class="cls-2" d="M13.2,173.1,2.3,177.5C3.6,173.5,9.3,172.6,13.2,173.1Z"/><path class="cls-3" d="M955,720c1.3-4,2.5-8,3.8-12C957.9,712.4,962,721.7,955,720Z"/><path class="cls-4" d="M2.3,211.4c3.4,1.4,12.8-.8,12.2,3.6C11,213.6,2.2,215.7,2.3,211.4Z"/><path class="cls-4" d="M2.3,271.2c6.8,1,4.7,1.9,0,5Z"/><path class="cls-4" d="M13.2,173.1c-3.1-1.2-11.3,2.5-10.9-1.6Z"/><path class="cls-3" d="M2.3,173.5l5.1-.5C4.8,174.3,1.4,178.8,2.3,173.5Z"/><path class="cls-3" d="M181.5,201.5c-14.6-29.9,40-16.7,56.1-27.2-7.1-17.6,19.8-1.8,31.8-1.6-4.7,19,19.2,15.5,31.2,21.6-48.9,11.1-27,13.4,14.2,21.7l-46.4,4.7,10.6,4.6c-6.8,10.4-7,7.5,9.9,12.9-30.8-8.1,20.2-15.1-5.6-4.4,17.2-1.3,29.3-.4,6.2-9.2,21.1,2,39.2,1,38.5-18.7,10.7,3.7,24.2-.2,10.3,14.3,7.9.2,41.5-6.6,26.3,1.1l6.6-1.2c-6.1-10.2,13.3,6.6,22.7,5l-23.7,6.7c21.2,5.4,12.4-2.4,14.3,11.7-22.6-6.9-53.4-24.7-70.3,1.8-16.1-7.6-24.7-8.5-44.1-7.5l45.7,16.7c-8.6-19.9,53.9-9.7,12.8,3.1-2.4,11.9-16.3,6.7,17.6,11.4-23.7-.6-15.5,5.3-35.9,17.9-16.7,2.4-33.3-1.4-49.9-2.7,20.7,0,63.9-7.6,37.1-19.6-1.5-.9-3.9-.3-9.5-.6,22.1,6.4-22,24.1-23.5,5.2-22.9-16,15.2-1.5,25-12-22.6-33.7-14.9-2.9-36.1-18.9-15.7-9.5-23.6-3.5-9.8-13.2-12.6,4.5-11.6-5-11.9-13.9,6,17.1,37.5.3,29.7-5.8C253.4,191.6,203.3,205.4,181.5,201.5Zm136.4,32c-.9,2.5,2,1.3,3.6,1.6C322.1,232.9,319.3,233.9,317.9,233.5Zm-38-6.3Zm24.5,5.9c-.5-.1-.3.2-.2.5S304.6,233.3,304.4,233.1Z"/><path class="cls-3" d="M833.1,389.9c-6.4-7.2-8.4-23-10.4-3.4-4.5-15.1-7.9-26.5-12.7-42.4-1.5,15.3,2.4,42.5-17.7,34.3-5.1-11.9-4.6-23.5-12.5-32.9,14.7-5.2-.4-20.7-1.2-31.5-11.7,21.6.8,28.3-24.1,48.5-4.7-15.5-9.5-39.9,6.6-64.7l7.5,4.8c-4.3-16.8,27-1.7,37.3-4.2,15.4-13.8,32-1.3,33.6,17.6-3.8,17.1,5.7,27.2,8.6,44.5-3.5-16.4-1.4-72.7,5.3-47.5.9,8.9,6.8,15,12.3,21.5-16.2,5.5-4.6,29.7-11.4,42.5-15.3-11.4-12.6-55.2-21.6-22.8,4.6,18.5,2.9,30.6,7.9-.4-2,27.2,4.2,24,3.7,41.6,6.3,1.8,12.6-6,11.3,5.3-8.3,2.9-23.6,18.7-27.6,4.8C831.3,393.8,849,402.6,833.1,389.9ZM815,313.7c-5.7-7.1-14.4,13.3-7.4,14.1Zm-28.5,41.5c.3-.2.3-.2-.1-.4Z"/><path class="cls-4" d="M857.4,344.8c2.3-13.2,12.6-8.2-1.2-22.4-8-18.4,25.9-12.1,19.6,7.8,14.1-4.2-9.7-25.6-8.5-37l33.7,2.5c-113.7-13.4,16.4-22.4,57.8-18.7C974.1,362.2,920.2,336.5,857.4,344.8Zm31.4-58.9c-3.8-4.2-4.8-4-8.1-.6C884,287.7,884.7,290.1,888.8,285.9Z"/><path class="cls-3" d="M957.8,631.3c-4.8-4.6-16-4.2-10.2,1.9-2,6.8-10.6,18-9.6,24.5-20.1,0-55.1-6.3-37.4-33-10.6-1.6-30.4-20.3-15.7-26.5,9.2-7.3,2.7,28,21.8,6.7,15.6,35.3,37.4,18.9,38.6-14.6,4.3-25.1-29.7-11.1-31.5,8.6-17.7-20.4,7.8-7.6,6.7-27.9-17.1-1.3-17,10.7-30.3,18.9-22.8-54.6,29.9-19.3,58.9-39.3C954.3,574.6,959.4,599.1,957.8,631.3Z"/><path class="cls-3" d="M858.1,599.5c-14.9-21.1-1.8,2.2-9.9,11.8-33.5-.6,4-30-57.2-23.9-2.1,22.2,23.5,14.8,37.3,13.7,4.3,18.1-12.6,12-24.7,15.4-2.9.6-7.4,4.7-7.2,6.7,6.1,51.2-25.9-24.1-8.5-45.5,23.4-6,41.1-21.5,45.5,15.9,9.6-19.4,26.6-27.2,17.1-36.7,6.5-2.5,30.7-11,13-7.2,32.4-10.5,2.9-20.6,2-29.7-9.3,6.9-22.5,10.5-6.5,1.7-17.6-6.7-3.1-10.7,6.5-20,1.9,30,11.7,10,17.9-3.4,13.3,28.2-1.7,56.1-4,86.2C854,593.5,878.3,592.3,858.1,599.5Zm20.4-42.4c-21.7,1.8-16,11-23.4,24.9C863.4,582.5,867.8,567.5,878.5,557.1Z"/><path class="cls-3" d="M576.3,547.4c-56.7-19.5,25.2-10.1,22.4-20.7-15.2,1.4-81.8,10.2-49.5-13.4-12.3,2.3-29,3-44.6,7.3-3.2-18.6,60.4-16.6,76.2-6.9,11.3-10.5,27.5-7.9,41.9-10.1-17.4,35,21.5,53.6-31.8,81.2,15.4,1.6-26.2,12.9-4-11.6-9.7,8.1-13.6,11.8-15.7-3.1.3-8,8.4-35.4,13.1-17.7-5,5.5-.5,9.5,5.4,10.4,9.6,0,24.4-8.3,7.9-10.6C619.9,538.3,558.8,533.8,576.3,547.4Zm11.8-33.8c11.6,3.2,17.1,11.9,22.4-.2C600.7,510.7,598.1,503.6,588.1,513.6Z"/><path class="cls-3" d="M755.7,418.8c5.6-19.5,42.9-13.6,36.9,9.3,23.4,4.4-4.9,12,1.1,17.5-14.2,6-66.8-2.9-55.3,17.2-6.8,1.6-18.5-3.9-23.4,3.9-35.6-30.1-6.5-16.6-59-22.9,27.2-7.1,58.3-6.6,75.5-20.8,10.3-35.8,13.8-28.4,22.3-4.3-14.3-.1-8.4,19.3-21.9,27.5,11.9-.4,22.4.5,12.7-10.2C750.9,428.6,758.7,432.5,755.7,418.8Z"/><path class="cls-4" d="M310.8,286.5c39.4-19.6,98.3-1.5,142.1,4.7-68.5,8.4-138.3,16.3-206.4,9,45.1-19.4-2-1.4-28.8-5.6C244.4,270.6,386.6,303.4,310.8,286.5ZM275.2,296c.5,5.4,8.5-.8,12.3-.9C285.8,292,278.8,296.2,275.2,296Zm13.8,4c0-1.2-5.6-1.6-5.1,0Z"/><path class="cls-4" d="M493.6,418.4c-45.4-10.8,34.5-16.9,52.2-10.3,29.8-15.9,91.5-15.4,102.9,14.8C593.4,415.5,545,419.1,493.6,418.4Zm38-.3c-.1-.8-.4-.9-1.1-.7S530.8,418.6,531.6,418.1Z"/><path class="cls-3" d="M720.8,517.6c-20-3.3-16.9-11.8-29.9,10.3-.3-22,25-69.6,51.3-47.3,7.5-13.3,26.9-30,41.7-22.3-70.3,12.2,21.6,60.4-48.3,57,9.5-11.3,11.9-10.4-7.4-15.3,13.9-2.3,28.1,2.1,32-3.7C684.9,490.2,749.4,511.5,720.8,517.6Zm-4.7-5.2c11.2-6.8,8.3-7.5-2.8-8.3C706.7,506.6,711.2,509,716.1,512.4Zm44.1-8.5c-.4-.1-.9-.5-1,.1S759.9,504.6,760.2,503.9Z"/><path class="cls-4" d="M810.6,507.1c22.6-7.8,7.9,7.7,16.7,22.5l-36.1,27.5c101.4-40.3-12.7,60.9-13.6-28.6l11.1-6.8c-17.6,9-10.7-.3-14.6-11,16.4-.4,29,1.2,32.5,14.5C814.5,526.8,813.9,512.3,810.6,507.1Zm3.5,25.4c-4.3-3.8-5.4-5.1-7-1.2C808.3,535,810.5,534.2,814.1,532.5Z"/><path class="cls-4" d="M955,108.8c12.9,15.5-22.7,1.5-13.4,15.3,7.8.1,11-3.5,14.1,2-12.9,19.4-14.3,31.3-38.6,31.5-.5-11.5,16.5-39.7,3.3-39.3,2.7,9.1-15.1,13.9-20.7,20.7-1.9-2.1-8.2-3.8-10.1-2.8-12,5.7-17.2,18.2-29.2,20.4s13.1-40.2,29.3-30.3C909.4,112.5,929.8,107.7,955,108.8Z"/><path class="cls-3" d="M958.8,403c3.1,33.3-45.7,11.4-58.9-5.2-13.2-4.1-29.3,8.7-41.4,12.7.6-3.1-11.5-41.7,7.1-24.7C899.7,388.4,943.8,376.3,958.8,403Z"/><path class="cls-3" d="M671.9,482.7c-9.1,17.3-26.3-3.3-3.5-6.4-4.2-10.5-24.9,0-37.5.5-13.5,11.3-29.8,6.2-33.5-11.7-7.9,11.8-25.4,6.6-10.6-3.9,28.5-.4,105-24.6,92.6,14.9,10-5.2,26.1,2.1,11.7,8.3-9.3-1.8,8.3,26.7-12.4,10.9C688.4,481.1,693.6,472,671.9,482.7Z"/><path class="cls-3" d="M591.2,166.4c5-13.9,8.5-28.9,28.9.6,3.3-22.8,37.8-14,55.4-14.7-18.6,16.4-25.1,25.9,6.5,30.5-2.9,5.2-5.1,17.8-13.3,14.9,3.4,13.8-23.6,14.5-22.5,3.7,15.9.3,11.3-22.9,17.9-8.2-1.2-19.8-16.3-1.5-21.9-6.7C665.9,160.7,625.9,185.7,591.2,166.4Z"/><path class="cls-3" d="M958.8,277c-29.5,0-59.1-.3-88.6.4-7.5,6.7-52.9,11.8-42.8,2.9-2.6-3.8-2.7-10.2-8.7-6.5-26,6.8-23.1.3-.3-6.8,57.5-13.5,31.5,12,72.7,1.5,18.8,1.8,22.2-1.5,35.7-9.1C937.5,264.6,961.9,261.3,958.8,277Zm-106.3-2.9c2.6.3,1.3-2,1.2-3.8C851.3,270,852.6,272.5,852.5,274.1Z"/><path class="cls-4" d="M751.8,472.4c6.4-5.2,37.5-12,27.8-17.3-14.5,2.2-26.2,18.2-29.6-5.3-2.9,21.7,10.4,9.6-7.8,30.8-12.7-15.5-40.1,10.5-24.3-17.8,10.8-1.2,26,4.8,16.1-8.8,21.7-6,46.4-5.4,67.5-9.2,9.3,13.4-4.3,9.4-17.4,12.9,11.2,1.1,7.3,3,5.8,9.7,44.3-18.9-9.5,36.9-2.9,7.6-6.8-1-13.7-1.3-29.4-2.3C785.3,483.3,761.4,484.5,751.8,472.4Zm13.5-2.9c0,6.2,9.2.3,13.4.6C776.6,465.5,769.6,469.9,765.3,469.5Zm-19-7.4c-1.4-1.7-2,0-2.9,1.3C744.5,464.9,745.3,462.9,746.3,462.1Zm10.1,9.9c-.3-.1-.4-.1-.4.3S756.5,472.4,756.4,472Z"/><path class="cls-4" d="M796.5,278.3c80.5-9.6-30,17.4-59.3,18.2,29.4-14.2-42.2.4-52-8.7,24.7-14.3,120-26.3,48.4-6.9,14,.5,78.8-8.9,59-6.7C779.3,277.5,789.8,277.5,796.5,278.3Zm-15.3-1.2q.4-.3,0-.6C781,276.8,780.6,277,781.2,277.1Z"/><path class="cls-3" d="M846.9,218.3c9.6,7.1,2.3-6.7,3.9-2.7,1.5-4.4,2.5-6.7,3.1-9.2-5.2-3.8-20.7,1.4-29.3-6.7,17.7,2.6,24.9-6.6,46,.7,4.8.4,11.2,6.3,13.6-.4,4-7.3,39.6,7.5.6,7.4l-17-3.9c13.1,9.9,13.6,10.7,36.1,18,.3-11.2,45.4-35.4,36.5-2.4-13-3.1-13.8-9.3-22.9,6.2C905.7,221.9,838.1,233.3,846.9,218.3Z"/><path class="cls-3" d="M520.5,255.3c-9,.2,5.3-10.7-8.8-8.8,0-6.5,5.8-7.9-3.1-10.6,5,15.1-48.3,15-47.1,1.9,20.7-14.7,38.3-6.2,47.2-25.1,8.1,2.1-1.3,8.9,3.3,12.7-9.3,9.2,6.4.7,8.2-7.5,8.1.3,33.8.2,23.8,12.2-2.8,5.1-1.3,7.5-8,3.5C546.6,258.3,524.2,236.2,520.5,255.3Z"/><path class="cls-3" d="M957.1,424.8c.6,8.4,1.1,16.7,1.7,25-22.7-7.1-76.2-3.6-83.7-16.3C880.6,422.8,937.9,425.5,957.1,424.8Z"/><path class="cls-4" d="M571.2,570.1c5.1,42.7-77.8,9.9-108.6,12.3C494.5,569.3,535.9,574.1,571.2,570.1Z"/><path class="cls-3" d="M719.8,313.1c-6,12.2-17.9,35.3-24.5,37-3.7-11.8,2.3-15.5-3.4-34.2l-1.1-1.5c9,3.7,7.4,2.3,9.6-4.2,5.8-6.8,19.6-7.9,36.5-9l-3.8,5c19.8,1.2-2.2,9.8,5.3,24.8,7.2,23-12.2,32.1-24.2,41.2,1.5-10.8,13.9-19.6,13.8-26.1C725.9,337.6,729.3,311.7,719.8,313.1Zm14.8,25c4.5-.3.1-5-.2-7.8C730.9,330.7,734.6,335.7,734.6,338.1Z"/><path class="cls-3" d="M763.6,482.9c10.7-3.9,10.1-3.3-6-10.2,19.1,3.9,32.3-5.8,28.9,12.3,28.6-16.3,5.5,1.7-8.8,7.6,18.7-2.2,49.4,20.4,28.9,32.6C797.2,503.2,765.8,518.8,763.6,482.9Z"/><path class="cls-4" d="M613.5,257.7c-9.2-12-17.2-20,7.7-25.6,7.8-1.8,24.2-19.9,22.9-3.7,1.7-3.7,2.2-5,3.1-6.9,6.2,9.8-18.3,9.3-8.8,19.6,9.6,4,64.2-2.9,43.7,3,39.6,6.5,8.2,6.2-12.7,3.2-9.4,7.9-20.4,7.9-32.2,8-2.8.8,3.2,10.8.3,11.6C628.6,266.3,616.8,269.5,613.5,257.7Zm8.8-5.1c.8-1-.7-1.1-1.5-1.5S621.5,252.2,622.3,252.6Z"/><path class="cls-4" d="M455.4,600.3c-11.5,12-23.1,19.4-36.4-2C431.9,574.2,465,546.9,455.4,600.3Z"/><path class="cls-3" d="M705.7,248.6c-25-6.5-14.3-2.3-37.6-13.1,18.2-23.4,75.2-18.6,32.5-12.5-12.5-.8-11.9,17.7-.2,18,15.8,13.1,14.6,4.8,24.5,9.4,18.1,11.8,35.3-11,55.7-1.1C758.2,250.7,712.9,276.7,705.7,248.6Z"/><path class="cls-3" d="M918.1,158.8c28-6.5,21.4-9.3,37.6-32.7l-2.4-3.1c-21.7,3.4-11.3-8.5,5.4-7.1-3.5,17.1,11,60.8-15.4,39.3,8.3,22.4-23,22.7-39.9,25.8C892.3,159.7,932.8,183.4,918.1,158.8Z"/><path class="cls-3" d="M958.8,522.4c.8,32.3-37.1,10.8-58.3,24.5C881.7,530.4,930.4,518.3,958.8,522.4Z"/><path class="cls-3" d="M621.2,232.1c-13.2,0-15,14.1-27.1,12.8,16.8-6.6-7.9-2.5-12.4-3.7,2.4,9.3,3.2,5.8,16.5,8.9-30.4,2.6-48.4,6.6-32-25.5C582.2,227,613.6,214.8,621.2,232.1Z"/><path class="cls-4" d="M895.1,540.7c12.4,14.4,45-11.6,60.7,3.1C945.3,565,854.8,564.3,895.1,540.7Z"/><path class="cls-3" d="M869.3,154.6c4.2-8.7,20.1-24.1,30.4-15.6,5.7-6.8,23.4-11.6,20.7-20.7h5.9C926.3,158.6,895.9,169.9,869.3,154.6ZM911,136.5c-.5-.5-1.2-1-1.3.1S910.6,137.7,911,136.5Z"/><path class="cls-4" d="M580.4,277.3c96.5-3,135.3,13.4,12.6,13.8C588.4,289.7,583.9,281.4,580.4,277.3Z"/><path class="cls-3" d="M771.6,228.4c-52.6,1.2,2.7-19.7-39-33.5,15.1,3.9,63,2.3,53.4,7.6-15.5,2.7,2.4,5.2,3.9,7.4C775.9,220.3,768.3,203.3,771.6,228.4Z"/><path class="cls-4" d="M464.6,246.1c24.3,2.1,26.9-5.9,51.3,6.1-2.6,25-85-18.3-90.2,12,51.9,4.2,14.3,8.5-10.7,8.4C411,251.3,441.6,250.5,464.6,246.1Z"/><path class="cls-3" d="M839.4,226.4c23.2,16.7-40.3,15.4-39.9,5.4,11.6,1.7,22.9,2.1,34.7,2.6-12.1-6.7-61.8-13.5-25.6-20.2C806.7,171.9,811.5,206.3,839.4,226.4Z"/><path class="cls-4" d="M469.8,285c10.6,3.5,97.6-9.3,62.6,6.6C510.1,300,416.2,289,469.8,285Z"/><path class="cls-4" d="M720.8,517.6c47.6-18.4,63,23.6,11.7,10C725.9,540.9,718.5,526.9,720.8,517.6Z"/><path class="cls-4" d="M801.7,637.6c-15.4-21.9,9.9-23.4,26.5-24C849,635.8,811.5,634.2,801.7,637.6Z"/><path class="cls-3" d="M784.4,670.9c12.9-61.6,21.1,10.5,13.9,32.6C790.6,720.2,787.4,677.6,784.4,670.9Z"/><path class="cls-4" d="M681.7,437.7c-69.2,26.2-60.7-27.8-7.7,1.1C658.4,426.5,682.9,427,681.7,437.7Z"/><path class="cls-4" d="M557.3,251.2c13.1,1.5,39.7-4.4,44.8,8.4-26.9.3-103.9-17.2-57.6,5.9C486,280.1,520.4,235.4,557.3,251.2Z"/><path class="cls-3" d="M807.3,464.9c-34.7,2.6-1.8-3.1-23.2-7.2,13.1-3.5,26.8.5,17.4-12.9,15,5,15.1,18,25,29.6,2.2-21.6,24.1,6.5,6.2,7.8-3.7.4-8.7-3.1-11.3-1.7-23.2,12.8-3.4-8.5-8.3-10.5C810.3,469.2,811.3,459.6,807.3,464.9Z"/><path class="cls-4" d="M828.3,601.1c-28.5,11.3-60-17.8-13.5-13.7,1.2,0,2.3,2.6-1.9-2.6C827.3,592.4,829,589.3,828.3,601.1Z"/><path class="cls-3" d="M856.7,151.3c3.3,15.3-32.9,18.7-11,5.2-10.6,2.6-21.8,12.8-22.5.8-15.5,2.5-17,6.2-20.3-8.4C820.6,149.8,843.7,149.9,856.7,151.3Z"/><path class="cls-4" d="M303.2,539.6c-36.3,33.2-16.5-16-15.3-39.2,0,3.8,3.8.9,6.1.5C296.4,511.8,284.7,545.5,303.2,539.6Z"/><path class="cls-4" d="M329.2,273.3c-15.2-4.5,12.9-2.9,17-4.3-11.7-.5-41.1-4.8-14-6.8,34.6,3.2,26.2,8.7,74.8,2.8C385.4,280.4,354.5,268.1,329.2,273.3Z"/><path class="cls-4" d="M177.7,458.8c-7.9,3.9-42.3,11.4-21.8,1.5,11.9-5.4-2-10.2-1.7-18.3,6.4,4.3,17.7.5,22.4-1.4C180.9,448.3,194.2,461.3,177.7,458.8Z"/><path class="cls-3" d="M532.4,291.6c28-5.8-6.1-8.9-18-10.6C554.9,267.8,606.4,295.5,532.4,291.6Z"/><path class="cls-4" d="M879.3,507.6c-20.2,30.2-1.7-24.7-30.7,8.1-7.9-22.7,10.6-17.8,22.3-30.5C872.6,493,876,500.3,879.3,507.6Z"/><path class="cls-3" d="M635.1,529.5c.8-11-1.1-28.7,13.8-19.8C655,530.6,654.1,562,635.1,529.5Z"/><path class="cls-3" d="M739.7,533.4c51.3-16.3,19,.4,29.7,16.3C795.6,583.9,751.6,545,739.7,533.4Z"/><path class="cls-4" d="M850.7,260.2c-78.7-18.1,15.7-11,49.9-12.3C897.7,259.1,825.4,245.5,850.7,260.2Z"/><path class="cls-4" d="M650.8,208.5c23.6,2.2,12.5-11.1,22-9.6,11.2-18.8,6.7,5.1,12.2,3.1,2.8-.9,32.3,12.7,13.8,7.5C685.4,208.7,683.2,222.2,650.8,208.5Z"/><path class="cls-4" d="M790.5,409.7c-11.3-.8-22.6-4.1-33,2.1C767.3,386.9,774.2,393.1,790.5,409.7Z"/><path class="cls-4" d="M858.1,599.5c20-7.1-4-6.1,21.3-15,1.7,3.8,5.9,10.1,5.5,13.7C870.6,604.4,863.2,622.1,858.1,599.5Z"/><path class="cls-3" d="M758.6,703.8c1.1-10.4-7.6-27.9-.3-34.7C775.9,675.7,774.1,701.1,758.6,703.8Z"/><path class="cls-3" d="M709.3,645.9c-20.5-24.5,4.3-22.3,17.9-10C733.1,648.1,709.1,645.3,709.3,645.9Z"/><path class="cls-4" d="M855.2,383.2c.4,21.8,5.5,9.7-10.9,12.2.5-17.6-5.7-14.4-3.7-41.6C833.5,407,833.4,319.8,855.2,383.2Z"/><path class="cls-4" d="M887.2,619.3c27.5,8.9-2.3,9.8,5.9,22.8C881.9,635.7,863.6,608.7,887.2,619.3Z"/><path class="cls-4" d="M706.9,251.1c21,22.1-67.1,10.6-34.7,9C638,249.5,693.5,254.6,706.9,251.1Z"/><path class="cls-3" d="M648.7,564.9c-.2,17.4-5.1,15.7-18.2,13.7C636.7,562.6,636.9,538.9,648.7,564.9Z"/><path class="cls-3" d="M337.1,460.7c6.2,16.9,12.2,37.2,3.6,54C330.6,500.6,340.3,477.9,337.1,460.7Z"/><path class="cls-3" d="M661.3,212.2c3.2.9-13.1,21.5-14.1,9.3-.9,1.9-1.4,3.2-3.1,6.9-.7-13.8-22.9-2.7-37.2-6.1l31.2-13.2-2.9-.7C623.9,221.6,653.5,211.2,661.3,212.2Z"/><path class="cls-3" d="M840.9,667.7c-.9-9.5-12.6-26.8-7.3-32.6C866.9,661.4,853.4,723.2,840.9,667.7Z"/><path class="cls-4" d="M548.5,530.5c16.9,0,36.1-5.3,52-2.5C589,530.2,555.8,541.3,548.5,530.5Z"/><path class="cls-4" d="M675.7,409.1c14.1,17.9-32,21-22.7,6.2C671,417.2,647.3,399.3,675.7,409.1Z"/><path class="cls-4" d="M757.6,255.3c16-3.5,38.4-14.2,49,3.9C790.5,265.6,774,257.2,757.6,255.3Z"/><path class="cls-3" d="M786,183.9c-1.1,13.8-19.6,9.2-36,8.6C759.5,192.6,788.1,163,786,183.9Zm-2.4-6.1h0C784.1,177.7,783.7,177.5,783.6,177.8Z"/><path class="cls-3" d="M456.2,253.1l38.5,6.9c-12.5-.9-65.3,8.7-23.9-5.2-15.6,1.8-38.8,10.3-25.4,6.2C424.2,258.1,444.4,257.3,456.2,253.1Z"/><path class="cls-3" d="M832.5,544.4l-41.3,12.7C812,545.5,827.7,515.9,832.5,544.4Z"/><path class="cls-4" d="M760.2,246.3c-54.6,27.7-21.5-20.5-14.5-5C749.4,242.9,764.4,235.4,760.2,246.3Z"/><path class="cls-4" d="M694.2,691.7c-3.9-5.6-8.1-18.9,2.6-9.8C712.3,636.2,718.3,695,694.2,691.7Z"/><path class="cls-4" d="M374,519.6c-.1-14.2,18-8.8,28-11.5C393.2,510.6,381.8,522.9,374,519.6Z"/><path class="cls-4" d="M693.8,473.6c-24.2,7.9-8.5-13.3,4-20C710,459.9,699.2,465.8,693.8,473.6Z"/><path class="cls-3" d="M396.8,272c23.9-21.2,13.5-.8,25.3-.6C403.6,278.2,399.2,287.1,396.8,272Z"/><path class="cls-3" d="M568.4,570.5l-31.8,1.4C538.1,553.4,556.5,570.4,568.4,570.5Z"/><path class="cls-3" d="M846.5,170.5c19.8,2-13.8,32.3-3.6,4.5C820.2,174.3,827.7,161,846.5,170.5Z"/><path class="cls-3" d="M240.7,366.6c14,5.9,13.4,11.5,10.7,23.9C244.9,382.2,232.2,379.1,240.7,366.6Z"/><path class="cls-3" d="M847.2,496.9c.8,10.4,4.5,33.3-11.8,23.4C839.3,514.7,841.5,493.2,847.2,496.9Z"/><path class="cls-3" d="M510.5,573.5c-10.2-1.2-34.3,10.1-29.1-6C490.5,569.8,508.8,561.5,510.5,573.5Z"/><path class="cls-4" d="M671.9,482.7l19.3-7.5C682.7,495.4,662.7,507.9,671.9,482.7Z"/><path class="cls-4" d="M913.3,264.7c3.7,9.5-30,2.1-40.3-1.1C889.7,260.9,899.5,260.7,913.3,264.7Z"/><path class="cls-4" d="M741.8,434.8c2.6-8.1,2.7-18.9,13.9-16C758.6,430.3,749.7,433.9,741.8,434.8Z"/><path class="cls-3" d="M377,510.5c-2.8,15.5-10.2-3.9-15.3-7C368.8,494.3,381.8,496.3,377,510.5Z"/><path class="cls-3" d="M507.3,510.7c-15.6,6.7-42.2,21-38.9,5.1C478.1,514,488.1,513,507.3,510.7Z"/><path class="cls-3" d="M708,210.6l-17.2-6.1C693.9,193,732.3,204.5,708,210.6Z"/><path class="cls-3" d="M789.6,217.4c2,8.7,1.9,12.8-7.9,13.4C777.3,220.7,778.5,218,789.6,217.4Z"/><path class="cls-3" d="M742.4,566.3l32.1,10.4C755.9,573.3,725.7,581.2,742.4,566.3Z"/><path class="cls-4" d="M519.4,602.1c10.5,11-4.6,10.2-13.5,14.8C506.3,604.6,508.6,603.1,519.4,602.1Z"/><path class="cls-4" d="M798.1,404.5,821,414.6C814.4,435.3,818.2,423.8,798.1,404.5Z"/><path class="cls-3" d="M599.4,680.2l20.8-10.1C615.6,676.6,603.3,693.7,599.4,680.2Z"/><path class="cls-1" d="M846.5,170.5c-30.7-9.3,12.8-5.3,24.9-1.7C866.9,173.2,853.9,169.1,846.5,170.5Z"/><path class="cls-3" d="M838.6,675.2c4.2,10.3,9.1,16.4-6.3,19.1C834.4,688.1,829.9,674.8,838.6,675.2Z"/><path class="cls-3" d="M821,393.1c3.1-12,5.5.4.8,5.7C807.1,404.1,796.9,385.2,821,393.1Z"/><path class="cls-3" d="M825.6,438.6c9.8-4.6,13.5,10.7,6.4,17.6C826,452,824.6,445.4,825.6,438.6Z"/><path class="cls-3" d="M678.7,509.9c-3-2-28.7-2.6-19.2-11.5C665.1,505.7,706.5,501,678.7,509.9Z"/><path class="cls-4" d="M562.1,260.7c12,.2,23.9.6,35.8,0C592.1,270.3,567,268.8,562.1,260.7Z"/><path class="cls-4" d="M841.9,477.6C832,466,826.7,455,844,473.2l-.7-1.5c5.1-1.1-1.8-7.7-2.4-11.2C847.3,451.1,851.5,476.2,841.9,477.6Z"/><path class="cls-3" d="M469.8,285c-10.6.8-19.3-1.1-28.2-7.2C450.9,280.1,474.1,271.5,469.8,285Z"/><path class="cls-3" d="M850.4,289.2c7.3,2.8,18.8.5,18.1,10.7C858.6,297.6,838.2,303.4,850.4,289.2Z"/><path class="cls-4" d="M816.5,169.5l-9.6,16.4C795.5,176.4,808.7,174.9,816.5,169.5Z"/><path class="cls-4" d="M845.6,339.9c5.1,37-2.4.7-8-16.8C840.6,306.1,842.6,334.1,845.6,339.9Z"/><path class="cls-3" d="M740.5,578.1l17.6,4.5C749,583.7,737.6,593.7,740.5,578.1Z"/><path class="cls-3" d="M636.1,264.4c-16.8-12,9.3-8.4,18.2-6.3C647.9,259.3,641.6,260.4,636.1,264.4Z"/><path class="cls-3" d="M721,536.5c-4.9,3.9-10.2,9.8-13.3,1.8C711.1,526.4,713.2,525.6,721,536.5Z"/><path class="cls-3" d="M683,626.4c8,2.1,17.4-.3,6.4,5.6C691.2,657.4,686.9,643.8,683,626.4Z"/><path class="cls-3" d="M93.9,535.6c-13.4.3-35.6,11.7-44.8,6C62.8,541.1,83.8,531.2,93.9,535.6Z"/><path class="cls-3" d="M666.1,650.3c-4.8-7.6-13.2-16.5,5.7-15.3C669.7,639.1,673.7,650.6,666.1,650.3Z"/><path class="cls-3" d="M958.8,246.2c2.4,11.2-13.5,4.5-20.7,6.2C935.7,241.2,951.6,247.9,958.8,246.2Z"/><path class="cls-4" d="M774.4,551.4c-7.9-.8-9.7-9.9-14.2-15.3C769.5,538.6,775.7,540.7,774.4,551.4Z"/><path class="cls-3" d="M718.8,698c-3.9-14.7,16.1-15,10-.7C726.7,691.2,722.6,696.9,718.8,698Z"/><path class="cls-3" d="M536.2,255.9c-31.7,4.8,15.1-7.8,13,1.3C541,256.8,537.8,258.4,536.2,255.9Z"/><path class="cls-3" d="M592.1,266.9c3.7-5.6,8-7,14.6-5.7C601.5,266.5,598.6,275.7,592.1,266.9Z"/><path class="cls-4" d="M937.1,202.6c-1.7-6.5,16.2,1.2,21.7.7C955.9,218.7,946.4,206.6,937.1,202.6Z"/><path class="cls-3" d="M567.3,265.6l22.2,1.3Z"/><path class="cls-3" d="M875.1,312.1c1.2,6.6,11.7,17.4.7,18.1C876.3,325.1,871.1,313.9,875.1,312.1Z"/><path class="cls-3" d="M694.2,691.7c18.3-1.4-4.3,4.8,5.9,9.9C684.6,702,680.6,702.6,694.2,691.7Z"/><path class="cls-3" d="M630.2,544.6c-.2-6-10.1-18.4-2-19.7C628.3,530.8,637.7,542.9,630.2,544.6Z"/><path class="cls-3" d="M848.2,472.5c-.4-5.4-5-15,3.5-12.4C852.7,465.2,855.5,471,848.2,472.5Z"/><path class="cls-3" d="M758.6,230.9l15.9,6.1C770.7,245.4,763,239.1,758.6,230.9Z"/><path class="cls-3" d="M504.5,520.5l-9.2,12C492,522.9,496.3,521.5,504.5,520.5Z"/><path class="cls-4" d="M783.7,162.3c5.6.5,23.3-.8,9,1.8C802.4,171.8,780,164.5,783.7,162.3Z"/><path class="cls-3" d="M195.2,504.4c4.5-4.6,6.8-.8,10.8,1.6C200.1,511.1,198.1,513.9,195.2,504.4Z"/><path class="cls-3" d="M707.9,337.1l12.6,2C711.6,342.9,703.5,351.2,707.9,337.1Z"/><path class="cls-3" d="M707.7,690c-1.6-3.6-3.3-7.1-4.9-10.7C712.5,678.2,709.8,682.8,707.7,690Z"/><path class="cls-3" d="M895.7,178.5c-1.6-4.3-10.9-9.6-5.1-13C892.8,169.9,902.8,175.2,895.7,178.5Z"/><path class="cls-3" d="M580.4,277.3c1.7,2.3,3.4,4.5,5,6.8C579.2,281.2,568.2,280.1,580.4,277.3Z"/><path class="cls-4" d="M820.9,467c-.4-4.2-.9-9.1-1.2-14C824.7,455.1,830,466.5,820.9,467Z"/><path class="cls-3" d="M637.4,444.4c6.3-.6,13.9-1.6,8.4,5.7C642.1,449.5,634.9,450.3,637.4,444.4Z"/><path class="cls-3" d="M874.3,188.5l13,7.9C880,201.5,875.9,195.2,874.3,188.5Z"/><path class="cls-3" d="M840.9,460.5c.6,3.5,7.5,10.1,2.4,11.2l.7,1.5C835.6,467.2,833.3,463.9,840.9,460.5Z"/><path class="cls-4" d="M839.4,226.4c-8.4-8.7-.3-3.1,4.1-8.9C850,217.2,843.1,226,839.4,226.4Z"/><path class="cls-3" d="M745.7,238.3c-4.7-2.4,6.9-5,9.3-7.1C759.1,237.8,750.2,236.4,745.7,238.3Z"/><path class="cls-4" d="M877.6,196.7c3.6,1.4,8.8,3.4,4.2,6.7C874.5,201.5,866.7,201.1,877.6,196.7Z"/><path class="cls-4" d="M643.1,260.4c4.7-.5,9.7-3.3,14.2-1.3C652.8,267.4,649.3,263.1,643.1,260.4Z"/><path class="cls-3" d="M448.7,284.6c.3,2,2.1,4.4-1,4.2C436.5,289.5,439.9,286.7,448.7,284.6Z"/><path class="cls-4" d="M833.1,389.9l7.7,7C836,404.2,833.7,394.8,833.1,389.9Z"/><path class="cls-3" d="M712,673.2c-.4-3.1-.7-6.3-1.1-9.4C715.2,667.5,717.7,669.5,712,673.2Z"/><path class="cls-3" d="M778.5,529.7c.4,4.6.8,9.1,1.3,13.7C779.3,538.8,778.9,534.3,778.5,529.7Z"/><path class="cls-4" d="M810.4,189.6c-.5,1.1.9,4.1-1.8,4.8C793.6,197.5,800,191.7,810.4,189.6Z"/><path class="cls-3" d="M505.6,283.4l-7.2.6C502.3,279.7,504.1,275.4,505.6,283.4Z"/><path class="cls-3" d="M825.4,518.7c-8.6-2.2-3.3-5.9.1-11C825.5,511.3,825.4,515,825.4,518.7Z"/><path class="cls-3" d="M197.1,519.1l-7.6-5.1C191.8,510.3,200.3,516.8,197.1,519.1Z"/><path class="cls-4" d="M786,202.5c3-1.2,5.7-3,8.7-.9C792.1,205.9,789.6,205.1,786,202.5Z"/><path class="cls-4" d="M818.4,267l-9.7,4.4C813.2,269.9,812.6,264.3,818.4,267Z"/><path class="cls-3" d="M783.5,164.6c3,1.3,8.2.9,4.4,4.7S784.6,167.7,783.5,164.6Z"/><path class="cls-3" d="M698.8,209.5c8.7,1.4-2.5,3.6-5.8,5.8C692.2,212.2,697,211.4,698.8,209.5Z"/><path class="cls-4" d="M552.4,279.2l-5.7,2.4C545.8,274.6,541.1,278.5,552.4,279.2Z"/><path class="cls-3" d="M743.6,214.8c-1.1,2.6.4,8.9-3.5,7.6C741,219.4,738.9,212.9,743.6,214.8Z"/><path class="cls-4" d="M800.2,189.7c-2.8-1-7.7-.9-5.2-4.5C798.1,186,802.4,185.6,800.2,189.7Z"/><path class="cls-3" d="M492.8,284c-2.6.4-3.4-7.4-3.4-5.9C487.5,276.7,494.8,279.9,492.8,284Z"/><path class="cls-3" d="M804.6,637.4l10.9-1.1Z"/><path class="cls-4" d="M888.8,205.7c2.3.6,8.2-1.8,8.4.8C895.4,207.8,891.3,205.7,888.8,205.7Z"/><path class="cls-3" d="M794.6,149.6c2.4-1,1.8,1.9,3.1-.1C805.1,147.5,794.4,159.2,794.6,149.6Z"/><path class="cls-3" d="M862.2,156l7.1-1.4C867.8,157.3,864.9,156.4,862.2,156Z"/><path class="cls-4" d="M877.4,207.9l-9.6-4.4C881.1,206.9,890.1,207.5,877.4,207.9Z"/><path class="cls-4" d="M783.6,198.5c-2.3,1.5-6.7,3.8-8.3.9Z"/><path class="cls-3" d="M779.8,544.4c.8,1.5,1.5,3.1,2.3,4.6C777.7,548.6,777.2,548,779.8,544.4Z"/><path class="cls-3" d="M827.8,197.8c-1.9-.3-5,1.2-4.8-1.8C825.4,195.9,828.4,194.2,827.8,197.8Z"/><path class="cls-3" d="M843.5,217.5c-2.4,4.5-5.4,1.2-9.8,0Z"/><path class="cls-3" d="M777.1,526.1l11.6-4.4C779.6,526.3,777.9,531,777.1,526.1Z"/><path class="cls-3" d="M797.1,165.6l-4.4-1.5C797.7,163.2,801.3,161.1,797.1,165.6Z"/><path class="cls-3" d="M624.1,668.1c1.5-2.1,2.3-4.1,4-1Z"/><path class="cls-4" d="M438.6,261.5c-.5,2.1-3.4-2.1-4.8-2.7A32.6,32.6,0,0,1,438.6,261.5Z"/><path class="cls-3" d="M678.5,152.2l4,2.9Z"/><path class="cls-3" d="M646.1,261.2l4.2,3.7Z"/><path class="cls-3" d="M905.3,264.1l-3.4-3.6Z"/><path class="cls-3" d="M710.9,226.3c-1.1,1.1-1.8,3.9-3.4,2C708.6,226.9,709.1,224.4,710.9,226.3Z"/><path class="cls-3" d="M544.1,591.9l6.6,1Z"/><path class="cls-3" d="M562.1,260.7c.7,4.3-.8,1.9-6.7,1.1Z"/><path class="cls-3" d="M470.9,579.6h0Z"/><path class="cls-4" d="M814.5,456.7l1.1-4.1Z"/><path class="cls-3" d="M687.6,437.4c5.3-1.3,1.6.4.9-1.2S689.5,434.7,687.6,437.4Z"/><path class="cls-3" d="M760.7,478.7c.9,1.3,1.8,2.7,2.8,4C762.5,481.4,761.6,480,760.7,478.7Z"/><path class="cls-3" d="M680.2,200.2c1.9.1,3.9-.3,4.8,1.8C683.9,201.3,678.9,201.4,680.2,200.2Z"/><path class="cls-4" d="M847.7,225c1.1-3.2,1.9-1.6,3.6.3Z"/><path class="cls-4" d="M568.4,279.6l-6.6-2.4C564.3,277.3,572.8,275.5,568.4,279.6Z"/><path class="cls-3" d="M724.7,217.2c1.4.2,4.2-1.4,3.9.7C727.2,217.8,724.4,219.4,724.7,217.2Z"/><path class="cls-3" d="M733.8,232c-1.4.5-2.7,1.3-3.2-.1C731.6,229.9,731.4,230.2,733.8,232Z"/><path class="cls-4" d="M852.4,218.4c-1.6,3-2.6,2.2-4.5-.1C849.4,218.3,850.9,217.9,852.4,218.4Z"/><path class="cls-3" d="M715.6,248.4c.1-1.2.3-2.4.4-3.6C718,246.5,718.1,247.3,715.6,248.4Z"/><path class="cls-3" d="M813.5,266.2l-2,3.9Z"/><path class="cls-3" d="M695.3,182Z"/><path class="cls-3" d="M909.5,168.4Z"/><path class="cls-3" d="M788.6,150.7h3C790.4,153,789.9,152.8,788.6,150.7Z"/><path class="cls-3" d="M517.5,282.2l-4.2,1.4C513.8,281.5,516,282.4,517.5,282.2Z"/><path class="cls-1" d="M787.9,169.3l1.8-2.7C790.7,168.9,790.5,169.6,787.9,169.3Z"/><path class="cls-3" d="M582.3,261h0Z"/><path class="cls-3" d="M743.3,237.2c-.2.6-.3,1.3-.5,1.9C742.1,238,741.9,237.4,743.3,237.2Z"/><path class="cls-3" d="M457.7,575.4c.8-1.2,1.3-.9,2,.2Z"/><path class="cls-3" d="M590.3,261h0Z"/><path class="cls-3" d="M46.5,586.7l-2.5.9Z"/><path class="cls-4" d="M867.3,156.6l2-2C869.5,156.1,868.9,156.7,867.3,156.6Z"/><path class="cls-3" d="M374,519.6l2,1.9Z"/><path class="cls-3" d="M891.1,672.9c-.5.5-.7.6-.9-.1S890.8,672.7,891.1,672.9Z"/><path class="cls-3" d="M783.7,162.3c1,0,2.9-1.7,3.2-.3S784.8,162.9,783.7,162.3Z"/><path class="cls-4" d="M851.2,216.4c1.5.5,2.9.5,1.2,2A2,2,0,0,1,851.2,216.4Z"/><path class="cls-3" d="M635.1,529.5Z"/><path class="cls-3" d="M760.9,243.4c.4-2,.8-.9,3.8-.5Z"/><path class="cls-3" d="M299.3,540.5l-2.1,1.1Z"/><path class="cls-3" d="M565.2,264l1.8,1.4Z"/><path class="cls-3" d="M701.2,300.1c-.1.3-.2.4-.6.1S700.9,299.8,701.2,300.1Z"/><path class="cls-3" d="M649.4,322.2c-.1-.3-.1-.1,0,0S649,322.1,649.4,322.2Z"/><path class="cls-3" d="M858.4,157.7l2-1.1Z"/><path class="cls-4" d="M735.3,557.5c-.3.2-.7.6-.8.1S735.1,557,735.3,557.5Z"/><path class="cls-3" d="M767.2,523.9a21.7,21.7,0,0,1-.7-2.4A21.7,21.7,0,0,0,767.2,523.9Z"/><path class="cls-3" d="M748.9,227c.2.4.2.5-.2.7S748.4,227,748.9,227Z"/><path class="cls-3" d="M502.4,259.9l2.3-.3Z"/><path class="cls-3" d="M759.7,241l-1.7-1.3Z"/><path class="cls-3" d="M845.4,458.7l-2.3-1.6Z"/><path class="cls-3" d="M804.2,384.1c.1-.4.3-.5.6-.2S804.6,384.3,804.2,384.1Z"/><path class="cls-3" d="M569.8,278.3l-.3-1.5C570.8,277.1,570.6,277.5,569.8,278.3Z"/><path class="cls-3" d="M471.7,288c-.5-.6-.9-1.3-1.4-2S471.2,287.4,471.7,288Z"/><path class="cls-3" d="M675.6,152h0Z"/><path class="cls-3" d="M744.3,227.5c.3.3.3.5-.1.7A1.7,1.7,0,0,1,744.3,227.5Z"/><path class="cls-4" d="M517.6,282.2h-3.5C514.2,280,516.2,282,517.6,282.2Z"/><path class="cls-4" d="M715.6,248.4l2.4-1.5Z"/><path class="cls-4" d="M816.5,169.5Z"/><path class="cls-3" d="M874.3,188.5Z"/><path class="cls-3" d="M719.8,313.1Z"/><path class="cls-3" d="M771.7,228.3v.3C771.7,228.5,771.5,228.5,771.7,228.3Z"/><path class="cls-3" d="M617.2,320.1Z"/><path class="cls-3" d="M851.3,217.5l1.1.9C851.8,218.2,851,218.3,851.3,217.5Z"/><path class="cls-3" d="M896.9,207.1c.2-.5.4-.8.4-.1Z"/><path class="cls-3" d="M789.6,217.4Z"/><path class="cls-3" d="M799.5,445.7l-1,.9Z"/><path class="cls-3" d="M745.9,241.9l-.4-.2C745.7,241.1,745.8,241.5,745.9,241.9Z"/><path class="cls-3" d="M825.3,438.9q-.1-.4.3-.3Z"/><path class="cls-3" d="M760.6,242l-.7-.6Z"/><path class="cls-3" d="M655,264.1h0Z"/><path class="cls-2" d="M48.1,72c-7.7-2.8-5-29.5,10.1-20.6-14.6,4.1,3.4,4.3,8.6,6.3,10.6-10.2,22.5,4.6,33.1-2,12.2,22.7,15.4-9,23.9-4,6.9,4.2,9.2,15.2,19.2,14,23-8.1,36.4,30.2,38.3,2.7,39.5,9.5,27.3,17.3-10.5,16.6,28,13.1,43.3.1,50,15.4C160.2,97.9,102.5,60.9,48.1,72ZM177.2,90.6c-.7,3.1,15,4.6,14.2.9Z"/><path class="cls-3" d="M875.2,344.2c30.9,4.2,95.1-28.8,83.6,20.9C922.2,373.5,860.8,387.8,875.2,344.2Z"/><path class="cls-3" d="M159.7,89.8c18.4-.1,49.7,15.4,61.8,6.7-15.6-6.3-20.6-1-50.7-11.5,22.8.9,40.2-9.8,55.3,7-10.6,3.1,25.1,7.9,34.2,14-30.5,8.2-43.9,2.8-65.9,6.9,79.8,29.1-30.4,10.4-28.2-12.8C166.8,99.1,162.1,95.1,159.7,89.8Z"/><path class="cls-2" d="M875.2,344.2c-22.9,63.2,118.6-.7,76.6,35.2-31.2,6.9-70.1,8.6-96.6,3.8C856.7,366,850.4,338.6,875.2,344.2Zm-.6,25.8c-.3-.1-.7-.3-.4.2Z"/><path class="cls-2" d="M232.5,95.7c-14.7.4-4.7-6.5-19.3-14.1,22.1-2,54.6-11.8,70.5,9.4,11.6-.5,14.8-4.9,27.9,5.5h0c4.7-7.5,7.9,3.4,5.6,8.2C289.5,94.2,273.2,102.8,232.5,95.7Z"/><path class="cls-2" d="M654.1,150.7c-35-1.6-30.7,26.6-50-2.2C619,160.1,645.5,116.1,654.1,150.7Zm-36.5,6.1c-.3-.1-.9-.3-.9.2S617.4,157.6,617.6,156.8Z"/><path class="cls-3" d="M317.2,104.7c1.9-17.8,25,1.5,34.9,9.3C340.7,110.6,327.4,110.6,317.2,104.7Z"/><path class="cls-3" d="M956.8,685.2c-12.3-11.7-2.7-19-9-40.1C968.3,642.6,954.2,671.7,956.8,685.2Z"/><path class="cls-4" d="M950.4,379.3c17,2.4,9.5,42.2-4.2,7.7C908.4,388.1,919.7,383.8,950.4,379.3Z"/><path class="cls-3" d="M955,108.8l-42.1,2.5C926.9,107.9,940.7,104.5,955,108.8Z"/><path class="cls-3" d="M46,50.2C49.7,60.3,35.9,81.3,40.2,71,16.4,64.3,27,52.9,46,50.2Z"/><path class="cls-3" d="M436.9,134.2c5.2,17.9-3.1,14.9-20.8,14.5C412.4,142.7,428.5,129.9,436.9,134.2Zm-4.6,11.7c-.1-.4-.3-.5-.5-.2S432,146.1,432.3,145.9Z"/><path class="cls-2" d="M949.1,550.6c11.3-15,5.4,8.1,7,16.8C944.9,570.9,950.2,558.1,949.1,550.6Z"/><path class="cls-4" d="M181.3,68.4c-9,6.2,4.8,6.8-2.3,12.6C162.9,69.7,159.4,63.8,181.3,68.4Z"/><path class="cls-3" d="M66.8,57.7c-24.1-2.9-2.5-6.7-18.4-7.8C57.3,49.7,66.7,44.1,66.8,57.7Z"/><path class="cls-3" d="M181.3,68.4c-.2-3,16.8.5,22.4-.2C203.5,78.1,187.7,70.2,181.3,68.4Z"/><path class="cls-4" d="M160.5,65.8h0Z"/><path class="cls-3" d="M958.8,380.8l-7-1.4C955.5,378.4,960,374.6,958.8,380.8Z"/><path class="cls-3" d="M612.2,150.6l-6.2-2.2C609.4,148.3,615.1,145.2,612.2,150.6Z"/><path class="cls-3" d="M206.7,77.1c-3.3,1-4.7,1.3-3.7-2.6Z"/><path class="cls-3" d="M437.5,131.7c-.4,1.8-1.1,1.5-2.4.6Z"/><path class="cls-2" d="M797.7,149.5l-1,1.1C796.5,149.5,796.6,149.2,797.7,149.5Z"/><path class="cls-4" d="M393.2,121.5a.8.8,0,0,1-.8-.4C393.5,120.6,394.1,120.1,393.2,121.5Z"/><path class="cls-2" d="M532.4,291.6c11.8,3,45.7-7.9,34.2,10.8-10.5,3.2.8-7.2-8.7-3.5-9.5,15.6-48.2,1.9-71.8,4-8.8,2.4-46.6-5-37.4,5.8-28.4-2.6-9.8,13.5-31.8-5.4-18.9-5.9-83.8,26.9-47.4,38.6,4.4-2.2,8.3-1.4,7.9,3.8-6.7,10.3-21.3-1.4-31.1-1.4-2-20.3-3.9-3-7.2,5.9-6.9-9.3,5.4-39.9-13.7-30.7-18,36.1-16.1,42.4-22.2-2.8-6.9-1.5-10.4,29.9-23.8,5.6-.9,14.7-25.9,2.4-36.5,4.8-11.8,10.3-12.3,14.7,3.3,14.2,9.9,12.5-.9,25.3-10.8,14.5-3.7-10.1-19.5-5.6-12.2-17.2,11.6-4.9-10.2-20.9-8.1-6-15.6,2.3-33.5-4.3-47.8-6.1C305.8,296.4,415.9,300.2,532.4,291.6Z"/><path class="cls-2" d="M359.5,364c-16.9-9.6,7.5-6.5,14.9-9-.5,5.4-.6,16,5.3,16.8,8.2-71.8,39.1,40.8-3.6,45.2L362,412.9c9.5-1.1,18.9-12.9,3.2-10.8-2.2-1.9.6-4.9,2.5-5.7C392.6,392.7,341.5,371.8,359.5,364Z"/><path class="cls-2" d="M89.1,369.1c10.2,2.1,20,10.4,29.7,15.3.1,26.7-52.5-8-26.7,28C67.9,412,66,422,77,396,45.2,397.1,77.4,376.8,89.1,369.1Z"/><path class="cls-4" d="M55.9,468.5c23.7-2,135.4,4.7,81.2,12.7C113.6,478.6,66,489.8,55.9,468.5Z"/><path class="cls-4" d="M549.7,305.4c27.1-5.7,33.7-5.9,33.3,23.6C534.3,323.6,551.7,332.3,549.7,305.4Z"/><path class="cls-2" d="M557.4,416.8c36.7,4.8-18.1,10.2-31.3,10.9-7.5,1.6-18.7,11.1-26.2,5.9-13-22.1,2.5-14,16.9-1.5C501.4,411.6,544.4,421.4,557.4,416.8Z"/><path class="cls-2" d="M387.7,414.9c24-6.6-21.1,42.8,17.3,26.7-6.7.8-20.3,19.6-33.2,11.1,10.7-6.5-3.6-11.3,12.6-13.3-8.3-9.8-10.6-.2-19.8-3.5C371.4,425.7,389.8,431,387.7,414.9Z"/><path class="cls-2" d="M506.8,366.3c-12.2-22.3-6.1-.8.2,8.3-9.9,4.2-5.1-16.2-7.6-22.9,1.3-14.1-9.3,1.9-10,7.8-6.2-14,7.7-54.9,20.9-28.7C501.2,341.1,506.5,350.2,506.8,366.3Z"/><path class="cls-2" d="M155.6,389.7c2.2,9.5,26.3,43,1.4,35.2-3.8-12.2-3.2-29.9-14.1-38.7C152.4,379.7,163.7,372.2,155.6,389.7Z"/><path class="cls-2" d="M138.5,399c-1-13.9,16.4,38-1.9,26.9C126.6,407.1,132,343,138.5,399Z"/><path class="cls-2" d="M30.3,388.4c-9.9,8.3.9-9.7,8.3-11.4C49.4,390.1,45.5,400.7,30.3,388.4Z"/><path class="cls-4" d="M545.3,353.2c2.1-10.4-2.6-29.8,12.2-15.7C567.1,342.9,555.8,354.4,545.3,353.2Z"/><path class="cls-2" d="M270,357.8c-3.6-8.2-5.9-6.4-10.1-2.9C240.5,332,287.4,335.3,270,357.8Z"/><path class="cls-2" d="M590.4,351.4c0,7.9,3.4,18.4.1,26.9C581.2,372,580.2,356.6,590.4,351.4Z"/><path class="cls-4" d="M328,319.3c.2,10.3.1,31.9-6.1,38.1C325,346.3,320.7,325.5,328,319.3Z"/><path class="cls-4" d="M43.3,491.6c6.6,1.3,21.8-6.1,22,2.7C57.7,493.8,42.1,503.6,43.3,491.6Z"/><path class="cls-4" d="M113.3,468.3c-4.8-19.7-8.3-20.2,7.6-18.2Z"/><path class="cls-4" d="M146,456.4c-16.5-.1-20.7,5.5-18.5-7.6Z"/><path class="cls-2" d="M40.6,393c18.9,2.1,9.4,1.9,11.5-5.7C64.4,400.2,59.4,403.7,40.6,393Z"/><path class="cls-2" d="M367.1,386.3c1.2,3.2,2.6,5.6-.5,6.8C362.8,391.1,363.2,391.4,367.1,386.3Z"/><path class="cls-2" d="M373.6,336.1c-1.3.1-1.8,0-1.5-1.3S373.2,335.2,373.6,336.1Z"/><path class="cls-2" d="M599.8,338.5c-.5.6-.8.6-1-.1S599.5,338.3,599.8,338.5Z"/><path class="cls-2" d="M50.9,403c.2.1.1,0,0,0S51.1,402.8,50.9,403Z"/><path class="cls-2" d="M583.2,328.8v.2C583,329,582.9,329,583.2,328.8Z"/><path class="cls-2" d="M142.6,509.8v-.5C143.1,509.3,142.8,509.5,142.6,509.8Z"/><path class="cls-4" d="M309.9,635c-16.8,13.4-31.8,9.9-49.7,1.1-23.6,24.6-62.5,20.7-95.6,26.7-22.1-8.8-134.1-2.1-86.9-12.7,75.2-19.3,156.5-17.5,225.5-55,24.4-3.7,27.2,7.8,47.8,6.8C350.1,628.5,323.5,618.9,309.9,635Zm3.3-9.8c-25.2-.4-85.8-1.2-28.7,9.3C272.4,651.8,305.7,631.8,313.2,625.2Zm-62.1,1.2c-7.5-2.2-20.4,4.6-31.5,5.9C232.8,638.8,241,628,251.1,626.4Z"/><path class="cls-4" d="M333,680c-12.6,6.3-64.1,15.9-37.7-10.4l-9.4-5.5c32.2.6,136.7-58.3,125.6-10.9,1.8,15-22.4,15.6-5.2,7.2-11.6-4.4-14.2-14.4-3.1-9,4.9-17.4-30.6-12.8-36.7,3.4C357.3,664.8,341.1,669.1,333,680Z"/><path class="cls-4" d="M562.5,643.1c-15.9-16.8,12.1-32.6,28-45.3,2.3,13.2,22.3,1.9,31.4,4.6,2,12,2.2,12.3-8.9,10.3,1.3,1,3,12.5,2,5.6-4.2,12-1.3,17.5-7.7,11.2C593.1,643.8,590.7,681.1,562.5,643.1Z"/><path class="cls-4" d="M485.1,649.2c-4.4,25.9-34.5.3-42.5,14.9-2.5-4.2-5.9-14.3-1.1-19.1-21.4,6.9-11.2-2.6-4.7-13.9,21,.2,112.8-31.9,109.4-11.7C523.8,636.9,493,614.9,485.1,649.2Z"/><path class="cls-2" d="M485.1,649.2c5.4-26.3,41.7-31.8,47.4-3.6,26.8-24.2,61.7,21.8,9.9,17.6-5.5-4-25.3-28.7-17.9-6-5.5,6.4-15.6,32.1-27.5,17.4-8.8,8.4.2-11.3,1.7-23.7-4,8.5-5.1,10.8-6.4,13.7C481.2,658.6,501.3,664.8,485.1,649.2Z"/><path class="cls-2" d="M398,665.2c24.9-1,34.6-10.1,32.1,26-12.3-7.5-7.7-16.2-9.5-1.4C394.9,683.7,334.5,673.3,398,665.2Z"/><path class="cls-2" d="M442.6,664.1c.6-9.5,13.5-2.4,20-3.4,10.8,1.4,12.3,0,24.3,5.7C460.9,676.4,435.1,705.7,442.6,664.1Z"/><path class="cls-4" d="M315.4,584.4c16.4,1,53.1-22.8,55.2-.8C354.6,581.8,323,597.6,315.4,584.4Z"/><path class="cls-2" d="M484.4,688.2c19.4,16.7-23.5,14.5-33.5,6Z"/><path class="cls-2" d="M182.7,614.3c10.2,2,23.8-1.4,32.3,4.3C205.4,623.7,160,635.7,182.7,614.3Z"/><path class="cls-2" d="M440.3,699.1c5.5,25.4-23.8,9.4-12.6-6.5C437.2,687.8,431.7,702,440.3,699.1Z"/><path class="cls-2" d="M155.6,587.2,106,596.3C116.3,595.1,175.5,569,155.6,587.2Z"/><path class="cls-4" d="M350.8,553.4l24.9-5.4C374.5,557.6,354.6,558.7,350.8,553.4Z"/><path class="cls-2" d="M630,639.1c-5.9,3.9-12.4,3.7-17.5,7.2C601.2,628,619.3,637.5,630,639.1Z"/><path class="cls-2" d="M634.7,602.5c.7,10.6,7.8,20.9,3.4,29.4C627.9,623,631.9,614.7,634.7,602.5Z"/><path class="cls-2" d="M587.4,659.1c6.9-7.3,12.3-6.2,20.2-.9A72,72,0,0,1,587.4,659.1Z"/><path class="cls-4" d="M379.4,589.6c-6.4-4-6.2-6.7.8-8.4C383.9,583.4,385.1,587.3,379.4,589.6Z"/><path class="cls-4" d="M418.8,649.2c-3.2-1.9-3.3-3-.3-4.5C420.8,645.3,421.1,647.2,418.8,649.2Z"/><path class="cls-4" d="M380.1,575.6c-2.1,0-5.2,2-5.1-1.1C377.2,574.3,380.3,572.2,380.1,575.6Z"/><path class="cls-2" d="M354.6,607.3c1.8-.2,5.2-3.4,5.8-1C358.6,606.5,355.2,609.7,354.6,607.3Z"/><path class="cls-2" d="M661.1,623c.2.3.1.5-.2.5A1.7,1.7,0,0,1,661.1,623Z"/><path class="cls-2" d="M399.2,664.1l-1.3,1.1Z"/><path class="cls-4" d="M453.7,192.6c41.4-11.7,75-11.2,116.5-13.7,12.1,19.7-28.1,4.9-31.6,12.4C705.1,240,449.9,202.1,453.7,192.6Zm28.4-5.2c-.2-.5-.5-.2-.8.1S481.8,187.7,482.1,187.4Z"/><path class="cls-4" d="M273.8,233.5c3.7-9.1,11.5-6.1-5.4-12.8l46.4-4.7c-18-6.8-44.3-2.5-46.9-14.4,18.8-.1,169.4-21.1,137.8,9.7-17.7-6.6-43.3,12.2-67.4,8.9,13.9-14.5.5-10.7-10.3-14.3.7,19.7-17.4,20.7-38.5,18.7,23.2,8.8,10.9,7.9-6.2,9.2C302.2,223.4,281.8,230.2,273.8,233.5Zm45.6-14.6c5.6-2.9-7-3.2-18.2-7.3C314.6,218.4,310,216.8,319.4,218.9Z"/><path class="cls-3" d="M368.1,197.3c-21.5-2.9-51.1,8.9-60.9-11.2-1.1.6-2.6,1.4-.8.4-8.3-4.3-13.4,4-12.9-5.2,4.6-5.8,4-3,9.6,3.6-1.6-5.9-2.6-9.3-2.5-9.4C322.5,168,365.6,167,368.1,197.3Zm-66.5-17.1c8,2.7,10.3,7.7,12.1,1.9Z"/><path class="cls-4" d="M261.4,205.4c7.8,6.1-23.7,22.9-29.7,5.8-18.1-.8-48.8,18.2-50.2-9.7C204.7,204.1,260.5,193.4,261.4,205.4Z"/><path class="cls-4" d="M461.5,237.8c-20.4.1-59.6.9-91.3-6,22.9-14.3,92.7,3.1,46.6-14.4,13,.2,14.7-7.4,34.3-3.1-25.1,1.6-19.5,1.2,1.5,10C399.1,235.1,449.6,223.4,461.5,237.8Zm-42.1-3c.8-3.9-17.4-4.8-17.4-1.8Zm-19.7-5.4c-2.4-5.3-5.8.7-9.1,2.5C392.7,237,396.5,230.8,399.7,229.4Z"/><path class="cls-3" d="M437.8,213.3c-48.6-9.5,40.5-31.3,35.8-7.9-31.2-6.9,17.8,30-16.4,23C460.1,219.7,456,203.8,437.8,213.3Z"/><path class="cls-3" d="M185.7,216.4c19.8-2.8,6.1,4.2,7.8,17.4-11.4,10.1-43-2.1-61.3-.9,15.3-2.8,11.4-2.7-3.4-8.1l23.5,3.7C149,198.3,182.6,239.5,185.7,216.4Z"/><path class="cls-4" d="M646.2,201.4c-5,16.2-19.3-2.5-27.1-8.1-8,7-21,8.4-32.8,3.2,8.2-.6,12.2-1,9.3-10C627.2,186.5,635.8,181.3,646.2,201.4Z"/><path class="cls-3" d="M586.3,196.5c53.9,13.8-31.5,5.9-47.7-5.2C549.5,185.8,573.2,189.4,586.3,196.5Z"/><path class="cls-3" d="M422.2,170.2c6.7-5,13.7-16.8,29.5-6.6C447.2,173.5,419.3,187.1,422.2,170.2Z"/><path class="cls-4" d="M297.2,177.4c-9.3,9.8-32.6,16.3-27.8-4.7C281.1,175.2,288.4,167.9,297.2,177.4Zm-23.4,3.4c-.5-.1-1-.3-.8.5S273.7,181.1,273.8,180.8Z"/><path class="cls-4" d="M100.1,176.5c-2.6,1.9-9.3-2.9-7.2-1-8,1.2-25.3,3.7-28.7-5.8C75,173.1,119.5,161.6,100.1,176.5Z"/><path class="cls-3" d="M411.2,197.6c-.7-9.7-2.6,0-8.4-1.5,7-10.4,9.1-9.4-6.7-18.2C425.4,183.7,435.2,185.3,411.2,197.6Z"/><path class="cls-4" d="M92.4,196.4c-9.7-.3-46.8-5.2-30-16.8C68.8,174.9,84.2,192,92.4,196.4Z"/><path class="cls-3" d="M505.4,163.8c27.9-5.8,8.5,8.1,36.2,1C544.2,175.3,504.3,172,505.4,163.8Z"/><path class="cls-3" d="M416.8,217.4c18.4,9.6-4.1,8.6-14,7.6C409.3,217.1,409.8,197.6,416.8,217.4Z"/><path class="cls-3" d="M151.4,177.1c19-6.5,9-1.3,28,10.9C166.9,182.7,157.1,182.4,151.4,177.1Zm8.3-3.4c-.2.2-.8.5-.3.8S160.1,174.2,159.7,173.7Z"/><path class="cls-3" d="M500.7,184.1c-19.9,1.4-7.7-6.8-.6-17.3C504.3,172.6,502.6,177.7,500.7,184.1Z"/><path class="cls-3" d="M316.5,144.4l18.7,7.1C326.9,150.7,313.6,157.2,316.5,144.4Z"/><path class="cls-3" d="M560.4,162.9l20.1,5.5C576.4,176.6,555.7,170.5,560.4,162.9Z"/><path class="cls-3" d="M127.7,148.8c12.8-2.3,16.4-2.2,3.4,5.2C126.1,154.9,123.5,153.2,127.7,148.8Z"/><path class="cls-3" d="M276.2,150.2c.9,8.6-4,6.1-10.5,4.1Z"/><path class="cls-3" d="M388,195.8l-18.9.6Z"/><path class="cls-3" d="M65,177.5c-3.2.5-4.2-3.9-6.2-5.9C64.7,168.2,71.4,172,65,177.5Z"/><path class="cls-3" d="M549.6,178.8c-3.5-.3-13.8,3.2-12.1-2.6Z"/><path class="cls-3" d="M261.9,158.8c-7.9-.1-10.8,1.2-15.2-4.3C253.8,152.1,256.2,152.2,261.9,158.8Z"/><path class="cls-3" d="M285.4,171.5c-.4,4.4-11,.4-15.1,1.4Z"/><path class="cls-3" d="M153.8,215.3l-9.4-5.7C152.6,210,156.7,207.4,153.8,215.3Z"/><path class="cls-4" d="M128.4,171.2l8.3,2.3C131.2,179.3,131.2,178.5,128.4,171.2Z"/><path class="cls-4" d="M151.4,177.1c.5,3.8-8.4,1-11,.3C141.7,175.5,148.3,177.6,151.4,177.1Z"/><path class="cls-3" d="M141.7,178c6.8-.9,8.9,4.8,2.8,7.1C143.4,182.3,142.6,180.1,141.7,178Z"/><path class="cls-3" d="M75.8,176.9c3-1,6.1-1.3,6.2,2.7C78.8,179.3,70.8,182.1,75.8,176.9Z"/><path class="cls-3" d="M307.1,143.8c3.4-1,4.8.2,4.8,3.6C309.4,150.9,308.4,145.9,307.1,143.8Z"/><path class="cls-3" d="M144.8,150c-.2,2.7,2.2,7.2-1.9,6.5C143.2,154,140.9,149.3,144.8,150Z"/><path class="cls-4" d="M82,179.6c0-3.8,9.8-.5,13.3-1.2Z"/><path class="cls-4" d="M425,211.2c1.9-4.3,3-3.7,5.8-.3Z"/><path class="cls-3" d="M591.3,166.6c-1.7,1.1-3.4,2.2.4-.2C586.9,167.1,589.5,166.4,591.3,166.6Z"/><path class="cls-3" d="M420.6,163.4c-1.4,1.7-1.4,5.5-4.3,3.5C417.6,164.9,417.8,161,420.6,163.4Z"/><path class="cls-3" d="M95.3,178.4l-7.5-.4C87.4,174.7,97.8,174.9,95.3,178.4Z"/><path class="cls-3" d="M423.4,158.1H412.2C421.9,157.6,423.1,155.5,423.4,158.1Z"/><path class="cls-3" d="M444.5,141.9l-10.5-3C443.7,141,445.1,139.1,444.5,141.9Z"/><path class="cls-3" d="M264.2,147.9c.9.8,1.8,1.7.4,2.3S263,149.2,264.2,147.9Z"/><path class="cls-3" d="M419.7,153c-.8,0-1.5.4-1.6-.7S419.5,151.7,419.7,153Z"/><path class="cls-3" d="M100.1,176.5l1-2.7C102.5,175.1,102.2,177,100.1,176.5Z"/><path class="cls-4" d="M101.9,176.4c-.5-2.4.5-1.7,2.2-1Z"/><path class="cls-3" d="M413.8,157.5c-.1-.4-.5-.8.1-.9S414.5,157.4,413.8,157.5Z"/><path class="cls-3" d="M421,219.2l-2.4-2.5Z"/><path class="cls-3" d="M343.8,174.7c.1-.4.3-.5.6-.2S344.1,174.9,343.8,174.7Z"/><path class="cls-4" d="M394,126.6c.2.4.3.9-.2.7S393.4,126.5,394,126.6Z"/><path class="cls-3" d="M161.1,205.1c-.1-.3,0-.5.3-.4S161.4,205.2,161.1,205.1Z"/><path class="cls-4" d="M516.4,184.5c-.2-.9-.1-1,.4-.2Z"/><path class="cls-3" d="M140.2,176.7a1.9,1.9,0,0,1,.2.7C140.1,177.2,140.1,177,140.2,176.7Z"/><path class="cls-3" d="M102.9,72.8c18,8.3,62.9,15.5,20.5,17.5,16.2,1.5,4.9,18.5-2.6,22.1C87.4,106,52.4,98.9,103.9,86.8c14.9,1-84.9-5.2-43.9-20.1,15.1,6.2,29.5,3.9,42.9,6.1Z"/><path class="cls-3" d="M283.9,99.7c6.1-5.4,53.1,3.5,41.6,27.2C318.4,110.2,271.8,106.7,283.9,99.7Z"/><path class="cls-3" d="M145.6,98.3c9.8-4.9,12.5-.4,15.3,8.5-6.4-.4-17.8-3.7-16.9,6.5C139.3,108.6,135.3,92.4,145.6,98.3Z"/><path class="cls-2" d="M286.3,104.8l9.8-1.1Z"/><path class="cls-2" d="M318.1,107.6c-1.9-4.5.6-1.8,3.1-.4Z"/><path class="cls-2" d="M285.4,105.4l.9-.7Z"/><path class="cls-3" d="M183.5,611.9c-.9-6.8-12.7-18.9-2.4-20.6C181.3,597.4,191.5,610.3,183.5,611.9Z"/><path class="cls-3" d="M188.6,614.8l-2-.3Z"/><path class="cls-2" d="M260.4,284.2c-15.3,8.8-52.7-7.4-59.7,6.8,21.1,3.9-26.2,2.6-37.8-1.2-13.1,7.9,13.6,8-25,12.4,1.9-1.7.1-.2-2.6,2.2,3.4.5,8.1,4.8,11.6,6.7-7.6,3.9-66.7,1.2-38.1-9.6-39.5,2.2-46.1-15-7.8-33.3-26.4-24.6-44.4-13.5-88.9-18.8,40.6-13.5,109.9-5.1,181.4-15.1,18.1,9.3,54.6-5,73.4,12.8-.3-25.1,36.1,15.9,9,16.6-4.8-6.2-40.3-13.8-25.5-.4-5,6.9-16.1,5.5-.9,7,19.5,2.3-48.3,6.7-27.5-4.2-3.4-4.3,4.7-8.3,13.7-10.1-8.9-2.1-15.4,1.4-22.2,4.4-10.8-4.8-67.9,2.6-40.1,1.3.8,6.2,3.2,6.4,8.7,4.2,17,.3,42.2-3.8,21.6,14.5-3.7-3.3-2-2.4,3.3-6.4-10.8,2.2-21.6,3.3-8,6.6,22.9-6.4,49.7-.1,65.5-11.4,2.5,11.3,13.4,6.7,20.7,12.2C290.5,287.7,266.8,282.6,260.4,284.2ZM131.8,298.1c-1.5.6-3,1.2.1,0C128.4,302.1,133.4,296.9,131.8,298.1Zm28.9-27.8c-17.6-1.4-1.5-8.3-18.6-14.7-27.6,15.8-10.1-1.4,6.6,13.1-26.4-4.7-81.3,23.9-27.4,9,15.5-.7,32,7.2,46.9,2.2-11.1-10.7-22.7-2.7-39.5-2.8C139.8,265.8,147.5,273.8,160.7,270.3Zm-20.9-18.6c40.8-9.6-17.9-4-32.2-2.8C86.1,257.6,136.8,254.5,139.8,251.7Zm-29.4,53.4c-10,7.2,27.1-1.2,11.8-14C112.6,287.1,109.6,295.6,110.4,305.1Zm67.1-34.6c1.2,3.7,23.1,2.9,22.7-1.8Zm-47.7,22.1c.1,3.5,8.9.6,12.2,1.5C141.2,290.6,133.2,293.5,129.8,292.6ZM109,290.7c.4-5-6-.7-9.1-.8C100.3,293,106.3,290.2,109,290.7Zm123.3-45.2c-1.9-2.5-3.3-3.4-4.5-.7C228.4,247.4,229.8,247.8,232.3,245.5Zm11.9-3.7c0,4,2.5,1.1,10.3,1.1ZM114.1,289.3c.4-.8,1.1-1.5-.1-1.7S113,288.4,114.1,289.3Zm-1.4-29.9c-.5.6-1.2,1.2-.2,1.5S113.6,260.3,112.7,259.4Z"/><path class="cls-3" d="M138.8,312.1c14.4,5.8,2-8.1-3.5-7.7,2.7-2.4,4.5-3.9,2.6-2.2,41.8-3,0-19.2,56-7.9,4.4.4,9.1-1.3,16.9-2.6-28.5-4.6,11.7-7.3,21.7-5.7-18.7,7.5-35.1,33.9-60.3,17.3-3.4.3-16,2-23.4,10.8-2.9.3,20.7,2.5,15.8-1.3,32.2-9.3-34.1,15.1-45.9,9.4C125.9,316.2,144.8,320.4,138.8,312.1Z"/><path class="cls-2" d="M225.2,308.1c-17.5,1-37.7,4-14.8-12.2C214.5,302.9,225.6,295.8,225.2,308.1Z"/><path class="cls-2" d="M157.4,314c-21.6,1.5,14.2-13.2,14.8-10.7C189.4,311.1,166.4,311.5,157.4,314Z"/><path class="cls-3" d="M587.4,659.1c24.9.3-23.7,7.5-27.6,17.1C521,662.3,568.4,656.1,587.4,659.1Z"/><path class="cls-3" d="M519,668.2c-6.6-4.4,12-6.9,2.8-21.9C545.2,658.3,541.5,665.7,519,668.2Z"/><path class="cls-2" d="M547.4,705.1c-10.4,6.7-21.9,3.8-33.6,2.9C522.5,704.9,561.5,686.4,547.4,705.1Z"/><path class="cls-2" d="M599.4,680.2c10.7,13.4-4.9,8.5-14.6,7.2C589.2,695.5,576.7,679.8,599.4,680.2Z"/><path class="cls-3" d="M375,711c4.3-1.7,9.9-6.5,19.3-8.1C395.8,715.6,382.9,709.4,375,711Z"/><path class="cls-3" d="M588.4,692.2c-8.2-8.3,6.1-2.5,10.9-2.7Z"/><path class="cls-3" d="M596.2,680.6l-2.9.8Z"/><path class="cls-3" d="M602.4,689.5l1.2-.7C603.5,690,603.4,690.2,602.4,689.5Z"/><path class="cls-3" d="M149.8,686.2c-16.9,1.1-43.5,24.1-54.6,8.2Z"/><path class="cls-4" d="M52,697.7c-33.8,1.8,58.1-13.4,75.6-18C114.9,693.3,74,690.7,52,697.7Z"/><path class="cls-3" d="M102.9,654.6l31,3.3Zm5.3,2.4c-.3-.2-.5-.2-.6.3S108.1,657.5,108.2,657Z"/><path class="cls-3" d="M309.9,635c9.1-10.5,22.9-11.5,35.3-15.5Zm30.6-13.2c.7-.2.8-.7.2-1S340,621.4,340.5,621.8Z"/><path class="cls-3" d="M244.3,651l12.1-13.8C265.5,652.7,259.4,651.8,244.3,651Z"/><path class="cls-3" d="M90.2,695.3,87,696Z"/><path class="cls-3" d="M55.8,697.6l2.4-.8Z"/><path class="cls-3" d="M81.9,656.9h0Z"/><path class="cls-4" d="M894.3,646.1l1.5,5.1Z"/><path class="cls-2" d="M841.4,714l1.1.8C842.1,714.6,841.8,714.1,841.4,714Z"/><path class="cls-4" d="M893.2,642.9l.9,1.1Z"/><path class="cls-4" d="M580,699.7c3.2,1.9,11.1,1.1,8.5,6.2C584.2,704.4,576.5,706,580,699.7Z"/><path class="cls-2" d="M49,207.4c15.6-13.2,22.8,4.4,21.9,19.6C55.9,226.4,45.4,224.7,49,207.4Z"/><path class="cls-3" d="M113.8,239.5l-41.9-.7C85.3,239.9,102.9,231,113.8,239.5Z"/><path class="cls-3" d="M70.9,227c-6.8-33.9,6.3-8.7,19.3,4.1C86.1,232.4,75.7,229.6,70.9,227Z"/><path class="cls-2" d="M102.8,203.3c4.4-1.7,24.7,11.9,15.2,12.1C112.7,211.8,98.3,212,102.8,203.3Z"/><path class="cls-3" d="M137,236.4l-9.7,3.7C128.3,230.1,131.4,234.5,137,236.4Z"/><path class="cls-1" d="M58.7,238.4c-2.4-.7-8.9,1.8-8.3-1.8C52.7,237.4,59.2,235.4,58.7,238.4Z"/><path class="cls-3" d="M51.9,223.7,66,226.8C61,227.4,56.5,225.4,51.9,223.7Z"/><path class="cls-1" d="M60.6,226.8c2.1.2,4.5-.6,6.4.5Z"/><path class="cls-3" d="M11.3,245.6,10,246Z"/><path class="cls-4" d="M9.6,248.8c3,14.9,21.7-9.7,46.6,17.5,17.1,10.4-33.3,7.1-43.9,8.7C14.2,264.7.5,256,9.6,248.8Z"/><path class="cls-2" d="M12.3,275c15.8,2.2-13.2,7.5,8.8,8,29.1-.7,29.8-1,.5,2.7-.7,9.2,28.7-2.5,25.4,5.9C34.7,292.9-5.3,291.6,12.3,275Z"/><path class="cls-2" d="M80.1,307.8c20.8,9.2-12.8,7.8-21.4,3.3Z"/><path class="cls-4" d="M48.5,288.9c-31.5,1.7-29-4.7.6-6.7C66.7,286,63.5,287.3,48.5,288.9Z"/><path class="cls-2" d="M63.2,271.8c-17.2-12.1,14.2-.3,22.8-2.1A199.2,199.2,0,0,1,63.2,271.8Z"/><path class="cls-4" d="M86,269.7l-17.9-1.3C73.4,267.6,88,259.5,86,269.7Z"/><path class="cls-4" d="M63.1,271.7l12.3-.6C70.7,274.6,53,280.9,63.1,271.7Z"/><path class="cls-2" d="M46.1,296.1c-5.3-1.6-18.9,5.2-18-2.5C33.1,294.9,46.3,289.8,46.1,296.1Z"/><path class="cls-4" d="M46.1,293.2c-6.4-.7-14.2,2.2-19.8-.9C31.4,293.3,46.3,289.3,46.1,293.2Z"/><path class="cls-4" d="M94,266.9c11.9,3.7,1.5,3.4-8.7,4.2Z"/><path class="cls-2" d="M86.3,265.4c-8.9-1.1.2-1.8,4.2-3.3C91.7,264.4,87.7,264.4,86.3,265.4Z"/><path class="cls-4" d="M58.7,281.6c-1-2.1-5.9-5.4-2-6.2C57.3,277.3,60.4,279.9,58.7,281.6Z"/><path class="cls-4" d="M59.1,265.3c-4.9,2-3.5-.6-9.7-6.4Z"/><path class="cls-4" d="M70,279.4Z"/><path class="cls-2" d="M39.7,254.3h0Z"/><path class="cls-4" d="M59.5,280.7l.8.7C59.2,281.5,58.2,281.9,59.5,280.7Z"/><path class="cls-4" d="M59.8,280.9l.5.5Z"/><path class="cls-2" d="M95.1,270.4h.7C95.6,270.5,95.3,270.6,95.1,270.4Z"/><path class="cls-3" d="M302.3,688.4l.8.6Z"/><path class="cls-2" d="M349.1,697.1Z"/><path class="cls-3" d="M30.2,297.2c5.9-1,8.2-1.4,5.8,5.2Z"/><path class="cls-3" d="M18.3,300.6c-1.3,0-3.1,1.1-3.1-.8C16.7,299.7,18.6,298.4,18.3,300.6Z"/><path class="cls-2" d="M388.8,235.4c23,2,79.5,10.3,31.8,21.8-7,7.3-91.4,18.2-56.9,6.7-69.5-2.2,20.4-8.5,39.8-6.6-8-2-15.2-2.7-1.2-2.9,11-14.4-29.7,6.5-39.1-5.5C375.3,245.7,381.7,240.6,388.8,235.4Z"/><path class="cls-2" d="M193.6,224.4c2.5-18.2,36.6-.3,20.2-11.2,37.8-4.5,10.3,9.6-1,21C205.8,233.9,200.8,225.5,193.6,224.4Z"/><path class="cls-4" d="M193.6,224.4c10.8,2.8,18.1,17.8,25.1,1.7,8.2-5,40.4.9,14.8,3.5,50.2,11.8-40.7,16.2-37.1-3.3C197.1,241,191.8,232.1,193.6,224.4Z"/><path class="cls-4" d="M350.7,259.9c-41.2,4.6-2.8-20.4,22.2-21,16.8,14-26.1,2.7-25.7,11.3,12.1-2.5,28.2.8,39.9,4.1-6.3,3.3-22.4,8.5-30.9-.7C370.6,262.1,360.3,255.6,350.7,259.9Z"/><path class="cls-2" d="M405.7,211.3c13.8,16.3-31,18.8-30.6,4.3C384.3,215.4,400.2,202.5,405.7,211.3Z"/><path class="cls-2" d="M314.2,245.3c5.3,18.9-29.1-5.2-44.1-7.5C289.4,236.8,298.3,237.8,314.2,245.3Z"/><path class="cls-2" d="M277.9,187.3c14.5-8.1,17.1-.8,29.3-1.2.8,2.5,12.2,11.5,6,11.3C289.5,199.8,304.1,192,277.9,187.3Z"/><path class="cls-4" d="M285.2,281.4c-14.9-6.3,26.3-10.5,2.8-17.4C318.3,269.3,306.1,274,285.2,281.4Z"/><path class="cls-4" d="M262.4,268.7c-11,1.6-29.1,4.9-12-5.4-13.1-14.1,12.3-3.5,21.4-4.1C260.5,264,249.9,257.1,262.4,268.7Z"/><path class="cls-2" d="M372.8,238.9c-19.4,5.2-38.9,5.6-58.6,6.4C326.5,228.4,354.9,234.1,372.8,238.9Zm-46.3-.4c-.2-.7-.6-.8-1.2-.5S325.8,238.9,326.5,238.5Z"/><path class="cls-4" d="M366,235.7l-41.4-.9C336.3,225.4,352.4,235.5,366,235.7Z"/><path class="cls-2" d="M310.8,286.5c8.6,3.2,27.8,0,30.8,7.3C333.9,290.7,309.2,294.5,310.8,286.5Z"/><path class="cls-1" d="M273.8,233.5c6.4-1.9,2.6-.8,15.1,4.7Z"/><path class="cls-2" d="M300.6,275.1l3.5-2.5C305.5,276.4,303.6,275.7,300.6,275.1Z"/><path class="cls-2" d="M317.9,233.5c1.4.4,4.2-.6,3.6,1.6C319.9,234.8,317,236,317.9,233.5Z"/><path class="cls-4" d="M293.1,237.2l-4.3.6Z"/><path class="cls-4" d="M370,218.4c2.5,2.8-.7,1.6-5.4,2.9Z"/><path class="cls-4" d="M279.9,227.2Z"/><path class="cls-4" d="M304.4,233.1c.2.2.1.4-.2.5S303.9,233,304.4,233.1Z"/><path class="cls-2" d="M262.3,267.3l-1.7-1.1Z"/><path class="cls-4" d="M342.1,247.3c-.5.2-1.2,1-1.4.3S341.8,247.1,342.1,247.3Z"/><path class="cls-4" d="M384.8,235.2l-1.8.2Z"/><path class="cls-2" d="M376.1,221.5h-.3C375.9,221.4,375.9,221.3,376.1,221.5Z"/><path class="cls-4" d="M369,217.4l1,1Z"/><path class="cls-2" d="M840.3,354.7c-14.3,17.4-5.1-5.2-3.6-14.6C842.7,340.6,838.9,350.3,840.3,354.7Z"/><path class="cls-2" d="M815,313.7c-3.6,4-4.8,17.1-11.1,12.3C807.4,321.1,807.5,307.4,815,313.7Z"/><path class="cls-2" d="M786.5,355.2c-.1-.4-.1-.4.3-.2Z"/><path class="cls-3" d="M867.3,293.2c10.9-5.1,22.8-2.3,33.7,2.5Z"/><path class="cls-2" d="M888.8,285.9c-4.1,4.2-4.8,1.8-8.1-.6C884.1,281.9,885,281.7,888.8,285.9Z"/><path class="cls-3" d="M874.3,344.1l-14,.9Z"/><path class="cls-2" d="M884.7,595.2c-8.6-7.2-2.8-47.3-1.4-37.8,6.9,29.6-1.2,25.9,24.9,32.1,6.5,24.9,12.2-26.6,38.7-9.9-.7,32.6-19.3,68.9-40.2,25.3C888.7,621.4,897,603.5,884.7,595.2Z"/><path class="cls-4" d="M908.1,589.5c-18.8-5.8-.5-19.9,12.4-18.5C918.7,594.7,910.8,574.2,908.1,589.5Z"/><path class="cls-4" d="M878.5,557.1c-10.7,10.4-15.1,25.4-23.4,24.9C862.5,568.1,856.8,558.9,878.5,557.1Z"/><path class="cls-4" d="M576.3,547.4c-17.5-13.6,43.6-9.1,21.3,4.8,16.5,2.2,1.7,10.7-7.9,10.6C574.2,562.3,593.2,543.8,576.3,547.4Z"/><path class="cls-2" d="M588.1,513.6c9.9-10,12.6-2.9,22.4-.2C605.2,525.5,599.7,516.8,588.1,513.6Z"/><path class="cls-2" d="M741.8,434.8c5,2,3,2.5,8.6,10.4C734.4,446.8,729.5,446.6,741.8,434.8Z"/><path class="cls-3" d="M225.2,305.2c-9.2-15.1,32.2-11.6,45.3-13.1-59.5,8.2,33.5,8.6,56.4,14.9C296.3,311,253.2,311.7,225.2,305.2Zm19.6-4.6c0-.3-.2-.4-.6-.2S244.5,301,244.8,300.6Z"/><path class="cls-3" d="M444.7,295c9-7.9,22.3-.8,33.1,1C454.5,297.6,453,296.1,444.7,295Z"/><path class="cls-2" d="M268.2,302.8c-7.1-10.3,4.8-2,10.7-.8Z"/><path class="cls-2" d="M238.7,295.3c-6.4.4-12.8,1.6-19.2,1.4C213.2,292.6,247,294,238.7,295.3Z"/><path class="cls-2" d="M275.2,296c3.6.2,10.6-4,12.3-.9C283.7,295.2,275.7,301.4,275.2,296Z"/><path class="cls-1" d="M455.1,290.7c-3.6,1.2-7.3-1-10.9-1.5C446.8,288.6,457.2,288.1,455.1,290.7Z"/><path class="cls-3" d="M254.3,286.8l3.1-2.5Z"/><path class="cls-2" d="M289,300c-1.5-.4-5.3,1.1-5.1-.9C285.4,299.5,288.6,298.4,289,300Z"/><path class="cls-3" d="M511.6,420.7c1,2.3,2.1,4.7,5.2,11.4C504.6,422.4,491.1,416.6,511.6,420.7Z"/><path class="cls-3" d="M550.3,416.4l-14.2,3.1C537.5,409.8,544.1,415.6,550.3,416.4Z"/><path class="cls-3" d="M557.4,416.8h0Z"/><path class="cls-3" d="M531.6,418.1c-.8.5-.9.1-1.1-.7S531.5,417.3,531.6,418.1Z"/><path class="cls-2" d="M735.6,515.3c-36.6-21,8.5-23.4,24.7-16.8L728.2,500C747.5,504.9,745.1,504,735.6,515.3Z"/><path class="cls-2" d="M716.1,512.4c-4.9-3.4-9.4-5.8-2.8-8.3C724.4,504.9,727.3,505.6,716.1,512.4Z"/><path class="cls-2" d="M760.2,503.9c-.3.7-.6.8-1,.1S759.8,503.8,760.2,503.9Z"/><path class="cls-3" d="M814.1,532.5c-3.6,1.7-5.8,2.5-7-1.2C808.7,527.4,809.8,528.7,814.1,532.5Z"/><path class="cls-2" d="M693.9,474.7Z"/><path class="cls-2" d="M646.2,201.4c-22.9-4.8,17.7-31.5,17.9-8.2C657.5,178.5,662.1,201.7,646.2,201.4Z"/><path class="cls-2" d="M635.2,208.3c9.7-5.1,16.7.9,26.1,3.9C653.5,211.1,624,221.7,635.2,208.3Z"/><path class="cls-2" d="M792.5,274.2c14.9.4,1,6-8.2,2.8C788.2,275.7,789.8,274.6,792.5,274.2Z"/><path class="cls-2" d="M852.5,274.1c.1-1.6-1.2-4.1,1.2-3.8C853.8,272.1,855.1,274.4,852.5,274.1Z"/><path class="cls-3" d="M765.3,469.5c4.3.4,11.3-4,13.4.6C774.5,469.8,765.3,475.7,765.3,469.5Z"/><path class="cls-3" d="M754.7,463.7c-9.3-.7-5.3-2.9-4.7-13.9C752.8,457.9,753.7,460.9,754.7,463.7Z"/><path class="cls-3" d="M746.3,462.1c-1,.8-1.8,2.8-2.9,1.3C744.3,462.1,744.9,460.4,746.3,462.1Z"/><path class="cls-3" d="M756.4,472c.1.4-.1.4-.4.3S756.1,471.9,756.4,472Z"/><path class="cls-3" d="M781.2,277.1h0C780.5,277.1,781.3,276.2,781.2,277.1Z"/><path class="cls-2" d="M705.8,280.3c.4.1.5.1.1-.1Z"/><path class="cls-3" d="M792.5,274.2h0Z"/><path class="cls-2" d="M884.2,200c-4.5-1.8.9-2.3,3.1-3.6Z"/><path class="cls-2" d="M582.4,205.3c4.2-5.4,17.6.5,24-.8.1-4.5,11.3-11.9,12.7-11.2,27.7,18,9.3,19.7-12.2,29,21.7.8,43-3.6,14.3,9.8-7.5-17.3-39-5.1-55-7.5-7,13.9-1.6,27.9-19.8,26.3l5.8-1.8c-9.6,9.2-22.7-19.1-11.2-13.2,14.3-16.5-6.8-18.1-20.8-18-8.5-2.4-12.7-7.8-18.7,1.2-13.6-8.7-13.8,27.3-76.7,10.3,16.5-3.1,35.9-4.3,7-13.5l19.3-1.6-13.3-1c13.6-10.7,29.2,10.3,18.1,11.2-2.9-.6-1.6-.3-.2-.1-.1,3.4-1.6,1.5-8.6,4h10.1c33.9.5-23.5-28.4,37.1-26.6C499.9,204.1,636.7,231.1,582.4,205.3Zm-90.3,11.9q.3-.1.3-.3C492.3,216.3,491.4,217.2,492.1,217.2Z"/><path class="cls-2" d="M515.9,252.2c-11.9-1.9-11.3-19.5-2.4-14.2C506.3,249.7,526,245.1,515.9,252.2Z"/><path class="cls-4" d="M485.4,223.6c8.5,3.7,16.7-12.2,18.5,2.9C499.8,225.6,480.3,228,485.4,223.6Z"/><path class="cls-4" d="M512.6,215.6c20,.9-12.8,22.6-.6,9.8C508.2,222.7,512.7,218.6,512.6,215.6Z"/><path class="cls-2" d="M450.9,240.5c20.7-2,11.5,9.2-3.8,8.5C458.1,246.5,445.1,248.4,450.9,240.5Z"/><path class="cls-2" d="M734.6,338.1c0-2.4-3.7-7.4-.3-7.8C734.7,333.1,739.1,337.8,734.6,338.1Z"/><path class="cls-2" d="M735.8,314.1Z"/><path class="cls-3" d="M671.2,251.4c4.7-3.2,13.4-5.7,16.9.9C683.5,251.4,671.7,256,671.2,251.4Z"/><path class="cls-2" d="M688.1,252.3c.2-3.6,17.4-5.4,18.8-1.2C700.6,251.5,694.4,252.4,688.1,252.3Z"/><path class="cls-1" d="M622.3,252.6c-.8-.4-2.5-.5-1.5-1.5S623.1,251.6,622.3,252.6Z"/><path class="cls-2" d="M676.1,247.2c.7,4.5-4.1.5-6.7.1Z"/><path class="cls-4" d="M911,136.5c-.4,1.2-.8.9-1.3.1S910.5,136,911,136.5Z"/><path class="cls-2" d="M775.7,200.3l3.8.5C778.2,203.8,777.3,202.3,775.7,200.3Z"/><path class="cls-3" d="M450.9,240.5c2.5,16-17.7,3.9-32-2.1C430.1,239.1,448.5,228.1,450.9,240.5Z"/><path class="cls-3" d="M412.7,260.9v-3.7C422.2,256.9,420,257.6,412.7,260.9Z"/><path class="cls-2" d="M444.9,248.3l.7.7Z"/><path class="cls-3" d="M552.6,249.5c-.1,1-1.6,1-2.3,1.5S552,248.5,552.6,249.5Z"/><path class="cls-2" d="M698.8,209.5c-5.7,6.2-9.2,1.7-14.3-2.8Z"/><path class="cls-3" d="M679.7,200.7c.2-.2.3-.4.5-.5S679.9,200.5,679.7,200.7Z"/><path class="cls-4" d="M671.2,251.4c.5,3.8-4.7,1.1-7.1,1.4C663.6,248.2,668.4,251.4,671.2,251.4Z"/><path class="cls-2" d="M783.6,177.8h0C783.3,177.3,783.6,177.5,783.6,177.8Z"/><path class="cls-2" d="M438.6,261.5c-5.1-1.4,8.1-3.8,6.8-.5Z"/><path class="cls-4" d="M536.2,255.9c.8-.1,2-1.3,2.2,0S536.7,257,536.2,255.9Z"/><path class="cls-4" d="M449.3,288.5l-1.6.3Z"/><path class="cls-3" d="M177.2,90.6c3.9,1.3,14.3-1.7,14.1,3.1C187.4,92.3,177.5,94.9,177.2,90.6Z"/><path class="cls-3" d="M183.7,69.9h0Z"/><path class="cls-3" d="M92.8,70v-.5C93.2,69.6,93.1,69.7,92.8,70Z"/><path class="cls-3" d="M950.4,379.3l-32.9,6Z"/><path class="cls-3" d="M874.6,370c-.4.3-.5.2-.5-.2Z"/><path class="cls-4" d="M285.3,96.9c-1.6-.3-2.4-1-2.3-2.8C285.3,95,289.2,94.9,285.3,96.9Z"/><path class="cls-4" d="M283.9,99.7c1.4.8,1.4,1.2,0,2Z"/><path class="cls-3" d="M612.3,150.5c1,.1,2.1.2-.4,0C614.5,151.6,612.7,151.1,612.3,150.5Z"/><path class="cls-3" d="M617.7,156.8c-.3.8-.5.9-1,.2S617.3,156.7,617.7,156.8Z"/><path class="cls-2" d="M953.2,672a8.3,8.3,0,0,1,.8,1.2C953.6,672.8,952.4,672.5,953.2,672Z"/><path class="cls-2" d="M432.3,145.9c-.3.2-.6.1-.5-.2S432.2,145.5,432.3,145.9Z"/><path class="cls-3" d="M562.4,303.1c-11.2,5.3-8.3-4.4-4.5-4.2l3.5-.8C561.3,298.9,562.2,301.6,562.4,303.1Z"/><path class="cls-4" d="M444.7,295c4.9.3,13.2.9,3,2.2S427.6,297.6,444.7,295Z"/><path class="cls-3" d="M328,319.3c-2.8.3-2.7-.2-1.1-2.2C327.3,317.8,327.6,318.6,328,319.3Z"/><path class="cls-3" d="M313.2,625.2c-7.5,6.6-40.8,26.6-28.7,9.3C227.3,624,288,624.8,313.2,625.2Z"/><path class="cls-3" d="M251.1,626.4c-10.1,1.6-18.3,12.4-31.5,5.9C230.6,631,243.6,624.2,251.1,626.4Z"/><path class="cls-3" d="M313.2,625.3h0Z"/><path class="cls-3" d="M349.1,601.3Z"/><path class="cls-3" d="M494.5,632.2l-7.6,13.2Z"/><path class="cls-3" d="M499.4,627.1l-1.8.8Z"/><path class="cls-3" d="M496.4,628.1l-1.1.8Z"/><path class="cls-3" d="M177.7,620.3Z"/><path class="cls-3" d="M482.1,187.4c-.3.3-.7.7-.8.1S481.9,186.8,482.1,187.4Z"/><path class="cls-2" d="M312.3,217.3l-11.1-5.7C317.6,215.3,328.5,220.4,312.3,217.3Z"/><path class="cls-2" d="M407,196l2.8-3.9C411.7,195.4,410.3,195.7,407,196Z"/><path class="cls-3" d="M312.3,217.3l7.1,1.6Z"/><path class="cls-3" d="M309.2,197.9l4-.5Z"/><path class="cls-3" d="M304.1,197.6c2.1-.1,2.4.2,1.1,1.9Z"/><path class="cls-3" d="M298.1,197.7h0Z"/><path class="cls-2" d="M301.6,180.2l12.1,1.9C311.9,187.9,309.6,182.9,301.6,180.2Z"/><path class="cls-3" d="M213.8,213.2l7.7,5.2C213.1,215.5,207.8,216.9,213.8,213.2Z"/><path class="cls-3" d="M261.4,205.4c-1.1.7-1.9,1.8-2.2,0Z"/><path class="cls-3" d="M207.5,215.4h0Z"/><path class="cls-3" d="M419.4,234.8c-5-1.7-15.7.9-17.5-3.6C406.7,232.9,418.9,229.6,419.4,234.8Z"/><path class="cls-2" d="M417.9,225.9c5.4-1.3,17.8-5.8,20.2-1.2Z"/><path class="cls-3" d="M399.7,229.4c-3.2,1.4-7,7.6-9.1,2.5C393.9,230.1,397.3,224.1,399.7,229.4Z"/><path class="cls-2" d="M424.9,229.3h0Z"/><path class="cls-4" d="M457.2,228.4H447.1C455.1,226.9,454.8,224.4,457.2,228.4Z"/><path class="cls-3" d="M273.8,180.8c-.1.3-.5.8-.8.5S273.3,180.6,273.8,180.8Z"/><path class="cls-2" d="M88,176.5c0,2.8-6.9,2-7.8-.5Z"/><path class="cls-3" d="M93,175.5c-1-.7-1.9-1.4-.1,0C92,173.3,92.5,174.5,93,175.5Z"/><path class="cls-2" d="M159.7,173.7c.4.5.4.9-.3.8S159.5,173.9,159.7,173.7Z"/><path class="cls-2" d="M164.7,176.5l-1-.8Z"/><path class="cls-2" d="M102.9,72.8h0C102.1,78.5,102.5,75.6,102.9,72.8Z"/><path class="cls-2" d="M103.9,86.8Z"/><path class="cls-3" d="M137.3,270.3c-19.9,15.5,24.6-4.2,30.9,9.6-19.3,6.7-41.2-9.9-59.2,3.4C71.4,280.3,130.6,267.7,137.3,270.3Z"/><path class="cls-3" d="M203.6,265.3c-15.4-.3-35.9,3.7-39.5-5.9,24.5,1.3,47.2-.8,71.6-3.4C221,258.8,221.4,267.7,203.6,265.3Z"/><path class="cls-3" d="M110.4,305.1c-.8-9.5,2.2-18,11.8-14C137.5,303.9,100.4,312.3,110.4,305.1Z"/><path class="cls-4" d="M107.6,248.9l53-3.8C139.5,254.6,127.8,253.8,107.6,248.9Z"/><path class="cls-4" d="M222,273.4c8.1,1.8,39.8-7.1,33.3,3.4C245.9,274.5,227.4,280.2,222,273.4Z"/><path class="cls-3" d="M222,273.4c-2.1,6.6-23.5,9.1-30.9,4C211.7,281.2,207.1,262,222,273.4Z"/><path class="cls-4" d="M153.4,262.7c-10.3.4-20.4,1.9-30.6-.5C131.5,261.7,148.8,254.6,153.4,262.7Z"/><path class="cls-3" d="M107.6,248.9c8.4,2.4,15.5,1.3,22.7,7.5C120.4,255.9,85.2,253.2,107.6,248.9Z"/><path class="cls-3" d="M25,251,7.9,256.8C12,245.8,16.5,250.6,25,251Z"/><path class="cls-4" d="M216.6,268.5c-2.9-3.4-16.9,2-13-3.2C208.9,265.2,229.4,263.3,216.6,268.5Z"/><path class="cls-4" d="M177.5,270.5c6.4,1.1,21.1-5.3,22.8.9C193.8,270.3,180.4,275.7,177.5,270.5Z"/><path class="cls-3" d="M129.9,252.4l9.9-.7Z"/><path class="cls-3" d="M143.7,263.5c6.3-2,7.3.4,7.9,6.4C148.1,269,146.2,265.9,143.7,263.5Z"/><path class="cls-1" d="M148.7,268.7c1.8.7,3.2.9,3.2,2.6C142.6,272.2,134.7,269.3,148.7,268.7Z"/><path class="cls-4" d="M129.8,292.6c3.4.9,11.4-2,12.2,1.5C138.7,293.2,129.9,296.1,129.8,292.6Z"/><path class="cls-3" d="M146.7,259.2h-6.5C141.8,254.1,143.7,256.8,146.7,259.2Z"/><path class="cls-3" d="M109,290.7c-2.7-.5-8.7,2.3-9.1-.8C103,290,109.4,285.7,109,290.7Z"/><path class="cls-3" d="M232.3,245.5c-2.5,2.3-3.9,1.9-4.5-.7C229,242.1,230.4,243,232.3,245.5Z"/><path class="cls-4" d="M151.9,271.3c-.1-.4-.5-.8,0-1C161.8,267.4,161.9,271.2,151.9,271.3Z"/><path class="cls-4" d="M244.2,241.8l10.3,1.1C246.7,242.9,244.2,245.8,244.2,241.8Z"/><path class="cls-3" d="M131.9,298.2c-1.1,1.2-2.1,2.5,0-.1C128.7,299.4,130.4,298.6,131.9,298.2Z"/><path class="cls-3" d="M257.8,271.9c-5.3.4-.2-1.9,1.8-3.1Z"/><path class="cls-3" d="M196.4,234.1v-7.8C197.9,232.4,200.9,234.2,196.4,234.1Z"/><path class="cls-3" d="M249.5,270.3l2.7-2.2C252.4,270.4,251.7,270.9,249.5,270.3Z"/><path class="cls-3" d="M141.9,251.4l4.1-.5Z"/><path class="cls-3" d="M114.1,289.3c-1.1-.9-1.3-1.2-.1-1.7S114.5,288.5,114.1,289.3Z"/><path class="cls-3" d="M112.7,259.4c.9.9,1.1,1.3-.2,1.5S112.2,260,112.7,259.4Z"/><path class="cls-4" d="M140,269.4c.5,2.6-1.1,1.3-2.7.9C137.5,268.2,138.5,268.6,140,269.4Z"/><path class="cls-3" d="M153.4,262.7a14.8,14.8,0,0,1,.1-2.1C154.8,261.7,155.3,262.2,153.4,262.7Z"/><path class="cls-3" d="M134.6,263.9l2.2-.6Z"/><path class="cls-3" d="M160.7,270.3c-.2-.5-.5-1.1-.7-1.7S160.5,269.8,160.7,270.3Z"/><path class="cls-3" d="M131.8,298.1c.7-.3.8-.3.1.1Z"/><path class="cls-4" d="M157.4,314c3.4-.2,7.6-2.9,8.8,1.6Z"/><path class="cls-4" d="M148.8,314.1c4.8-.2,3.3.7.4,3.3C149.1,316.3,148.9,315.2,148.8,314.1Z"/><path class="cls-4" d="M138.8,315.1c2,1.6,3.5,2.4.4,3.6C139,317.6,139.1,316.1,138.8,315.1Z"/><path class="cls-4" d="M219.5,296.7c3.3-.4,3.2.8.5,1.8C219.1,298.6,219.7,297.3,219.5,296.7Z"/><path class="cls-4" d="M245.7,306.7l11.9,1.5C254.9,315.2,250.1,308.2,245.7,306.7Z"/><path class="cls-4" d="M225.2,305.2l11.4,1.8C232.9,306.4,224,310.9,225.2,305.2Z"/><path class="cls-4" d="M562.4,673.1Z"/><path class="cls-2" d="M108.2,657c-.1.5-.2.5-.6.3S107.9,656.8,108.2,657Z"/><path class="cls-4" d="M340.5,621.8c-.5-.4-.4-.9.2-1S341.2,621.6,340.5,621.8Z"/><path class="cls-4" d="M386,253.2c14.1-9.7,32.6,1.3,4.7,1.3C416.5,260,393.2,259.9,386,253.2Z"/><path class="cls-3" d="M363.2,248.9c-4.6-.9-15.8,4.3-16.2-1.2C351.5,248.6,362.8,243.6,363.2,248.9Z"/><path class="cls-3" d="M332,260.1h0Z"/><path class="cls-3" d="M375,246.2l2.3-1.8Z"/><path class="cls-3" d="M350.7,259.9l2.3-1.7Z"/><path class="cls-3" d="M202.5,229.4l-2.2-2.6Z"/><path class="cls-3" d="M361.9,254.3c-1.9,1.7-6.9.3-5-2.3Z"/><path class="cls-3" d="M326.5,238.5c-.7.4-1,.2-1.2-.5S326.3,237.8,326.5,238.5Z"/><path class="cls-4" d="M238.7,295.3c1.6-1.1,6.7-1.7,6,1Z"/><path class="cls-4" d="M244.8,300.6c-.3.6-.8-.5-.1-.3S244.8,300.5,244.8,300.6Z"/><path class="cls-3" d="M499.6,219.2c-11.9,7.7-7.5,3.2-1.5-7.3C498.9,215.8,499.3,217.5,499.6,219.2Z"/><path class="cls-3" d="M455.7,224.4c-1.4-.2-2.7-.5.2.1C453.3,222.5,455.1,223.5,455.7,224.4Z"/><path class="cls-3" d="M552.2,249.1l-5.8,1.8C554.6,248.7,553.4,250.1,552.2,249.1Z"/><path class="cls-3" d="M485.4,223.6h-1.5C484.6,222.5,485,222.1,485.4,223.6Z"/><path class="cls-3" d="M492.1,217.2c-.7,0,.2-.9.3-.3S492.3,217.1,492.1,217.2Z"/><path class="cls-3" d="M632.2,222.4H632C632,222.4,632,222.3,632.2,222.4Z"/><path class="cls-2" d="M448.7,246.3h0Z"/><path class="cls-2" d="M561.3,298.2V298C561.3,298.1,561.5,298.1,561.3,298.2Z"/></svg>