<svg id="Layer_1" data-name="Layer 1" xmlns="http://www.w3.org/2000/svg" viewBox="0 0 955.8 449.4"><defs><style>.cls-1{fill:#655b55;}.cls-2{fill:#b3bfd0;}.cls-3{fill:#aab6c7;}.cls-4{fill:#a2aec0;}.cls-5{fill:#74685d;}.cls-6{fill:#5c524d;}.cls-7{fill:#3d4c60;}</style></defs><path class="cls-1" d="M955.8,454.8H.6C-85.1,347.5,949.9,434,955.8,407.6Z"/><polygon class="cls-2" points="953.6 429.3 4 413.7 0.4 -1 959.3 -1 953.6 429.3"/><path class="cls-3" d="M1.2,71.3C-10.1,7.7,35,45.7,69.7,62.9c25.6,16.1,58.9,18.1,80.6,39,7.8-2.2-19.3-58.3,5.9-41.3,16.7,15.5,17.1-16.9,28.8-3.7-24.3,21.9,51.7,42.8,30-55.7,48.1,4,169.7-20.4,154.2,59.3,4.6,21,13.2,52.5,39.8,51.4-.3,4.5-3,16,4.9,13.3,14.6-14,24-35.2,46.1-36.3,96.2-22.5,61.9-79.5,93.8-53.5C555.9,93.3,537,58,516.5,84.7c36.7,67.4-138.1,51.2-173.9,68.2,15.3,16.6-17.7,14.6,18.6,31.2,10.9,13.3-52.4,34.8-62.4,51.3,38.6,8.4,202.2-27.7,134.5,27.3,44.3,1.4,85.6-9.7,127.2-23.6,19.9-7,85.5-6.6,37-32.1,7.6-2.9,18.7-13,26.3-6.7-9.7,51.4,110.6-18.9,110.4-44.4-84.9,4-173.4,17-258.1,29.7,67.6-41.2,136.6-19.4,179.4-109-8.6,1.6-32.1,15.8-33.3,2.1,21.4-20.1-6-19-12-27.1-55.6,10.9-40.3-62.4,9.4-52.4-14.9,22.6,2.8,18.4,21.4,22.1,15.7,39.1,50.4,31,76.9,58.7-17.1,43.9-33.8-14-88.9,60.6,52,22.8,68.8-2.2,123.1-20.6,12.9-35,40.6-34.5,73.8-35.5,16.7,0,35.3-3.2,51.1.2-3.8,2.5-7.9,6.3-2,8.2,14-4.2,65.8-16.8,45.4,11.3,48.7-7-.2,16.6-14.5,29.1-44.5,7.5-89,16-133.2,25.3-21.3,17.3,73.2-3.9,82.7-5.1-47.3,40.5-126,37.9-171.6,85.8-25.7,6.9-56.2,6.7-5.6,10.8-16.7,2.1-37.9,6-50.6,16.6-97.8,2.7-190.7,30.3-288.8,17.1,59.2-62.2-23.1-9.3-51.8-45.7,50.1-30.7-37-120.3-72-116.4,23.5,55.6-28.7-26.2-14.7,41-31.6-12.6-84.7,48.2-82.7-24.1C122.3,83.5,33.4,101.2,1.2,71.3Zm194.1,55.9c-2.9-2.4-3.8-4.1-6.2-.7C191.4,128.8,192.1,130.2,195.3,127.2Z"/><path class="cls-4" d="M1.2,71.3c15.9,7,31.4,15,47.7,20.6,119.9,10.2,28.1,72.8,98.9,83.8,17.7-6.4,31.3-22.6,52.5-13-14-67.2,38.2,14.6,14.7-41,29.6-.9,61.5,32.9,75.8,60.9,43.1,60.7-63.7,67.1,75.5,69.8-81.1,64.7,118,5.3-9.7,63.8-12.6-12.6-38.2-6.2-55.6-11C31.5,209.3-17.8,372.6,1.2,71.3ZM212.8,259.4c20.6-8.7-3.8-23.9-13.2-33C161.7,245.1,188.1,243.5,212.8,259.4Z"/><path class="cls-5" d="M958.3,430.2c-271.2,1.2-620.5-29.8-855.4-49.5-34.1,10.4-47.4-17.1-54.9-4.3-3.1,5.4-6.1,3.9-9.4.8-1.8.8-5.6,9.9-7.8,5.6-.9.6,1,1.3,1.2,2C-7.9,390.3,1.8,372.3,1.2,341c128.1-7.5,253.1,25.3,382.1,32.3-9.6-10.3,165.3,15.5,94.4-7.3-46.1,1,51.4-11.6,69-4.2,28.8-16.2,80,.6,19.8,9.4,36.6,7.5.7-1.5-.7,11.3,47,.6,106.4.6,151.5,17.5C477,409.8,929.6,421.7,958.3,430.2ZM569.6,402.4c21.5,16,92.5-9.9,23,0C585.6,402.5,573,395.4,569.6,402.4Zm-101-8.8c-3.5.9-1.6-3.1-.1-4.9-5.7-1.5-.1-5.9,3.9-6.2-7.5-10.9-8.5,9-15.4,15.5C461.9,394.9,469.1,400.5,468.6,393.6Zm-33.5,4.8c4.3-1.1,9.1-1.5,13.1-3-27.2-14.2-17.6-20.2-38.2,2C418.4,397.6,426.9,398.6,435.1,398.4Zm44.8.2c17.4,9,42.4,3.9,62.2,3.3C536.4,396.3,463.4,389.7,479.9,398.6Zm-182.8-8c-26-1.8-32.1,3.4-4.9,10C292.5,400.6,293.6,397.7,297.1,390.6Zm9.3,1-2.3,1.2C306.9,396.2,313.1,391.6,306.4,391.6Zm92.4,5c-3-1.3-4.1-3-6-.3C395.2,398,395.7,398.3,398.8,396.6Zm-16.6-.8c-1.9,0-4.5,1.9-2,3.6Zm77.1-17.4c-2,1.3-1.9,1.8-.7,3.4C460.7,381.1,460,380.3,459.3,378.4Zm-67.4,11.5c-1.8-1.2-2.2-1.2-3.4.1C389.8,391.6,390.1,391,391.9,389.9Zm-65.5-22.4c-.6-1.4-1.9-.1-12.3,0Z"/><path class="cls-6" d="M61,422.4c35.4-5.7-94.4-15.3-25.9,2.1C.6,431.6-1,432.2,1.2,396.6c8.5-1.2,27.9,8,30.3-.3-40.6.4-40.4-16.6.5-11.5,8.6-14.3,9,1.4,16-8.3,11.2-9.2,35.1,15.1,54.9,4.2-2.7,14,11.7,3.6,19.9,3.1,31.2,6.3,62.9,5.7,94.1,12.1-41.1,6.9-96.8,5.7-140.2,12.2,31.3,9.3,68.5-5,78,24.1-9.5-27.9,26.1-13.8,41.6-14.8,4.2-.8,52.9,3.4,32.3,6-7.8-1.3-13.9.4-10.9,15.3,29,4.1,63.7-23.5,85.6,4.5l-10.4.5M77,423.8c7-1.1-.6-4.8-3.6-2ZM145.7,436c-.3-.1-.8-.5-1.1-.1S145.2,436.6,145.7,436ZM44.4,433.3l-.6-.2C43.9,433.5,44,433.6,44.4,433.3Zm37.3-50.8c-.2.7,1,.2.3-.1Zm30,18.2c-.5.9.3.9.8.3Zm167.5,33.1c-.2-.3-.3-.3-.6,0S279,434.1,279.2,433.8Zm15.7,2.7c-.4.2-.4.4,0,.5S295.2,436.7,294.9,436.5Z"/><path class="cls-6" d="M795,428.3c51,1.2,107.1,7.1,163.2,10"/><path class="cls-7" d="M107.9,337.1C9,331-5.4,379.8,1.2,267.7c36.3-3.3,108.6-26.4,128,5.9,1.9,17.8-9.3,26.7-24.9,17.6-13,32.1,39.1,13.6,3.5,29,5.8,2.7,14.7,1.4,17.3,7.9C118.4,332.5,101.3,325.4,107.9,337.1Zm10-63.5-6.8-.7C115.7,286.4,129.2,289.6,117.9,273.6ZM96,270.2c-1.7,13.9-13.6,1.5-20.5,7-16.3,16.5-7.6,22.8,10,20.7C91.1,292.6,112.8,255.7,96,270.2Z"/><path class="cls-1" d="M1.2,427.3c77.1.5-34.8-11.8,44.9-13.8C55,414.2,80,424,61,422.4,46,419,0,447.9,1.2,427.3Z"/><path class="cls-5" d="M1.2,393.6c8.1,2.9,29.3-2.3,29.9,6.4C22.7,397,4.1,401.2,1.2,393.6Z"/><path class="cls-4" d="M619.6-.8C911.8,11.1,991.7-91.4,958.2,264.1c-66.3,13.9-136.3-39.7-206.5-23.4-19.3,20.5-48.2,8.1-73.5,9.4-8.7-2.7-26.9,2.4-30.2-5.6,40.4,3.7,64.6-27.9,96-47,32.5-8.1,89.2-17.4,111.4-44-8.9,1.3-105.3,22.2-82.7,5.1,44.2-9.3,88.7-17.8,133.2-25.3,14-12.4,63.6-36.1,14.5-29.1,20.5-28.1-31.5-15.5-45.4-11.3-6.1-1.9-1.6-5.7,2-8.2-15.8-3.4-34.4-.2-51.1-.2-33.4,1-60.7.5-73.8,35.5C697.7,138.4,681,163.4,629,140.6c21.1-17.9,39.1-55.6,73.1-40.2,48.5-43.9-47.5-30-57.5-74.5C632.6,10,599.9,30.6,619.6-.8ZM676.2,248c-1.9-.6-1.9-.7-3.2,0C674,249.2,674.3,248.4,676.2,248Z"/><path class="cls-7" d="M751.7,240.7c26.6-6.1,205.1,17.4,200.8,43.8-35.9-6.1-47.2-16.1-69-6.3-1.7,10.8,14.9,16,13,6.4,26.2,13.7,72.5,5.6,61.7,46.6-43.1,1.5-27.6,12.1-60.5,11.8-13.4-11.7-131,8.4-93.1-8.1-29.4-.5,1.9,24.5-1.3,9.6,87.6,17.2-91.7,2.6-44.3,1.7-26.8-6.2-44.3-.6-70-2-35.8-4.1-133.4,10.8-144.9-29.5-11.5,25.7-41.1,8.3-63.4,15.4-9.5,2.4-14,11.1-14.2-2.4-7.8-1.6-18.7-.1-25.5-6.4,5.3,13.5-24.2,8.2-40.3,7.4-4.6,8.4-3.8,11.7-12.6,3.4-15.5-22.5-16.1-29.5,12-36.7,1.4,11.7-3.3,26.3,11.5,14.6-37.7-45.6,129.3-16.5,149-37.4-3.7,4.9-6.5,10.4-9.3,15.9,9.5,1.6,22.3-24.5,9.3-15.9-6.8-6.5,76.2-11.1,69.9,2.3,7.3-3.2,1.9-7.2-.1-12.1,33.5-15.7,69-12.6,104.8-9.9-8.5,17.9,54.5,17.7,69.7,13.8C800.1,254.7,764.9,249.9,751.7,240.7Zm-33.5,97.5c46.9-22.5-58.7.8-79.4-8.8C635.5,337.3,728.7,339.1,718.2,338.2Zm-17-89.4c-.7-.2-3.7,1.7-.5,5.1C700.9,252.2,701,250.5,701.2,248.8ZM799,285.5c22.6,6,19.1-5.7-1-7,2.1,10.4-7.7,2.7-13.8,2C787.1,283.9,799.1,293.7,799,285.5Zm-66.1,14.7c20.7,2.8-9.2-12.8-15.9-16.7C707.6,287,729.1,295.5,732.9,300.2Zm-283,6.1c-10.4-11.7-24,12.7-1.7,12.2,2.6-4.7,8,1.7,7,4.1C455.9,318.2,451.1,311.5,449.9,306.3Zm328.6-9.4c-8.7-4.9-48.6-45.6-50.3-28.1C740,291,756.5,289.2,778.5,296.9ZM680.8,300c13.5-5.2-11.1-14.2-15.1-21.1C647.8,293,669.9,294,680.8,300Zm162.5-5.4c12-11.9-24.2-19.7-34-24.4C819,280,832.3,286.2,843.3,294.6ZM735.1,331.7c2.2,8,45.1,12.2,42,.2C763.1,331.7,749.1,331.7,735.1,331.7Zm-220-17.6c13.7-11.9-.6-13.6-7.6-22.3C504,302.9,501.1,308.9,515.1,314.1Zm184.8-40.2c-14.5,2.9,3.3,21,9,27.5C718.1,293.7,702.5,282.8,699.9,273.9ZM552.8,309.3c7.7-6.5-7.3-17.3-9.5-25.4C531,297.2,543,300.8,552.8,309.3Zm135.1-48c-9.5-10.3,12.5,24.8,14.8-.7C682.9,243.8,700.1,275.8,687.9,261.3ZM769.7,307l8.5-4.9C763.7,291.7,746.2,294.3,769.7,307Zm-291.6-6.6L469.6,285C470.1,297,466.8,323.3,478.1,300.4Zm391.4-9.6c2.7,6.6,7.1-4.3,10.6-6.6C870.9,278.1,870.1,280.2,869.5,290.8ZM710.3,254.1c-7.3,7.6-3.5,8.4,3.2,12.3C721.3,265.3,713.5,260,710.3,254.1Zm104.1,33.2c.6,5.8-2.5,12.7,4.1,13.4C827.4,297.3,818.5,293,814.4,287.3Zm-3.1,62.6c.4-.8,1.1-1.5-.1-1.7S810.2,349.1,811.3,349.9Zm-120.9-8.2c-.7-.2-.1,1,.2.4A.8.8,0,0,0,690.4,341.7Zm-54-77.7.3-.2C636.9,263.2,635.8,263.8,636.4,264ZM495.9,325.3c-.1.2-.1.1,0,0S495.6,325.3,495.9,325.3Zm406-57c.4.1.6.1.5-.3S901.9,267.9,901.9,268.3Z"/><path class="cls-5" d="M404,290.5c4.1,5.6,3.3,13.6,8.9,18.4C397.3,326.5,396.5,294.2,404,290.5Z"/><path class="cls-5" d="M559.6,268.5c2.8,13.1-18.2,9.5-26.6,10.7C541.6,276.3,551.6,269.2,559.6,268.5Z"/><path class="cls-5" d="M630.4,262.8c2,4.9,7.4,8.9.1,12.1C629,270.5,626.1,266.5,630.4,262.8Z"/><path class="cls-4" d="M195.3,127.2c-3.2,3-3.9,1.6-6.2-.7C191.5,123.1,192.4,124.8,195.3,127.2Z"/><path class="cls-7" d="M559.7,268.7l-1-.8Z"/><path class="cls-1" d="M869.7,338.1c17.4,10.1,38.9,1.8,57.7,4-4.1-.9-13.7-2.6-5.6-6.2,21.4-2,42.7-13.2,36.4,17.2-27.1,1.4-56-7-81.8,2.7,25.6,7.2,51.9,2.8,77.9,8.8,9,23.7-3.6,21.1-23.6,20.9,20.4-11.7-78.4,2.8-38.7-6.8-11.9-14.8-36.1-5.3-48.6-18.7,2.6-1.8,8.8-2,9.6,2.1,1.5-14.1-50.1-20.7-47.7-12.2-16-1.8-19.9-14-.7-15C774,348.8,866,337.9,869.7,338.1Zm72.8,10.1,6.6-3.4C938.1,341.6,921.9,339.1,942.5,348.2Zm-73.1-4c.4.2.5.2.6-.3S869.5,343.7,869.4,344.2Z"/><path class="cls-7" d="M908.8,382.8c161,14.9-117,25.8-143.5,1.6,9.7-9.2,46.1.2,18.5,1.4,5.4,1.4,23.5,3.5,12.5-3.9C835.6,373,867.2,385.6,908.8,382.8Z"/><path class="cls-5" d="M842.1,395.5c116.5-8.6,180.2,34.4,14.8,9.1C848.9,403.4,838.9,406.9,842.1,395.5Z"/><path class="cls-5" d="M958.3,303.4c-67.7-15.6-101.1-45.4-5.6-18.7C951.7,243.8,962.6,284.1,958.3,303.4Z"/><path class="cls-6" d="M898.7,412.4c19.4,5.7,65.6-11.5,59.6,17.8l-82.2-5C900.5,422.6,868.8,425.3,898.7,412.4Z"/><path class="cls-7" d="M954.3,364.6c-26-6-52.3-1.6-77.9-8.8C894.6,351.7,963.5,342.1,954.3,364.6Z"/><path class="cls-3" d="M143.4,76.1c-7.8,8.5-13.4-7.9-19.1-12.6C125.6,45.5,136.6,69.4,143.4,76.1Z"/><path class="cls-7" d="M301,305.2c17.4,4.8,43.1-1.6,55.6,11-9.6,2.1-17.6,1.3-25.7-4.1-32,5.8,28.6,1.8,3.2,24.2-33.2,16.9-60.5-34.3-85.4,1.5-29.1-4.7-60.5-5.3-91.1-8.6,8.2-30.1-52.5,28.4-22.6-35.8,8.5-1.1-6.1-19-.3-23.8,49.7,9.7,100.3,16,147.8,34.8-10.3,4.4-4.6,6.7,2.7,8.4C286.9,328.6,297.3,312.8,301,305.2ZM258.1,313c-5.1-11.1-13.7,5.3-15.6,11.5C246.7,319.3,252.3,316,258.1,313Zm-104.4-3.2c17.6-13.5-3.9-5.3-12.2-3.1Zm150-1.4c-.1-.4-.2-.4-.6-.2S303.3,308.7,303.7,308.4Zm-13,16.6c-.2.3-.1.2,0,0S290.3,325.1,290.7,325Zm27.7-9.1c0-.3,0-.3-.3-.2Z"/><path class="cls-5" d="M233.5,337.1c61.8-27.4,42.4,8.3,100.6-.8,18.8-25.6-6.7-10.3-13.7-23,37,11.9,55.4-22.8,67,19.2,9.3,5.4,8.3,6.6,13.3-3.8,21.2-2.1,20.5,9.5,7.7,17.6-13.8,1.2-45.8,21.1-31.6,3.3-20.3,10.4-76.8,26.1-38.6-1.7-10.9,4.6-29.2-2.2-41.8-1.5C282.7,336.8,248.4,352.3,233.5,337.1Zm137.1,10.5c1-2.1,1.8-2.8-.4-3.9C369.4,345.4,368.9,346,370.6,347.6Z"/><path class="cls-3" d="M212.8,259.4c-24.7-16-51.1-14.3-13.2-33C209,235.5,233.4,250.7,212.8,259.4Z"/><path class="cls-5" d="M298.4,311.3c-16.3,17.6-5.8,1.6-23.2-2.4,7-5.5,18-6.5,25.8-3.7C300.6,310.4,289.6,312.4,298.4,311.3Z"/><path class="cls-5" d="M134.7,269.6c-.7.2-1.5,1.4-2,.9C130.5,268.5,133.2,269,134.7,269.6Z"/><path class="cls-7" d="M300.9,305.3l-2.6-1.5Z"/><path class="cls-1" d="M769.5,440.6m-466.2,2.6c-17.7-33.7-85.8,14.5-85.7-12.9-5.5-12.7,13-2.8,15.9-8-319-15.1,36.4-30.4,141.4-20m-63.6,39.9,46.4,2.1M256.5,417.4h-.2C257,418.9,258.3,418.3,256.5,417.4Zm-7.6,4.4c-4.9-.9-9.8-5.5-13.6-3.4C238.9,425,242.2,425,248.9,421.8Zm106.6-20.6c-10.5,2.6,1.5,6,6.2,1.5Zm-223.5,3c-1.8,4.2,12.1,4.9,12.2,0Zm123.6,21,4.2-2.4C253.1,416.6,245.1,419.3,255.6,425.2Zm117-22.7c-3.4-1-6.5-4.3-7.8-.5C367.8,404.7,368.9,406.6,372.6,402.5ZM251.1,429.1c.3-3.2-3.7-.8-5.7-1C245.3,430.7,249.3,428.8,251.1,429.1Zm500.1,14.5-1.6,1.1C750.8,445.4,752.9,444.8,751.2,443.6Zm-386.4.2c-.8-.7-1.2-.5-2-.1S363.9,444,364.8,443.8Zm164.8-19.1q.6-.1.3-.6C529.4,424.2,529.4,424.3,529.6,424.7Z"/><path class="cls-6" d="M813.9,376.7c-23.3,2.8-7.5,14.7-30.1,9.1,28.5-1.3-9.1-10.5-18.5-1.4,82.3,45.4-88.3,29-134,20,24.3-8.9,61.3,10.7,86-4.4-18.4-17.6-201.5-14.8-129.9-24.9-6.7-2-14-3-20.9-3.9,59.1-6-4.8-23.8,44.2-26.1-16,8.6-.3,11.5,2.1,16.2,6.6-4.3,5.2,12,10,12.6,43.2-4.2,95.4,12.6,130.2,4.5,36.4-5.7,73.1-9.9,109.6-15.2C872.5,388,816.2,366.8,813.9,376.7ZM713.1,408.6c.8-2.7-.9-5.5-4.8-3.7Zm76.5-1.8c-.4-.6-1-.6-1.1.1S789.4,407.5,789.6,406.8Zm-73.5,5.3c0-.4-.2-.4-.5-.4S715.7,412.4,716.1,412.1Zm-31-9.1c.2.2.2.2.3-.1Z"/><path class="cls-7" d="M237.5,341c22,7.2,89.3-1.4,97.8,12.9C312.6,370.6,171,351.4,237.5,341Zm1.8,11.5c-.6.3.5.8.3.1Z"/><path class="cls-1" d="M213.6,342c79.1,42.1-190.7-7-77.8-15.8,23.9,10.5.6,8.3,28.5,16.3-3.6,9.8-24.7-4.8-23.5,6.8C164.9,347.7,193.7,346.9,213.6,342Z"/><path class="cls-1" d="M408.1,347c3.3-5.8,16-9.8,7.9-16.7,9.8,1.6,23.5-4.7,29.3,5.2-3.4-12.7,17.7-12.1,9.6-3.4,9.4,5.3,16.8,2.5,25.8-2,48.8-8.9,5.6,11.3,27,14.9-18.4,8-38.9-6.2-54.7-5.9-30,3.3-47.6,39.6-78.9,30.7,6.3-4.1,13-11.1,20.9-6.7C393.2,351.7,396.9,348,408.1,347Zm43.7-12.4h0C451.4,334.3,451.4,334.5,451.8,334.6Z"/><path class="cls-7" d="M497.7,349c24.5-6.4,90.3-19.7,94.7,8.9-14.2-18.7-49.4,18.8-55.7-3.4-1.6,7-17.6,9-14.3,1.1C515.9,354.7,483.6,354,497.7,349Z"/><path class="cls-6" d="M397.2,371.5c15.5-14,35.4-28,55.8-32.4-17.9,22.5-29.5,31.8,7.9,26.7C551.8,380.1,429.6,373.6,397.2,371.5Z"/><path class="cls-1" d="M898.7,412.4c-19.1,21.6-57.2-11.7-49.8,3.2-10.4,7.9-9.7-16.6-8.1-23C842,416.6,881.5,397.9,898.7,412.4Z"/><path class="cls-6" d="M850.8,413.4c95.5,23.3-112-3.9-37.6-10.6C832.8,397.4,841.1,424.9,850.8,413.4Z"/><path class="cls-7" d="M395.1,350.2c2.6,20.4-9.2,5-25.1,23.1C306.3,368.1,374,355,395.1,350.2Z"/><path class="cls-1" d="M817.9,414.4c42.5,10.9-52.6,1.1-71.8.2A158.3,158.3,0,0,1,817.9,414.4Z"/><path class="cls-6" d="M483.9,396.7c23.8-4.8,36.9-1.9,58.2,5.2C533.7,402.7,471.5,407.4,483.9,396.7Z"/><path class="cls-1" d="M160.8,388.4c-6.7,1.2-35.8-.3-26.1-8.3C141.9,387.4,159.9,361.3,160.8,388.4Zm-6.1-9c-.8-.6-1.4-1.3-1.9-.2S153.6,380.2,154.7,379.4Z"/><path class="cls-1" d="M432.9,361.7c13.7-6.2,42.6-14.1,53.5-10.5C468.9,374.9,454.3,359.6,432.9,361.7Zm33.3-2.7c-.1-.4-.2-.5-.6-.2S465.8,359.3,466.2,359Z"/><path class="cls-6" d="M344.2,363.9c1.6,11.6-57.2-1.2-66.6-4.9C299.9,359.4,322.2,359.4,344.2,363.9Z"/><path class="cls-6" d="M478,360.5c7-6,9-17.2,19.8-11.5C481.9,353.9,563.3,359.9,478,360.5Z"/><path class="cls-6" d="M448,395.6c-12.8,4-23.8,2.5-38,1.8C430.2,376.3,420.4,379.9,448,395.6Z"/><path class="cls-6" d="M592.6,402.4c8.2-1.6,21.7-8.2,35.4,2.1C616.7,404.1,600.7,413.3,592.6,402.4Z"/><path class="cls-6" d="M347.2,396.9c-15.5,6-34.7,8.8-47.9,1.6C316.8,396.2,328.4,396.4,347.2,396.9Z"/><path class="cls-6" d="M297.1,390.6c-3.5,7.1-4.6,10-4.9,10C264.9,394,271.1,388.8,297.1,390.6Zm-5,7.2-.2-.4C291.7,397.7,291.6,397.8,292.1,397.8Z"/><path class="cls-1" d="M122.8,383.8c-9.8,1.8-24.8,10.5-19-6C110,379.3,116.5,381.9,122.8,383.8Z"/><path class="cls-6" d="M249.7,401.5c-13.7-9.6,15.1-3,20.8,0Z"/><path class="cls-1" d="M499.9,370.6l-23-1.6Z"/><path class="cls-1" d="M592.6,402.4c.7,1,1.3,2,2,2.9C577.3,409,573,396.5,592.6,402.4Z"/><path class="cls-6" d="M734.2,422.3c-3,7.8-18.2,3-23,1.1Z"/><path class="cls-1" d="M465.9,384.7c4.2,8.6-5,4.9-3.1,11.7C453.2,397.9,463.7,388.3,465.9,384.7Z"/><path class="cls-6" d="M583.4,353c3.7-.3,4.2,1.9,9,4.9C586.3,355.5,568,352,583.4,353Z"/><path class="cls-1" d="M483.9,396.7c-3.3,2.5-6.8,1.5-10.6.6C477.5,394.2,480.1,390.3,483.9,396.7Z"/><path class="cls-1" d="M531.7,360.9c1.6-2.2,3.3-4.3,5-6.4C538.1,360.2,538,362,531.7,360.9Z"/><path class="cls-6" d="M465.8,384.6c0-8.1,1.2-7.4,6.6-2.1C470.2,383.1,467.9,384.3,465.8,384.6Z"/><path class="cls-1" d="M576.5,406.5c-6.3,1.2-9.6-7.7-2.8-6.9Z"/><path class="cls-6" d="M370,373.3c4-5.3,8.6-3.1,13.3,0Z"/><path class="cls-6" d="M576.5,406.5c-1.7-4.5-4.8-8,2-6.6C577.6,404,582.8,406.2,576.5,406.5Z"/><path class="cls-6" d="M462.8,396.4c-1-3.9,5.1-7.6,3.6-2C470.9,392.3,467.5,400.1,462.8,396.4Z"/><path class="cls-1" d="M539.6,361l7.1.8Z"/><path class="cls-6" d="M359,372.9l10.3.4Z"/><path class="cls-6" d="M306.4,391.6c6.7,0,.5,4.6-2.3,1.2Z"/><path class="cls-6" d="M398.8,396.6c-3.1,1.7-3.6,1.4-6-.3C394.7,393.6,395.8,395.3,398.8,396.6Z"/><path class="cls-6" d="M457.9,395.7l4.1,1.1C459.6,397.1,455.8,399.5,457.9,395.7Z"/><path class="cls-4" d="M382.2,395.8l-2,3.6C377.7,397.7,380.3,395.8,382.2,395.8Z"/><path class="cls-6" d="M459.3,378.4c.7,1.9,1.4,2.7-.7,3.4C457.4,380.2,457.3,379.7,459.3,378.4Z"/><path class="cls-6" d="M391.9,389.9c-1.7,1.1-2.1,1.7-3.4.1C389.7,388.7,390.1,388.7,391.9,389.9Z"/><path class="cls-6" d="M326.4,367.5H314.1C324.5,367.4,325.8,366.1,326.4,367.5Z"/><path class="cls-6" d="M467,390.8c-.2-1.5-.4-2.4,1.5-2.1Z"/><path class="cls-6" d="M475.8,367.9c.9-.6,1.5-2.5,2.7-1.6C477.7,367.1,477.1,368.3,475.8,367.9Z"/><path class="cls-6" d="M299.5,398.7c-1.6,2.2-2.7,1-.2-.2Z"/><path class="cls-6" d="M32,384.8c-.3-.7-2-1.4-1.2-2S32.3,384.2,32,384.8Z"/><path class="cls-1" d="M103.8,377.8c-1.6-.7-.6-1.7.2-.1Z"/><path class="cls-6" d="M570.6,403.7l.9,2Z"/><path class="cls-4" d="M376.2,397.6l-1.7.2Z"/><path class="cls-1" d="M304.3,399.7a17.4,17.4,0,0,0,1,1.9C303.9,401.9,304.4,400.6,304.3,399.7Z"/><path class="cls-6" d="M569.5,402.6a2.8,2.8,0,0,1,.1.9C568.8,403,568.5,402.7,569.5,402.6Z"/><path class="cls-6" d="M569.6,401.4c.1.4.5.8,0,1Z"/><path class="cls-6" d="M304.3,400.7a1.9,1.9,0,0,0,.1.8C304.3,401.2,304,400.9,304.3,400.7Z"/><path class="cls-6" d="M573.5,399.5l-.7-.6A1.3,1.3,0,0,1,573.5,399.5Z"/><path class="cls-6" d="M468,397.5v.3C468,397.7,467.7,397.7,468,397.5Z"/><path class="cls-4" d="M377,397.8l-.9-.2C376.6,396.9,376.8,397,377,397.8Z"/><path class="cls-6" d="M447.9,395.5h.3C448.1,395.5,448.1,395.8,447.9,395.5Z"/><path class="cls-1" d="M468.6,393.6h-.5C468.3,393.4,468.4,393.4,468.6,393.6Z"/><path class="cls-1" d="M475.8,368.9h0Z"/><path class="cls-1" d="M475.8,367.9c.9-.1,1.3,0,1,.9S475.8,368.6,475.8,367.9Z"/><path class="cls-1" d="M152.8,420.4c.6,3.9,1.3,7.9,1.9,11.8C146,429,146.9,426.6,152.8,420.4Z"/><path class="cls-1" d="M77,423.8l-3.6-2C76.4,419,84,422.7,77,423.8Z"/><path class="cls-1" d="M44.4,433.4c-.4.2-.5.1-.6-.3Z"/><path class="cls-1" d="M61,422.4c-.3.5-.5,1.4-1.1.6Z"/><path class="cls-1" d="M228.6,423.4c.3-.6.5-1.5,1.1-.7Z"/><path class="cls-5" d="M81.7,382.5H82C82.7,382.7,81.5,383.2,81.7,382.5Z"/><path class="cls-5" d="M111.7,400.7l.8.3C112,401.5,111.2,401.6,111.7,400.7Z"/><path class="cls-5" d="M55,420.4h0Z"/><path class="cls-1" d="M279.2,433.8q-.3.4-.6,0C278.9,433.5,279,433.5,279.2,433.8Z"/><path class="cls-1" d="M294.9,436.5c.3.2.3.4,0,.5S294.5,436.7,294.9,436.5Z"/><path class="cls-1" d="M243.5,437.3h-.2C243.4,437.4,243.5,437.1,243.5,437.3Z"/><path class="cls-5" d="M826.9,429.3c-.4.4-.7,1.5-1.2.8A12.5,12.5,0,0,0,826.9,429.3Z"/><path class="cls-5" d="M96,270.2c16.8-14.5-4.9,22.4-10.5,27.7-17.6,2-26.3-4.1-10-20.7C82.5,271.7,94.3,284.1,96,270.2Z"/><path class="cls-5" d="M131.8,327.3c-43.2-9.8-3.4-7.8-12.7-16.5-15.9,4.3-19.3-5.8-14.2-18.4,24,8.2,21.2-6.3,26.9-22.8C149.1,296.8,113.3,309.1,131.8,327.3Z"/><path class="cls-5" d="M117.9,273.6c17.1,26.1-18.8-3.1,0,0-.7,1.4-1.4,2.9,0-.1C117.7,276.9,117.8,275.2,117.9,273.6Z"/><path class="cls-1" d="M120.9,324h0Z"/><path class="cls-5" d="M104.9,292.4l-.6-1.2Z"/><path class="cls-5" d="M103.9,294.4l-.7.4Z"/><path class="cls-6" d="M55,415.4l2.1.9C56.5,417.6,55.8,415.9,55,415.4Z"/><path class="cls-6" d="M9.1,432.3v-.2C9,432.2,9.3,432.3,9.1,432.3Z"/><path class="cls-6" d="M4.3,428.4H4C4.1,428.4,4.1,428.2,4.3,428.4Z"/><path class="cls-5" d="M751.7,240.7c13.2,9.2,48.4,14,53.2,26C781.2,272.2,700.3,268.4,751.7,240.7Z"/><path class="cls-3" d="M676.2,248c-1.9.4-2.2,1.2-3.2,0C674.3,247.3,674.3,247.4,676.2,248Z"/><path class="cls-5" d="M731,379.6c-28.9-11.3-104.7,11.2-113.7-19-7.6.2-22.2-7.9-6.6-15.5,24.4.7,93.4-10.4,107.5,6.7,48.5,6.3,70.4-2.3,111.6,2.1,8.4,1.4,24.2-4.2,23.2,8.2-3.2-6.7-15.5-2.5-3.8,2.8,67.5,8.2,13.3,22.6-37.5,10.6C949.7,363,760.9,369.9,731,379.6ZM625.5,362c4.2-2.2-.2,0-2.3,0C630,350.9,613.6,367.7,625.5,362Z"/><path class="cls-5" d="M589.6,349c-14.7-18.8-69.9,3.5-92.4-8.8,26.2-23.8,25,2.9,47.5-24.9C541.4,345.4,629,335.9,589.6,349Z"/><path class="cls-1" d="M776,350c-45.9,18.2-97.7-16-17-3.8C730.7,345.2,764.4,350.2,776,350Z"/><path class="cls-5" d="M778.5,296.9c-22-7.7-38.5-5.9-50.3-28.1C729.8,251.3,769.8,292,778.5,296.9Z"/><path class="cls-1" d="M719.2,329.4c12.8,17.4-63.2,4.5-80.8,2.6,3.4-6.2,19.1,1.2,26.8-.5C688.2,328.6,703.9,335.2,719.2,329.4Z"/><path class="cls-5" d="M680.8,300c-10.9-6-33-7-15.1-21.1C669.7,285.8,694.3,294.8,680.8,300Z"/><path class="cls-5" d="M447.8,318.4c-20.7,2-9.4-24.6,1.1-12.1,2.9,1.9,4.6,10.9,7,15.9C453.6,318.9,452.5,314.4,447.8,318.4Z"/><path class="cls-1" d="M843.3,294.6c-11-8.4-24.3-14.6-34-24.4C819.1,274.9,855.3,282.7,843.3,294.6Z"/><path class="cls-1" d="M735.1,331.7c14,0,28,0,42,.2C780.2,343.9,737.3,339.7,735.1,331.7Z"/><path class="cls-5" d="M515.1,314.1c-14-5.2-11.1-11.2-7.6-22.3C514.5,300.5,528.8,302.2,515.1,314.1Z"/><path class="cls-5" d="M699.9,273.9c2.6,8.9,18.1,19.8,9,27.5C703.2,294.9,685.4,276.8,699.9,273.9Z"/><path class="cls-5" d="M732.9,300.2c-3.8-4.7-25.3-13.2-15.9-16.7,6.1,4.2,36.3,18.2,16.4,17.2C736.3,298.7,735.2,297.5,732.9,300.2Z"/><path class="cls-5" d="M552.8,309.3c-9.8-8.5-21.8-12.1-9.5-25.4C545.5,292,560.5,302.7,552.8,309.3Z"/><path class="cls-1" d="M891.7,276.7c.4-8,18.4,18.2,4.7,7.6C897.5,299.3,871,278.3,891.7,276.7Z"/><path class="cls-1" d="M687.9,261.3c12.2,14.5-5-17.5,14.8-.7C701.1,285.8,677.8,251.2,687.9,261.3Z"/><path class="cls-5" d="M769.7,307c-23.6-12.7-6-15.3,8.5-4.9Z"/><path class="cls-5" d="M798,284.5c0-1.8-.1-5,0-6C820.8,279.7,818.6,293.1,798,284.5Z"/><path class="cls-5" d="M478.1,300.4c-11.3,22.9-8-3.4-8.5-15.4Z"/><path class="cls-5" d="M560.6,272.6c13-8.6.3,17.5-9.3,15.9A100.3,100.3,0,0,1,560.6,272.6Z"/><path class="cls-1" d="M869.5,290.8c.6-10.6,1.4-12.7,10.6-6.6C876.7,286.5,872.2,297.4,869.5,290.8Z"/><path class="cls-5" d="M719.2,329.4l-15,5.2C704.2,327,713.9,330.8,719.2,329.4Z"/><path class="cls-1" d="M799,285.5c.1,8.2-11.8-1.6-14.8-5C788.9,282.3,795,282.7,799,285.5Z"/><path class="cls-5" d="M457.2,330.1c9.2-12.9,18.9,13.8-2.3,2Z"/><path class="cls-5" d="M447.2,325.1c-.7,3.5-1.3,6.9-1.9,10.4C439.4,330.5,437.9,316.3,447.2,325.1Z"/><path class="cls-1" d="M710.3,254.1c3.2,5.9,11,11.2,3.2,12.3C706.8,262.5,703,261.7,710.3,254.1Zm.8,9.1c.1.3.1.2,0,0S710.9,263.5,711.1,263.2Z"/><path class="cls-5" d="M814.4,287.3c4.1,5.7,13,10,4.1,13.4C811.9,300,815,293.2,814.4,287.3Z"/><path class="cls-1" d="M604.6,345.1c-12.7-6.5,3.6-1.9,9.8-1.9C611.4,345.4,608.1,345.2,604.6,345.1Z"/><path class="cls-1" d="M725,328.5a42.3,42.3,0,0,1,7-1.8C738.5,329.4,720.1,336.1,725,328.5Z"/><path class="cls-6" d="M885.7,341.1c-6.6,2.1-12.2,6.7-12.9-2.9Z"/><path class="cls-6" d="M869.7,338.1c-2.4,4.9-5.5,1.4-8.9,0Z"/><path class="cls-1" d="M842.5,354c-10.1,1.6-19.1-3.6-3.6-3C840.1,352,843.4,352.1,842.5,354Z"/><path class="cls-5" d="M724.2,332.2c3.8-.6-1,2.3-2,3.7C717.9,328.6,725.8,324.7,724.2,332.2Z"/><path class="cls-1" d="M794.8,355l-7.9-1.1C788.4,351.2,796,351.5,794.8,355Z"/><path class="cls-1" d="M701.2,248.8c-.2,1.7-.3,3.4-.5,5.1C699,251.4,697.9,250.1,701.2,248.8Z"/><path class="cls-5" d="M838.8,351c-3.7-.5-8.5,1.6-10.8-2Z"/><path class="cls-5" d="M794.9,352.9,789,352C790.9,352.3,795.4,349.8,794.9,352.9Z"/><path class="cls-5" d="M716.3,338.6c-1.6-2.5-.9-2.6,1.8-2.5C718.3,337.5,718.1,339.7,716.3,338.6Z"/><path class="cls-1" d="M717.3,339c.8-1.2,5.2-1.4,4.7.4Z"/><path class="cls-1" d="M413.9,330.2l-2.6-1.1Z"/><path class="cls-1" d="M811.3,349.9c-1.1-.8-1.4-1.2-.1-1.7S811.7,349.1,811.3,349.9Z"/><path class="cls-5" d="M440.9,321.2c1.6-2.7,3.2-.5.1.1Z"/><path class="cls-5" d="M690.4,341.7a.8.8,0,0,1,.2.4C690.3,342.7,689.7,341.5,690.4,341.7Z"/><path class="cls-1" d="M794.9,352.9c-.5-2.1.6-1.4,2.1-.9S795.8,352.9,794.9,352.9Z"/><path class="cls-5" d="M636.4,264c-.6-.2.5-.8.3-.2Z"/><path class="cls-1" d="M495.9,325.3c-.3-.2-.1-.1,0,0S495.6,325.4,495.9,325.3Z"/><path class="cls-5" d="M901.9,268.3c0-.4.2-.4.5-.3S902.3,268.4,901.9,268.3Z"/><path class="cls-5" d="M713.3,339h0Z"/><path class="cls-1" d="M701.2,248.8l-1.4-.3C700.3,248.7,700.9,248.6,701.2,248.8Z"/><path class="cls-5" d="M448.9,306.3c.5-.8.6-.7,1,0Z"/><path class="cls-5" d="M544.7,315.3l-.6-.6Z"/><path class="cls-5" d="M455.9,322.2l-.7.4Z"/><path class="cls-5" d="M448.1,318.2v.3C447.9,318.4,447.7,318.4,448.1,318.2Z"/><path class="cls-7" d="M400.1,295.4Z"/><path class="cls-6" d="M930.7,385.5l-20.2-2.6C918.1,383.3,943.8,374.6,930.7,385.5Z"/><path class="cls-7" d="M879.7,379.8c-13.1-6.8,8.2-9.5,12.3-1.1Z"/><path class="cls-7" d="M942.5,348.2c-20.7-9.1-4.3-6.5,6.6-3.4Z"/><path class="cls-7" d="M842.5,354c.9-4.4,6.5.7,9.4,1Z"/><path class="cls-6" d="M908.8,382.8h0Z"/><path class="cls-7" d="M840.8,350c1.8-1,2.7-1.2,3,1Z"/><path class="cls-5" d="M840.8,350c5.9,1.5,1.3,4-1.9,1Z"/><path class="cls-6" d="M869.4,344.2c.1-.5.3-.5.6-.3S869.8,344.4,869.4,344.2Z"/><path class="cls-7" d="M897.7,343c.5.4,1.4.6.6,1.1Z"/><path class="cls-7" d="M885.6,372.8l-2-.9Z"/><path class="cls-5" d="M796,410.7c-5.1-4.5-24.5-15.2-9.9-16.1,19.2,4.6,60.7-12.1,53.7,18.8-10.2-11.2-9.9-10.4-27.4-9.8,3.1-2.4,1.8-.6.8-.8C802.8,399.8,801.1,399.2,796,410.7Z"/><path class="cls-6" d="M835.7,378.7l30.1,2C857.9,379.2,832.7,389,835.7,378.7Z"/><path class="cls-1" d="M863.6,397.7l-4.8-2Z"/><path class="cls-1" d="M877.7,404.6c-.7-.4-.7-.5,0-.1Z"/><path class="cls-7" d="M952.5,284.5l.2.2Z"/><path class="cls-5" d="M213.6,342c-11.7.9-29.3,7.8-45,5.1-8.1-1.3-7.8-12.3-22.6-8.3,9-8.1-4.8-7.9-10.2-12.6,7.2-5,29.6-8.6,9.7-1C163.5,334.9,210.7,326.6,213.6,342Z"/><path class="cls-1" d="M216.6,342c-29.3-13.1,10.2-12.2,20.9-1C230.6,340.7,223,344.3,216.6,342Z"/><path class="cls-1" d="M157.6,329.2l-12.1-4C155.8,323,160.6,308.3,157.6,329.2Z"/><path class="cls-5" d="M258.1,313c-5.8,3-11.4,6.3-15.6,11.5C244.4,318.3,253,301.9,258.1,313Z"/><path class="cls-5" d="M153.7,309.8l-12.2-3.1C149.8,304.5,171.2,296.3,153.7,309.8Z"/><path class="cls-1" d="M127.8,321.2c-3.5,1.8-3.4.5-3-2.8Z"/><path class="cls-5" d="M303.7,308.4c-.4.3-.5.2-.6-.2S303.6,308,303.7,308.4Z"/><path class="cls-5" d="M290.7,325c-.3-.1-.2,0,0,0S290.4,325.2,290.7,325Z"/><path class="cls-5" d="M298.4,310.3c-.1.3.1,1-.1,1S298.2,310.6,298.4,310.3Z"/><path class="cls-5" d="M318.4,315.9l-.3-.2C318.4,315.6,318.4,315.6,318.4,315.9Z"/><path class="cls-5" d="M282.4,312.3h0Z"/><path class="cls-1" d="M369.4,357.9c-8.6-6.1,3.1-5.5,7.4-8.3C375.3,353.8,375.2,358.5,369.4,357.9Z"/><path class="cls-1" d="M242.4,343l-3.9-1.8Z"/><path class="cls-1" d="M370.6,347.6c-1.7-1.6-1.2-2.2-.4-3.9C372.4,344.8,371.6,345.5,370.6,347.6Z"/><path class="cls-7" d="M337.1,349.9c.5-.7.8-2.7,1.7-1.5S337.7,350.4,337.1,349.9Z"/><path class="cls-7" d="M388.1,332.1l-.7.4C387.5,332.2,387.8,332.2,388.1,332.1Z"/><path class="cls-1" d="M408,347c.4-.7.4-.7.1,0Z"/><path class="cls-7" d="M335.2,353.9l.2.2S335.3,353.9,335.2,353.9Z"/><path class="cls-7" d="M298.3,310.3c.3,1.8-2.5,1.2-3.7,1.7C293.7,309.8,296.9,310.8,298.3,310.3Z"/><path class="cls-7" d="M132.7,270.5l-.9-.9Z"/><path class="cls-6" d="M248.9,421.8c-6.7,3.2-10,3.2-13.6-3.4C239.1,416.3,244,420.9,248.9,421.8Z"/><path class="cls-5" d="M355.5,401.2l6.2,1.5C357,407.2,345,403.8,355.5,401.2Z"/><path class="cls-6" d="M132,404.2h12.2C144.1,409.1,130.3,408.4,132,404.2Z"/><path class="cls-6" d="M255.6,425.2c-10.5-5.9-2.4-8.6,4.2-2.4Z"/><path class="cls-5" d="M372.6,402.5c-3.7,4.1-4.8,2.2-7.8-.5C366.2,398.2,369.2,401.5,372.6,402.5Z"/><path class="cls-6" d="M251.1,429.1c-1.8-.3-5.8,1.6-5.7-1C247.4,428.3,251.4,425.9,251.1,429.1Z"/><path class="cls-6" d="M751.2,443.6c1.7,1.2-.4,1.8-1.6,1.1Z"/><path class="cls-6" d="M364.8,443.8c-.9.2-1.4.6-2-.1S364,443.1,364.8,443.8Z"/><path class="cls-6" d="M311.3,442.2c-.5-.3-1.5-.6-.6-1.1Z"/><path class="cls-6" d="M217.6,430.3c.3-.6.6-1.5,1.1-.7S217.9,430.3,217.6,430.3Z"/><path class="cls-5" d="M529.6,424.7c-.2-.4-.2-.5.3-.6S530,424.6,529.6,424.7Z"/><path class="cls-6" d="M256.5,417.4c.5.4,1.5.6.6,1.1S256.5,417.8,256.5,417.4Z"/><path class="cls-5" d="M249.7,401.5h0Z"/><path class="cls-5" d="M375.2,401.6l-.3.7C375,402.1,375,401.6,375.2,401.6Z"/><path class="cls-5" d="M711.2,423.4v1C711.1,424,710.9,423.7,711.2,423.4Z"/><path class="cls-6" d="M256.5,417.4h0Z"/><path class="cls-1" d="M731,379.6c-1.2-7.4,14.6-.2,20.2-1.1C743.2,381.4,735.8,392.3,731,379.6Z"/><path class="cls-5" d="M713.1,408.6l-4.8-3.7C712,403.6,713.7,404.8,713.1,408.6Z"/><path class="cls-1" d="M753,378.4l3.1-.7Z"/><path class="cls-5" d="M573.6,376.8c-.9.8-1.4,2.3-2.2.6Z"/><path class="cls-5" d="M789.6,406.8c-.2.7-.7.7-1.1.1S789.2,406.2,789.6,406.8Z"/><path class="cls-1" d="M779.1,396.6c-.8,1.7-1.8.6-.1-.1Z"/><path class="cls-5" d="M716.1,412.1c-.5.5-.7-.7-.1-.4A.6.6,0,0,1,716.1,412.1Z"/><path class="cls-1" d="M613.5,360.9l-.7.4C613,361.2,613.3,360.8,613.5,360.9Z"/><path class="cls-5" d="M586.7,374.6l.7.5C587,374.9,586.1,375.1,586.7,374.6Z"/><path class="cls-5" d="M685.1,403h.3C685.3,403.2,685.3,403.2,685.1,403Z"/><path class="cls-5" d="M713.3,408.4v.3C713.3,408.6,713,408.6,713.3,408.4Z"/><path class="cls-5" d="M218.6,343l17.9-2Z"/><path class="cls-5" d="M239.3,352.5h.3C239.8,353.3,238.7,352.8,239.3,352.5Z"/><path class="cls-6" d="M161.7,346l6.9,1.1C146.1,352,128.8,343.3,161.7,346Z"/><path class="cls-7" d="M135.8,326.2l1.3.9Z"/><path class="cls-5" d="M489.9,347c-16.8,6-35.2,6.8-50.9,10.9C451,333,467.1,340.1,489.9,347Z"/><path class="cls-7" d="M457.2,330.1l-2.3,2Z"/><path class="cls-5" d="M451.8,334.6h0C451.4,334.9,451.4,334.7,451.8,334.6Z"/><path class="cls-5" d="M583.4,353h0Z"/><path class="cls-1" d="M491.8,351.9l2.9-.9Z"/><path class="cls-6" d="M521.7,355.9l.7-.3C522.2,355.7,521.9,356.1,521.7,355.9Z"/><path class="cls-1" d="M494.8,350.1l1-.2Z"/><path class="cls-5" d="M432.9,361.7c8.7-.9,16.8-2.4,23.1,5.2C450.6,366.2,425.9,368,432.9,361.7Zm19.8,0c-.2.7.9.2.3-.1Z"/><path class="cls-6" d="M839.8,413.4c-.1-14.5.1-14.3,2.1,0C841.4,413.8,840.4,413.5,839.8,413.4Z"/><path class="cls-5" d="M850.8,413.4l-1.9,2.2C846.5,410.2,847.9,406,850.8,413.4Z"/><path class="cls-5" d="M841.9,403.6h-.3C841.7,403.6,841.7,403.4,841.9,403.6Z"/><path class="cls-5" d="M839.9,413.5h1.8C841.1,415.1,840.7,414.5,839.9,413.5Z"/><path class="cls-5" d="M827.6,417.6h0Z"/><path class="cls-1" d="M817.8,414.5c-.7-.4-.6-.4.1-.1Z"/><path class="cls-5" d="M830.7,404.6c-.2-.4-.8-.7-.8-1.1S831.3,404.1,830.7,404.6Z"/><path class="cls-5" d="M154.7,379.4c-1.1.8-1.6,1.2-1.9-.2S153.9,378.8,154.7,379.4Z"/><path class="cls-6" d="M466.2,359c-.4.3-.5.2-.6-.2S466.1,358.6,466.2,359Z"/><path class="cls-6" d="M483.8,349.9l1.1-.9Z"/><path class="cls-6" d="M440.1,358l1.6.8Z"/><path class="cls-5" d="M434.9,398.6l-.2-.8C434.8,398.1,435.3,398.4,434.9,398.6Z"/><path class="cls-5" d="M602.8,399.8c-1.2.5-2.3,1.8-2.8-.1C601,399.7,602.2,398.8,602.8,399.8Z"/><path class="cls-5" d="M317.5,396.4l1.3.7C318.4,396.9,316.9,397,317.5,396.4Z"/><path class="cls-5" d="M292.1,397.8c-.5,0-.4-.1-.2-.4Z"/><path class="cls-5" d="M578.7,403.4c-.2-.2-.5-.4-.1-.6A1.3,1.3,0,0,0,578.7,403.4Z"/><path class="cls-5" d="M464.1,391.7l-1.2,3C462.3,392.9,461.7,391.7,464.1,391.7Z"/><path class="cls-7" d="M585.6,352.9l.6,1.3A5.2,5.2,0,0,1,585.6,352.9Z"/><path class="cls-1" d="M467,393.9c-.5.6-.6.5-.3-.2Z"/><path class="cls-7" d="M117.9,273.6c-.1,1.6-.2,3.3,0-.1C116.5,276.6,117.2,274.9,117.9,273.6Z"/><path class="cls-6" d="M620.5,362.9c1.1-1.9,2.3-3.7,3.5-5.5C626.4,360.3,623.2,362.4,620.5,362.9Z"/><path class="cls-1" d="M800.9,354a34.6,34.6,0,0,1,2.2,3.1C799.6,356.3,796.2,356.6,800.9,354Z"/><path class="cls-6" d="M800.9,354c-1.8,2.2-6.9,2.9-5.9-1C797.1,352.6,799,353.4,800.9,354Z"/><path class="cls-7" d="M620.5,362.9c1.2-.2,4.2-2.1,4.1.1Z"/><path class="cls-6" d="M625.4,361.8c.8-.3,1.7-1.9,2.2-.6S625.9,362.1,625.4,361.8Z"/><path class="cls-6" d="M624.6,363c-.3-.8-.1-1.2.8-1.2S624.8,362.6,624.6,363Z"/><path class="cls-7" d="M448.9,306.3h1C449.4,307.1,449.1,307.3,448.9,306.3Z"/><path class="cls-7" d="M732.9,300.2c.9-.5,1.8-2.6,2.7-1.4C734.7,299.3,733.7,301.4,732.9,300.2Z"/><path class="cls-7" d="M896.5,284.6v-.3C896.8,284.4,896.8,284.4,896.5,284.6Z"/><path class="cls-7" d="M799,285.5l-1.1-1Z"/><path class="cls-7" d="M798,278.5l.2.2C798.1,278.7,797.8,278.6,798,278.5Z"/><path class="cls-7" d="M711.1,263.2c-.2.1-.1.1,0,0S711.1,263.6,711.1,263.2Z"/><path class="cls-1" d="M724.2,332.2H724C724,332.2,724.1,332,724.2,332.2Z"/><path class="cls-6" d="M831,404.3c-1.7-.9-.5-1,.7-1.6Z"/><path class="cls-1" d="M208.7,336.1v.2C208.7,336.2,208.5,336.2,208.7,336.1Z"/><path class="cls-7" d="M223.7,334v.3C223.6,334.2,223.4,334.2,223.7,334Z"/><path class="cls-1" d="M453.9,354l-.7-.4Z"/><path class="cls-1" d="M452.7,361.7h.3C453.6,361.9,452.5,362.4,452.7,361.7Z"/></svg>