<svg xmlns="http://www.w3.org/2000/svg" viewBox="0 0 327 209.1"><defs><style>.cls-1,.cls-10,.cls-100,.cls-101,.cls-102,.cls-103,.cls-104,.cls-105,.cls-106,.cls-107,.cls-108,.cls-109,.cls-11,.cls-110,.cls-111,.cls-112,.cls-113,.cls-114,.cls-115,.cls-116,.cls-117,.cls-118,.cls-119,.cls-12,.cls-120,.cls-121,.cls-122,.cls-123,.cls-124,.cls-125,.cls-126,.cls-127,.cls-128,.cls-129,.cls-13,.cls-130,.cls-131,.cls-132,.cls-133,.cls-14,.cls-15,.cls-16,.cls-17,.cls-18,.cls-19,.cls-2,.cls-20,.cls-21,.cls-22,.cls-23,.cls-24,.cls-25,.cls-26,.cls-27,.cls-28,.cls-29,.cls-3,.cls-30,.cls-31,.cls-32,.cls-33,.cls-34,.cls-35,.cls-36,.cls-37,.cls-38,.cls-39,.cls-4,.cls-40,.cls-41,.cls-42,.cls-43,.cls-44,.cls-45,.cls-46,.cls-47,.cls-48,.cls-49,.cls-5,.cls-50,.cls-51,.cls-52,.cls-53,.cls-54,.cls-55,.cls-56,.cls-57,.cls-58,.cls-59,.cls-6,.cls-60,.cls-61,.cls-62,.cls-63,.cls-64,.cls-65,.cls-66,.cls-67,.cls-68,.cls-69,.cls-7,.cls-70,.cls-71,.cls-72,.cls-73,.cls-74,.cls-75,.cls-76,.cls-77,.cls-78,.cls-79,.cls-8,.cls-80,.cls-81,.cls-82,.cls-83,.cls-84,.cls-85,.cls-86,.cls-87,.cls-88,.cls-89,.cls-9,.cls-90,.cls-91,.cls-92,.cls-93,.cls-94,.cls-95,.cls-96,.cls-97,.cls-98,.cls-99{fill:none;stroke-miterlimit:10;}.cls-1{stroke:#9f9953;}.cls-2{stroke:#9f9952;}.cls-3{stroke:#a59650;}.cls-4{stroke:#a6964f;}.cls-5{stroke:#a7954f;}.cls-6{stroke:#a8954e;}.cls-7{stroke:#a9944e;}.cls-8{stroke:#aa944d;}.cls-9{stroke:#aa934d;}.cls-10{stroke:#ab934d;}.cls-11{stroke:#ac934d;}.cls-12{stroke:#ac924c;}.cls-13{stroke:#ad924c;}.cls-14{stroke:#ae924c;}.cls-15{stroke:#ae914b;}.cls-16{stroke:#af914b;}.cls-17{stroke:#b0904b;}.cls-18{stroke:#b0904a;}.cls-19{stroke:#b1904a;}.cls-20{stroke:#b28f4a;}.cls-21{stroke:#b28f49;}.cls-22{stroke:#b38f49;}.cls-23{stroke:#b38e49;}.cls-24{stroke:#b48e49;}.cls-25{stroke:#b48e48;}.cls-26{stroke:#b58e48;}.cls-27{stroke:#b58d48;}.cls-28{stroke:#b68d48;}.cls-29{stroke:#b68d47;}.cls-30{stroke:#b78c47;}.cls-31{stroke:#b88c47;}.cls-32{stroke:#b88b46;}.cls-33{stroke:#b98b46;}.cls-34{stroke:#ba8b46;}.cls-35{stroke:#ba8a46;}.cls-36{stroke:#ba8a45;}.cls-37{stroke:#bb8a45;}.cls-38{stroke:#bc8945;}.cls-39{stroke:#bc8944;}.cls-40{stroke:#bd8944;}.cls-41{stroke:#bd8844;}.cls-42{stroke:#be8844;}.cls-43{stroke:#be8843;}.cls-44{stroke:#bf8843;}.cls-45{stroke:#bf8743;}.cls-46{stroke:#c08743;}.cls-47{stroke:#c08742;}.cls-48{stroke:#c18642;}.cls-49{stroke:#c28542;}.cls-50{stroke:#c28541;}.cls-51{stroke:#c38541;}.cls-52{stroke:#c38441;}.cls-53{stroke:#c48441;}.cls-54{stroke:#c48440;}.cls-55{stroke:#c58440;}.cls-56{stroke:#c58340;}.cls-57{stroke:#c6833f;}.cls-58{stroke:#c7823f;}.cls-59{stroke:#c8813e;}.cls-60{stroke:#c9813e;}.cls-61{stroke:#c9803e;}.cls-62{stroke:#ca803d;}.cls-63{stroke:#cb7f3d;}.cls-64{stroke:#cc7f3c;}.cls-65{stroke:#cc7e3c;}.cls-66{stroke:#cd7e3c;}.cls-67{stroke:#cd7d3c;}.cls-68{stroke:#ce7d3b;}.cls-69{stroke:#cf7c3b;}.cls-70{stroke:#cf7c3a;}.cls-71{stroke:#d07b3a;}.cls-72{stroke:#d17b3a;}.cls-73{stroke:#d17a3a;}.cls-74{stroke:#d17a39;}.cls-75{stroke:#d27a39;}.cls-76{stroke:#d27939;}.cls-77{stroke:#d37939;}.cls-78{stroke:#d37938;}.cls-79{stroke:#d37838;}.cls-80{stroke:#d47838;}.cls-81{stroke:#d57738;}.cls-82{stroke:#d57737;}.cls-83{stroke:#d67637;}.cls-84{stroke:#d77536;}.cls-85{stroke:#d87536;}.cls-86{stroke:#d87436;}.cls-87{stroke:#d97435;}.cls-88{stroke:#d97335;}.cls-89{stroke:#da7335;}.cls-90{stroke:#da7235;}.cls-91{stroke:#db7234;}.cls-92{stroke:#db7134;}.cls-93{stroke:#dc7134;}.cls-94{stroke:#dc7033;}.cls-95{stroke:#dd7033;}.cls-96{stroke:#dd6f33;}.cls-97{stroke:#de6f33;}.cls-98{stroke:#de6f32;}.cls-99{stroke:#df6e32;}.cls-100{stroke:#df6d32;}.cls-101{stroke:#e06d32;}.cls-102{stroke:#e06d31;}.cls-103{stroke:#e06c31;}.cls-104{stroke:#e16c31;}.cls-105{stroke:#e16b31;}.cls-106{stroke:#e26b30;}.cls-107{stroke:#e26a30;}.cls-108{stroke:#e36a30;}.cls-109{stroke:#e36930;}.cls-110{stroke:#e3692f;}.cls-111{stroke:#e4682f;}.cls-112{stroke:#e5672f;}.cls-113{stroke:#e6662e;}.cls-114{stroke:#e6652e;}.cls-115{stroke:#e7652e;}.cls-116{stroke:#e7642d;}.cls-117{stroke:#e8642d;}.cls-118{stroke:#e8632d;}.cls-119{stroke:#e9622d;}.cls-120{stroke:#e9622c;}.cls-121{stroke:#ea612c;}.cls-122{stroke:#ea602c;}.cls-123{stroke:#eb602b;}.cls-124{stroke:#eb5f2b;}.cls-125{stroke:#ec5f2b;}.cls-126{stroke:#ec5e2b;}.cls-127{stroke:#ed5e2b;}.cls-128{stroke:#ed5d2a;}.cls-129{stroke:#ee5d2a;}.cls-130{stroke:#ee5c2a;}.cls-131{stroke:#ef5c2a;}.cls-132{stroke:#f05b29;}.cls-133{stroke:#f15a29;}</style></defs><g id="Layer_2" data-name="Layer 2"><g id="Layer_1-2" data-name="Layer 1"><g id="Layer_2-2" data-name="Layer 2"><g id="Layer_1-2-2" data-name="Layer 1-2"><path class="cls-1" d="M24.3,59.5c4,3,10,8,6,12"/><path class="cls-2" d="M29.3,61.5c3,2,4,6,3,7"/><path class="cls-3" d="M1.4,188.5c.3,6.2,1.3,13,4.3,18.8"/><path class="cls-3" d="M1.8,170c1.2,6.2,1,12.3,1.3,18.5s1.3,13,4.3,18.8"/><path class="cls-4" d="M3.5,170c1.2,6.2,1,12.3,1.3,18.5s1.3,13,4.2,18.9"/><path class="cls-4" d="M5.1,170.1c1.2,6.1,1,12.2,1.4,18.4s1.3,13,4.2,18.9"/><path class="cls-5" d="M6.7,170.1c1.3,6.1,1.1,12.2,1.5,18.4s1.3,13,4.2,18.9"/><path class="cls-5" d="M1.6,151.9c3,5.9,5.6,12,6.8,18.2s1.1,12.2,1.5,18.4,1.3,13,4.2,18.9"/><path class="cls-6" d="M3.2,151.9A68.8,68.8,0,0,1,10,170.1c1.3,6.2,1.2,12.2,1.5,18.4s1.4,13,4.3,18.9"/><path class="cls-6" d="M22.3,58.5c2,4,2,7,1,11"/><path class="cls-6" d="M4.8,151.9a72.7,72.7,0,0,1,6.9,18.2c1.2,6.2,1.1,12.2,1.5,18.4s1.4,13,4.3,18.9"/><path class="cls-7" d="M6.5,151.9c3,5.9,5.6,12,6.8,18.2s1.2,12.2,1.6,18.4,1.4,13,4.3,18.9"/><path class="cls-7" d="M2.6,4.1a75.6,75.6,0,0,0-1.4,8.3C1,15.2.8,18,.8,20.9a21,21,0,0,0,1.5,7.6c7,14,25,21,25,37"/><path class="cls-7" d="M8.1,151.9A72.7,72.7,0,0,1,15,170.1c1.2,6.2,1.2,12.2,1.6,18.4s1.4,13,4.3,18.9"/><path class="cls-7" d="M4.4,4.1A56.2,56.2,0,0,0,3,12.3a81.2,81.2,0,0,0-.4,8.6C5.3,40.5,31.3,47.5,29.3,66.5"/><path class="cls-7" d="M9.7,151.9a72.7,72.7,0,0,1,6.9,18.2c1.3,6.2,1.2,12.2,1.7,18.4s1.4,13,4.3,18.9"/><path class="cls-7" d="M6.1,4a57.5,57.5,0,0,0-1.4,8.3,81.2,81.2,0,0,0-.4,8.6v4.6c6,17,32,26,26,44"/><path class="cls-8" d="M11.3,151.9a65.8,65.8,0,0,1,6.9,18.2c1.3,6.2,1.3,12.2,1.7,18.4s1.5,13,4.3,18.9"/><path class="cls-8" d="M7.8,4a57.4,57.4,0,0,0-1.3,8.3c-.3,2.8-.4,5.7-.5,8.5.3,17.7,20.3,22.7,26.3,37.7,2,4,2,7,1,11"/><path class="cls-9" d="M13,151.9a72.7,72.7,0,0,1,6.9,18.2c1.3,6.2,1.3,12.2,1.7,18.4s1.5,13,4.3,18.9"/><path class="cls-9" d="M9.5,4a75.5,75.5,0,0,0-1.3,8.3,79.4,79.4,0,0,0-.4,8.5c-.5,4.7,2.5,8.7,4.5,12.7,8,12,25,18,23,33"/><path class="cls-10" d="M1,125.6c3.8,8.8,9.2,17.6,13.6,26.3a72.7,72.7,0,0,1,6.9,18.2c1.3,6.2,1.3,12.2,1.8,18.4s1.5,13,4.3,19"/><path class="cls-10" d="M11.3,4a57.5,57.5,0,0,0-1.4,8.3c-.2,2.8-.4,5.6-.4,8.5s-.2,5.7.8,5.7c39,29,25,57-10,82"/><path class="cls-10" d="M2.7,125.6c3.8,8.8,9.1,17.6,13.5,26.3a73,73,0,0,1,7,18.2c1.3,6.2,1.3,12.2,1.8,18.4s1.5,13,4.3,19"/><path class="cls-10" d="M13,3.9a56.6,56.6,0,0,0-1.3,8.4,79.4,79.4,0,0,0-.4,8.5c1,16.7,18,24.7,28,37.7,2,3,5,7,3,11"/><path class="cls-11" d="M14.7,3.9a75.5,75.5,0,0,0-1.3,8.3,81.2,81.2,0,0,0-.4,8.6c.3,16.7,17.3,23.7,26.3,34.7,8,9,1,20-7,27-11,10-28,16-30.5,34a40.1,40.1,0,0,0,2.5,9c3.8,8.9,9.1,17.7,13.6,26.4,3,6,5.6,12,6.9,18.2s1.4,12.3,1.9,18.4,1.5,13,4.3,19"/><path class="cls-12" d="M16.4,3.9a75.5,75.5,0,0,0-1.3,8.3c-.2,2.8-.3,5.7-.4,8.5,1.6,15.8,16.6,24.8,27.6,34.8,7,7,2,18-4,24-12,12-31,19-34.8,37a31.8,31.8,0,0,0,2.5,9c3.8,8.9,9,17.7,13.5,26.4a81.6,81.6,0,0,1,7,18.2c1.3,6.2,1.4,12.3,1.8,18.4a54.1,54.1,0,0,0,4.4,19"/><path class="cls-13" d="M18.2,3.9a57.4,57.4,0,0,0-1.3,8.3,79.4,79.4,0,0,0-.4,8.5c1.8,20.8,25.8,26.8,32.8,44.8,2,4-2,7-5,10-14,13-36,21-39.2,40.9a42.4,42.4,0,0,0,2.5,9.1c3.8,8.9,9.1,17.7,13.5,26.4a73,73,0,0,1,7,18.2c1.3,6.2,1.4,12.3,1.9,18.4s1.6,13,4.4,19"/><path class="cls-13" d="M19.9,3.9a75.5,75.5,0,0,0-1.3,8.3c-.2,2.8-.4,5.6-.4,8.5C18.9,33.9,28.5,41.4,38,49.4c4.8,3.9,9.6,8.1,13.3,13.1a8.2,8.2,0,0,1-.2,9.1c-1.6,2.6-4.3,4.9-6.8,6.9-14,11-35,18-37.5,37.9a32.4,32.4,0,0,0,2.5,9.1c3.7,8.9,9,17.7,13.5,26.4,3,6,5.6,12,6.9,18.2s1.5,12.3,2,18.4,1.6,13,4.4,19"/><path class="cls-14" d="M21.6,3.8a77.3,77.3,0,0,0-1.3,8.4c-.2,2.8-.3,5.6-.3,8.5,1,16.5,15.8,24.1,27.1,34.8a68.9,68.9,0,0,1,6.2,7c2,1.9,3,4.9,2,6.9a51.7,51.7,0,0,1-5.9,6.5C34.6,89.8,12.7,95.4,8.5,116.4a36,36,0,0,0,2.4,9.1c3.8,8.9,9,17.7,13.5,26.4a81.6,81.6,0,0,1,7,18.2c1.4,6.2,1.5,12.3,2,18.5s1.6,12.9,4.4,18.9"/><path class="cls-15" d="M23.3,3.8a57.2,57.2,0,0,0-1.2,8.3,81.2,81.2,0,0,0-.4,8.6c-.4,4.8,2.6,8.8,4.6,12.8,4.5,7,12.7,11.7,19.3,16.6a34.8,34.8,0,0,1,5.9,5c3.8,3.4,3.8,7.4,3.8,12.3a29.2,29.2,0,0,1-3.2,7.5c-10.3,15.4-38.4,19.7-42,41.5a32.4,32.4,0,0,0,2.5,9.1c3.7,8.9,9,17.7,13.4,26.4a73,73,0,0,1,7,18.2c1.4,6.2,1.5,12.3,2.1,18.5s1.6,12.9,4.3,18.9"/><path class="cls-15" d="M25.1,3.8a75.5,75.5,0,0,0-1.3,8.3c-.2,2.8-.3,5.7-.4,8.6,2.4,16.5,16.7,24.8,28.3,35.2a80.8,80.8,0,0,1,6.6,6.5c5,5.1,0,10.1-3.9,13.5-2.2,1.9-4.6,3.7-7,5.4-14.5,10-32.3,16.4-35.6,35.1a36,36,0,0,0,2.4,9.1c3.7,8.9,9,17.7,13.4,26.4a77.3,77.3,0,0,1,7.1,18.2c1.4,6.2,1.5,12.3,2.1,18.5s1.6,12.9,4.3,18.9"/><path class="cls-16" d="M26.8,3.8a57.2,57.2,0,0,0-1.2,8.3,79.4,79.4,0,0,0-.4,8.5c.1,4.9,1.1,9.9,4.1,13.9,5,7,13.5,11.7,20.3,16.5a41.1,41.1,0,0,1,6.2,4.8c8.5,6.7,4.5,19.7-4.3,25.1-2.2,1.8-4.6,3.5-7,5.1-12.5,8.2-28,14.8-31,30.4a32,32,0,0,0,2.3,9.1c3.8,8.9,9,17.7,13.5,26.4a81.6,81.6,0,0,1,7,18.2c1.4,6.2,1.6,12.3,2.1,18.5a57.8,57.8,0,0,0,4.4,18.9"/><path class="cls-16" d="M28.5,3.7a58.6,58.6,0,0,0-1.2,8.4c-.2,2.8-.4,5.6-.4,8.5.3,15.7,14.2,23.9,25.6,32.5,2.3,1.8,4.5,3.5,6.4,5.3,9.4,6.1,6.4,14.1-1.9,18.7-2.7,1.8-5.5,3.4-8.4,5.1-14.5,8.3-30.9,16.7-33.5,34.2a29.2,29.2,0,0,0,2.4,9.1c3.7,8.9,9,17.7,13.4,26.4A77.3,77.3,0,0,1,38,170.1c1.4,6.2,1.5,12.3,2.1,18.5s1.7,13,4.4,18.9"/><path class="cls-17" d="M30.2,3.7q-.7,4.1-1.2,8.4c-.2,2.8-.3,5.6-.3,8.5,2.1,13.2,12.2,23.1,23,30.9l6.5,4.4c8.1,4.6,14.1,14.6,2.9,19.8-2.7,2-5.6,3.8-8.6,5.6-14.7,8.9-32,16.8-35.8,35.1a35.2,35.2,0,0,0,2.4,9c3.7,9,9,17.8,13.4,26.5a77.3,77.3,0,0,1,7.1,18.2c1.4,6.2,1.6,12.3,2.2,18.5s1.7,13,4.4,18.9"/><path class="cls-18" d="M32,3.7A57.2,57.2,0,0,0,30.8,12a81.2,81.2,0,0,0-.4,8.6A28.5,28.5,0,0,0,32.9,30C37.1,38.3,43.4,43.7,50,48.8c3.3,2.5,6.6,4.9,9.8,7.5s10.5,5.2,10.5,10.2c0,8-10,10-15,14.8l-7.7,4.2c-13.2,7.2-26.8,15.9-29.2,30.9a28.6,28.6,0,0,0,2.4,9c3.7,8.9,8.9,17.8,13.4,26.5a81.6,81.6,0,0,1,7,18.2c1.5,6.2,1.7,12.3,2.3,18.5s1.6,13,4.4,19"/><path class="cls-19" d="M33.7,3.7A57.2,57.2,0,0,0,32.5,12c-.2,2.8-.3,5.7-.4,8.6.1,10.9,6.1,17.9,13.8,24,2.5,2,5.2,4,8,5.9,6.4,6,20.4,10,18.4,19-2,5-10,8-14.6,11.9-2.6,1.6-5.4,3.1-8.2,4.6C35.6,93.2,21.4,99.5,20,116.4a35.2,35.2,0,0,0,2.4,9c3.7,8.9,8.9,17.8,13.4,26.5,3,6,5.7,12,7.1,18.2s1.7,12.3,2.3,18.5,1.6,13,4.4,19"/><path class="cls-19" d="M35.4,3.7c-.5,2.7-.9,5.5-1.2,8.3a80.5,80.5,0,0,0-.3,8.5c.2,11,6.5,18,14.3,24.1,2.6,2,5.4,4,8.1,5.9,7,5,16,8,18,16s-10,9-14.9,14.8C56.6,83,53.8,84.5,51,86c-13.8,7.2-27.7,13.5-29.4,30.3a32.4,32.4,0,0,0,2.5,9.1c3.7,8.9,8.9,17.8,13.3,26.5a77.3,77.3,0,0,1,7.1,18.2c1.5,6.2,1.7,12.3,2.3,18.5s1.7,13,4.5,19"/><path class="cls-20" d="M37.1,3.6A80.5,80.5,0,0,0,36,12a79.4,79.4,0,0,0-.4,8.5c.8,11,7,18,14.6,24.1,2.5,2,5.2,4,7.9,5.9,6.2,6,20.2,9,19.2,18-1,6-10,9-16,12.8-2.9,1.7-5.7,3.2-8.6,4.7-14,7.2-28.2,13.5-29.5,30.3a32.4,32.4,0,0,0,2.5,9.1c3.7,8.9,8.9,17.8,13.4,26.5a91.6,91.6,0,0,1,7.1,18.2c1.4,6.2,1.7,12.3,2.3,18.5s1.7,13,4.5,19"/><path class="cls-20" d="M38.9,3.6A58.6,58.6,0,0,0,37.7,12c-.2,2.8-.3,5.6-.3,8.5-1.1,8,3.9,14,8.9,20a35.9,35.9,0,0,0,5.8,5.2c2.4,1.7,5,3.4,7.6,5,5.6,5.8,19.6,7.8,16.6,18.8-2,7-10,9-16.5,14.2-2.5,1.5-5,2.9-7.6,4.2-12.8,6.7-25.8,12.9-27.3,28.4a32.4,32.4,0,0,0,2.5,9.1c3.6,8.9,8.8,17.8,13.3,26.5,3,6,5.7,12,7.1,18.2s1.8,12.3,2.4,18.5,1.7,13,4.4,19"/><path class="cls-21" d="M40.6,3.6a57.1,57.1,0,0,0-1.1,8.3,81.2,81.2,0,0,0-.4,8.6c-.8,8,3.2,15,9.2,20a70.1,70.1,0,0,0,6,4.8l7.3,4.5c4.7,3.7,12.7,5.7,15.7,11.7,7,13-12,20-21.3,25.7l-7.8,4.1c-10.4,5.6-19.8,12.1-21.7,25a32.4,32.4,0,0,0,2.5,9.1c3.7,8.9,8.9,17.8,13.3,26.5a82.2,82.2,0,0,1,7.2,18.2c1.4,6.2,1.7,12.3,2.4,18.5s1.7,13,4.4,19"/><path class="cls-22" d="M42.3,3.6a75.3,75.3,0,0,0-1.1,8.3c-.2,2.8-.3,5.7-.4,8.6-.2,10,5.1,17,12.2,22.8,2.4,2,4.9,3.8,7.5,5.6,7.8,6.6,22.8,8.6,22.8,18.6s-14,12-22.9,16.9L53,88.3c-12,6.4-22.9,13.7-24.9,28a36.2,36.2,0,0,0,2.5,9.1c3.7,8.9,8.9,17.7,13.3,26.5a82.2,82.2,0,0,1,7.2,18.2c1.5,6.2,1.8,12.3,2.5,18.5s1.7,13,4.4,19"/><path class="cls-23" d="M44,3.6c-.5,2.7-.8,5.5-1.1,8.3a80.5,80.5,0,0,0-.3,8.5c.8,11.1,7,18.1,14.6,24.2,2.5,2,5.3,3.9,8.1,5.8,7,7.1,24,9.1,21,17.1-5,12-22,16-34.2,23.6a54,54,0,0,0-7.7,4.6c-7.3,4.9-13,10.9-14.7,20.6a36.4,36.4,0,0,0,2.6,9.1c3.6,8.9,8.8,17.7,13.3,26.5,3,6,5.7,12,7.1,18.2a146.7,146.7,0,0,1,2.5,18.5c.6,6.2,1.8,13,4.5,19"/><path class="cls-24" d="M45.8,3.5a58.5,58.5,0,0,0-1.1,8.4c-.3,2.8-.3,5.7-.4,8.5-1,8.1,4,14.1,9,20.1A34.6,34.6,0,0,0,59,45.6c8.3,8.9,32.3,9.9,25.3,23.9-6,12-20,15-31.2,21.4-2.6,1.4-5.1,2.8-7.5,4.4-7.2,4.8-12.9,11-14.5,21.1a48.3,48.3,0,0,0,2.8,8.9c3.7,9,8.8,17.8,13.3,26.6a86.2,86.2,0,0,1,7.2,18.2c1.5,6.2,1.8,12.3,2.5,18.5s1.8,13,4.5,19"/><path class="cls-25" d="M47.5,3.5a80.5,80.5,0,0,0-1.1,8.4c-.2,2.8-.3,5.6-.3,8.5-.4,10,5.1,16.8,12.3,22.5,2.5,1.9,5,3.7,7.7,5.4,9.2,5.2,24.2,10.2,24.2,17.2,0,15-23,17-34.8,25.6a51.4,51.4,0,0,0-7.8,4.6c-7.4,4.9-13.3,10.9-14.9,20.6a40.8,40.8,0,0,0,2.8,9c3.6,9,8.8,17.8,13.2,26.6A82.2,82.2,0,0,1,56,170.1c1.6,6.2,1.9,12.3,2.6,18.5s1.8,13,4.5,19"/><path class="cls-26" d="M49.2,3.5c-.5,2.7-.8,5.5-1.1,8.3a81.4,81.4,0,0,0-.3,8.6c-.2,9,4,15.2,9.9,20.4a76.8,76.8,0,0,0,6.3,5c9.3,8.7,29.3,11.7,28.3,20.7-1,14-24,16-36.6,24.9-2.6,1.5-5,3-7.3,4.6-6.8,4.9-12.2,11-14,20.3a47,47,0,0,0,2.8,9c3.6,9,8.8,17.8,13.3,26.6a91.9,91.9,0,0,1,7.2,18.2c1.5,6.2,1.9,12.3,2.6,18.5s1.8,13,4.5,19"/><path class="cls-27" d="M50.9,3.5a75.3,75.3,0,0,0-1,8.3c-.2,2.8-.3,5.7-.3,8.6a28.5,28.5,0,0,0,6.6,15.9,50.1,50.1,0,0,0,6,6.2c9.1,12,36.1,13,33.1,26s-24,15-37.6,22.1a56.2,56.2,0,0,0-7.4,4.5c-6.8,4.8-12.3,11.1-14.2,21.2a40.8,40.8,0,0,0,2.8,9c3.6,9,8.7,17.8,13.2,26.6a91.9,91.9,0,0,1,7.2,18.2c1.6,6.2,2,12.3,2.7,18.5s1.8,13,4.5,19"/><path class="cls-27" d="M52.6,3.4c-.4,2.8-.8,5.6-1,8.4s-.3,5.7-.3,8.6a30.3,30.3,0,0,0,2.2,9.8A32.7,32.7,0,0,0,58.6,38c10.7,14.5,42.7,17.5,38.7,30.5-2,11-23,15-37.5,22.2-2.7,1.5-5.3,3.1-7.7,4.7-7.1,5-12.7,11.2-14.3,20.9a46.7,46.7,0,0,0,2.7,9c3.6,9,8.8,17.8,13.2,26.6A92.3,92.3,0,0,1,61,170.1c1.5,6.2,1.9,12.3,2.7,18.5s1.8,13,4.5,19.1"/><path class="cls-28" d="M54.4,3.4a80.1,80.1,0,0,0-1,8.4c-.3,2.8-.3,5.7-.4,8.5a23,23,0,0,0,2,10.6A30.1,30.1,0,0,0,60.6,39c12.7,12.5,31.7,15.5,42.7,30.5-13,9-29,13-42.9,21.5A71.1,71.1,0,0,0,53,95.7c-6.9,5-12.1,11.3-13.6,20.6a40.8,40.8,0,0,0,2.8,9c3.5,9,8.7,17.8,13.2,26.6a91.9,91.9,0,0,1,7.2,18.2c1.6,6.2,2,12.3,2.7,18.5s1.9,13,4.5,19.1"/><path class="cls-29" d="M56.1,3.4a80.1,80.1,0,0,0-1,8.4c-.2,2.8-.3,5.6-.3,8.5a23.5,23.5,0,0,0,4.6,14.9,39.2,39.2,0,0,0,5.2,5.6c11.7,10.7,37.7,13.7,37.7,25.7,1,14-26,15-40.1,24.5a68.7,68.7,0,0,0-7.4,4.4c-6.8,4.7-12.1,10.8-13.7,20.9a46.7,46.7,0,0,0,2.7,9c3.6,9,8.7,17.8,13.2,26.6a90.8,90.8,0,0,1,7.3,18.3c1.5,6.1,2,12.2,2.7,18.4s1.9,13,4.5,19.1"/><path class="cls-30" d="M57.8,3.4a75.3,75.3,0,0,0-1,8.3c-.2,2.9-.3,5.7-.3,8.6a26.4,26.4,0,0,0,2.8,10.2,33.3,33.3,0,0,0,5.8,8.1c11.2,14.9,42.2,15.9,39.2,29.9-3,12-26,14-40.4,22.4a58.4,58.4,0,0,0-7.4,4.8c-6.8,5-12.1,11.2-13.7,20.5a42.7,42.7,0,0,0,2.6,9.1c3.6,9,8.7,17.8,13.2,26.6a90.8,90.8,0,0,1,7.3,18.3c1.6,6.1,2,12.2,2.8,18.4s1.9,13,4.5,19.1"/><path class="cls-30" d="M59.5,3.4c-.4,2.7-.7,5.5-.9,8.3s-.3,5.7-.3,8.6A26,26,0,0,0,60.1,29a27,27,0,0,0,4.3,7.3c11.9,14.2,34.9,15.2,41.9,28.2s-29,16-40,26.5a76.8,76.8,0,0,0-7.8,4.7c-7,4.8-12.5,10.9-13.9,20.5a32.4,32.4,0,0,0,2.5,9.1c3.6,8.9,8.7,17.8,13.1,26.6a85.3,85.3,0,0,1,7.3,18.3c1.6,6.1,2.1,12.2,2.9,18.4s1.9,13,4.5,19.1"/><path class="cls-31" d="M61.3,3.3a80.1,80.1,0,0,0-1,8.4c-.2,2.8-.3,5.7-.3,8.6a24.1,24.1,0,0,0,1.9,9.5,27.5,27.5,0,0,0,5,7.7c12.4,14,38.4,14,43.4,28s-35,18-50,30.1a43.2,43.2,0,0,0-6.6,5.4,24.4,24.4,0,0,0-7.4,15.2,35.2,35.2,0,0,0,2.4,9c3.6,9,8.7,17.9,13.2,26.7a90.8,90.8,0,0,1,7.3,18.3c1.6,6.1,2.1,12.2,2.9,18.4s1.9,13,4.5,19.1"/><path class="cls-31" d="M63,3.3a80.1,80.1,0,0,0-1,8.4c-.2,2.8-.2,5.7-.3,8.5s.7,4.5,1.2,6.7a37.1,37.1,0,0,0,2.4,6.6c10,15,34,14,42,28,12,20-34,22-48.1,36a40.5,40.5,0,0,0-7.9,7c-3,4-3,8-3.4,11.7a31.8,31.8,0,0,0,2.5,9c3.5,9,8.6,17.9,13.1,26.8a92.3,92.3,0,0,1,7.3,18.2c1.6,6.1,2.1,12.2,2.9,18.4s2,13,4.6,19.1"/><path class="cls-32" d="M64.7,3.3q-.6,4.1-.9,8.4c-.2,2.8-.3,5.7-.3,8.5a26.2,26.2,0,0,0,2.7,10.3,34.8,34.8,0,0,0,5.8,8c10.3,17,55.3,18,44.3,31-14,16-43,16-60,31.8a27.5,27.5,0,0,0-4.5,6.6,26.3,26.3,0,0,0-2.3,8.3,35.4,35.4,0,0,0,2.5,9c3.6,9,8.7,17.9,13.1,26.8a87.9,87.9,0,0,1,7.4,18.2c1.6,6.1,2.1,12.2,2.9,18.4s2,13,4.6,19.1"/><path class="cls-33" d="M66.4,3.3c-.4,2.7-.7,5.5-.9,8.3s-.3,5.7-.3,8.6a15.6,15.6,0,0,0,.4,7.1,37.6,37.6,0,0,0,2.7,6.2c2,2,4,5,6,7,15,12,45,14,43,26-4,20-41,16-58.1,33.9a24,24,0,0,0-5.3,7,22.6,22.6,0,0,0-2.7,8.8,31.8,31.8,0,0,0,2.5,9c3.5,9,8.6,17.9,13.1,26.8a92.3,92.3,0,0,1,7.3,18.2c1.6,6.2,2.2,12.2,3,18.4s2,13,4.6,19.1"/><path class="cls-33" d="M68.2,3.2a59.9,59.9,0,0,0-.9,8.4c-.2,2.8-.3,5.7-.3,8.6a22.3,22.3,0,0,0,1.9,10.2,23.9,23.9,0,0,0,5.6,7.8c14.8,14.3,37.8,14.3,51.8,29.3-20,16-49,14-66.5,33.7a30.1,30.1,0,0,0-4.6,6.6,26.6,26.6,0,0,0-2.5,8.3,42.7,42.7,0,0,0,2.6,9.1c3.5,9,8.6,17.9,13.1,26.8a99.2,99.2,0,0,1,7.4,18.2c1.6,6.2,2.2,12.3,3,18.5s2,13,4.6,19"/><path class="cls-34" d="M69.9,3.2q-.6,4.2-.9,8.4c-.2,2.8-.3,5.7-.3,8.6a29.3,29.3,0,0,0,1,6.5,31.4,31.4,0,0,0,2.2,5.8c9.4,19,35.4,17,51.4,29,5,4,0,9-3,11-19,13-41,13-58.1,28.1a23.2,23.2,0,0,0-5.2,6.8,22.1,22.1,0,0,0-2.7,8.7,47.6,47.6,0,0,0,2.7,9.1c3.5,9,8.6,17.9,13,26.8a90.2,90.2,0,0,1,7.4,18.2c1.6,6.2,2.2,12.3,3.1,18.5s2,13,4.5,19"/><path class="cls-35" d="M71.6,3.2c-1.3,8.2-1.2,17-1.1,25.6,0,2.8.1,5.7.1,8.5C73.3,53.5,68.3,69.5,60,83.9a71.7,71.7,0,0,0-3,6.9,40.5,40.5,0,0,0-2.1,7c-3.5,18.4,7.8,36.5,16.8,54.2A92.3,92.3,0,0,1,79,170.2c1.7,6.2,2.3,12.3,3.2,18.5s2,13,4.5,19.1"/><path class="cls-36" d="M73.3,3.2c-1.2,8.2-1.2,16.9-1.1,25.6.1,2.8.1,5.7.2,8.5,4.9,22.2-9.1,40.2-15.8,60.5A35.4,35.4,0,0,0,56,107c.7,15.2,9.8,30.2,17.3,45a106.8,106.8,0,0,1,7.4,18.2c1.7,6.2,2.3,12.3,3.1,18.5a77.1,77.1,0,0,0,4.6,19.1"/><path class="cls-37" d="M75.1,3.2a119,119,0,0,0-1.2,16.9c0,2.9,0,5.8.1,8.6,4.3,24.8-5.7,46.8-15.7,69a40.3,40.3,0,0,0-.7,9.2c.8,15.3,9.9,30.3,17.3,45.1a90.2,90.2,0,0,1,7.4,18.2c1.7,6.2,2.3,12.3,3.2,18.5s2.1,13,4.6,19.1"/><path class="cls-37" d="M76.8,3.1a107.1,107.1,0,0,0-1.1,17c-.1,2.9,0,5.7,0,8.6,6.6,24.8-6.4,46.8-15.7,69a35.4,35.4,0,0,0-.7,9.2c.7,15.3,9.8,30.3,17.2,45.1A99.6,99.6,0,0,1,84,170.2c1.7,6.2,2.3,12.3,3.2,18.5s2.1,13,4.6,19.1"/><path class="cls-38" d="M78.5,3.1a137.3,137.3,0,0,0-1.1,17c0,2.8,0,5.7.1,8.6,4.8,24.8-4.2,47.8-15.9,69a35.4,35.4,0,0,0-.6,9.2c.7,15.3,9.7,30.3,17.2,45.1a106.8,106.8,0,0,1,7.4,18.2c1.7,6.2,2.4,12.3,3.3,18.5s2.1,13,4.6,19.1"/><path class="cls-39" d="M80.2,3.1a137.3,137.3,0,0,0-1.1,17c0,2.8,0,5.7.1,8.6,5.1,24.8-3.9,46.8-15.9,68.9a41.2,41.2,0,0,0-.7,9.3c.7,15.3,9.7,30.3,17.2,45.1a99.6,99.6,0,0,1,7.5,18.2c1.7,6.2,2.3,12.3,3.3,18.5s2.1,13,4.6,19.1"/><path class="cls-39" d="M82,3.1A118.9,118.9,0,0,0,80.9,20c0,2.9,0,5.8.1,8.6,6.3,24.9-3.7,46.9-16,69a41.2,41.2,0,0,0-.7,9.3C65,122.2,74,137.2,81.4,152a99.6,99.6,0,0,1,7.5,18.2c1.7,6.2,2.4,12.3,3.3,18.5s2.2,13,4.7,19.1"/><path class="cls-40" d="M83.7,3a137.3,137.3,0,0,0-1.1,17c0,2.9,0,5.8.1,8.6,8.6,25.9-4.4,47.9-16,69a35.4,35.4,0,0,0-.8,9.2c.7,15.4,9.7,30.4,17.2,45.2a106.8,106.8,0,0,1,7.4,18.2c1.8,6.2,2.5,12.3,3.4,18.5s2.2,13,4.7,19.1"/><path class="cls-41" d="M85.4,3a137.3,137.3,0,0,0-1,17c-.1,2.9,0,5.7.1,8.6,8.8,25.9-4.2,46.9-16.1,68.9a36.2,36.2,0,0,0-.8,9.3c.7,15.3,9.6,30.4,17.1,45.2a99.6,99.6,0,0,1,7.5,18.2,162.9,162.9,0,0,1,3.4,18.5c1,6.3,2.2,13,4.6,19.1"/><path class="cls-42" d="M87.1,3c-.3,2.8-.6,5.6-.7,8.4s-.3,5.7-.3,8.6c-.8,14.5,6.2,28.5,2.2,42.5-5,18-25,33-17.7,53.5.8,3.1,1.7,6.1,2.8,9.1,3.4,9,8.4,18,12.9,26.9a99.6,99.6,0,0,1,7.5,18.2c1.8,6.2,2.5,12.3,3.5,18.5s2.2,13,4.6,19.1"/><path class="cls-43" d="M88.9,3c-.4,2.7-.6,5.5-.8,8.4s-.2,5.7-.3,8.6c-1.5,16.5,9.5,31.5,2.5,46.5s-24,30-18.1,49.5c.8,3.1,1.7,6.1,2.8,9.1,3.5,9,8.5,18,13,26.9a116,116,0,0,1,7.5,18.2A163.1,163.1,0,0,1,99,188.7c1,6.4,2.2,13,4.6,19.1"/><path class="cls-44" d="M90.6,3c-.4,2.7-.6,5.5-.8,8.4s-.2,5.7-.2,8.5c-1.3,15.6,9.7,31.6,2.7,46.6s-25,30-18.4,49.4a73.5,73.5,0,0,0,2.8,9.1c3.4,9.1,8.4,18.1,12.9,27a99.6,99.6,0,0,1,7.5,18.2,128.4,128.4,0,0,1,3.5,18.5c1.1,6.4,2.3,13,4.7,19.1"/><path class="cls-45" d="M92.3,2.9a79.3,79.3,0,0,0-.7,8.4c-.2,2.9-.2,5.7-.3,8.6-1,14.6,9,27.6,5,42.6-5,19-28,31-20.8,53.4a73.5,73.5,0,0,0,2.8,9.1c3.4,9.1,8.4,18.1,12.9,27a107.6,107.6,0,0,1,7.6,18.2,163.1,163.1,0,0,1,3.5,18.5,91.3,91.3,0,0,0,4.7,19.2"/><path class="cls-45" d="M94,2.9c-.3,2.8-.5,5.6-.7,8.4s-.2,5.7-.2,8.6c-1.8,16.6,14.2,32.6,3.2,48.6-9,14-25,28-19.1,47.4A59.7,59.7,0,0,0,80,125c3.4,9.1,8.4,18.1,12.8,27a100,100,0,0,1,7.6,18.2c1.8,6.2,2.6,12.3,3.6,18.5a91.3,91.3,0,0,0,4.7,19.2"/><path class="cls-46" d="M95.8,2.9c-.4,2.8-.6,5.6-.8,8.4s-.2,5.7-.2,8.6c-1.5,16.6,14.5,32.6,4.5,48.6s-27,28-20.4,47.4a73,73,0,0,0,2.7,9.1c3.4,9.1,8.4,18.1,12.9,27a99.6,99.6,0,0,1,7.5,18.2,163.6,163.6,0,0,1,3.7,18.5,91.3,91.3,0,0,0,4.7,19.2"/><path class="cls-47" d="M97.5,2.9a79.3,79.3,0,0,0-.7,8.4c-.2,2.8-.2,5.7-.2,8.6-1.3,14.6,11.7,27.6,7.7,42.6-5,19-31,30-23.8,53.3a74.9,74.9,0,0,0,2.8,9.2c3.3,9.1,8.3,18.1,12.8,27a107.6,107.6,0,0,1,7.6,18.2c1.8,6.2,2.6,12.3,3.7,18.5a91.3,91.3,0,0,0,4.7,19.2"/><path class="cls-48" d="M99.2,2.8c-.3,2.8-.5,5.6-.7,8.5s-.2,5.7-.2,8.5c0,11.7,6,22.7,9,34.7,5,18-16,25-23,39-3,7-5,14-2.1,22.3a74.5,74.5,0,0,0,2.7,9.2c3.4,9.1,8.3,18.1,12.8,27a100,100,0,0,1,7.6,18.2c1.9,6.2,2.7,12.3,3.8,18.5a91.3,91.3,0,0,0,4.7,19.2"/><path class="cls-48" d="M100.9,2.8q-.5,4.2-.6,8.4c-.2,2.9-.2,5.8-.3,8.6-2.7,15.7,13.3,27.7,10.3,42.7-4,20-34,30-26.5,53.3a60.8,60.8,0,0,0,2.8,9.2c3.3,9.1,8.3,18.1,12.8,27a116.5,116.5,0,0,1,7.6,18.2,163.6,163.6,0,0,1,3.7,18.5,107.6,107.6,0,0,0,4.7,19.2"/><path class="cls-48" d="M102.6,2.8q-.4,4.2-.6,8.4c-.1,2.9-.2,5.7-.2,8.6-1.5,11.7,4.5,21.7,10.5,31.7,2,4,4,10,1,14-9,17-33,27-27.8,50.3a74.5,74.5,0,0,0,2.7,9.2c3.4,9.1,8.3,18.1,12.8,27a116.5,116.5,0,0,1,7.6,18.2,126.4,126.4,0,0,1,3.8,18.5,107.6,107.6,0,0,0,4.7,19.2"/><path class="cls-49" d="M104.4,2.8c-.3,2.7-.5,5.6-.7,8.4s-.2,5.7-.2,8.6c-.2,12.7,6.8,23.7,12.8,34.7,2,4,2,8,0,11-9,16-35,27-29.1,50.2a64.6,64.6,0,0,0,2.6,9.3c3.4,9.1,8.3,18.1,12.8,27a108,108,0,0,1,7.7,18.2,163.9,163.9,0,0,1,3.8,18.5,107.6,107.6,0,0,0,4.7,19.2"/><path class="cls-50" d="M106.1,2.8q-.4,4.1-.6,8.4c-.2,2.8-.2,5.7-.2,8.6-2,15.7,13,25.7,16,41.7a19.4,19.4,0,0,1-2,7c-13,13-36,25-30.5,47.2a74.5,74.5,0,0,0,2.7,9.2c3.3,9.2,8.3,18.2,12.7,27.1a108,108,0,0,1,7.7,18.2c1.9,6.2,2.8,12.3,3.9,18.5a107.6,107.6,0,0,0,4.7,19.2"/><path class="cls-51" d="M107.8,2.7c-.3,2.8-.5,5.6-.6,8.5s-.2,5.7-.2,8.6c-.7,14.7,10.3,25.7,16.3,38.7,2,4,1,7-1,10-13,14-36,24-31.8,47.2a60,60,0,0,0,2.6,9.2c3.4,9.2,8.3,18.2,12.8,27.1a116.5,116.5,0,0,1,7.6,18.2,164.5,164.5,0,0,1,4,18.5,107.6,107.6,0,0,0,4.7,19.2"/><path class="cls-51" d="M109.5,2.7l-.6,8.4c-.1,2.9-.1,5.8-.2,8.6-.4,13.8,7.6,23.8,15.6,34.8,2,3,5,7,3,11-11,18-41,25-35.1,50.2a60,60,0,0,0,2.6,9.2c3.3,9.2,8.2,18.2,12.7,27.1a127.4,127.4,0,0,1,7.7,18.2c1.9,6.2,2.8,12.3,3.9,18.5a110.1,110.1,0,0,0,4.8,19.2"/><path class="cls-52" d="M111.3,2.7q-.5,4.2-.6,8.4c-.1,2.9-.2,5.7-.2,8.6-.2,16.8,13.8,26.8,19.8,41.8a6.1,6.1,0,0,1-1,7c-13,14-41,24-35.4,47.2a50.2,50.2,0,0,0,2.5,9.2c3.3,9.2,8.3,18.2,12.7,27.1a108,108,0,0,1,7.7,18.2,164.5,164.5,0,0,1,4,18.5c1.2,6.4,2.5,13.1,4.8,19.3"/><path class="cls-53" d="M113,2.7c-.3,2.7-.5,5.6-.6,8.4s-.2,5.7-.2,8.6c-1.9,17.8,16.1,26.8,21.1,41.8a6.1,6.1,0,0,1-1,7c-14,14-41,23-36.7,47.1a51.2,51.2,0,0,0,2.5,9.3c3.3,9.1,8.2,18.2,12.7,27.1a127.4,127.4,0,0,1,7.7,18.2,164.5,164.5,0,0,1,4,18.5c1.2,6.4,2.5,13.1,4.8,19.3"/><path class="cls-54" d="M114.7,2.6c-.3,2.8-.4,5.6-.5,8.5s-.2,5.7-.2,8.6c-.7,15.8,12.3,25.8,21.3,38.8a9.1,9.1,0,0,1,0,10,80.5,80.5,0,0,1-12.4,10.1c-13.6,9.5-28.6,18.1-25.7,37a51.2,51.2,0,0,0,2.5,9.3c3.3,9.1,8.2,18.2,12.7,27.1a127.4,127.4,0,0,1,7.7,18.2,166.5,166.5,0,0,1,4.1,18.6c1.2,6.3,2.5,13,4.8,19.2"/><path class="cls-55" d="M116.4,2.6c-.2,2.8-.4,5.6-.5,8.5s-.2,5.7-.2,8.6c.5,14.8,11,23.5,19.1,34.7,1.6,2.3,3.1,4.6,4.5,7.1s0,5-1,7a42.5,42.5,0,0,1-5.7,5.5c-14.5,12.3-37.8,19.6-33.7,41.6a51.2,51.2,0,0,0,2.5,9.3c3.2,9.1,8.1,18.2,12.6,27.1a117.3,117.3,0,0,1,7.8,18.2,166.5,166.5,0,0,1,4.1,18.6,128,128,0,0,0,4.7,19.2"/><path class="cls-56" d="M118.2,2.6q-.5,4.2-.6,8.4c-.1,2.9-.1,5.8-.2,8.6-.1,14.9,11.7,24.3,20.2,35.1a54.6,54.6,0,0,1,4.7,6.8c1,2,0,5-1,7a51.2,51.2,0,0,1-5.9,5.5c-14.9,12.3-36.8,19.6-34.8,41.6a50.9,50.9,0,0,0,2.4,9.3c3.3,9.1,8.2,18.2,12.7,27.1a127.4,127.4,0,0,1,7.7,18.2,166.5,166.5,0,0,1,4.1,18.6,128.4,128.4,0,0,0,4.8,19.2"/><path class="cls-56" d="M119.9,2.6c-.3,2.8-.4,5.6-.5,8.4s-.2,5.7-.2,8.6c-1,9.9,4.8,16.6,11.1,23.3,2,2.2,4.2,4.3,6.1,6.6,6.9,7,12.9,21,.9,26l-7.9,4.9c-13.5,8.4-28,17.6-27.1,35.2a50.6,50.6,0,0,0,2.3,9.3c3.3,9.1,8.2,18.2,12.7,27.1a122.2,122.2,0,0,1,7.7,18.3,141.9,141.9,0,0,1,4.2,18.5A128.4,128.4,0,0,0,134,208"/><path class="cls-57" d="M121.6,2.6c-.2,2.7-.4,5.6-.5,8.4s-.1,5.7-.2,8.6c-.3,9.9,6.3,17.1,12.8,24,2.2,2.3,4.4,4.5,6.3,6.8,7.3,7.1,9.3,21.1-.5,26.1a54.7,54.7,0,0,1-6.5,4.1c-7,3.9-15.2,7.4-20.7,12.9s-10,13-8.3,22a42.2,42.2,0,0,0,2.3,9.3c3.3,9.2,8.1,18.3,12.6,27.2a122.7,122.7,0,0,1,7.8,18.3c1.7,6.1,3.1,12.2,4.2,18.5a128.4,128.4,0,0,0,4.8,19.2"/><path class="cls-57" d="M123.3,2.5c-.2,2.8-.4,5.6-.5,8.5s-.1,5.7-.1,8.6.6,8.9,2.6,12.9a34.8,34.8,0,0,0,5.1,7c2.2,2.3,4.6,4.6,7,7,8.9,7,19.9,22,4.9,29-2.5,1.8-5.3,3.5-8.1,5.2-13.9,8.5-29.7,16.4-28.6,34.8a50.6,50.6,0,0,0,2.3,9.3c3.3,9.2,8.2,18.3,12.6,27.2a118.4,118.4,0,0,1,7.8,18.3,160.5,160.5,0,0,1,4.3,18.5,128.4,128.4,0,0,0,4.8,19.2"/><path class="cls-58" d="M125.1,2.5c-.3,2.8-.4,5.6-.5,8.5s-.2,5.7-.2,8.6c-.8,10.6,5.2,18.1,12.2,24.9l5.4,5c4.3,5,12.3,9,10.3,16s-9,11-14.7,14.8l-7.1,4.4c-11.9,7.3-23.2,15.1-23.2,30.8a43.6,43.6,0,0,0,2.3,9.3c3.2,9.2,8.1,18.3,12.6,27.2a134.1,134.1,0,0,1,7.8,18.3,160.5,160.5,0,0,1,4.3,18.5,128.4,128.4,0,0,0,4.8,19.2"/><path class="cls-58" d="M126.8,2.5c-.2,2.8-.4,5.6-.5,8.4s-.1,5.8-.2,8.6c-.4,9,3.9,15.5,9.4,21.3,1.8,2,3.8,3.9,5.8,5.8,5,6.9,18,11.9,13,21.9-2,5-8,8-12.7,11.7-2.4,1.6-5,3.1-7.6,4.6-12.7,7.5-25.5,14.4-25,30.7a43.4,43.4,0,0,0,2.2,9.3c3.3,9.2,8.1,18.3,12.6,27.2a122.7,122.7,0,0,1,7.8,18.3c2,6.1,3.1,12.3,4.4,18.5a128.4,128.4,0,0,0,4.8,19.2"/><path class="cls-58" d="M128.5,2.5c-.2,2.8-.4,5.6-.4,8.4s-.2,5.7-.2,8.6a28.6,28.6,0,0,0,1.4,9,22.7,22.7,0,0,0,4,7.7,47,47,0,0,0,6,6.6c6,5.7,14,9.7,16,17.7s-5,15-11,19.2c-2.3,1.7-4.7,3.3-7.2,4.9-12.2,7.7-26.1,14.6-26.4,30.9a37.1,37.1,0,0,0,2.2,9.3c3.2,9.2,8,18.3,12.5,27.2a134.7,134.7,0,0,1,7.9,18.3,160.5,160.5,0,0,1,4.3,18.5,142.2,142.2,0,0,0,4.9,19.2"/><path class="cls-59" d="M130.2,2.5c-.2,2.7-.3,5.6-.4,8.4s-.1,5.7-.2,8.6a32.2,32.2,0,0,0,2.7,13,25.8,25.8,0,0,0,5.1,6.8,89,89,0,0,0,7,6.7c5.9,5.5,16.9,11.5,13.9,21.5s-14,13-22.4,18.8c-2.9,1.7-5.8,3.5-8.5,5.4-8.1,5.8-14.6,12.8-15.1,23.8a43.4,43.4,0,0,0,2.2,9.3c3.2,9.2,8.1,18.3,12.6,27.2a147.9,147.9,0,0,1,7.8,18.3,160.8,160.8,0,0,1,4.4,18.5,158.5,158.5,0,0,0,4.8,19.2"/><path class="cls-59" d="M132,2.4c-.3,2.8-.4,5.6-.5,8.5s-.1,5.7-.1,8.6c-.4,7,2.1,12.3,5.8,17a78.1,78.1,0,0,0,6.2,6.7c7.9,7.3,18.9,14.3,16.9,25.3s-15,12-22.6,17.8c-3,1.7-6,3.5-8.7,5.4-8.3,5.8-14.9,12.8-15,23.8a37.1,37.1,0,0,0,2.2,9.3c3.2,9.2,8,18.3,12.5,27.2a122.7,122.7,0,0,1,7.8,18.3c2.1,6.1,3.2,12.3,4.5,18.5a164.9,164.9,0,0,0,4.8,19.3"/><path class="cls-60" d="M133.7,2.4c-.2,2.8-.4,5.6-.4,8.5s-.2,5.7-.2,8.6a28.3,28.3,0,0,0,1.2,9,24,24,0,0,0,4.5,8.1,73.6,73.6,0,0,0,7.2,7.6c6.3,7.3,18.3,13.3,16.3,22.3s-14,15-22.7,19.9c-2.9,1.8-5.7,3.6-8.4,5.6-8.1,5.7-14.7,12.4-15.5,23.4a38.7,38.7,0,0,0,2.1,9.4c3.2,9.2,8,18.3,12.5,27.2a134.7,134.7,0,0,1,7.9,18.3c1.8,6.1,3.3,12.2,4.5,18.5a164.9,164.9,0,0,0,4.8,19.3"/><path class="cls-60" d="M135.4,2.4c-.2,2.8-.3,5.6-.4,8.4s-.1,5.8-.1,8.7a28.6,28.6,0,0,0,1.4,9,23,23,0,0,0,3.7,7.1,50.5,50.5,0,0,0,5.4,6c6.9,5.9,15.9,10.9,17.9,19.9,4,16-15,20-25.1,26.9a81.5,81.5,0,0,0-8,4.9,31.3,31.3,0,0,0-6.9,6.2c-4,5-7,10-6,15.9a33.9,33.9,0,0,0,2.2,9.4c3.1,9.2,8,18.3,12.5,27.2a147.9,147.9,0,0,1,7.8,18.3,161.3,161.3,0,0,1,4.6,18.5,164.9,164.9,0,0,0,4.8,19.3"/><path class="cls-61" d="M137.1,2.4c-.2,2.7-.3,5.6-.4,8.4s-.1,5.8-.1,8.6a23.1,23.1,0,0,0,1.3,9.4,28.4,28.4,0,0,0,4.4,7.5c9,11.2,27,18.2,25,32.2-1,9-15,13-24.1,18.3-2.4,1.3-4.7,2.7-7,4.2-9,5.7-16.6,12.4-17.2,24.4a36.9,36.9,0,0,0,2.1,9.3c3.2,9.3,8,18.4,12.5,27.4a128.2,128.2,0,0,1,7.9,18.2,142.6,142.6,0,0,1,4.5,18.5,188.1,188.1,0,0,0,4.9,19.3"/><path class="cls-62" d="M138.9,2.3c-.2,2.8-.4,5.7-.4,8.5s-.1,5.7-.2,8.6a25.8,25.8,0,0,0,1.2,8.7,31.2,31.2,0,0,0,4,7.4c7.8,11,24.8,17,25.8,31,0,11-16,15-24.8,20.4-3,1.8-5.9,3.6-8.6,5.5-8,5.8-14.5,12.5-15.3,23a37.9,37.9,0,0,0,2.1,9.3c3.2,9.3,8,18.4,12.5,27.4a128.2,128.2,0,0,1,7.9,18.2,161.3,161.3,0,0,1,4.6,18.5,188.1,188.1,0,0,0,4.9,19.3"/><path class="cls-62" d="M140.6,2.3c-.2,2.8-.3,5.6-.4,8.5s-.1,5.7-.1,8.6a19.1,19.1,0,0,0,1.6,9.1,34.1,34.1,0,0,0,4.6,7.8c8,10.2,22,16.2,24,29.2,2,15-20,17-30,25-2.3,1.5-4.6,3-6.8,4.7-6.5,5.1-12,11.2-11.2,20.2a36.9,36.9,0,0,0,2.1,9.3c3.2,9.2,7.9,18.4,12.4,27.4a128.7,128.7,0,0,1,8,18.2,166.6,166.6,0,0,1,4.6,18.5,188.1,188.1,0,0,0,4.9,19.3"/><path class="cls-63" d="M142.3,2.3c-.2,2.8-.3,5.6-.4,8.5s-.1,5.7-.1,8.6a29.4,29.4,0,0,0,1.5,9.1,26.8,26.8,0,0,0,4,7.9c6,10.1,19,14.1,23,24.1,7,17-18,22-28.9,30.8a56.3,56.3,0,0,0-8.4,6.1c-5,4.5-8.6,10-9.1,18a37.9,37.9,0,0,0,2.1,9.3c3.2,9.2,8,18.4,12.5,27.4a128.2,128.2,0,0,1,7.9,18.2,161.6,161.6,0,0,1,4.7,18.5,188.1,188.1,0,0,0,4.9,19.3"/><path class="cls-63" d="M144,2.3l-.3,8.4c-.1,2.9-.1,5.8-.1,8.7a39.5,39.5,0,0,1,.7,9.1,25.1,25.1,0,0,0,4.2,7.7c8.8,10.3,25.8,17.3,24.8,30.3,0,15-20,18-31.4,26.7a47.5,47.5,0,0,0-7.5,5.9,25.2,25.2,0,0,0-8.8,16.3,36.9,36.9,0,0,0,2.1,9.3c3.1,9.2,7.9,18.4,12.4,27.4a147.6,147.6,0,0,1,8,18.2c2,6.2,3.3,12.3,4.7,18.5a165.4,165.4,0,0,0,4.9,19.3"/><path class="cls-63" d="M145.8,2.3c-.2,2.7-.3,5.6-.4,8.4s-.1,5.8-.1,8.6a29.5,29.5,0,0,0,1,9.2,31.8,31.8,0,0,0,4,6.9c8,11.1,28,18.1,25,33.1-3,12-18,16-28.5,23.1q-3.7,2.1-7.2,4.5c-6.8,4.7-12.1,10.3-12.6,19.3a50.6,50.6,0,0,0,2.3,9.3c3.2,9.2,7.9,18.4,12.4,27.4a128.7,128.7,0,0,1,8,18.2c1.9,6.1,3.5,12.2,4.8,18.5a187.6,187.6,0,0,0,4.8,19.3"/><path class="cls-64" d="M147.5,2.2c-.2,2.8-.3,5.7-.3,8.5s-.1,5.7-.2,8.6a23.8,23.8,0,0,0,1,7.9,29.7,29.7,0,0,0,3.1,6.8c8.2,12.5,25.2,18.5,25.2,32.5,0,16-21,17-31.9,26.5a63.8,63.8,0,0,0-6.7,4.9,31.9,31.9,0,0,0-5.4,5.6c-2,4-4,8-3.7,11.9a50.9,50.9,0,0,0,2.4,9.3c3.1,9.2,7.9,18.4,12.4,27.4a128.2,128.2,0,0,1,7.9,18.2,143.5,143.5,0,0,1,4.8,18.5c1.4,6.4,2.9,13,4.9,19.3"/><path class="cls-65" d="M149.2,2.2c-.2,2.8-.2,5.6-.3,8.5s-.1,5.7-.1,8.6a21.6,21.6,0,0,0,1,7.5,28.7,28.7,0,0,0,3,6.7c7.5,12,23.5,18,25.5,32s-18,17-27.6,24.1a75.8,75.8,0,0,0-9.3,6.3,28.6,28.6,0,0,0-7.1,7.6c-2,4-4,8-4,11.9a50.6,50.6,0,0,0,2.3,9.3c3.1,9.2,7.9,18.4,12.4,27.4a147.6,147.6,0,0,1,8,18.2c1.9,6.1,3.5,12.2,4.8,18.5s2.9,13.1,4.9,19.3"/><path class="cls-66" d="M150.9,2.2l-.3,8.5c0,2.8-.1,5.7-.1,8.6a28.5,28.5,0,0,0,1.2,7.1,35.2,35.2,0,0,0,2.7,6.3c5.9,11.8,21.9,17.8,23.9,30.8,4,18-20,20-31.2,30.1a64.8,64.8,0,0,0-7.1,5.6,37.8,37.8,0,0,0-5.7,6.3,12.5,12.5,0,0,0-2.3,9.9,43.6,43.6,0,0,0,2.3,9.3c3.1,9.2,7.8,18.4,12.3,27.4a147.6,147.6,0,0,1,8,18.2,162.2,162.2,0,0,1,4.9,18.5c1.4,6.4,2.9,13.1,4.9,19.4"/><path class="cls-66" d="M152.6,2.2c-.1,2.8-.2,5.6-.2,8.5s-.1,5.7-.1,8.6a21.2,21.2,0,0,0,.6,7.1,28.5,28.5,0,0,0,2.5,6.3c4.9,9.8,13.9,14.8,21.9,22.8,18,19-16,28-27.4,37.5-2.5,1.7-4.8,3.3-7,5.1a40.7,40.7,0,0,0-5.6,5.4,17,17,0,0,0-3.7,11.9,49.6,49.6,0,0,0,2.3,9.2c3.1,9.3,7.8,18.5,12.4,27.5a147.6,147.6,0,0,1,8,18.2c1.9,6.1,3.6,12.2,4.9,18.5s2.9,13.1,4.9,19.4"/><path class="cls-67" d="M154.4,2.1c-.2,2.8-.2,5.7-.3,8.5s-.1,5.8-.1,8.6a25.2,25.2,0,0,0,.7,7.2,24.1,24.1,0,0,0,2.4,6.3c6.2,12.8,23.2,17.8,26.2,30.8,3,17-22,20-31.7,29.5-2.4,1.7-4.6,3.3-6.7,5.1a40.7,40.7,0,0,0-5.6,5.4c-2,4-4,8-4,11.8a52.2,52.2,0,0,0,2.2,9.3c3.1,9.3,7.9,18.5,12.4,27.5a147.6,147.6,0,0,1,8,18.2,162.5,162.5,0,0,1,5,18.5c1.4,6.4,2.9,13.1,4.9,19.4"/><path class="cls-68" d="M156.1,2.1l-.3,8.5c0,2.9,0,5.7-.1,8.6a31.1,31.1,0,0,0,1.1,6.8,37.1,37.1,0,0,0,2.4,6.3c5.1,14.2,27.1,19.2,25.1,35.2-3,14-22,17-33,26.3-2.4,1.8-4.6,3.7-6.7,5.6a34.1,34.1,0,0,0-5.3,6.1,12.7,12.7,0,0,0-2.4,9.8,50.6,50.6,0,0,0,2.3,9.3c3.1,9.3,7.8,18.5,12.3,27.5a197.5,197.5,0,0,1,8.1,18.2c1.9,6.1,3.6,12.2,4.9,18.5s3,13.1,5,19.4"/><path class="cls-68" d="M157.8,2.1c-.1,2.8-.2,5.6-.2,8.5s-.1,5.7-.1,8.6a34.6,34.6,0,0,0,1,7c31.8,23.3,27.8,56.3-7.9,72.6-2.6,2-5.4,3.9-8.3,5.7s-4,7-3.7,10.8a52.2,52.2,0,0,0,2.2,9.3c3.1,9.3,7.8,18.5,12.3,27.5a141.8,141.8,0,0,1,8.1,18.2,162.5,162.5,0,0,1,5,18.5c1.5,6.4,3,13.1,5,19.4"/><path class="cls-68" d="M159.5,2.1c-.1,2.8-.1,5.6-.2,8.5s0,5.7-.1,8.6a26,26,0,0,0,1.3,7.8c3.8,10.3,13.6,16.9,20.2,24.5,3.3,3.8,5.9,8,6.6,13,1,6.6-1.9,11.2-6.6,14.9-9.5,7.3-26.2,11.1-33.7,21.3a28.8,28.8,0,0,0-4.3,6.6,22.3,22.3,0,0,0-2.3,8,37.9,37.9,0,0,0,2.1,9.3c3,9.3,7.8,18.5,12.3,27.5a147.6,147.6,0,0,1,8,18.2,144.4,144.4,0,0,1,5.1,18.5c1.5,6.5,3,13.1,5,19.4"/><path class="cls-69" d="M161.3,2.1c-.1,2.8-.2,5.6-.2,8.5s-.1,5.7-.1,8.6a22.5,22.5,0,0,0,.9,8.1c2.9,9.4,10.5,15.2,17.1,21.3,3.3,3.1,6.3,6.2,8.3,9.9,4.1,7.3,2.6,12.7-1.6,17.2s-11,8-17.7,11.5-13.4,7-17.2,11.3a43.2,43.2,0,0,0-6.5,7,12.7,12.7,0,0,0-2.4,9.8,52.2,52.2,0,0,0,2.2,9.3c3.1,9.3,7.8,18.5,12.3,27.5a197.5,197.5,0,0,1,8.1,18.2q3,9.1,5.1,18.6c1.5,6.4,3,13,4.9,19.3"/><path class="cls-69" d="M163,2c-.1,2.8-.2,5.7-.2,8.5s-.1,5.8-.1,8.7c27.6,30.3,27.6,70.3-15.4,85.3-3,1-4,7-3.8,10.8a43.6,43.6,0,0,0,2.3,9.3c3,9.3,7.7,18.5,12.2,27.5a148.2,148.2,0,0,1,8.1,18.2,170.9,170.9,0,0,1,5.2,18.6c1.5,6.4,3,13,4.9,19.3"/><path class="cls-70" d="M164.7,2c-.1,2.8-.1,5.7-.2,8.5s0,5.8-.1,8.6c1.3,12.2,10.1,20.3,17.6,28.8,3.8,4.2,7.3,8.6,9.3,13.6,4,7,1.7,11.9-3.3,15.9s-12.3,7.2-19.3,10.7-13.8,7.5-17,13.1a31.2,31.2,0,0,0-4.3,6.4,22.2,22.2,0,0,0-2.2,7.6,51.3,51.3,0,0,0,2.2,9.4c3.1,9.3,7.8,18.5,12.3,27.5a197.5,197.5,0,0,1,8.1,18.2,150.6,150.6,0,0,1,5.1,18.6c1.6,6.4,3.1,13,5,19.3"/><path class="cls-71" d="M166.4,2c-.1,2.8-.1,5.6-.1,8.5s-.1,5.7-.1,8.6a16.8,16.8,0,0,0,.1,7.4c2.3,4.3,6,8.1,9.8,11.8s7.8,7.2,10.7,11c7.5,9.2,4.5,22.2-3.8,30.1-4.6,4.8-10.7,9-16.8,13.1s-12.3,8.3-16.9,13a12.9,12.9,0,0,0-2.5,9.7,43.6,43.6,0,0,0,2.3,9.3c3,9.3,7.7,18.6,12.2,27.6a197.5,197.5,0,0,1,8.1,18.2,170.9,170.9,0,0,1,5.2,18.6c1.6,6.4,3.1,13,5,19.3"/><path class="cls-71" d="M168.2,2c-.1,2.8-.2,5.6-.2,8.5s0,5.7-.1,8.6a17.6,17.6,0,0,0,.6,7.2,32.1,32.1,0,0,0,7.5,13c3.3,3.7,7.2,7.1,10.6,10.6,7.7,5.6,13.7,19.6,3.7,27.5-4.7,3.9-11.6,7-18.2,10.5S159,95,155.4,100.3a26.3,26.3,0,0,0-4.6,6.8,22.8,22.8,0,0,0-2.3,8.1,52.2,52.2,0,0,0,2.2,9.3c3,9.3,7.7,18.6,12.2,27.6a198.3,198.3,0,0,1,8.2,18.2,170.9,170.9,0,0,1,5.2,18.6c1.6,6.4,3.1,13,5,19.3"/><path class="cls-72" d="M169.9,1.9c-.1,2.9-.1,5.7-.2,8.6v8.6c4.4,10.2,12.1,19,17.3,28.1a42.7,42.7,0,0,1,5.4,14.3,20,20,0,0,1-2.9,13.9c-2.5,4.1-6.2,7.7-10.5,11.2-8.5,6.9-19.2,12.9-26.7,19.9-2,1-1,6-2.2,8.7a52.2,52.2,0,0,0,2.2,9.3c3.1,9.3,7.7,18.6,12.3,27.6a197.5,197.5,0,0,1,8.1,18.2,171.4,171.4,0,0,1,5.3,18.6c1.5,6.4,3.1,13,5,19.3"/><path class="cls-73" d="M171.6,1.9c-.1,2.8-.1,5.7-.1,8.5s-.1,5.8-.1,8.7c-.4,6.1,2.2,11,5.8,15.3s8.3,8.4,12.2,12.6c9.9,7.5,10.9,23.5.9,31.6-4.6,4.6-10.8,8.4-17,12.1s-12.3,7.4-17,11.8a11.1,11.1,0,0,0-4,5.7,16.4,16.4,0,0,0-.5,7,52.2,52.2,0,0,0,2.2,9.3c3,9.3,7.7,18.6,12.2,27.6a197.5,197.5,0,0,1,8.1,18.2,151.9,151.9,0,0,1,5.4,18.6c1.5,6.4,3.1,13,5,19.4"/><path class="cls-74" d="M173.3,1.9c0,2.8-.1,5.7-.1,8.5V19c0,9.7,4.8,16.6,10.7,22.9,1.9,2.1,4,4.1,6.1,6.2,5.3,5.4,12.3,10.4,13.3,17.4,1,9-9,12-15.9,16.6-2.9,1.8-5.9,3.4-8.9,5-9.1,4.9-18,10-22.7,19.6a22.4,22.4,0,0,0-2.3,8.5,50,50,0,0,0,2.1,9.3c3,9.3,7.7,18.6,12.2,27.6a198.3,198.3,0,0,1,8.2,18.2c2.2,6.2,3.8,12.4,5.4,18.6s3.1,13,5,19.4"/><path class="cls-75" d="M175.1,1.9c-.1,2.8-.1,5.6-.1,8.5s-.1,5.7-.1,8.6c5.4,27.5.4,51.5-17.6,73.5-3,4-3,8-3.3,13.3a48.8,48.8,0,0,0,.9,9.3c2.2,12.5,8.5,24.9,14.5,37a148.8,148.8,0,0,1,8.2,18.2,151.9,151.9,0,0,1,5.4,18.6c1.6,6.4,3.2,13,5.1,19.4"/><path class="cls-75" d="M176.8,1.9c-.1,2.8-.1,5.6-.1,8.5s0,5.7-.1,8.6c6.7,28.5.7,51.5-18.3,73.5-2,4-2,9-2.6,13.2a59.6,59.6,0,0,0,.8,9.4c2.3,12.5,8.6,24.9,14.6,37a198.3,198.3,0,0,1,8.2,18.2,151.9,151.9,0,0,1,5.4,18.6c1.6,6.4,3.2,13,5,19.4"/><path class="cls-76" d="M178.5,1.8c0,2.8-.1,5.7-.1,8.6V19c-1.1,15.5,7.9,29.5,1.9,43.5-7,17-29,31-22.1,52.6a76.2,76.2,0,0,0,2.4,9.4c2.9,9.3,7.6,18.6,12.1,27.6a198.3,198.3,0,0,1,8.2,18.2c2.1,6.1,4,12.3,5.5,18.6s3.2,13,5,19.4"/><path class="cls-77" d="M180.2,1.8v8.5c0,2.9-.1,5.8-.1,8.7.2,11.5,2.2,21.5,5.2,32.5,0,4,1,8-1,11-10,17-31,31-24.5,52.6a76.2,76.2,0,0,0,2.4,9.4c3,9.3,7.6,18.6,12.1,27.6a199.1,199.1,0,0,1,8.3,18.2c2.1,6.1,4,12.3,5.5,18.6s3.2,13,5,19.4"/><path class="cls-78" d="M182,1.8c-.1,2.8-.1,5.7-.1,8.5v8.6c-.6,11.6,3.4,23.6,5.4,35.6a13.9,13.9,0,0,1-2,11c-11,16-29,29-23.8,49.6a78.9,78.9,0,0,0,2.3,9.3c3,9.4,7.6,18.7,12.2,27.7,3,6.1,5.9,12.1,8.2,18.2s4,12.3,5.6,18.6,3.2,13,5,19.4"/><path class="cls-79" d="M183.7,1.8c0,2.8-.1,5.6-.1,8.5v8.6c-.9,9,3.3,17.4,5.2,26.1a30.8,30.8,0,0,1,.5,13.5c-1,5.5-3.7,10.2-6.9,14.6-9.8,13.3-25.2,23.5-19.2,42a63.1,63.1,0,0,0,2.3,9.3c2.9,9.4,7.6,18.7,12.1,27.7a188.6,188.6,0,0,1,8.2,18.3,131.5,131.5,0,0,1,5.6,18.5c1.7,6.4,3.3,13,5.1,19.4"/><path class="cls-80" d="M185.4,1.7v8.6c0,2.8,0,5.7-.1,8.6-.7,5.2.7,10.3,2.4,15.4s3.9,10.3,4.9,15.4.8,10.5-2.3,15.8S182.6,75.7,178,80.6c-9.2,9.9-18.2,20.1-13.2,34.4a75.8,75.8,0,0,0,2.3,9.4c3,9.4,7.6,18.7,12.1,27.7a189.3,189.3,0,0,1,8.3,18.3,164.7,164.7,0,0,1,5.6,18.5c1.7,6.4,3.3,13,5.1,19.4"/><path class="cls-80" d="M187.1,1.7V18.9c-.6,5.2.6,10.1,2.4,14.8s4,9.4,5.6,14c3.2,9.8-.8,19.8-8.4,26.8-3.5,4.1-7.4,8-10.8,12-6.8,8.1-12,16.7-9.4,28.5a61.4,61.4,0,0,0,2.3,9.4c2.9,9.4,7.5,18.7,12.1,27.7a188.6,188.6,0,0,1,8.2,18.3,146.6,146.6,0,0,1,5.7,18.5c1.7,6.4,3.3,13,5.1,19.4"/><path class="cls-81" d="M188.9,1.7c-.1,2.8-.1,5.7,0,8.5s-.1,5.8-.1,8.7c-1.1,9.4,3.1,18,6.9,26.7,1.5,3,2.9,5.9,4.1,9,2.5,8.9-4.5,14.9-10.5,20.4l-6.1,5.8c-10,9.7-19.4,19.5-15.1,34.2a75.8,75.8,0,0,0,2.3,9.4c3,9.4,7.6,18.7,12.1,27.7,3,6.1,5.9,12.1,8.3,18.3a188.9,188.9,0,0,1,5.7,18.5c1.7,6.4,3.3,13,5.1,19.4"/><path class="cls-82" d="M190.6,1.7V18.9a56.2,56.2,0,0,0,4.2,18c.8,1.9,1.6,3.9,2.5,5.8,6,8.8,10,22.8-1.7,29.9-2.5,1.7-4.9,3.6-7.4,5.5C176.5,87.9,166,99.5,169.8,115a61.4,61.4,0,0,0,2.3,9.4c2.9,9.4,7.5,18.7,12,27.7a189.3,189.3,0,0,1,8.3,18.3,165.5,165.5,0,0,1,5.8,18.5c1.7,6.4,3.3,13.1,5.1,19.4"/><path class="cls-82" d="M192.3,1.7V18.8c-.5,7.3,2,13.7,5,20.1l3.4,6.4c13.6,14.2,1.6,27.2-11.5,34.9-2.8,2.4-5.4,4.7-7.8,7.2-7.1,7.4-12,15.8-9.9,27.6a61.1,61.1,0,0,0,2.2,9.4c2.9,9.4,7.5,18.7,12,27.7a189.9,189.9,0,0,1,8.4,18.3,188.9,188.9,0,0,1,5.7,18.5c1.8,6.4,3.4,13.1,5.1,19.5"/><path class="cls-83" d="M194,1.6c0,2.9.1,5.7.1,8.6s0,5.7-.1,8.6a21.2,21.2,0,0,0,.6,7.9,49.3,49.3,0,0,0,2.7,7.3c19,17.5,9,42.5-11.7,52.6a64.5,64.5,0,0,0-5.9,5.8c-5.4,6-8.8,13-6.6,22.6a61.4,61.4,0,0,0,2.3,9.4c2.9,9.3,7.4,18.6,12,27.7,3,6.1,5.9,12.1,8.3,18.3a165.5,165.5,0,0,1,5.8,18.5c1.8,6.4,3.4,13.1,5.1,19.5"/><path class="cls-83" d="M195.7,1.6c.1,2.8.1,5.7.1,8.6v8.6a21.1,21.1,0,0,0,.4,7.9A32.4,32.4,0,0,0,199,34c20.3,18.5,11.3,41.5-10.9,52.3a47.6,47.6,0,0,0-6.2,5.7c-5.6,6-9.2,13-7.1,22.9a62.3,62.3,0,0,0,2.2,9.5c2.9,9.3,7.5,18.6,12,27.7a189.3,189.3,0,0,1,8.3,18.3,165.9,165.9,0,0,1,5.9,18.5c1.8,6.4,3.4,13.1,5.1,19.5"/><path class="cls-83" d="M197.5,1.6v8.5q.1,4.4,0,8.7a48.8,48.8,0,0,0,1.3,8.4,49,49,0,0,0,2.9,8.1c16.6,16.2,20.6,38.2-5.5,46.3-3,2.1-5.8,4.3-8.4,6.5-7.5,7-12.9,15.1-11.3,26.8a51,51,0,0,0,2.1,9.4c2.9,9.4,7.5,18.7,12,27.8,3,6.1,6,12.1,8.4,18.3a165.9,165.9,0,0,1,5.9,18.5l5.1,19.5"/><path class="cls-84" d="M199.2,1.6c0,2.8.1,5.6.1,8.5v8.7a25.8,25.8,0,0,0,.7,7.8,32.4,32.4,0,0,0,2.7,7.1c4.6,11.8,20.6,18.8,17.6,31.8-4,10-17,13-25.7,19.1a67.3,67.3,0,0,0-7.2,6c-6.4,6.5-10.7,14.1-9.3,24.3a61.1,61.1,0,0,0,2.2,9.4c2.9,9.4,7.4,18.7,12,27.8,3,6.1,5.9,12.1,8.3,18.3a190.2,190.2,0,0,1,6,18.5l5.1,19.5"/><path class="cls-84" d="M200.9,1.5c.1,2.9.1,5.7.1,8.6v8.6a13.9,13.9,0,0,0,.5,6.7c.5,2.1,1.3,4.1,1.8,6.1,4,12,18,16,20,28,2,16-19,19-28.9,27.9a46.9,46.9,0,0,0-6.4,5.4c-5.7,5.7-9.5,12.6-8.2,22.1a75.1,75.1,0,0,0,2.1,9.4c2.9,9.4,7.5,18.7,12,27.8,3,6.1,6,12.1,8.4,18.3a190.2,190.2,0,0,1,6,18.5l5.1,19.5"/><path class="cls-85" d="M202.6,1.5c.1,2.9.1,5.7.1,8.6s.1,5.7,0,8.6.4,4.1.7,6.3a25.4,25.4,0,0,0,1.9,6.5c5,13,23,19,21,34-3,12-19,14-28.5,20.4a54.5,54.5,0,0,0-7,5.7c-6,6.2-9.9,13.6-9.3,23.3a51,51,0,0,0,2.1,9.4c2.8,9.4,7.4,18.7,11.9,27.8,3,6.1,6,12.1,8.4,18.3a147.9,147.9,0,0,1,6,18.5c1.8,6.5,3.5,13.1,5.2,19.5"/><path class="cls-86" d="M204.4,1.5c0,2.8.1,5.7.1,8.6v8.6a23.1,23.1,0,0,0,.9,7.4,32.3,32.3,0,0,0,2.9,6.6c5,13.8,30,20.8,20,34.8s-28,16-39,28a27.1,27.1,0,0,0-4.9,8.6,24.5,24.5,0,0,0-1.2,10.8,50.8,50.8,0,0,0,2,9.4c2.9,9.4,7.4,18.7,12,27.8,3,6.1,5.9,12.1,8.4,18.3a190.2,190.2,0,0,1,6,18.5c1.8,6.5,3.5,13.1,5.2,19.5"/><path class="cls-86" d="M206.1,1.5c0,2.8.1,5.7.1,8.5s.1,5.8,0,8.7a21.3,21.3,0,0,0,.8,7.1,28,28,0,0,0,2.8,6.7c5.5,13,27.5,19,23.5,32s-23,15-34.3,24.1a37.9,37.9,0,0,0-6.3,4.9c-5.4,5.3-8.8,11.8-7.9,21.3a52.1,52.1,0,0,0,2.1,9.5c2.8,9.4,7.4,18.7,11.9,27.8,3,6.1,6,12.2,8.4,18.3a166.8,166.8,0,0,1,6.1,18.5c1.8,6.5,3.5,13.1,5.2,19.5"/><path class="cls-87" d="M207.8,1.5c.1,2.8.1,5.6.2,8.5v8.7a26.3,26.3,0,0,0,.8,7.4,30.4,30.4,0,0,0,3.1,6.9c6.4,13.5,28.4,18.5,24.4,31.5s-23,16-34.9,24.5a59.1,59.1,0,0,0-6.3,4.9c-5.4,5.4-9.1,11.8-8.6,20.9a51.8,51.8,0,0,0,2,9.5c2.8,9.4,7.4,18.7,11.9,27.8,3,6.1,6,12.2,8.4,18.3a191.2,191.2,0,0,1,6.2,18.5c1.8,6.5,3.4,13.1,5.1,19.5"/><path class="cls-88" d="M209.5,1.4c.1,2.9.2,5.7.2,8.6v8.6a30.4,30.4,0,0,0,1.3,7.9,38.5,38.5,0,0,0,3.4,7.1c6.9,12.9,26.9,17.9,24.9,31.9s-24,14-35.7,23.5a62.6,62.6,0,0,0-6.6,4.9c-5.4,5.4-9.2,11.8-8.8,20.9a44.7,44.7,0,0,0,2,9.5c2.8,9.4,7.3,18.7,11.8,27.8,3.1,6.1,6,12.2,8.5,18.3a176.3,176.3,0,0,1,6.2,18.6c1.8,6.4,3.4,13,5.1,19.4"/><path class="cls-88" d="M211.3,1.4c0,2.8.1,5.7.1,8.6s.1,5.7,0,8.6a26.2,26.2,0,0,0,.7,7.4,29.4,29.4,0,0,0,3,6.8c5.2,14.7,34.2,18.7,25.2,34.7s-31,15-43.2,28.5a24.4,24.4,0,0,0-5.6,8.2,22.5,22.5,0,0,0-1.6,10.6,43.6,43.6,0,0,0,1.9,9.4c2.8,9.5,7.3,18.8,11.9,28,3,6,6,12.1,8.4,18.2a169,169,0,0,1,6.2,18.6c1.9,6.4,3.5,13,5.2,19.5"/><path class="cls-89" d="M213,1.4c.1,2.8.1,5.7.2,8.6v8.6a28.5,28.5,0,0,0,1.1,7.6,48.4,48.4,0,0,0,3.6,7.2c5.4,15.1,34.4,20.1,25.4,34.1s-31,16-43.8,28.5a24.1,24.1,0,0,0-7.9,18.8,50.3,50.3,0,0,0,1.8,9.4c2.9,9.5,7.4,18.8,11.9,28,3,6,6,12.1,8.5,18.2A176.3,176.3,0,0,1,220,189c1.9,6.4,3.5,13,5.2,19.5"/><path class="cls-90" d="M214.7,1.4c.1,2.8.2,5.7.2,8.5s.1,5.8,0,8.7c.4,20.9,28.4,27.9,31.4,43.9,4,21-34,19-46.7,36a23,23,0,0,0-4.7,7.2,25.8,25.8,0,0,0-1.7,9.1,43.6,43.6,0,0,0,1.9,9.4c2.8,9.5,7.3,18.8,11.8,28,3,6,6,12.1,8.5,18.2s4.5,12.3,6.3,18.6,3.5,13,5.2,19.5"/><path class="cls-91" d="M216.4,1.4c.1,2.8.2,5.6.2,8.5s.1,5.8.1,8.7c.6,22.9,32.6,28.9,31.6,45.9s-31,18-45.3,32.2a25.8,25.8,0,0,0-6.1,7.8,21.2,21.2,0,0,0-2,10.2,38.9,38.9,0,0,0,1.8,9.5c2.8,9.5,7.3,18.8,11.9,28,3,6,6,12.1,8.5,18.2s4.5,12.3,6.3,18.6,3.5,13,5.2,19.5"/><path class="cls-91" d="M218.2,1.3c.1,2.9.1,5.7.2,8.6v8.7a22.4,22.4,0,0,0,1,8.9c6.9,16,29.9,21,30.9,36,2,20-34,19-46.6,35a25.3,25.3,0,0,0-7.1,16.2,38.9,38.9,0,0,0,1.8,9.5c2.8,9.5,7.3,18.8,11.8,28,3,6,6,12.1,8.5,18.2a177.5,177.5,0,0,1,6.4,18.6c1.9,6.4,3.5,13,5.2,19.5"/><path class="cls-92" d="M219.9,1.3c.1,2.8.2,5.7.2,8.6s.1,5.7.1,8.6a30,30,0,0,0,.6,7.3c6.5,14.7,32.5,20.7,28.5,38.7s-28,24-43.9,35a17.9,17.9,0,0,0-5.5,6.4,14.2,14.2,0,0,0-1.7,8.8,51.4,51.4,0,0,0,1.8,9.5c2.8,9.4,7.3,18.8,11.8,28,3,6,6,12.1,8.5,18.2a178.2,178.2,0,0,1,6.5,18.6c1.9,6.4,3.5,13,5.2,19.5"/><path class="cls-93" d="M221.6,1.3l.3,8.6v8.6c.4,22,24.4,28,36.4,43,1,2,1,5,0,6-16,18-44,18-56.5,38.2a15.6,15.6,0,0,0-1.9,9,38.9,38.9,0,0,0,1.8,9.5c2.7,9.4,7.2,18.8,11.7,28,3.1,6,6.1,12.1,8.6,18.2a177.5,177.5,0,0,1,6.4,18.6c2,6.4,3.6,13,5.3,19.5"/><path class="cls-93" d="M223.3,1.3l.3,8.5c0,2.9.1,5.8,0,8.7-.3,23,33.7,28,33.7,46s-31,20-45.7,32.9a32.8,32.8,0,0,0-6.9,7.5,25.6,25.6,0,0,0-3.1,9.8,38.7,38.7,0,0,0,1.7,9.5c2.8,9.4,7.2,18.8,11.8,28,3,6,6,12.1,8.5,18.2a170.5,170.5,0,0,1,6.5,18.6c1.9,6.4,3.6,13,5.2,19.5"/><path class="cls-94" d="M225.1,1.2c.1,2.9.2,5.7.2,8.6s.1,5.8.1,8.7c-1.1,22,23.9,27,35.9,43a9.8,9.8,0,0,1-2,9c-17,14-41,17-54,35-2,3-3,6-2.1,9.2a38.9,38.9,0,0,0,1.8,9.5c2.7,9.4,7.2,18.8,11.7,28,3,6,6,12.1,8.6,18.2a178.2,178.2,0,0,1,6.5,18.6c1.9,6.3,3.6,13,5.2,19.5"/><path class="cls-95" d="M226.8,1.2l.3,8.6v8.7c-.8,21,30.2,26,31.2,43,0,25-39,26-52.6,45.9a15.9,15.9,0,0,0-.8,7.2,38.7,38.7,0,0,0,1.7,9.5c2.7,9.5,7.2,18.9,11.7,28.1,3,6,6.1,12.1,8.6,18.2s4.7,12.3,6.6,18.6,3.6,13,5.2,19.5"/><path class="cls-95" d="M228.5,1.2l.3,8.6c.1,2.9.1,5.7.1,8.6s-.6,6.1.4,9.1c9,15,33,21,30,39-4,22-36,21-50.5,39.4a28.7,28.7,0,0,0-2.3,8.7,38.7,38.7,0,0,0,1.7,9.5c2.8,9.5,7.2,18.9,11.8,28.1,3,6,6,12.1,8.6,18.2s4.7,12.3,6.6,18.6,3.6,13,5.2,19.5"/><path class="cls-96" d="M230.2,1.2c.2,2.8.3,5.7.3,8.6s.1,5.7.1,8.6c7.7,16.1,24.7,27.1,27.7,43.1,5,23-32,30-47.9,44-3.1,2-3.1,6-2.4,9.1a51.6,51.6,0,0,0,1.9,9.5c2.7,9.5,7.2,18.9,11.7,28.1,3,6,6,12.1,8.6,18.2s4.7,12.3,6.6,18.6,3.7,13.1,5.3,19.5"/><path class="cls-97" d="M232,1.2l.3,8.5c0,2.9.1,5.8,0,8.7,0,23.1,27,27.1,35,44.1,2,4-2,7-4,10-16,14-41,17-51.8,35.5a54.6,54.6,0,0,1-1.9,6.6,51.6,51.6,0,0,0,1.9,9.5c2.8,9.5,7.2,18.9,11.7,28.1,3,6,6.1,12.1,8.7,18.2s4.7,12.3,6.6,18.6,3.7,13.1,5.3,19.6"/><path class="cls-98" d="M233.7,1.1l.3,8.6c.1,2.9.1,5.8.1,8.7,4.2,19.1,27.2,27.1,29.2,44.1,2,24-35,29-50.8,44.9a10.1,10.1,0,0,0-1.2,7.2,51.6,51.6,0,0,0,1.9,9.5c2.7,9.5,7.1,18.9,11.7,28.1,3,6,6,12.1,8.6,18.2a188.3,188.3,0,0,1,6.7,18.6c1.9,6.2,3.7,13.1,5.3,19.6"/><path class="cls-99" d="M235.4,1.1c.2,2.9.3,5.7.4,8.6s.1,5.8,0,8.7c-1.5,21.1,23.5,27.1,34.5,43.1,5,8-4,13-10,17-17,10-43,14-47.4,36.1a51.6,51.6,0,0,0,1.9,9.5c2.7,9.5,7.1,18.9,11.7,28.1,3,6,6,12.1,8.6,18.2a172.1,172.1,0,0,1,6.8,18.6c2,6.5,3.7,13.1,5.3,19.6"/><path class="cls-99" d="M237.1,1.1c.2,2.8.3,5.7.4,8.6s.1,5.8.1,8.6c5.7,17.2,24.7,27.2,29.7,42.2,8,26-37,26-51,47-1,2-1,5-1.7,7.1a51.6,51.6,0,0,0,1.9,9.5c2.7,9.5,7.1,18.9,11.6,28.1,3,6,6.1,12.1,8.7,18.2s4.8,12.4,6.8,18.6,3.7,13.1,5.3,19.6"/><path class="cls-100" d="M238.9,1.1l.3,8.6c.1,2.8.1,5.7.1,8.6,0,21.2,23,27.2,34,42.2,3,5,0,11-5,15-18,12-45,16-52.1,39a54.3,54.3,0,0,0,1.9,9.6c2.7,9.5,7.1,18.9,11.6,28.1,3.1,6.1,6.1,12.1,8.7,18.2a172.1,172.1,0,0,1,6.8,18.6c2.1,6.5,3.8,13.1,5.3,19.6"/><path class="cls-101" d="M240.6,1c.1,2.9.3,5.8.4,8.6s.1,5.8,0,8.7c3.3,16.2,20.3,25.2,27.3,39.2,14,28-38,29-50,50-1,2,0,5-.4,7a54.3,54.3,0,0,0,1.9,9.6c2.6,9.5,7,18.9,11.6,28.1,3,6.1,6,12.1,8.7,18.2a166.5,166.5,0,0,1,6.8,18.6c1.9,6.2,3.8,13.1,5.3,19.6"/><path class="cls-102" d="M242.3,1c.2,2.9.3,5.7.4,8.6s.1,5.8.1,8.7c-1.5,21.2,27.5,25.2,32.5,45.2,0,4-3,6-5,9-15,17-44,19-50.7,42a38.9,38.9,0,0,0,1.8,9.5c2.7,9.6,7.1,19,11.6,28.2,3,6.1,6.1,12.1,8.7,18.2s4.9,12.4,6.9,18.6,3.8,13.1,5.3,19.6"/><path class="cls-103" d="M244,1c.2,2.9.4,5.7.4,8.6s.2,5.8.1,8.7c.8,19.2,19.8,27.2,31.8,40.2,2,3,4,8,1,12-17,18-48,19-56.1,44A51.4,51.4,0,0,0,223,124c2.7,9.6,7.1,19,11.6,28.2,3,6.1,6.1,12.1,8.8,18.2a190,190,0,0,1,6.9,18.6c2,6.2,3.8,13.1,5.3,19.6"/><path class="cls-104" d="M245.7,1c.2,2.8.4,5.7.5,8.6s.1,5.8.1,8.7c-1,21.2,24,26.2,33,43.2,1,3,0,7-1,9-16,18-49,18-55.4,44a51.4,51.4,0,0,0,1.8,9.5c2.6,9.6,7,19,11.6,28.2,3,6.1,6,12.1,8.7,18.2a190.8,190.8,0,0,1,7,18.6c2,6.2,3.8,13.1,5.3,19.6"/><path class="cls-104" d="M247.5,1c.2,2.8.3,5.7.4,8.6s.1,5.7.1,8.6c-1.7,20.3,19.3,26.3,30.3,40.3,7,9-3,15-9,20-17,11-38,16-44.8,36a75.8,75.8,0,0,0,1.8,9.5c2.7,9.5,7.1,19,11.6,28.2,3,6.1,6.1,12.1,8.7,18.3s5,12.3,7.1,18.5,3.8,13.1,5.3,19.6"/><path class="cls-105" d="M249.2.9c.2,2.9.4,5.8.4,8.6s.2,5.8.1,8.7c3.6,17.3,22.6,26.3,26.6,41.3,6,24-32,29-47,45-2,3-2,7-3.1,9.9A54,54,0,0,0,228,124c2.6,9.5,7,19,11.5,28.2,3,6.1,6.1,12.1,8.8,18.3a195.6,195.6,0,0,1,7,18.5c2.1,6.5,3.9,13.1,5.4,19.6"/><path class="cls-106" d="M250.9.9c.2,2.9.4,5.7.5,8.6s.1,5.8.1,8.7c2.8,15.3,16.8,24.3,23.8,37.3,16,27-32,32-46,52-1,2-1,5-1.4,6.9a53.7,53.7,0,0,0,1.7,9.6c2.6,9.5,7,19,11.6,28.2,3,6.1,6,12.1,8.7,18.3A196.2,196.2,0,0,1,257,189c2.1,6.5,3.9,13.1,5.4,19.7"/><path class="cls-107" d="M252.6.9c.3,2.8.4,5.7.5,8.6s.2,5.8.1,8.7c3.1,17.3,18.1,26.3,27.1,40.3,2,4,1,9-1,13-14,18-43,20-49.7,42.9a39.5,39.5,0,0,0,1.7,9.6c2.6,9.5,6.9,19,11.5,28.2,3,6.1,6.1,12.1,8.8,18.3a196.2,196.2,0,0,1,7.1,18.5c2.1,6.5,3.9,13.1,5.4,19.7"/><path class="cls-107" d="M254.4.9c.2,2.8.4,5.7.5,8.6s.1,5.8.1,8.7c-.7,15.3,13.3,25.3,23.3,34.3,5,6,8,13,3,20-15,17-44,18-50,41.9a39.3,39.3,0,0,0,1.6,9.6c2.6,9.5,7,19,11.5,28.2,3,6.1,6.1,12.1,8.8,18.3a196.8,196.8,0,0,1,7.2,18.5,184.1,184.1,0,0,1,5.3,19.7"/><path class="cls-108" d="M256.1.8c.2,2.9.4,5.8.5,8.7s.1,5.7.1,8.6c1.6,19.4,25.6,27.4,25.6,44.4,0,23-34,26-48,45-1,2-1,5-1.4,6.9a39.5,39.5,0,0,0,1.7,9.6c2.6,9.5,6.9,19,11.4,28.2,3,6.1,6.1,12.1,8.9,18.3a192.6,192.6,0,0,1,7.2,18.6,188.9,188.9,0,0,1,5.3,19.6"/><path class="cls-109" d="M257.8.8c.3,2.9.4,5.8.5,8.6s.2,5.8.2,8.7c.8,16.4,17.8,25.4,23.8,39.4,10,27-35,29-46,50-1,2-1,5-1.7,6.8a39.3,39.3,0,0,0,1.6,9.6c2.6,9.6,6.9,19.1,11.5,28.3,3,6.1,6.1,12.1,8.8,18.3a149.1,149.1,0,0,1,7.2,18.6,162.1,162.1,0,0,1,5.4,19.6"/><path class="cls-110" d="M259.5.8c.3,2.9.5,5.7.6,8.6s.1,5.8.1,8.7c-.9,17.4,18.1,24.4,23.1,37.4,10,28-33,32-46,52-1,2-1,5-1,6.8a39.3,39.3,0,0,0,1.6,9.6c2.5,9.6,6.9,19.1,11.4,28.3,3,6.1,6.1,12.2,8.8,18.3a167,167,0,0,1,7.3,18.6,162.1,162.1,0,0,1,5.4,19.6"/><path class="cls-111" d="M261.3.8c.2,2.8.4,5.7.5,8.6s.2,5.8.1,8.7-.6,6.4.4,8.4c6,15,28,23,24,40-6,20-32,22-45,38-2,3-2,7-3.4,9.8a39.3,39.3,0,0,0,1.6,9.6c2.6,9.6,6.9,19.1,11.4,28.3,3,6.1,6.1,12.2,8.9,18.3a167,167,0,0,1,7.3,18.6,162.1,162.1,0,0,1,5.4,19.6"/><path class="cls-111" d="M263,.8c.2,2.8.4,5.7.5,8.6s.2,5.8.2,8.7c-.4,14.4,9.6,23.4,17.6,35.4a15.1,15.1,0,0,1-1,17c-17,14-48,27-39.1,53.4a88.4,88.4,0,0,0,3,9.6c2.5,6.4,5.3,12.6,8.4,18.7s6.1,12.2,8.8,18.3a167.5,167.5,0,0,1,7.4,18.6,162.1,162.1,0,0,1,5.4,19.6"/><path class="cls-111" d="M264.7.7q.4,4.4.6,8.7c.1,2.9.2,5.8.1,8.6-1.1,14.5,9.9,23.5,16.9,34.5,2,3,4,7,3,11-10,23-53,29-42.5,60.4a89.2,89.2,0,0,0,3.1,9.6,183.4,183.4,0,0,0,8.3,18.7c3,6.1,6.1,12.2,8.9,18.3s5.2,12.3,7.4,18.6a162.1,162.1,0,0,1,5.4,19.6"/><path class="cls-112" d="M266.4.7c.3,2.9.5,5.8.6,8.6s.2,5.8.2,8.7c-1.9,17.5,16.1,26.5,20.1,41.5,2,9-6,14-12,19-16,10-38,23-30.8,45.4a80.5,80.5,0,0,0,3,9.5c2.4,6.4,5.3,12.7,8.3,18.8s6.1,12.2,8.9,18.3,5.3,12.3,7.5,18.6a162.1,162.1,0,0,1,5.4,19.6"/><path class="cls-112" d="M268.2.7l.6,8.6c.1,2.9.1,5.8.1,8.7-.6,17.5,15.4,26.5,19.4,41.5,1,2,0,5-1,7-13,21-50,28-41.2,57.4.8,3.2,1.9,6.4,3,9.5a165.9,165.9,0,0,0,8.4,18.8c3,6.1,6.1,12.2,8.9,18.3a200,200,0,0,1,7.4,18.6,146,146,0,0,1,5.5,19.6"/><path class="cls-113" d="M269.9.7c.3,2.8.5,5.7.6,8.6s.2,5.8.1,8.7a34.5,34.5,0,0,1,.7,8.5c4,16,29,31,13,47-16,14-43,24-36.5,50.4a80.5,80.5,0,0,0,3,9.5,165.2,165.2,0,0,0,8.3,18.8c3,6.1,6.1,12.2,8.9,18.3s5.3,12.3,7.5,18.6a132.2,132.2,0,0,1,5.4,19.6"/><path class="cls-113" d="M271.6.6q.4,4.4.6,8.7c.2,2.9.2,5.8.2,8.7-.1,6.5.9,12.5,3.9,17.5,8,11,22,24,10,37-15,15-45,25-36.9,51.4a80.5,80.5,0,0,0,3,9.5c2.4,6.4,5.3,12.7,8.3,18.8s6.1,12.2,8.9,18.3a190.5,190.5,0,0,1,7.6,18.6,133.5,133.5,0,0,1,5.4,19.7"/><path class="cls-114" d="M273.3.6c.3,2.9.5,5.8.7,8.7a84.2,84.2,0,0,1,.1,8.7c-1.8,16.5,14.2,25.5,18.2,41.5,1,4-1,7-3,10-12,19-47,27-38.3,54.3a89.2,89.2,0,0,0,3.1,9.6,184.3,184.3,0,0,0,8.2,18.8c3,6.1,6.2,12.2,9,18.3s5.4,12.3,7.6,18.6a163.6,163.6,0,0,1,5.4,19.7"/><path class="cls-115" d="M275.1.6c.3,2.9.5,5.8.6,8.6s.2,5.8.2,8.7-.6,6.6,1.4,8.6c28,31,8,54-21,76-6,4-7,13-3.6,21.3a88.4,88.4,0,0,0,3,9.6,165.2,165.2,0,0,0,8.3,18.8c3,6.1,6.1,12.2,8.9,18.3a191.1,191.1,0,0,1,7.7,18.6,163.6,163.6,0,0,1,5.4,19.7"/><path class="cls-115" d="M276.8.6c.3,2.9.5,5.7.6,8.6s.2,5.8.2,8.7c-.3,16.6,17.7,28.6,16.7,44.6-2,21-29,24-39,42-3,6-3,13-1,19.3.8,3.2,1.9,6.4,3,9.6,2.4,6.4,5.3,12.7,8.3,18.8s6.1,12.2,9,18.3a186.1,186.1,0,0,1,7.6,18.6,147.3,147.3,0,0,1,5.5,19.7"/><path class="cls-116" d="M278.5.6c.3,2.8.5,5.7.7,8.6a84.2,84.2,0,0,1,.1,8.7c-1,4.6,1,8.6,2,12.6,5,13,20,25,12,39-10,19-46,27-37.3,54.3a88.4,88.4,0,0,0,3,9.6,184.3,184.3,0,0,0,8.2,18.8c3,6.1,6.2,12.2,9,18.3a191.1,191.1,0,0,1,7.7,18.6,147.3,147.3,0,0,1,5.5,19.7"/><path class="cls-117" d="M280.2.5c.3,2.9.6,5.8.7,8.7s.2,5.8.2,8.7c-.8,12.6,8.2,23.6,14.2,34.6,3,6,3,12,0,17-11,20-46,27-37.7,54.3a88.4,88.4,0,0,0,3,9.6,165.2,165.2,0,0,0,8.3,18.8c3,6.1,6.1,12.2,9,18.3a191.1,191.1,0,0,1,7.7,18.6,147.3,147.3,0,0,1,5.5,19.7"/><path class="cls-118" d="M282,.5c.3,2.9.5,5.8.7,8.7a84.2,84.2,0,0,1,.1,8.7c.5,12.6,7.5,23.6,13.5,34.6,3,6,3,12,0,17-11,20-45,27-37.1,54.3q1.4,4.8,3,9.6c2.4,6.4,5.3,12.7,8.3,18.8s6.1,12.2,9,18.3,5.5,12.4,7.8,18.6a147.3,147.3,0,0,1,5.5,19.7"/><path class="cls-118" d="M283.7.5c.3,2.9.5,5.8.7,8.6s.2,5.8.2,8.7c-.3,18.7,20.7,33.7,11.7,51.7s-34,24-36.9,44.5a40.8,40.8,0,0,0,1.5,9.8c2.4,9.6,6.7,19.2,11.2,28.4,3,6.1,6.2,12.2,9,18.3s5.6,12.4,7.9,18.6a147.3,147.3,0,0,1,5.5,19.7"/><path class="cls-119" d="M285.4.5c.3,2.8.6,5.7.7,8.6s.2,5.8.2,8.7a15,15,0,0,0,3,12.7c20,26,7,50-18,67-6,3-11,10-10.3,16.5a46.5,46.5,0,0,0,1.5,9.8c2.5,9.6,6.7,19.2,11.3,28.5,2.9,6,6.1,12.1,9,18.2a198.3,198.3,0,0,1,7.8,18.6,122.5,122.5,0,0,1,5.5,19.7"/><path class="cls-120" d="M287.1.4c.4,2.9.6,5.8.8,8.7a84.2,84.2,0,0,1,.1,8.7c.3,10.7,5.3,20.7,10.3,30.7,3,7,4,14,1,21-9,18-33,24-36.7,44.5a53.1,53.1,0,0,0,1.6,9.7c2.4,9.7,6.6,19.3,11.2,28.6,3,6,6.1,12.1,9,18.2a170.2,170.2,0,0,1,7.9,18.6,122.5,122.5,0,0,1,5.5,19.7"/><path class="cls-120" d="M288.9.4c.3,2.9.5,5.8.7,8.7s.2,5.8.2,8.7c-1.5,14.7,11.5,26.7,11.5,41.7,1,21-23,28-34,45-2,3-2,7-3,9.5a40,40,0,0,0,1.5,9.7c2.4,9.7,6.7,19.3,11.2,28.6,3,6,6.2,12.1,9.1,18.2s5.6,12.4,7.9,18.6a122.5,122.5,0,0,1,5.5,19.7"/><path class="cls-121" d="M290.6.4c.3,2.9.6,5.8.7,8.7a84.2,84.2,0,0,1,.2,8.7c.8,16.7,13.8,29.7,10.8,47.7-4,22-34,27-36.4,48.5a40.1,40.1,0,0,0,1.6,9.7c2.4,9.7,6.6,19.3,11.1,28.6,3,6,6.2,12.1,9.1,18.2s5.7,12.4,8,18.6a122.5,122.5,0,0,1,5.5,19.7"/><path class="cls-121" d="M292.3.4c.4,2.9.6,5.8.8,8.7s.2,5.7.2,8.6c-1,17.8,16,33.8,9,51.8s-32,25-34.8,44.5a53.1,53.1,0,0,0,1.6,9.7c2.4,9.7,6.6,19.3,11.2,28.6l9.1,18.2c2.9,6.2,5.7,12.4,8,18.6a120.8,120.8,0,0,1,5.5,19.8"/><path class="cls-122" d="M294,.4c.4,2.8.6,5.7.8,8.6s.2,5.8.2,8.7-.7,5.8.3,8.8c19,32,1,57-23,78-2,3-2,7-2.9,9.5a35.4,35.4,0,0,0,1.3,9.7c2.5,9.7,6.6,19.3,11.2,28.6,3,6,6.2,12.1,9.1,18.2s5.7,12.4,8.1,18.6a120.8,120.8,0,0,1,5.5,19.8"/><path class="cls-123" d="M295.7.3q.6,4.4.9,8.7c.1,2.9.2,5.8.2,8.7,15.5,34.8,4.5,64.8-24.5,89.8-2,2-1,5-1.3,6.5a39.9,39.9,0,0,0,1.4,9.7c2.4,9.7,6.6,19.3,11.1,28.6,3,6.1,6.2,12.1,9.1,18.2s5.8,12.4,8.1,18.6a104,104,0,0,1,5.6,19.8"/><path class="cls-124" d="M297.5.3c.3,2.9.6,5.8.8,8.7s.2,5.8.2,8.7c-.2,11.8,4.8,22.8,7.8,34.8a34.5,34.5,0,0,1-3,20c-8,16-28,24-30.6,41.5a35.4,35.4,0,0,0,1.3,9.7c2.4,9.7,6.6,19.3,11.2,28.6,3,6.1,6.1,12.1,9.1,18.2a201.4,201.4,0,0,1,8.1,18.6,121.1,121.1,0,0,1,5.6,19.8"/><path class="cls-125" d="M299.2.3A85.2,85.2,0,0,1,300,9a84.2,84.2,0,0,1,.2,8.7c-.9,18.8,13.1,36.8,4.1,54.8-8,16-27,24-30,41.5a39.9,39.9,0,0,0,1.4,9.7c2.4,9.7,6.5,19.3,11.1,28.6,3,6.1,6.2,12.1,9.1,18.2s5.8,12.4,8.2,18.6a121.1,121.1,0,0,1,5.6,19.8"/><path class="cls-126" d="M300.9.3q.6,4.4.9,8.7c.1,2.9.2,5.8.2,8.7-1.7,18.8,12.3,36.8,3.3,54.8-8,15-26,24-29.5,41.5a52.9,52.9,0,0,0,1.5,9.7c2.4,9.6,6.6,19.3,11.1,28.6,3,6.1,6.2,12.1,9.2,18.2s5.8,12.4,8.2,18.6a111.7,111.7,0,0,1,5.5,19.8"/><path class="cls-127" d="M302.6.3c.4,2.8.7,5.7.9,8.6a84.2,84.2,0,0,1,.2,8.7c10.6,32.9,3.6,62.9-23.4,86.9-2,2-2,6-2.9,9.4a53.1,53.1,0,0,0,1.6,9.7c2.3,9.7,6.5,19.4,11.1,28.7,2.9,6.1,6.1,12.1,9.1,18.2s5.9,12.4,8.3,18.7a100.8,100.8,0,0,1,5.5,19.7"/><path class="cls-127" d="M304.4.2a85.2,85.2,0,0,1,.8,8.7q.3,4.4.3,8.7c-1.2,18.9,11.8,38.9-.2,57.9-8,14-24,21-26.2,38.4a40,40,0,0,0,1.5,9.7c2.4,9.7,6.5,19.4,11.1,28.7,3,6.1,6.2,12.1,9.2,18.2s5.8,12.3,8.2,18.7a101.1,101.1,0,0,1,5.6,19.7"/><path class="cls-128" d="M306.1.2q.6,4.4.9,8.7c.2,2.9.2,5.8.2,8.7-1.9,17.9,8.1,34.9,2.1,51.9s-24,26-28.6,44.4a53.1,53.1,0,0,0,1.6,9.7c2.3,9.7,6.4,19.4,11,28.7,3,6.1,6.2,12.1,9.2,18.2s5.9,12.4,8.3,18.7a101.1,101.1,0,0,1,5.6,19.7"/><path class="cls-129" d="M307.8.2q.6,4.4.9,8.7a84.2,84.2,0,0,1,.2,8.7c.4,9.9.4,19.9,3.4,30.9,6,28-23,41-29.9,65.4a40,40,0,0,0,1.5,9.7c2.3,9.7,6.5,19.4,11,28.7,3,6.1,6.2,12.1,9.2,18.2s6,12.4,8.4,18.7a101.1,101.1,0,0,1,5.6,19.7"/><path class="cls-130" d="M309.5.2a64.2,64.2,0,0,1,.9,8.7q.3,4.4.3,8.7c-1.4,16.9,6.6,34.9.6,51.9s-24,26-27.3,44.4a54.3,54.3,0,0,0,1.5,9.7c2.4,9.7,6.5,19.4,11.1,28.7,3,6.1,6.2,12.1,9.2,18.2s6,12.4,8.4,18.7a101.1,101.1,0,0,1,5.6,19.7"/><path class="cls-131" d="M311.3.1q.6,4.4.9,8.7a84.2,84.2,0,0,1,.2,8.7c-1.1,16,4.9,33-.1,49-5,18-23,29-26.6,47.4a52.9,52.9,0,0,0,1.5,9.7c2.3,9.7,6.4,19.4,11,28.7,3,6.1,6.2,12.2,9.2,18.3s6,12.3,8.5,18.6a104,104,0,0,1,5.6,19.8"/><path class="cls-132" d="M313,.1q.6,4.4.9,8.7t.3,8.7c-1.9,20,6.1,40-4.9,59-7,13-20,22-21.9,37.3a53.8,53.8,0,0,0,1.4,9.8c2.3,9.7,6.5,19.4,11,28.7,3,6.1,6.2,12.2,9.3,18.3a195.3,195.3,0,0,1,8.4,18.6,95.7,95.7,0,0,1,5.7,19.8"/><path class="cls-132" d="M314.7.1a109.2,109.2,0,0,1-.4,34.7,115.8,115.8,0,0,1-9.8,29.8L303,67.5c-4.6,8.9-10.1,17.6-12.7,27-5.3,19.1,2,39.1,11.2,57.8,2.9,6.1,6.2,12.2,9.2,18.3a195.9,195.9,0,0,1,8.5,18.6,95.7,95.7,0,0,1,5.7,19.8"/><path class="cls-133" d="M326.5,209c-3-19.6-14.3-38.1-23.4-56.7S286.7,113.6,292,94.5c2.8-10.4,9.3-20,14.2-30A107.8,107.8,0,0,0,316.4.1"/></g></g></g></g></svg>