<svg xmlns="http://www.w3.org/2000/svg" viewBox="0 0 205.9 235.3"><defs><style>.cls-1{fill:#231f20;}</style></defs><g id="Layer_2" data-name="Layer 2"><g id="Layer_1-2" data-name="Layer 1"><path class="cls-1" d="M203.7,97.4l1.2,9.8c.1,1.7.3,3.3.4,5s.2,3.3.2,4.9.2,3.4.2,5,.2,3.4.2,5.1c.1,3.5,0,6.9-.2,10.4l-6.2-1.6a94.9,94.9,0,0,0,3.5-19c.2-3.2.3-6.5.2-9.7a79.7,79.7,0,0,0-1-9.7Z"/><path class="cls-1" d="M200.3,164.7a90.7,90.7,0,0,1-5.6,13.4,97.4,97.4,0,0,1-7.7,13.1l-13.3-14.7a78.8,78.8,0,0,0,15.7-18.3Z"/><path class="cls-1" d="M164.5,214.8a75.5,75.5,0,0,1-7.1,5.1c-2.5,1.6-5.2,3-7.8,4.5a97.8,97.8,0,0,1-17.3,7l-1.9-37.9a56.4,56.4,0,0,0,11.6-1.2,64.9,64.9,0,0,0,11.4-3.4Z"/><path class="cls-1" d="M93,235.3c-3.4-.4-6.8-.9-10.1-1.5l-5.1-1.1-5-1.4c-3.3-1-6.6-2.2-9.9-3.5s-6.3-2.8-9.4-4.4l33.8-44.8a69.1,69.1,0,0,0,20.2,11.2Z"/><path class="cls-1" d="M21.1,197.6c-2.2-2.6-4.4-5.3-6.4-8.1s-3.9-5.7-5.7-8.6-3.4-6-4.9-9-2.9-6.2-4.1-9.4l61.1-21.4a82.8,82.8,0,0,0,4.6,10.6,90.5,90.5,0,0,0,5.9,10Z"/><path class="cls-1" d="M24.2,120.6c4.9-3,7.5-5.5,7.6-7.9a5.6,5.6,0,0,0-1.1-3.8,19.5,19.5,0,0,0-4.1-3.9,27.7,27.7,0,0,0-3.1-2.2l-1.7-1.1-1.9-1.2L16.1,98l-3.8-2.6C7.1,91.9,2.9,88,.9,84.4L57.8,95c-.7,1.9-1.7,3.7-2.6,5.6a41.7,41.7,0,0,0-2.4,5.8,15.9,15.9,0,0,0-.9,6.1,24.2,24.2,0,0,0,.9,6Z"/><path class="cls-1" d="M13.6,47.8c2.5-2.4,5.2-4.7,7.8-6.8s5.5-4.2,8.1-6.2l7.7-5.9c2.5-2,4.8-4.1,7.3-6L77.1,53c-1.3,1.5-2.5,3-3.7,4.6a51.4,51.4,0,0,0-3.2,4.9A72.5,72.5,0,0,0,65.1,73Z"/><path class="cls-1" d="M77,5.4A96.5,96.5,0,0,1,112.4.1L117,30a63.7,63.7,0,0,0-21.9,8.1Z"/><path class="cls-1" d="M145.3,7.3a70.8,70.8,0,0,1,7.3,3.6,77.6,77.6,0,0,1,6.9,4,80.4,80.4,0,0,1,12.1,9.5L163,38.3A70.5,70.5,0,0,0,140.6,30Z"/><path class="cls-1" d="M189.6,47c1.2,2,2.2,4,3.2,6.1s2,4.1,2.8,6.2,1.7,4.2,2.4,6.3,1.3,4.2,1.9,6.4L195,74.1a86.7,86.7,0,0,0-13.4-20.4Z"/><path class="cls-1" d="M100.2,138.1a45.5,45.5,0,0,1-3.5-10.6,45.6,45.6,0,0,1,5.6-32.2l3.2,2.6a34.9,34.9,0,0,0-5.3,8.9,36.5,36.5,0,0,0-2.3,10,33.5,33.5,0,0,0,4.9,19.7Z"/><path class="cls-1" d="M124.3,76.6a43,43,0,0,1,16.1-2.9,36.5,36.5,0,0,1,8.6.9,45.5,45.5,0,0,1,8.4,2.7l-8.6,13.8a32.9,32.9,0,0,0-22.9-4.8Z"/><path class="cls-1" d="M181.6,103.9a42.3,42.3,0,0,1,2.1,9.2,43.1,43.1,0,0,1,.2,9.5,50.6,50.6,0,0,1-1.7,9.3,55,55,0,0,1-3.6,8.7l-17.4-8a31.8,31.8,0,0,0,2.8-11.4,30.8,30.8,0,0,0-1.3-11.6Z"/><path class="cls-1" d="M150.8,162.3a50,50,0,0,1-8.5,1.3,44.6,44.6,0,0,1-8.2-.4,41.6,41.6,0,0,1-14.9-4.9l2.4-7.5a32.9,32.9,0,0,0,23.3-1.7Z"/><path class="cls-1" d="M196.5,107.8a70.1,70.1,0,0,1,.9,9.1,69.3,69.3,0,0,1-2,18.2,53,53,0,0,1-2.8,8.8l-2.6-1.2a57.7,57.7,0,0,0,3.1-8.2,63.9,63.9,0,0,0,1.8-8.7,51.9,51.9,0,0,0,.4-8.8,52.7,52.7,0,0,0-1-8.8Z"/><path class="cls-1" d="M178.4,165.9a54.2,54.2,0,0,1-4.9,4.6l-5.4,4.2a58,58,0,0,1-5.9,3.6,61.4,61.4,0,0,1-6.3,3.1l-2.3-8.3a54.7,54.7,0,0,0,21.5-11.2Z"/><path class="cls-1" d="M127.4,186.5a65.8,65.8,0,0,1-15.1-2.3,70.9,70.9,0,0,1-7.3-2.6,51.2,51.2,0,0,1-7.1-3.4l9.3-13.3a56.2,56.2,0,0,0,22.3,9.2Z"/><path class="cls-1" d="M74.7,156.7a69.9,69.9,0,0,1-4-7,71.9,71.9,0,0,1-3.2-7.6,50.2,50.2,0,0,1-2.3-7.8,56.9,56.9,0,0,1-1.3-8.1l19.8-1.9a56.4,56.4,0,0,0,7.2,22.9Z"/><path class="cls-1" d="M68.2,94a70.4,70.4,0,0,1,3.4-7.4,61.2,61.2,0,0,1,4.3-6.9,60.1,60.1,0,0,1,5-6.3c1.8-1.9,3.7-3.8,5.7-5.6L99.1,80a55.8,55.8,0,0,0-12.6,20.5Z"/><path class="cls-1" d="M114.1,53.4a70.8,70.8,0,0,1,15-1.9q3.8,0,7.5.3c2.4.2,4.8.7,7.2,1.1L143,63.1c-2,0-4-.1-6.1,0a40.5,40.5,0,0,0-6,.5,60.3,60.3,0,0,0-11.8,3.1Z"/><path class="cls-1" d="M169.4,64.3c1.8,1.4,3.6,2.8,5.3,4.3s3.3,3.1,4.8,4.7,2.9,3.3,4.3,5.1a63.3,63.3,0,0,1,3.6,5.4L184.5,86a56.9,56.9,0,0,0-18.2-16Z"/></g></g></svg>