<svg xmlns="http://www.w3.org/2000/svg" viewBox="0 0 383.1 383.1"><defs><style>.cls-1{fill:none;stroke:#00aeef;stroke-miterlimit:10;}</style></defs><g id="Layer_2" data-name="Layer 2"><g id="Layer_2-2" data-name="Layer 2"><path class="cls-1" d="M171.5,196.1V19.9s124-61.7,124,78.6c0,0-55.6-81.6-75.1-35.7s22.9,9.1,22.9,9.1"/><circle class="cls-1" cx="227" cy="26.2" r="6.5"/><circle class="cls-1" cx="253.1" cy="75.6" r="4.1"/><ellipse class="cls-1" cx="224" cy="141.8" rx="6.3" ry="40.6"/><rect class="cls-1" x="213.1" y="88.4" width="10.9" height="10.92" rx="5.5"/><rect class="cls-1" x="102.5" y="101.2" width="38.3" height="104.04" rx="12"/><rect class="cls-1" x="179.8" y="26.2" width="5" height="96.18" rx="2.5"/><path class="cls-1" d="M171,192.5,201.6,19s132.9-39.2,108.5,99c0,0-40.6-90-67.8-48.3s21,13,21,13"/><circle class="cls-1" cx="255.1" cy="34.9" r="6.5"/><circle class="cls-1" cx="272.3" cy="88.1" r="4.1"/><ellipse class="cls-1" cx="232.1" cy="148.2" rx="40.6" ry="6.3" transform="translate(45.9 351.1) rotate(-80)"/><rect class="cls-1" x="229.6" y="94.5" width="10.9" height="10.92" rx="5.5" transform="translate(95.8 314.2) rotate(-80)"/><rect class="cls-1" x="77.4" y="122.6" width="104" height="38.26" rx="12" transform="translate(-32.6 244.5) rotate(-80)"/><rect class="cls-1" x="154.7" y="72" width="96.2" height="4.96" rx="2.5" transform="translate(94.2 261.2) rotate(-80)"/><path class="cls-1" d="M171.1,189,231.4,23.4S369.1,7.8,321.1,139.7c0,0-24.4-95.7-58.4-59.3s18.4,16.5,18.4,16.5"/><circle class="cls-1" cx="281.4" cy="48.3" r="6.5"/><circle class="cls-1" cx="289" cy="103.6" r="4.1"/><ellipse class="cls-1" cx="239" cy="155.9" rx="40.6" ry="6.3" transform="translate(10.8 327.2) rotate(-70)"/><rect class="cls-1" x="244.9" y="103.5" width="10.9" height="10.92" rx="5.5" transform="translate(62.3 306.9) rotate(-70)"/><rect class="cls-1" x="87" y="112.5" width="104" height="38.26" rx="12" transform="translate(-32.3 217.2) rotate(-70)"/><rect class="cls-1" x="174.8" y="75.7" width="96.2" height="4.96" rx="2.5" transform="translate(73.2 260.9) rotate(-70)"/><path class="cls-1" d="M171.9,185.5,260,32.8S398.3,41.4,328.1,163c0,0-7.4-98.5-47.2-68.5s15.3,19.4,15.3,19.4"/><circle class="cls-1" cx="304.9" cy="66.1" r="6.5"/><circle class="cls-1" cx="302.8" cy="121.9" r="4.1"/><ellipse class="cls-1" cx="244.5" cy="164.7" rx="40.6" ry="6.3" transform="matrix(0.5, -0.87, 0.87, 0.5, -20.4, 294.1)"/><rect class="cls-1" x="258.3" y="115" width="10.9" height="10.92" rx="5.5" transform="translate(27.6 288.6) rotate(-60)"/><rect class="cls-1" x="98.2" y="104.3" width="104" height="38.26" rx="12" transform="translate(-31.8 191.8) rotate(-60)"/><rect class="cls-1" x="194" y="82.9" width="96.2" height="4.96" rx="2.5" transform="translate(47.1 252.4) rotate(-60)"/><path class="cls-1" d="M173.3,182.1l113.2-135s134.7,32.5,44.5,140c0,0,9.8-98.2-34.6-75.6s11.7,21.7,11.7,21.7"/><circle class="cls-1" cx="325" cy="87.7" r="6.5"/><circle class="cls-1" cx="313.2" cy="142.3" r="4.1"/><ellipse class="cls-1" cx="248.4" cy="174.3" rx="40.6" ry="6.3" transform="translate(-44.8 252.5) rotate(-50)"/><rect class="cls-1" x="269.6" y="128.6" width="10.9" height="10.92" rx="5.5" transform="translate(-4.4 258.6) rotate(-50)"/><rect class="cls-1" x="110.6" y="98.2" width="104" height="38.26" rx="12" transform="translate(-31.8 166.5) rotate(-50)"/><rect class="cls-1" x="211.7" y="93.3" width="96.2" height="4.96" rx="2.5" transform="translate(19.5 233.2) rotate(-50)"/><path class="cls-1" d="M175.2,179.1l135-113.3s127,55.4,19.5,145.6c0,0,26.7-95.1-20.9-80.5s7.7,23.4,7.7,23.4"/><circle class="cls-1" cx="341" cy="112.4" r="6.5"/><circle class="cls-1" cx="319.9" cy="164.2" r="4.1"/><ellipse class="cls-1" cx="250.5" cy="184.4" rx="40.6" ry="6.3" transform="translate(-60 204.2) rotate(-40)"/><rect class="cls-1" x="278.3" y="143.9" width="10.9" height="10.92" rx="5.5" transform="translate(-29.7 217.3) rotate(-40)"/><rect class="cls-1" x="123.9" y="94.3" width="104" height="38.26" rx="12" transform="translate(-31.7 139.6) rotate(-40)"/><rect class="cls-1" x="227.3" y="106.6" width="96.2" height="4.96" rx="2.5" transform="translate(-5.7 202.5) rotate(-40)"/><path class="cls-1" d="M177.6,176.5,330.2,88.3s115.4,76.6-6.1,146.8c0,0,42.8-89-6.6-82.9s3.5,24.4,3.5,24.4"/><circle class="cls-1" cx="352.4" cy="139.6" r="6.5"/><circle class="cls-1" cx="322.7" cy="186.9" r="4.1"/><ellipse class="cls-1" cx="250.8" cy="194.8" rx="40.6" ry="6.3" transform="translate(-63.8 151.5) rotate(-30)"/><rect class="cls-1" x="284.2" y="160.6" width="10.9" height="10.92" rx="5.5" transform="translate(-44.2 167.1) rotate(-30)"/><rect class="cls-1" x="137.8" y="92.8" width="104" height="38.26" rx="12" transform="translate(-30.5 109.9) rotate(-30)"/><rect class="cls-1" x="240.3" y="122.4" width="96.2" height="4.96" rx="2.5" transform="translate(-23.8 160.9) rotate(-30)"/><path class="cls-1" d="M180.4,174.3,346,114s100.4,95.5-31.4,143.4c0,0,57.6-80.1,7.8-82.8s-.7,24.7-.7,24.7"/><circle class="cls-1" cx="359" cy="168.3" r="6.5"/><circle class="cls-1" cx="321.5" cy="209.7" r="4.1"/><ellipse class="cls-1" cx="249.4" cy="205" rx="40.6" ry="6.3" transform="translate(-55.1 97.6) rotate(-20)"/><rect class="cls-1" x="287.1" y="178" width="10.9" height="10.92" rx="5.5" transform="translate(-45.1 111.1) rotate(-20)"/><rect class="cls-1" x="151.6" y="93.7" width="104" height="38.26" rx="12" transform="translate(-26.3 76.4) rotate(-20)"/><rect class="cls-1" x="250.5" y="140.2" width="96.2" height="4.96" rx="2.5" transform="translate(-30.8 110.7) rotate(-20)"/><path class="cls-1" d="M183.6,172.6,357.1,142s82.3,111.4-55.9,135.8c0,0,70.7-69,22.2-80.2s-5.1,24.2-5.1,24.2"/><circle class="cls-1" cx="360.5" cy="197.7" r="6.5"/><circle class="cls-1" cx="316.4" cy="232" r="4.1"/><ellipse class="cls-1" cx="246.1" cy="214.9" rx="40.6" ry="6.3" transform="translate(-33.6 46) rotate(-10)"/><rect class="cls-1" x="287" y="195.7" width="10.9" height="10.92" rx="5.5" transform="translate(-30.5 53.8) rotate(-10)"/><rect class="cls-1" x="165.1" y="97" width="104" height="38.26" rx="12" transform="translate(-16.9 39.5) rotate(-10)"/><rect class="cls-1" x="257.3" y="159.6" width="96.2" height="4.96" rx="2.5" transform="translate(-23.5 55.5) rotate(-10)"/><path class="cls-1" d="M187,171.5H363.2s61.7,124-78.6,124c0,0,81.6-55.6,35.7-75.1s-9.1,22.9-9.1,22.9"/><circle class="cls-1" cx="356.9" cy="227" r="6.5"/><circle class="cls-1" cx="307.5" cy="253.1" r="4.1"/><ellipse class="cls-1" cx="241.3" cy="224" rx="40.6" ry="6.3"/><rect class="cls-1" x="283.8" y="213.1" width="10.9" height="10.92" rx="5.5"/><rect class="cls-1" x="177.8" y="102.5" width="104" height="38.26" rx="12"/><rect class="cls-1" x="260.7" y="179.8" width="96.2" height="4.96" rx="2.5"/><path class="cls-1" d="M190.5,171l173.6,30.6s39.2,132.9-99,108.5c0,0,90-40.6,48.3-67.8s-13.1,21-13.1,21"/><circle class="cls-1" cx="348.2" cy="255.1" r="6.5"/><circle class="cls-1" cx="295" cy="272.3" r="4.1"/><ellipse class="cls-1" cx="234.9" cy="232.1" rx="6.3" ry="40.6" transform="translate(-34.5 423.1) rotate(-80)"/><rect class="cls-1" x="277.6" y="229.6" width="10.9" height="10.92" rx="5.5" transform="translate(2.4 473) rotate(-80)"/><rect class="cls-1" x="222.3" y="77.4" width="38.3" height="104.04" rx="12" transform="translate(72 344.6) rotate(-80)"/><rect class="cls-1" x="306.1" y="154.7" width="5" height="96.18" rx="2.5" transform="translate(55.4 471.5) rotate(-80)"/><path class="cls-1" d="M194.1,171.1l165.6,60.3s15.6,137.7-116.3,89.7c0,0,95.7-24.4,59.3-58.4s-16.5,18.4-16.5,18.4"/><circle class="cls-1" cx="334.8" cy="281.4" r="6.5"/><circle class="cls-1" cx="279.4" cy="289" r="4.1"/><ellipse class="cls-1" cx="227.2" cy="239" rx="6.3" ry="40.6" transform="translate(-75.2 370.7) rotate(-70)"/><rect class="cls-1" x="268.7" y="244.9" width="10.9" height="10.92" rx="5.5" transform="translate(-54.9 422.3) rotate(-70)"/><rect class="cls-1" x="232.3" y="87" width="38.3" height="104.04" rx="12" transform="translate(34.8 327.7) rotate(-70)"/><rect class="cls-1" x="302.4" y="174.8" width="5" height="96.18" rx="2.5" transform="translate(-8.8 433.2) rotate(-70)"/><path class="cls-1" d="M197.6,171.9,350.2,260s-8.6,138.3-130.1,68.1c0,0,98.5-7.4,68.5-47.2s-19.4,15.3-19.4,15.3"/><circle class="cls-1" cx="317" cy="304.9" r="6.5"/><circle class="cls-1" cx="261.2" cy="302.8" r="4.1"/><ellipse class="cls-1" cx="218.4" cy="244.5" rx="6.3" ry="40.6" transform="translate(-102.6 311.4) rotate(-60)"/><rect class="cls-1" x="257.2" y="258.3" width="10.9" height="10.92" rx="5.5" transform="translate(-97.1 359.4) rotate(-60)"/><rect class="cls-1" x="240.5" y="98.2" width="38.3" height="104.04" rx="12" transform="matrix(0.5, -0.87, 0.87, 0.5, -0.24, 299.94)"/><rect class="cls-1" x="295.3" y="194" width="5" height="96.18" rx="2.5" transform="translate(-60.8 378.9) rotate(-60)"/><path class="cls-1" d="M200.9,173.3l135,113.2S303.5,421.2,196,331c0,0,98.2,9.8,75.6-34.6s-21.7,11.7-21.7,11.7"/><circle class="cls-1" cx="295.4" cy="325" r="6.5"/><circle class="cls-1" cx="240.8" cy="313.2" r="4.1"/><ellipse class="cls-1" cx="208.8" cy="248.4" rx="6.3" ry="40.6" transform="translate(-115.7 248.6) rotate(-50)"/><rect class="cls-1" x="243.6" y="269.6" width="10.9" height="10.92" rx="5.5" transform="translate(-121.7 289) rotate(-50)"/><rect class="cls-1" x="246.7" y="110.6" width="38.3" height="104.04" rx="12" transform="translate(-29.6 261.7) rotate(-50)"/><rect class="cls-1" x="284.9" y="211.7" width="5" height="96.18" rx="2.5" transform="translate(-96.4 312.9) rotate(-50)"/><path class="cls-1" d="M204,175.2l113.3,135s-55.4,127-145.6,19.5c0,0,95,26.7,80.5-20.9s-23.5,7.7-23.5,7.7"/><circle class="cls-1" cx="270.7" cy="341" r="6.5"/><circle class="cls-1" cx="218.9" cy="319.9" r="4.1"/><ellipse class="cls-1" cx="198.6" cy="250.5" rx="6.3" ry="40.6" transform="matrix(0.77, -0.64, 0.64, 0.77, -114.53, 186.28)"/><rect class="cls-1" x="228.2" y="278.3" width="10.9" height="10.92" rx="5.5" transform="translate(-127.7 216.6) rotate(-40)"/><rect class="cls-1" x="250.5" y="123.9" width="38.3" height="104.04" rx="12" transform="translate(-50 214.5) rotate(-40)"/><rect class="cls-1" x="271.6" y="227.3" width="5" height="96.18" rx="2.5" transform="translate(-112.9 240.6) rotate(-40)"/><path class="cls-1" d="M206.6,177.6l88.1,152.6S218.2,445.6,148,324.1c0,0,89,42.8,82.9-6.6s-24.4,3.5-24.4,3.5"/><circle class="cls-1" cx="243.5" cy="352.4" r="6.5"/><circle class="cls-1" cx="196.2" cy="322.7" r="4.1"/><ellipse class="cls-1" cx="188.3" cy="250.8" rx="6.3" ry="40.6" transform="translate(-100.2 127.8) rotate(-30)"/><rect class="cls-1" x="211.6" y="284.2" width="10.9" height="10.92" rx="5.5" transform="translate(-115.8 147.3) rotate(-30)"/><rect class="cls-1" x="252.1" y="137.8" width="38.3" height="104.04" rx="12" transform="translate(-58.6 161) rotate(-30)"/><rect class="cls-1" x="255.7" y="240.3" width="5" height="96.18" rx="2.5" transform="matrix(0.87, -0.5, 0.5, 0.87, -109.63, 167.75)"/><path class="cls-1" d="M208.8,180.4,269.1,346s-95.5,100.4-143.5-31.4c0,0,80.2,57.6,82.8,7.8s-24.6-.7-24.6-.7"/><circle class="cls-1" cx="214.8" cy="359" r="6.5"/><circle class="cls-1" cx="173.4" cy="321.5" r="4.1"/><ellipse class="cls-1" cx="178.1" cy="249.4" rx="6.3" ry="40.6" transform="translate(-74.5 75.9) rotate(-20)"/><rect class="cls-1" x="194.1" y="287.1" width="10.9" height="10.92" rx="5.5" transform="translate(-88 85.9) rotate(-20)"/><rect class="cls-1" x="251.2" y="151.6" width="38.3" height="104.04" rx="12" transform="translate(-53.3 104.7) rotate(-20)"/><rect class="cls-1" x="237.9" y="250.5" width="5" height="96.18" rx="2.5" transform="translate(-87.6 100.2) rotate(-20)"/><path class="cls-1" d="M210.5,183.6l30.6,173.5s-111.4,82.3-135.8-55.9c0,0,68.9,70.7,80.2,22.2s-24.2-5.1-24.2-5.1"/><circle class="cls-1" cx="185.4" cy="360.5" r="6.5"/><circle class="cls-1" cx="151.1" cy="316.4" r="4.1"/><ellipse class="cls-1" cx="168.2" cy="246.1" rx="6.3" ry="40.6" transform="matrix(0.98, -0.17, 0.17, 0.98, -40.19, 32.95)"/><rect class="cls-1" x="176.5" y="287" width="10.9" height="10.92" rx="5.5" transform="translate(-48 36) rotate(-10)"/><rect class="cls-1" x="247.9" y="165.1" width="38.3" height="104.04" rx="12" transform="translate(-33.6 49.7) rotate(-10)"/><rect class="cls-1" x="218.6" y="257.3" width="5" height="96.18" rx="2.5" transform="translate(-49.7 43) rotate(-10)"/><path class="cls-1" d="M211.6,187V363.2S87.5,424.9,87.5,284.6c0,0,55.7,81.6,75.2,35.7s-23-9.1-23-9.1"/><circle class="cls-1" cx="156.1" cy="356.9" r="6.5"/><circle class="cls-1" cx="130" cy="307.5" r="4.1"/><ellipse class="cls-1" cx="159.1" cy="241.3" rx="6.3" ry="40.6"/><rect class="cls-1" x="159.1" y="283.8" width="10.9" height="10.92" rx="5.5"/><rect class="cls-1" x="242.3" y="177.8" width="38.3" height="104.04" rx="12"/><rect class="cls-1" x="198.4" y="260.7" width="5" height="96.18" rx="2.5"/><path class="cls-1" d="M212.1,190.5,181.5,364.1S48.6,403.3,73,265.1c0,0,40.6,90,67.7,48.3s-20.9-13.1-20.9-13.1"/><circle class="cls-1" cx="127.9" cy="348.2" r="6.5"/><circle class="cls-1" cx="110.8" cy="295" r="4.1"/><ellipse class="cls-1" cx="151" cy="234.9" rx="40.6" ry="6.3" transform="translate(-106.6 342.7) rotate(-80)"/><rect class="cls-1" x="142.5" y="277.6" width="10.9" height="10.92" rx="5.5" transform="translate(-156.5 379.7) rotate(-80)"/><rect class="cls-1" x="201.7" y="222.3" width="104" height="38.26" rx="12" transform="translate(-28.1 449.3) rotate(-80)"/><rect class="cls-1" x="132.2" y="306.1" width="96.2" height="4.96" rx="2.5" transform="translate(-154.9 432.6) rotate(-80)"/><path class="cls-1" d="M211.9,194.1,151.7,359.7S14,375.3,62,243.4c0,0,24.4,95.7,58.4,59.3S102,286.2,102,286.2"/><circle class="cls-1" cx="101.7" cy="334.8" r="6.5"/><circle class="cls-1" cx="94.1" cy="279.4" r="4.1"/><ellipse class="cls-1" cx="144" cy="227.2" rx="40.6" ry="6.3" transform="translate(-118.7 284.8) rotate(-70)"/><rect class="cls-1" x="127.3" y="268.7" width="10.9" height="10.92" rx="5.5" transform="translate(-170.2 305.1) rotate(-70)"/><rect class="cls-1" x="192.1" y="232.3" width="104" height="38.26" rx="12" transform="translate(-75.6 394.8) rotate(-70)"/><rect class="cls-1" x="112.1" y="302.4" width="96.2" height="4.96" rx="2.5" transform="translate(-181.1 351.1) rotate(-70)"/><path class="cls-1" d="M211.2,197.6,123.1,350.2S-15.2,341.6,55,220.1c0,0,7.4,98.5,47.1,68.5s-15.2-19.4-15.2-19.4"/><circle class="cls-1" cx="78.2" cy="317" r="6.5"/><circle class="cls-1" cx="80.3" cy="261.2" r="4.1"/><ellipse class="cls-1" cx="138.6" cy="218.4" rx="40.6" ry="6.3" transform="translate(-119.8 229.2) rotate(-60)"/><rect class="cls-1" x="113.9" y="257.2" width="10.9" height="10.92" rx="5.5" transform="translate(-167.8 234.7) rotate(-60)"/><rect class="cls-1" x="180.9" y="240.5" width="104" height="38.26" rx="12" transform="matrix(0.5, -0.87, 0.87, 0.5, -108.4, 331.52)"/><rect class="cls-1" x="92.9" y="295.3" width="96.2" height="4.96" rx="2.5" transform="translate(-187.4 270.9) rotate(-60)"/><path class="cls-1" d="M209.8,200.9,96.6,335.9S-38.1,303.5,52.1,196c0,0-9.8,98.2,34.5,75.6S75,249.9,75,249.9"/><circle class="cls-1" cx="58.1" cy="295.4" r="6.5"/><circle class="cls-1" cx="69.9" cy="240.8" r="4.1"/><ellipse class="cls-1" cx="134.7" cy="208.8" rx="40.6" ry="6.3" transform="translate(-111.8 177.8) rotate(-50)"/><rect class="cls-1" x="102.6" y="243.6" width="10.9" height="10.92" rx="5.5" transform="translate(-152.2 171.7) rotate(-50)"/><rect class="cls-1" x="168.4" y="246.7" width="104" height="38.26" rx="12" transform="translate(-124.9 263.8) rotate(-50)"/><rect class="cls-1" x="75.2" y="284.9" width="96.2" height="4.96" rx="2.5" transform="translate(-176.1 197.1) rotate(-50)"/><path class="cls-1" d="M207.9,204,72.9,317.3s-127-55.4-19.5-145.6c0,0-26.7,95,20.9,80.5s-7.7-23.5-7.7-23.5"/><circle class="cls-1" cx="42.1" cy="270.7" r="6.5"/><circle class="cls-1" cx="63.2" cy="218.9" r="4.1"/><ellipse class="cls-1" cx="132.6" cy="198.6" rx="40.6" ry="6.3" transform="translate(-96.7 131.7) rotate(-40)"/><rect class="cls-1" x="93.9" y="228.2" width="10.9" height="10.92" rx="5.5" transform="translate(-127 118.5) rotate(-40)"/><rect class="cls-1" x="155.1" y="250.5" width="104" height="38.26" rx="12" transform="translate(-124.9 196.2) rotate(-40)"/><rect class="cls-1" x="59.6" y="271.6" width="96.2" height="4.96" rx="2.5" transform="translate(-150.9 133.3) rotate(-40)"/><path class="cls-1" d="M205.5,206.6,52.9,294.7S-62.6,218.2,59,148c0,0-42.9,89,6.6,82.9s-3.5-24.4-3.5-24.4"/><circle class="cls-1" cx="30.6" cy="243.5" r="6.5"/><circle class="cls-1" cx="60.4" cy="196.2" r="4.1"/><ellipse class="cls-1" cx="132.3" cy="188.3" rx="40.6" ry="6.3" transform="translate(-76.4 91.4) rotate(-30)"/><rect class="cls-1" x="88" y="211.6" width="10.9" height="10.92" rx="5.5" transform="translate(-96 75.8) rotate(-30)"/><rect class="cls-1" x="141.3" y="252.1" width="104" height="38.26" rx="12" transform="translate(-109.7 133) rotate(-30)"/><rect class="cls-1" x="46.6" y="255.7" width="96.2" height="4.96" rx="2.5" transform="translate(-116.4 81.9) rotate(-30)"/><path class="cls-1" d="M202.7,208.8,37.1,269.1S-63.3,173.6,68.5,125.6c0,0-57.6,80.2-7.8,82.8s.7-24.6.7-24.6"/><circle class="cls-1" cx="24.1" cy="214.8" r="6.5"/><circle class="cls-1" cx="61.6" cy="173.4" r="4.1"/><ellipse class="cls-1" cx="133.7" cy="178.1" rx="40.6" ry="6.3" transform="translate(-52.8 56.5) rotate(-20)"/><rect class="cls-1" x="85" y="194.1" width="10.9" height="10.92" rx="5.5" transform="translate(-62.8 43) rotate(-20)"/><rect class="cls-1" x="127.4" y="251.2" width="104" height="38.26" rx="12" transform="translate(-81.6 77.7) rotate(-20)"/><rect class="cls-1" x="36.5" y="237.9" width="96.2" height="4.96" rx="2.5" transform="translate(-77.1 43.4) rotate(-20)"/><path class="cls-1" d="M199.5,210.5,26,241.1S-56.3,129.7,81.8,105.3c0,0-70.6,68.9-22.1,80.2s5.1-24.2,5.1-24.2"/><circle class="cls-1" cx="22.6" cy="185.4" r="6.5"/><circle class="cls-1" cx="66.7" cy="151.1" r="4.1"/><ellipse class="cls-1" cx="137" cy="168.2" rx="40.6" ry="6.3" transform="translate(-27.1 26.3) rotate(-10)"/><rect class="cls-1" x="85.2" y="176.5" width="10.9" height="10.92" rx="5.5" transform="translate(-30.2 18.5) rotate(-10)"/><rect class="cls-1" x="113.9" y="247.9" width="104" height="38.26" rx="12" transform="translate(-43.8 32.9) rotate(-10)"/><rect class="cls-1" x="29.6" y="218.6" width="96.2" height="4.96" rx="2.5" transform="translate(-37.2 16.8) rotate(-10)"/><path class="cls-1" d="M196.1,211.6H19.9S-41.8,87.5,98.5,87.5c0,0-81.6,55.7-35.7,75.2s9.1-23,9.1-23"/><circle class="cls-1" cx="26.2" cy="156.1" r="6.5"/><circle class="cls-1" cx="75.6" cy="130" r="4.1"/><ellipse class="cls-1" cx="141.8" cy="159.1" rx="40.6" ry="6.3"/><rect class="cls-1" x="88.4" y="159.1" width="10.9" height="10.92" rx="5.5"/><rect class="cls-1" x="101.2" y="242.3" width="104" height="38.26" rx="12"/><rect class="cls-1" x="26.2" y="198.4" width="96.2" height="4.96" rx="2.5"/><path class="cls-1" d="M192.5,212.1,19,181.5S-20.2,48.6,118,73c0,0-90,40.6-48.3,67.7s13-20.9,13-20.9"/><circle class="cls-1" cx="34.9" cy="127.9" r="6.5"/><circle class="cls-1" cx="88.1" cy="110.8" r="4.1"/><ellipse class="cls-1" cx="148.2" cy="151" rx="6.3" ry="40.6" transform="translate(-26.2 270.7) rotate(-80)"/><rect class="cls-1" x="94.5" y="142.5" width="10.9" height="10.92" rx="5.5" transform="translate(-63.1 220.8) rotate(-80)"/><rect class="cls-1" x="122.6" y="201.7" width="38.3" height="104.04" rx="12" transform="translate(-132.8 349.2) rotate(-80)"/><rect class="cls-1" x="72" y="132.2" width="5" height="96.18" rx="2.5" transform="translate(-116.1 222.3) rotate(-80)"/><path class="cls-1" d="M189,211.9,23.4,151.7S7.8,14,139.7,62c0,0-95.7,24.4-59.3,58.4S96.9,102,96.9,102"/><circle class="cls-1" cx="48.3" cy="101.7" r="6.5"/><circle class="cls-1" cx="103.6" cy="94.1" r="4.1"/><ellipse class="cls-1" cx="155.9" cy="144" rx="6.3" ry="40.6" transform="matrix(0.34, -0.94, 0.94, 0.34, -32.76, 241.3)"/><rect class="cls-1" x="103.5" y="127.3" width="10.9" height="10.92" rx="5.5" transform="translate(-53.1 189.7) rotate(-70)"/><rect class="cls-1" x="112.5" y="192.1" width="38.3" height="104.04" rx="12" transform="translate(-142.7 284.3) rotate(-70)"/><rect class="cls-1" x="75.7" y="112.1" width="5" height="96.18" rx="2.5" transform="matrix(0.34, -0.94, 0.94, 0.34, -99.07, 178.86)"/><path class="cls-1" d="M185.5,211.2,32.8,123.1S41.4-15.2,163,55c0,0-98.5,7.4-68.5,47.1s19.4-15.2,19.4-15.2"/><circle class="cls-1" cx="66.1" cy="78.2" r="6.5"/><circle class="cls-1" cx="121.9" cy="80.3" r="4.1"/><ellipse class="cls-1" cx="164.7" cy="138.6" rx="6.3" ry="40.6" transform="matrix(0.5, -0.87, 0.87, 0.5, -37.66, 211.94)"/><rect class="cls-1" x="115" y="113.9" width="10.9" height="10.92" rx="5.5" transform="translate(-43.1 163.9) rotate(-60)"/><rect class="cls-1" x="104.3" y="180.9" width="38.3" height="104.04" rx="12" transform="translate(-140 223.4) rotate(-60)"/><rect class="cls-1" x="82.9" y="92.9" width="5" height="96.18" rx="2.5" transform="translate(-79.4 144.4) rotate(-60)"/><path class="cls-1" d="M182.1,209.8,47.1,96.6s32.5-134.7,140-44.5c0,0-98.2-9.8-75.6,34.5S133.2,75,133.2,75"/><circle class="cls-1" cx="87.7" cy="58.1" r="6.5"/><circle class="cls-1" cx="142.3" cy="69.9" r="4.1"/><ellipse class="cls-1" cx="174.3" cy="134.7" rx="6.3" ry="40.6" transform="translate(-40.9 181.7) rotate(-50)"/><rect class="cls-1" x="128.6" y="102.6" width="10.9" height="10.92" rx="5.5" transform="translate(-34.9 141.3) rotate(-50)"/><rect class="cls-1" x="98.2" y="168.4" width="38.3" height="104.04" rx="12" transform="translate(-127 168.6) rotate(-50)"/><rect class="cls-1" x="93.3" y="75.2" width="5" height="96.18" rx="2.5" transform="translate(-60.2 117.4) rotate(-50)"/><path class="cls-1" d="M179.1,207.9,65.8,72.9s55.4-127,145.6-19.5c0,0-95.1-26.7-80.5,20.9s23.4-7.7,23.4-7.7"/><circle class="cls-1" cx="112.4" cy="42.1" r="6.5"/><circle class="cls-1" cx="164.2" cy="63.2" r="4.1"/><ellipse class="cls-1" cx="184.4" cy="132.6" rx="6.3" ry="40.6" transform="translate(-42.1 149.6) rotate(-40)"/><rect class="cls-1" x="143.9" y="93.9" width="10.9" height="10.92" rx="5.5" transform="translate(-28.9 119.3) rotate(-40)"/><rect class="cls-1" x="94.3" y="155.1" width="38.3" height="104.04" rx="12" transform="translate(-106.6 121.4) rotate(-40)"/><rect class="cls-1" x="106.6" y="59.6" width="5" height="96.18" rx="2.5" transform="translate(-43.7 95.3) rotate(-40)"/><path class="cls-1" d="M176.5,205.5,88.3,52.9S164.9-62.6,235.1,59c0,0-89-42.9-82.9,6.6s24.4-3.5,24.4-3.5"/><circle class="cls-1" cx="139.6" cy="30.6" r="6.5"/><circle class="cls-1" cx="186.9" cy="60.4" r="4.1"/><ellipse class="cls-1" cx="194.8" cy="132.3" rx="6.3" ry="40.6" transform="translate(-40 115.1) rotate(-30)"/><rect class="cls-1" x="160.6" y="88" width="10.9" height="10.92" rx="5.5" transform="translate(-24.5 95.5) rotate(-30)"/><rect class="cls-1" x="92.8" y="141.3" width="38.3" height="104.04" rx="12" transform="translate(-81.7 81.8) rotate(-30)"/><rect class="cls-1" x="122.4" y="46.6" width="5" height="96.18" rx="2.5" transform="translate(-30.6 75.1) rotate(-30)"/><path class="cls-1" d="M174.3,202.7,114,37.1S209.5-63.3,257.4,68.5c0,0-80.1-57.6-82.8-7.8s24.7.7,24.7.7"/><circle class="cls-1" cx="168.3" cy="24.1" r="6.5"/><circle class="cls-1" cx="209.7" cy="61.6" r="4.1"/><ellipse class="cls-1" cx="205" cy="133.7" rx="6.3" ry="40.6" transform="translate(-33.4 78.2) rotate(-20)"/><rect class="cls-1" x="178" y="85" width="10.9" height="10.92" rx="5.5" transform="translate(-19.9 68.2) rotate(-20)"/><rect class="cls-1" x="93.7" y="127.4" width="38.3" height="104.04" rx="12" transform="translate(-54.6 49.4) rotate(-20)"/><rect class="cls-1" x="140.2" y="36.5" width="5" height="96.18" rx="2.5" transform="translate(-20.3 53.9) rotate(-20)"/><path class="cls-1" d="M172.6,199.5,142,26S253.4-56.3,277.8,81.8c0,0-69-70.6-80.2-22.1s24.2,5.1,24.2,5.1"/><circle class="cls-1" cx="197.7" cy="22.6" r="6.5"/><circle class="cls-1" cx="232" cy="66.7" r="4.1"/><ellipse class="cls-1" cx="214.9" cy="137" rx="6.3" ry="40.6" transform="translate(-20.5 39.4) rotate(-10)"/><rect class="cls-1" x="195.7" y="85.2" width="10.9" height="10.92" rx="5.5" transform="translate(-12.7 36.3) rotate(-10)"/><rect class="cls-1" x="97" y="113.9" width="38.3" height="104.04" rx="12" transform="translate(-27.1 22.7) rotate(-10)"/><rect class="cls-1" x="159.6" y="29.6" width="5" height="96.18" rx="2.5" transform="matrix(0.98, -0.17, 0.17, 0.98, -11.03, 29.32)"/><path class="cls-1" d="M171.5,196.1V19.9s124-61.7,124,78.6c0,0-55.6-81.6-75.1-35.7s22.9,9.1,22.9,9.1"/><circle class="cls-1" cx="227" cy="26.2" r="6.5"/><circle class="cls-1" cx="253.1" cy="75.6" r="4.1"/><ellipse class="cls-1" cx="224" cy="141.8" rx="6.3" ry="40.6"/><rect class="cls-1" x="213.1" y="88.4" width="10.9" height="10.92" rx="5.5"/><rect class="cls-1" x="102.5" y="101.2" width="38.3" height="104.04" rx="12"/><rect class="cls-1" x="179.8" y="26.2" width="5" height="96.18" rx="2.5"/></g></g></svg>