<svg id="Layer_1" data-name="Layer 1" xmlns="http://www.w3.org/2000/svg" xmlns:xlink="http://www.w3.org/1999/xlink" viewBox="0 0 5955.3 4484.1"><defs><style>.cls-1,.cls-2{stroke-miterlimit:10;}.cls-1{stroke-width:1px;fill:url(#radial-gradient);stroke:url(#radial-gradient-2);}.cls-2{stroke-width:1px;fill:url(#radial-gradient-3);stroke:url(#radial-gradient-4);}.cls-3{fill:#d8ab75;}.cls-4{fill:#f6e5d0;}.cls-5{fill:#6e573f;}.cls-6{fill:#9d9fa2;}</style><radialGradient id="radial-gradient" cx="-3767.77" cy="3328.65" r="2630.35" gradientTransform="matrix(0.87, 0.5, -0.15, 0.26, 6738.88, 3260.99)" gradientUnits="userSpaceOnUse"><stop offset="0" stop-color="#228b6d"/><stop offset="0.15" stop-color="#9e005d"/><stop offset="0.31" stop-color="#f15a24"/><stop offset="0.52" stop-color="aqua"/><stop offset="0.82" stop-color="#a67c52"/><stop offset="0.9" stop-color="#aa8252"/><stop offset="1" stop-color="#e1da59"/></radialGradient><radialGradient id="radial-gradient-2" cx="-3767.3" cy="3328.89" r="2631.21" gradientTransform="matrix(-1, 0, 0, -1, -788.97, 5585.13)" gradientUnits="userSpaceOnUse"><stop offset="0" stop-color="#a72f43"/><stop offset="0.01" stop-color="#ad454c"/><stop offset="0.04" stop-color="#b76f5e"/><stop offset="0.06" stop-color="#c0916c"/><stop offset="0.09" stop-color="#c7ac78"/><stop offset="0.11" stop-color="#ccbf80"/><stop offset="0.14" stop-color="#cfca84"/><stop offset="0.17" stop-color="#d0ce86"/><stop offset="0.3" stop-color="#7f9045"/><stop offset="0.47" stop-color="#c2a04e"/><stop offset="0.64" stop-color="#806430"/><stop offset="0.79" stop-color="#95a06b"/><stop offset="1" stop-color="#a32d41"/></radialGradient><radialGradient id="radial-gradient-3" cx="2976.31" cy="2244.63" r="2630.35" gradientTransform="matrix(-0.87, -0.5, 0.15, -0.26, 5218.42, 4316.23)" gradientUnits="userSpaceOnUse"><stop offset="0" stop-color="#e1da59"/><stop offset="0.11" stop-color="#aa8252"/><stop offset="0.21" stop-color="aqua"/><stop offset="0.3" stop-color="#a67c52"/><stop offset="0.42" stop-color="#f15a24"/><stop offset="0.85" stop-color="#9e005d"/><stop offset="1" stop-color="#228b6d"/></radialGradient><radialGradient id="radial-gradient-4" cx="2976.78" cy="2244.86" r="2631.21" gradientTransform="translate(1.2 -12.5)" xlink:href="#radial-gradient-2"/></defs><polygon class="cls-1" points="3058.5 2064.7 5949.8 1 5954.1 4477.9 1.4 4483.6 3058.5 2064.7"/><polygon class="cls-2" points="2894.5 2416.2 1.2 4476.8 1.2 0.8 5953.9 0.8 2894.5 2416.2"/><path class="cls-3" d="M4170.8,4025.2c54.4-16.5,105,.3,155.2,18.4,64.9,23.4,126.9,51.3,171.7,107.4,29,36.3,53.7,73.3,39.9,123.1-26.1-2.3-43.8,13.9-51.4,33.9-16.5,43.4-55.9,40.8-89.4,50.3-3.6,1-11.9-5.7-14.1-10.6-4.4-9.4-6.2-20.1-8.7-30.4-5.5-22.9-35-40-64-36.3-23.3,3-45.8,13.4-38.4,39.3,4.8,16.8,25.1,30.1,40.1,43.1,16.9,14.5,39.1,24.2,52.9,40.9,17.4,21,28.6,47.1,42.4,71l-44,2-67.4-1.7c-9.1-.3-18.2-.3-27.2-.5-1.9-24.3-19.9-19.7-33.9-16.5-4.4,1-6,13.9-8.9,21.4h-16c1.3-24.5,14.8-34.1,38.4-31.6,7.9.9,15.8,2.4,23.7,2.6,4.9.1,12-.3,14.2-3.3s.9-11.2-1.9-14.2c-22.2-23.4-42.9-49.3-68.6-68.2-36.7-27-77.7-48-115.8-73.2-8.1-5.3-11.8-17.2-17.6-26.1,16,3.6,32.4,11.1,47.7,9.3,10.6-1.2,26.3-14,28.1-23.8,3.5-18.9-6.9-36.5-28.7-38.8-11.2-1.2-23.3,3.8-34.8,6.8-8.1,2.2-15.9,5.8-23.8,8.7,5.1-6.6,11.4-12.7,15.2-20.1,20.8-40.8,39.9-82.5,62.1-122.4,6.4-11.6,21.2-18.5,32.2-27.5-3.1,3.3-7.4,6-9.1,9.9-4.7,11.3-14,31.6-11.6,33.2,17.7,11.5,37.1,22.7,57.4,26.7,8.8,1.8,21.8-12.9,31.2-21.9,2.1-2.1-2.8-11.7-4.7-17.8-9.8-31.7-34.9-32.8-61.7-30.7C4189.8,4042.9,4199.7,4027.6,4170.8,4025.2Zm246,189.5c17.4.8,36.7-2.4,37.9-30,1.2-30.3-21.8-52.9-54-54.1-22.7-.8-45.2,17.5-44.9,36.4C4356.3,4192.7,4381.6,4214,4416.8,4214.7Z" transform="translate(1.2 0.8)"/><path class="cls-4" d="M3902.9,4479.1c5.5,0,15.7-6.2,15.9-11.2,3.2-94.5,35.7-181.4,74.8-265.1,24.1-51.7,59.8-98.1,90.3-146.9l61.2-21.2,10.3-2.4,9.2-1.4c29,2.4,19,17.7,10.8,32.4l-1.6.5c-11,9.1-25.8,16-32.2,27.5-22.2,40-41.3,81.7-62.1,122.5-3.7,7.4-10.1,13.4-15.2,20.1-.3,1.4-.5,2.8-.7,4.2l-6,3.8,4.9,5.1c2.1,5.7,4.1,11.3,6.2,16.9,1.6,1.9,3.2,3.8,4.9,5.6a23.9,23.9,0,0,0,2.3,2.2c5.7,8.8,9.4,20.8,17.5,26.1,38.2,25.1,79.1,46.2,115.8,73.2,25.7,18.9,46.4,44.8,68.6,68.2,2.8,2.9,4,11.2,1.9,14.1s-9.3,3.5-14.2,3.4c-7.9-.2-15.8-1.8-23.7-2.6-23.6-2.6-36.6,1.4-37.8,25.9" transform="translate(1.2 0.8)"/><path class="cls-4" d="M18,4479.8c-6,0-12-2.5-18-3.8q287.5.6,575.2,1" transform="translate(1.2 0.8)"/><path class="cls-4" d="M1850.5,220.1c-58.1-37.8-48.6-97.5-49.7-153.8-.4-22-1.2-43.9-1.8-65.9h115.9c2.5,30.4,21.6,47.4,47.8,58.3,42.2,17.5,84.8,34.2,126.5,52.8,21.2,9.4,31.3,24.5,20,49.9-9.6,21.4-1.4,41.2,23,42.3,21.2,1.1,43.8-4.4,63.9-11.9s51.2-.2,63.6,21.4,4.8,40.7-15.6,52.4c-12.9,7.4-28.7,14.5-43,14.1-59.5-1.8-119-5.2-178.2-11-11.1-1.1-23.7-14-30.4-24.8-14.1-22.4-34.3-31.7-55.8-20.9C1905.8,238.5,1878.9,231.2,1850.5,220.1Z" transform="translate(1.2 0.8)"/><path class="cls-3" d="M1850.5,220.1c28.4,11.1,55.3,18.4,86.2,2.9,21.5-10.8,41.7-1.5,55.8,20.9,6.7,10.8,19.3,23.7,30.4,24.8,59.2,5.8,118.7,9.2,178.2,11,14.3.4,30.1-6.7,43-14.1,20.4-11.7,28.5-29.9,15.6-52.4s-43.4-29.1-63.6-21.4-42.7,13-63.9,11.9c-24.4-1.1-32.6-20.9-23-42.3,11.3-25.4,1.2-40.5-20-49.9-41.7-18.6-84.3-35.3-126.5-52.8-26.2-10.9-45.3-27.9-47.8-58.3h12c7.3,12.8,11.4,31.2,22.5,37.4,28.5,16.2,43.7,3.3,49.5-37.4h127.9c-21.5,68.4-1.6,93.2,70.9,89.3,6.6-.3,15.8,1.9,19.7,6.5,19.8,23.3,43.1,33.8,73.5,24.6,1.3,26.3-2.9,51.3,8.6,78.9,17.4,41.7-8.7,82.9-55.7,92.7-37.8,8-77.8,12-116.2,9.5-91.8-6.2-182.1-21.8-263.6-68.9C1858.8,230,1855,224.5,1850.5,220.1Z" transform="translate(1.2 0.8)"/><path class="cls-5" d="M2290.9,120.8c-30.4,9.2-53.7-1.3-73.5-24.6-3.9-4.6-13.1-6.8-19.7-6.5-72.5,3.9-92.4-20.9-70.9-89.3h75.9c.6,11.7-.7,23.9,2.3,34.9,1.6,6,10.5,9.9,16.2,14.8L2262.7.4h76c9.9,41.7-6.7,73.2-37.4,100.1C2296,105.2,2294.3,113.9,2290.9,120.8Z" transform="translate(1.2 0.8)"/><path class="cls-4" d="M4489.5,4480c43.8-1,87.6-2.8,131.4-2.8q654-.1,1307.9.2c7.9,0,15.9-.9,23.8-1.4-6,1.3-12,3.8-18,3.8Q5212,4480.1,4489.5,4480Z" transform="translate(1.2 0.8)"/><path class="cls-6" d="M2262.7.4l-41.5,49.7c-5.7-4.9-14.6-8.8-16.2-14.8-3-11-1.7-23.2-2.3-34.9Z" transform="translate(1.2 0.8)"/><path class="cls-6" d="M1998.9.4c-5.8,40.7-21,53.6-49.5,37.4-11.1-6.2-15.2-24.6-22.5-37.4h12c2.6,7.7,3,18.8,8.3,22.2s19.1,4.9,25.3,1S1977,8.5,1978.9.4Z" transform="translate(1.2 0.8)"/><path class="cls-5" d="M4225.6,4480c2.9-7.5,4.5-20.4,8.9-21.4,14-3.2,32-7.8,33.9,16.5-.2.6-.7,1.4-.5,1.9a22.8,22.8,0,0,0,1.7,3Z" transform="translate(1.2 0.8)"/><path class="cls-5" d="M1978.9.4c-1.9,8.1-1.4,20.1-6.4,23.2s-18.8,3.1-25.3-1-5.7-14.5-8.3-22.2Z" transform="translate(1.2 0.8)"/><path class="cls-4" d="M4269.6,4480a22.8,22.8,0,0,1-1.7-3c-.2-.5.3-1.3.5-1.9,9,.2,18.1.2,27.2.5l67.4,1.7a11.7,11.7,0,0,1-1.5,2.7Z" transform="translate(1.2 0.8)"/><path class="cls-6" d="M0,2322.1v0Z" transform="translate(1.2 0.8)"/><path class="cls-4" d="M1235.7,951.4c-60.5-3-120.9-5.9-181.3-9.3-14.4-.9-28.6-4-42.9-6.1-54-33-82.6-83-92.6-143.6-14.2-85.6,4.5-165.9,49-239.1,34.2-56.3,103.4-108.6,182.3-92.5,32,6.5,64.4,10.5,96.6,15.7,3.7,3.4,7.7,6.5,11.1,10.3,21.6,23.6,47.4,44.8,63.5,71.7,32.7,54.7,43.5,114.6,27.4,178.4-19.6,77.8-34.8,157.4-109.6,205.7C1237,944,1236.8,948.4,1235.7,951.4Z" transform="translate(1.2 0.8)"/><path class="cls-3" d="M4235,3881.3c-72.9,33.7-147.1,28-215.3-7.1-23-11.8-35-50-46.5-78.4-36.4-89.8-70.2-180.6-104.7-271.1-3-7.9-3.7-16.7-5.4-25.1,12.3,29.3,25.2,58.4,36.9,87.9,31.8,79.7,62.7,159.8,94.8,239.4,18.3,45.4,86,74.2,126.9,55.7-14.7-15.5-34.8-28.8-43.2-47.4-19.7-43.4-35.5-88.9-49.2-134.6-5.7-18.9-8.5-43.8-.8-60.5,26-56.1,57.4-109.6,86.3-164.4,2.6-4.9,4.1-12.9,1.9-17.3-11.1-21.4-24-39.1-53.3-38.3-17.4.5-36.8-11.8-27.8-31.4,10.2-22.2,26.2-49.8,46.4-57.4,23.2-8.7,60-7.3,79.5,6.2,25,17.4,2.1,45-9.1,67.3-5,9.8-10.5,23.6-7.1,31.9,2.6,6.2,19.2,6.6,29.5,9.6-14.5,12.9-32,27.8-48.5,43.8-4.9,4.8-6.7,12.7-10,19.2,7.5-.4,15.8,1.1,22.2-1.7,12-5.4,23.4-12.6,34.2-20.2,39.9-28.4,84.5-52.5,117-87.7,19.6-21.1,35.6-65.7,26.4-89.5-22.2-57.4-67.9-101-133.9-108.6-30.2-3.4-62.5,1.4-92.4,8.5-38,9.1-74.4,24.4-111.6,37-16.7-15.7-73-23.7-95.4-15.1-8.8,3.3-19.2,2.2-28.9,3.1-3.6-30-3.6-61.1-11.5-89.9-10.8-39.1-10.6-45.8,22.8-67.8,8.4-5.5,14.4-14.7,21.4-22.4,14.5-16,28.6-32.3,43.4-48,7.7-8.2,20.5-13.8,24-23.2,20.6-53.7,46.2-107,56.2-162.9,10.9-60.2,14.2-125.9-57.1-160.7-.7-.4-.7-2.3-1.1-4.1l23.1-11,74.7,25c0,5.9-.6,11.9.1,17.7,6.1,46.4,18.3,92.8,17.4,139-1.5,80.8,14.1,151.7,77.1,207.9,15.6,13.9,25,35,37.3,52.8-12.1,24-24.4,47.8-36.2,72-3.6,7.4-5.9,15.6-8.7,23.4,8.5,2.4,16.9,5.5,25.5,7,37,6.2,74.7,9.7,111,18.5,64.2,15.5,75.7,73.9,94.7,124.7,6.2,16.5,7.2,34.8,10.6,52.3-6.6,7.7-13.8,15.1-19.9,23.2-12.2,16.3-22,35-36.3,49-26.5,25.8-54.2,50.9-83.9,73-41.9,31.3-80.8,68.7-139.6,68.5-30.1-.2-58.6,31.4-55.3,54.8,4.9,35.4,32.8,30.1,57.2,30.3a6.6,6.6,0,0,0,2-.1c29.4-6.2,39.2,16.4,43,36,3,15-5.4,33-11.3,48.7-2.8,7.3-13.8,11.3-17.5,18.6-5.8,11.7-15.2,28-11.1,36.7,5.8,12.1,21.7,20.7,35,27.5,7.5,3.8,19.1-1.3,27.4,1.7C4191,3861.5,4212.8,3871.8,4235,3881.3Zm-107.4-493.4-.4-10.9c-21.4-4-1.6-53.6-40.4-35.3-13.4,6.4-22.1,23.9-30.6,37.8-1.3,2.1,10.6,17.8,16,17.6C4090.7,3396.3,4109.1,3391.3,4127.6,3387.9Z" transform="translate(1.2 0.8)"/><path class="cls-4" d="M3975.1,2645.1l-23.1,11c.4,1.8.4,3.7,1.1,4.1,71.3,34.8,68,100.5,57.1,160.7-10,55.9-35.6,109.2-56.2,162.9-3.5,9.4-16.3,15-24,23.2-14.8,15.7-28.9,32-43.4,48-7,7.7-13,16.9-21.4,22.4-33.4,22-33.6,28.7-22.8,67.8,7.9,28.8,7.9,59.9,11.5,89.9-82.9-4-137.9-51.9-182.5-115.9-8-11.4-15.6-23-23.4-34.5-8.6-29.7-20.1-58.9-25.1-89.2s-4.2-64.5-6.1-96.8c-.2-4.4-1.8-8.8-2.8-13.1.8-5.4,1.6-10.7,2.5-16,2.5-10.7,4.9-21.3,7.4-32,41.7-118.1,128.2-182.9,248.9-201.7C3905.6,2630.8,3941,2641.6,3975.1,2645.1Zm-49.5,58.5c-5-4.8-11.3-16.2-19.4-17.7-22.1-4-49,20.3-45.4,42.1,1.5,9.2,15.5,22.6,24.5,23.1C3911.6,2752.6,3920.4,2732.4,3925.6,2703.6Zm-36.4,233.1c13.7-18.8,24-28.8,28-40.9,1.4-4-16.5-20.6-20.1-19-11.8,5.3-23.3,14.8-30.2,25.8C3864.7,2906.1,3877.2,2918.9,3889.2,2936.7Zm-168.5-118.1c13.4-17.6,25.5-27.3,27.5-38.8,1.1-6.2-17.7-23.5-22.9-21.7-11.9,3.9-24.4,14.9-29.7,26.2C3693.3,2789.2,3708.2,2802.2,3720.7,2818.6Zm29.1,133.8c-12.6-8.9-22.2-18.9-25.4-17.2-9.7,5.3-17.1,15.1-25.4,23.2,6.3,5.5,14,16.5,18.5,15.3C3727.3,2971.2,3735.5,2962.5,3749.8,2952.4Z" transform="translate(1.2 0.8)"/><path class="cls-4" d="M2106.4,1917.3l-5.3.9-10.6-4.1-69.6-20.2-32.3-24.3c-24.8-36.8-56.4-70.8-73-111-48.3-117-81-236.9-18.4-360.6,62.1-83.4,154.2-108,249.5-124,25.5-4.3,52.6.5,79,1.2,19.2,24.4,46.8,46.1,56,73.8,25.7,77.7.2,147.1-49.2,209.5-43,54.2-89.1,102.8-160.1,121-27.2,7-52.8,21.4-77.7,35.1-13.8,7.7-25.8,20.6-10.4,38.5h.1c10.3,12,21.3,23.5,30.7,36.2,19.2,25.9,37.5,52.5,56.2,78.9v.4c3.4,5.2,5.7,13.5,10.3,15,19.2,6.2,39.3,9.3,58.5,15.6,10.1,3.4,19,10.8,28.4,16.4Zm-4.1-439.3-5.5-18.8-10.2-34c-13.8,6.4-31,9.8-40.8,20.1-13.8,14.7-21.8,35.5-4,53.7,19.5,19.8,42.1,11.8,59.7-1.8,11.8-9,17.8-25.4,26.4-38.5l-10.3-6.6Z" transform="translate(1.2 0.8)"/><path class="cls-4" d="M4681.5,4193.6c-84.7-86.5-114.2-190.2-90.3-307.5,34.4-169.2,161.4-251.4,320.8-255,17.1-.4,34.3,3.3,51.5,5.1,53.9,44.1,67,100,39.4,162-19.4,43.7-45.9,84.5-71,125.4-15.6,25.3-33.1,48.6-21.5,80.9,5.7,15.8-1,22.5-18.3,23.8-13.2,1-26.1,7.6-39.1,11.8l-8.3,11.4c-9.5,10.7-17.6,28-28.9,30.5-17.6,4-37.5-2-56.3-4-13.4-1.4-26.6-3.2-39.9-4.8l-8.9-2.1c-14.7,1.9-29.6,3.1-43.9,6.7-1.3.3,1.5,16.5,2.4,25.3l5.4,9,3.4,3.6h0c2.6,9.5,7.2,19,7.3,28.6C4685.5,4160.7,4682.9,4177.2,4681.5,4193.6Zm-28.1-239.1c14.2-3,32.6-1.7,41.5-10.2,10.9-10.5,13.8-29.2,20.1-44.4l-8.3-3.4-10.4,14.6c-15.2-30.8-30.5-16.4-44.4-1.5-11.6,12.4-25.2,26-4.4,42.5Zm243.1-190.3c19.7-18.6,37.4-29.5,44.8-45.3,2.7-5.8-19-23-29.6-35-13.9,14.9-29.3,28.9-40.5,45.6C4869.1,3732.7,4883.7,3747,4896.5,3764.2Z" transform="translate(1.2 0.8)"/><path class="cls-4" d="M3978.2,3247.1c37.2-12.6,73.6-27.9,111.6-37,29.9-7.1,62.2-11.9,92.4-8.5,66,7.6,111.7,51.2,133.9,108.6,9.2,23.8-6.8,68.4-26.4,89.5-32.5,35.2-77.1,59.3-117,87.7-10.8,7.6-22.2,14.8-34.2,20.2-6.4,2.8-14.7,1.3-22.2,1.7,3.3-6.5,5.1-14.4,10-19.2,16.5-16,34-30.9,48.5-43.8-10.3-3-26.9-3.4-29.5-9.6-3.4-8.3,2.1-22.1,7.1-31.9,11.2-22.3,34.1-49.9,9.1-67.3-19.5-13.5-56.3-14.9-79.5-6.2-20.2,7.6-36.2,35.2-46.4,57.4-9,19.6,10.4,31.9,27.8,31.4,29.3-.8,42.2,16.9,53.3,38.3,2.2,4.4.7,12.4-1.9,17.3-28.9,54.8-60.3,108.3-86.3,164.4-7.7,16.7-4.9,41.6.8,60.5,13.7,45.7,29.5,91.2,49.2,134.6,8.4,18.6,28.5,31.9,43.2,47.4-40.9,18.5-108.6-10.3-126.9-55.7-32.1-79.6-63-159.7-94.8-239.4-11.7-29.5-24.6-58.6-36.9-87.9-5-17.3-9-34.9-15.2-51.7-12.2-32.8-7-64,6.3-94.9l3.9-3.8,6.9-8.1,4.1-5.1C3895.4,3294.1,3936.6,3270.4,3978.2,3247.1Z" transform="translate(1.2 0.8)"/><path class="cls-4" d="M3478.1,2143.3l-14.5-4-8.9-3.8c-55.4-24.2-100-61.1-138.3-108.1-65.2-80.1-87.6-168.5-61.6-268.7,15.3-29.8,28.3-61.1,46.7-88.8s40.9-49.2,61.7-73.5a27.5,27.5,0,0,1,2.6-2.2c13.8-8.2,28-15.9,41.3-24.8,53.2-35.4,111.3-54.8,175.5-54.9-4.8,3.9-9.1,9.7-14.6,11.2-19.9,5.3-40.1,9.8-60.3,13.4-56.4,10.1-93.1,62.8-35.7,115.2,63.3,57.8,113.6,123.7,115.4,214.6.7,32.7,3.7,66.8-4,97.8-9.8,39.6-30.6,76.3-44.4,115-8.8,24.8,4.8,50.7,30,50,45-1.1,90-9.6,134.9-15-63.5,40.6-132.1,48.5-204.6,32C3492.2,2147.1,3485.2,2145.1,3478.1,2143.3Zm-67.4-314.6c-11.5-12-24.9-10.2-30.9,5.8-8.6,23.2-2.4,44.4,17.3,58.4,6.7,4.8,24.4,4.8,29.3-.4,17.2-18,10.2-37.8-3.1-55.8-.8-1-2.2-1.5-3.2-2.3Zm68.5,6.3c-.4,32.6,18,57.8,35.6,53.5,8.8-2.2,19.3-16,20.7-25.7,3.2-22.6-19.1-53-34-48.3C3490.9,1817.8,3483.4,1830.9,3479.2,1835Zm-144.3,49.6c-6.9-28.9-6.5-55-34.7-56.7-7.3-.4-21.5,20-22.6,31.7-2.1,21.9,3.3,46.7,32,47.1C3318.7,1906.9,3328.1,1891,3334.9,1884.6Z" transform="translate(1.2 0.8)"/><path class="cls-5" d="M3670.4,1530.9c90.5,27.2,160.9,83.6,204,164.9,59.7,112.6,41.5,218.3-47.6,317.6-26.7,29.8-60.4,53.4-90.9,79.9-14.5-7.2-28.2-17.6-43.6-21.1-45.8-10.4-49.5-13.9-49.8-61.8-.1-17.8-2.2-35.6-2.7-53.5-.4-14.2-2.8-29.3,1-42.5,16.4-55.3,11.2-105.1-28.8-149.6-7.8-8.8-12.4-21.9-15.1-33.8-10-42.1-31.1-73.4-74-88.5a97.2,97.2,0,0,1-39-26.2c-12.5-14-14.3-37,8.1-38.5,31.9-2,61.3-14.8,90.7-17.4C3616.4,1557.4,3642.6,1544.9,3670.4,1530.9Z" transform="translate(1.2 0.8)"/><path class="cls-4" d="M2063.2,1137.7c-30.4-22.4-62.2-43.2-90.9-67.6-58.2-49.6-82.7-114.2-75.1-190,9.7-95.4,48.5-178.9,109.9-251.6,31.6-37.5,74.4-56.9,122.3-65.2,20.9,4.1,39.4,9,42.4,36.4,2.7,24.1,9.9,47.8,15.7,71.5,11.9,49.7,19.8,100.1-.1,148.8-25.8,63.1-56.7,124.1-81.5,187.5-6.3,16.1-2.7,40,4.8,56.5,19.5,43,61.7,58.9,101.7,78.2,14.3,6.9,22,27.5,32.7,41.9-45.1-9.7-90.3-18.7-135.2-29.3C2093.9,1151,2078.8,1143.5,2063.2,1137.7Z" transform="translate(1.2 0.8)"/><path class="cls-5" d="M4235,3881.3c-22.2-9.5-44-19.8-66.7-28-8.3-3-19.9,2.1-27.4-1.7-13.3-6.8-29.2-15.4-35-27.5-4.1-8.7,5.3-25,11.1-36.7,3.7-7.3,14.7-11.3,17.5-18.6,5.9-15.7,14.3-33.7,11.3-48.7-3.8-19.6-13.6-42.2-43-36a6.6,6.6,0,0,1-2,.1c-24.4-.2-52.3,5.1-57.2-30.3-3.3-23.4,25.2-55,55.3-54.8,58.8.2,97.7-37.2,139.6-68.5,29.7-22.1,57.4-47.2,83.9-73,14.3-14,24.1-32.7,36.3-49,6.1-8.1,13.3-15.5,19.9-23.2,32.6,83.3,65.5,166.5,97.6,250.1,4.9,12.8,6.4,27,9.4,40.6-11.5,28.2-23,56.3-34.6,84.5l-17.6,17.8-10.1,14.1C4370.3,3842.6,4303.4,3863.6,4235,3881.3Z" transform="translate(1.2 0.8)"/><path class="cls-5" d="M5054.7,3667c117.3,54.3,182.3,147.3,192.5,274.6,14.8,184-90.2,316.8-268.4,344.7-71.1,11.1-137.5-1.6-201.8-30.8-7.7-51.6,6.6-64.9,59.1-53.6,12.2,2.7,23.9,7.7,35.7,12.1,42.2,15.5,60.1,13.3,85.2-22.8,8.2-11.8,28.8-20.9,43.7-20.9,17.2,0,34.2,12.4,51.7,17.6,12.6,3.8,35.4,9.9,37.6,5.9,10.4-18.4,26.3-44.9,19.9-59.5-16.9-38.2-42.5-73.3-68.3-106.7-23-29.6-44.7-58.6-41.4-98,1-11.4,9.3-22.3,14.1-33.5s12.2-21,12.2-31.5c-.1-23.7-3.3-46.9,21.8-61.6,3.4-1.9,4.5-10,4.6-15.2C5053.8,3747.5,5054.2,3707.2,5054.7,3667Z" transform="translate(1.2 0.8)"/><path class="cls-5" d="M3365.8,1594.2a27.5,27.5,0,0,0-2.6,2.2c-16.9,12.7-34.6,24.5-50.5,38.4-34.7,30.3-60.5,75.6-117.4,66.6-9-15-16.1-31.7-27.4-44.7-41.8-48-31-122.2,23.3-151.2,26.8-14.3,30.2-36.4,9-59.4-8.1-8.8-17.4-16.5-25-25.6-17.6-21.2-25.7-42.7-11.5-71,22.7-45.4,17.2-57-28-81.3-17.1-9.1-33.1-20.5-26.6-43.3s26.7-20.8,45.8-21.6c22.8-1,45.4-4.8,68.1-7.4,7.7,1.8,16.6,7,22.7,4.7,45.8-17.5,71.3,14.1,94.1,42.1,36.8,45.3,67,96,75.7,155.2,3.4,23.2,3.9,48.9-2.7,71-12.2,40.2-30.7,78.4-46.4,117.6C3365.5,1588.8,3366,1591.6,3365.8,1594.2Z" transform="translate(1.2 0.8)"/><path class="cls-3" d="M1984.3,1753.1c-15.4-17.9-3.4-30.8,10.4-38.5,24.9-13.7,50.5-28.1,77.7-35.1,71-18.2,117.1-66.8,160.1-121,49.4-62.4,74.9-131.8,49.2-209.5-9.2-27.7-36.8-49.4-56-73.8l21,2c27.4,8.8,55.1,16.5,81.8,27,11.2,4.4,20,14.9,29.9,22.6-3.9,14.6-11.3,29.4-10.9,43.9,1.6,50.7,12.9,101.9-16,149.6-5.9,9.8-6.4,22.8-10.5,33.9s-8.2,26-16.3,35.8c-16.9,20.4-7.7,38.4,4.5,53.6,9.1,11.4,24,24.1,41.2-1.7,18.5,26.4,34.6,51.1,52.5,74.3,16.5,21.3,8.9,43.3-3.3,58.6-7.5,9.2-29.5,8-45.2,8.9-18.2,1.1-37.7-4.6-54.5.1-11.8,3.3-26.4,18.4-27.8,29.7-1.1,9.2,14,23.1,24.9,30.2,13.1,8.6,29.3,12.1,44.2,17.9-35.9,14.6-71.2,30.9-107.8,43.2-20.5,7-43.1,7.5-64.8,10.9-9.4-5.6-18.3-13-28.4-16.4-19.2-6.3-39.3-9.4-58.5-15.6-4.6-1.5-6.9-9.8-10.3-15,19,6.1,37.8,12.8,57.2,17.3,2.2.5,8.4-11.6,10.9-18.5s2.1-13.9,3.1-20.9l9.8,8.1,2.1-3.3-12.2-4.5c-26.1-19.2-59.9-9-71,21.4-18.7-26.4-37-53-56.2-78.9-9.4-12.7-20.4-24.2-30.7-36.2,9.9,3.7,19.5,9.2,29.6,10.5,11.9,1.5,24.2-.5,36.3-1.1-2.2-8.1-6.5-16.3-6.1-24.3,1.1-22.9-13.4-20.8-27.4-17.8C1999.5,1724.2,1979.8,1727,1984.3,1753.1Zm251.6-29.9,23.7-18.5c-14-11.9,8.4-46.5-26.8-44.6-21.3,1.1-47.5,4.9-49,30.3S2208.9,1717.6,2235.9,1723.2Z" transform="translate(1.2 0.8)"/><path class="cls-5" d="M2312.9,635.4c61.6,10.1,114.9,38.8,155.6,84.3,56,62.7,70.3,144.5,20.8,230.7a18.1,18.1,0,0,0-2-3.3,2.5,2.5,0,0,0-1.6.7c-15.9,23.7-30.5,48.3-47.8,70.8-27.4,35.6-55.3,71-85.6,104.1-17.8,19.5-42.8,18.3-64.5,4.9s-18.5-33.3-12.2-53.6c10.1-32.5,29.9-60.4,27.8-98.9-2.8-51.2-2.1-55.6-51-46.9-3.3.6-7.5,2.4-9.8,1.1-14.3-8.7-33.7-15.3-40.4-28.3-4.7-9.1,4.2-32.7,14.2-39.9,13.5-9.8,34.1-14,51.2-13.2,22.1,1.1,29.6-5.7,28-26.5-1.3-17.1-1-34.4-2.6-51.5s-3.2-33-6.8-49-10.7-28.7-13.2-43.5C2268.7,653.1,2287.5,634.5,2312.9,635.4Z" transform="translate(1.2 0.8)"/><path class="cls-3" d="M5054.7,3667c-.5,40.2-.9,80.5-1.8,120.8-.1,5.2-1.2,13.3-4.6,15.2-25.1,14.7-21.9,37.9-21.8,61.6,0,10.5-7.8,21.1-12.2,31.5s-13.1,22.1-14.1,33.5c-3.3,39.4,18.4,68.4,41.4,98,25.8,33.4,51.4,68.5,68.3,106.7,6.4,14.6-9.5,41.1-19.9,59.5-2.2,4-25-2.1-37.6-5.9-17.5-5.2-34.5-17.6-51.7-17.6-14.9,0-35.5,9.1-43.7,20.9-25.1,36.1-43,38.3-85.2,22.8-11.8-4.4-23.5-9.4-35.7-12.1-52.5-11.3-66.8,2-59.1,53.6l-95.5-61.9c1.4-16.4,4-32.9,3.8-49.3-.1-9.6-4.7-19.1-7.3-28.6,16.7,2.7,33.3,6.6,50.1,7.7,6.3.4,16.6-4.5,18.6-9.5s.3-16.8-3.9-22.5c-5.7-7.6-15.3-12.3-23.2-18.2,13.3,1.6,26.5,3.4,39.9,4.8,18.8,2,38.7,8,56.3,4,11.3-2.5,19.4-19.8,28.9-30.5,10.2,12.1,18.7,26.9,31.4,35.5,9,6.2,23.7,4,35.9,5.5-.9-8-1.9-15.9-2.6-23.8-.1-.9,1.5-2,3.5-4.5l20.4,11.2c-1.2-11.2-5.2-23.7-12-25.4-22.2-5.4-45.5-6.9-68.3-9.9,13-4.2,25.9-10.8,39.1-11.8,17.3-1.3,24-8,18.3-23.8-11.6-32.3,5.9-55.6,21.5-80.9,25.1-40.9,51.6-81.7,71-125.4,27.6-62,14.5-117.9-39.4-162Z" transform="translate(1.2 0.8)"/><path class="cls-3" d="M2312.9,635.4c-25.4-.9-44.2,17.7-39.9,42,2.5,14.8,10,28.7,13.2,43.5s5.4,32.5,6.8,49,1.3,34.4,2.6,51.5c1.6,20.8-5.9,27.6-28,26.5-17.1-.8-37.7,3.4-51.2,13.2-10,7.2-18.9,30.8-14.2,39.9,6.7,13,26.1,19.6,40.4,28.3,2.3,1.3,6.5-.5,9.8-1.1,48.9-8.7,48.2-4.3,51,46.9,2.1,38.5-17.7,66.4-27.8,98.9-6.3,20.3-8.5,40.9,12.2,53.6s46.7,14.6,64.5-4.9c30.3-33.1,58.2-68.5,85.6-104.1,17.3-22.5,31.9-47.1,47.8-70.8a2.5,2.5,0,0,1,1.6-.7,18.1,18.1,0,0,1,2,3.3c-11.1,70.7-45.6,128-100.9,171.9-41.8,33.3-83.9,68.2-143.3,61.8-10.7-14.4-18.4-35-32.7-41.9-40-19.3-82.2-35.2-101.7-78.2-7.5-16.5-11.1-40.4-4.8-56.5,24.8-63.4,55.7-124.4,81.5-187.5,19.9-48.7,12-99.1.1-148.8-5.8-23.7-13-47.4-15.7-71.5-3-27.4-21.5-32.3-42.4-36.4l29.5-11.5c23,6.7,46.6,11.9,68.8,20.5,20.1,7.9,40,17.8,57.7,30.2C2296.7,610.4,2303.8,624.2,2312.9,635.4Z" transform="translate(1.2 0.8)"/><path class="cls-5" d="M2341.2,1861.6c-14.9-5.8-31.1-9.3-44.2-17.9-10.9-7.1-26-21-24.9-30.2,1.4-11.3,16-26.4,27.8-29.7,16.8-4.7,36.3,1,54.5-.1,15.7-.9,37.7.3,45.2-8.9,12.2-15.3,19.8-37.3,3.3-58.6-17.9-23.2-34-47.9-52.5-74.3-17.2,25.8-32.1,13.1-41.2,1.7-12.2-15.2-21.4-33.2-4.5-53.6,8.1-9.8,11.7-23.5,16.3-35.8s4.6-24.1,10.5-33.9c28.9-47.7,17.6-98.9,16-149.6-.4-14.5,7-29.3,10.9-43.9,43.9,51,77.9,109.5,92.7,173.9,15.7,67.8,26.6,139.2,23.1,208.1C2470.1,1787.5,2412.3,1833.7,2341.2,1861.6Zm9-37.3,9-4.2-9.8-18.1-7.2,3.6C2344.8,1811.8,2347.5,1818.1,2350.2,1824.3ZM2339.1,1630l-1.1.9,1.2.6Z" transform="translate(1.2 0.8)"/><path class="cls-3" d="M3223,1195.9c-22.7,2.6-45.3,6.4-68.1,7.4-19.1.8-39.2-1.7-45.8,21.6s9.5,34.2,26.6,43.3c45.2,24.3,50.7,35.9,28,81.3-14.2,28.3-6.1,49.8,11.5,71,7.6,9.1,16.9,16.8,25,25.6,21.2,23,17.8,45.1-9,59.4-54.3,29-65.1,103.2-23.3,151.2,11.3,13,18.4,29.7,27.4,44.7,1.2,24.4-8.3,38.7-34.8,39.7-12.4.5-24.7,6.5-37.1,6.7-47.7,1.1-95.4.3-138.3-25.4-7.6-8.6-15.2-17.1-22.9-25.6,28.8.9,45.8-13.7,58.2-39.1,9.2-18.8,25.4-34,36-52.3,23.9-41,56.9-80.4,66.7-124.8,14.7-67-8.8-133.2-34.4-196.9-12.3-30.7-16.6-64.5-24.6-97q-7.3-25.4,18.2-32.5c29.2,33.6,68.2,13.8,102.6,18.1C3202.1,1174.5,3220.7,1171.2,3223,1195.9Z" transform="translate(1.2 0.8)"/><path class="cls-3" d="M3670.4,1530.9c-27.8,14-54,26.5-87.7,29.5-29.4,2.6-58.8,15.4-90.7,17.4-22.4,1.5-20.6,24.5-8.1,38.5a97.2,97.2,0,0,0,39,26.2c42.9,15.1,64,46.4,74,88.5,2.7,11.9,7.3,25,15.1,33.8,40,44.5,45.2,94.3,28.8,149.6-3.8,13.2-1.4,28.3-1,42.5.5,17.9,2.6,35.7,2.7,53.5.3,47.9,4,51.4,49.8,61.8,15.4,3.5,29.1,13.9,43.6,21.1l-31.9,23.3c-45,5.5-90,14-135,15.1-25.2.7-38.8-25.2-30-50,13.8-38.7,34.6-75.4,44.4-115,7.7-31,4.7-65.1,4-97.8-1.8-90.9-52.1-156.8-115.4-214.6-57.4-52.4-20.7-105.1,35.7-115.2,20.2-3.6,40.4-8.1,60.3-13.4,5.5-1.5,9.8-7.3,14.6-11.2Z" transform="translate(1.2 0.8)"/><path class="cls-5" d="M4181.7,3087.5c-12.3-17.8-21.7-38.9-37.3-52.8-63-56.2-78.6-127.1-77.1-207.9.9-46.2-11.3-92.6-17.4-139-.7-5.8-.1-11.8-.1-17.7,113.4,41.4,183.2,175,176.9,276.1-1.8,30.1-.8,61.2-8.6,89.8C4212.8,3055.1,4194.3,3070.5,4181.7,3087.5Z" transform="translate(1.2 0.8)"/><path class="cls-3" d="M1235.7,951.4c1.1-3,1.3-7.4,3.5-8.8,74.8-48.3,90-127.9,109.6-205.7,16.1-63.8,5.3-123.7-27.4-178.4-16.1-26.9-41.9-48.1-63.5-71.7-3.4-3.8-7.4-6.9-11.1-10.3,12.7,2.6,25.6,4.7,38.2,7.9,19.5,4.9,38.9,10.6,58.3,15.9,20.6,20.9,41.7,41.3,61.3,63,4.7,5.2,4.5,14.8,6.6,22.4-4,11.6-11,23.1-11.3,34.8-1.4,53.8-.1,107.7-1.4,161.5-1.1,46.7,21.9,95.6,52.8,107.2,5.8,14.1,14.2,27.8,16.1,42.4.6,4.7-15.5,13.6-25.3,16.9-11.5,3.8-24.4,3.3-36.6,5.2-23.8,3.7-47.7,11.6-71.3,10.8C1301.2,963.5,1268.5,956.1,1235.7,951.4Z" transform="translate(1.2 0.8)"/><path class="cls-5" d="M4407,4475.3c-13.8-23.9-25-50-42.4-71-13.8-16.7-36-26.4-52.9-40.9-15-13-35.3-26.3-40.1-43.1-7.4-25.9,15.1-36.3,38.4-39.3,29-3.7,58.5,13.4,64,36.3,2.5,10.3,4.3,21,8.7,30.4,2.2,4.9,10.5,11.6,14.1,10.6,33.5-9.5,72.9-6.9,89.4-50.3,7.6-20,25.3-36.2,51.4-33.9-15,58.4-30.5,116.7-44.6,175.3-4.9,20.5-15.8,28.6-36.4,27C4440.1,4475.2,4423.6,4475.6,4407,4475.3Zm-49.9-166.4-5.5.6c.5,4.1.9,8.2,1.7,12.3,0,.3,2.3.2,5.7.5C4358.3,4317.5,4357.7,4313.2,4357.1,4308.9Z" transform="translate(1.2 0.8)"/><path class="cls-5" d="M1451.3,889.2c-30.9-11.6-53.9-60.5-52.8-107.2,1.3-53.8,0-107.7,1.4-161.5.3-11.7,7.3-23.2,11.3-34.8,24.6-19.3,39.3-2.9,51.5,15.7,22.1,33.2,33.9,69.5,31.6,110.4-2,36-.4,72.2-2.8,108.2-1.2,19.1-2.2,40.3-27.5,48.1C1458.2,869.9,1455.4,881.9,1451.3,889.2Z" transform="translate(1.2 0.8)"/><path class="cls-3" d="M4451,3760.6c11.6-28.2,23.1-56.3,34.6-84.5,4.4,4.3,11.7,7.9,12.8,12.9C4502.6,3708.6,4471.7,3754,4451,3760.6Z" transform="translate(1.2 0.8)"/><path class="cls-3" d="M4161.5,4026.7l-10.2,2.3Z" transform="translate(1.2 0.8)"/><path class="cls-3" d="M4423.3,3792.5l10.1-14.1Z" transform="translate(1.2 0.8)"/><path class="cls-3" d="M3858.1,3349.2l-3.9,3.8Z" transform="translate(1.2 0.8)"/><path class="cls-3" d="M3869.1,3336l-4.1,5.1Z" transform="translate(1.2 0.8)"/><path class="cls-4" d="M1423.6,2145.9c-47.6-60.4-31.2-123.9-6.8-186.5s49.4-124.5,77.4-185.3c8.7-18.7,25.6-36.3,43.1-47.9,38.5-25.5,36.9-63.9,42.1-102.2,7.7-55.7,13.9-112.4,29.5-166.2,20.4-70,72.1-94.5,143.4-77.4,9.6,2.3,19.5,3.8,29.2,5.7,11.3,11,20.8,25.7,34.3,32.1,20,9.7,27.7,17.8,9.8,35.8-30.7,30.6-44.6,68-46.9,110.9-1.8,31.8-2.5,64.3-9.4,95.1-11.3,50.7,3.9,89.3,41.7,122.6,8.2,7.2,17.4,23.9,14.3,31.1-5.3,12.1-18.8,25.9-31,28.5-42.7,9.1-86.5,13.2-129.6,20.3-11.2,1.8-25.2,4.5-32.1,12.1-45,49.8-31.7,101.6,29.6,129.5,17.4,7.9,39.9,20.4,45.1,35.9,15.7,46.3,46.7,77.9,82.9,107,17.4,14,23.2,34.3,10.7,51.4-14.7,20.3-33.3,46.6-54.6,51.4-46.1,10.5-94,7.3-139.1-16.1C1547,2202.5,1484.9,2175,1423.6,2145.9Z" transform="translate(1.2 0.8)"/><path class="cls-4" d="M2446.5,2852.2c-2-3.2-4-6.5-6.1-9.7l-26.1-107.1c5.8-14.1,10.9-28.4,17.3-42.1,25.6-55,47-112.6,79-163.7,19.8-31.6,55.8-53.1,84.6-79.1,89.1-24.3,168.6,2.1,221,73.4,1,27,4.8,54.2,2.6,80.9-5.8,70.6-40.5,131.2-71.2,193.1-8.7,17.7-16.8,36.6-20.3,55.8-7.5,40,12.9,67.9,68.9,88.7,39.7,14.7,61.9,43.7,80.9,77.8l.3.3-8.4,7.2c-36.1-10.4-73.9-17-108-31.9C2655.4,2949.6,2551.2,2900.3,2446.5,2852.2Zm271.6-220.6c9.8-18.2,17-28.6,20.4-40.1,1-3.1-9.3-9.6-14.5-14.5-7.7,8.5-17.6,16.1-22.1,26C2700,2607.4,2709.3,2616.7,2718.1,2631.6Zm-92.3,174c7-12,12-18.3,14.3-25.5.8-2.6-5.1-7.3-8-11-5.3,5.7-11.8,10.8-15.4,17.4C2615.3,2789.1,2620.6,2795.2,2625.8,2805.6Z" transform="translate(1.2 0.8)"/><path class="cls-4" d="M2336.8,2774.3c-29.1-1.8-58.4-1.6-87.1-5.8-84.8-12.3-139-61.1-176.1-138.3-44.2-92.1-38-182.4-1.5-271.7,24.4-59.7,68.3-103,138.6-108.2,8.4,5.1,16.7,10.4,25.3,15.3,31.6,18.2,64.9,33.9,94.6,54.7,41.2,29,76,63.5,83,118.4,13,101.3,2.1,199.7-29.6,296.4-1.3,3.9,1.2,9.1,1.9,13.7Z" transform="translate(1.2 0.8)"/><path class="cls-4" d="M3064.1,1186.7c8,32.5,12.3,66.3,24.6,97,25.6,63.7,49.1,129.9,34.4,196.9-9.8,44.4-42.8,83.8-66.7,124.8-10.6,18.3-26.8,33.5-36,52.3-12.4,25.4-29.4,40-58.2,39.1-52-15.5-85.5-52.9-109.3-98.5-49.2-94.6-67.9-192.7-13.8-291.6,33.7-61.5,81.6-111.6,152.5-128.8C3013.8,1172.6,3039.8,1183.3,3064.1,1186.7Z" transform="translate(1.2 0.8)"/><path class="cls-3" d="M1423.6,2145.9c61.3,29.1,123.4,56.6,183.6,87.8,45.1,23.4,93,26.6,139.1,16.1,21.3-4.8,39.9-31.1,54.6-51.4,12.5-17.1,6.7-37.4-10.7-51.4-36.2-29.1-67.2-60.7-82.9-107-5.2-15.5-27.7-28-45.1-35.9-61.3-27.9-74.6-79.7-29.6-129.5,6.9-7.6,20.9-10.3,32.1-12.1,43.1-7.1,86.9-11.2,129.6-20.3,12.2-2.6,25.7-16.4,31-28.5,3.1-7.2-6.1-23.9-14.3-31.1-37.8-33.3-53-71.9-41.7-122.6,6.9-30.8,7.6-63.3,9.4-95.1,2.3-42.9,16.2-80.3,46.9-110.9,17.9-18,10.2-26.1-9.8-35.8-13.5-6.4-23-21.1-34.3-32.1,29.7,4.9,59.3,10.3,89.1,14.3,8.6,1.2,17.8-1.5,26.6-2.4-62.6,123.7-29.9,243.6,18.4,360.6,16.6,40.2,48.2,74.2,73,111-21.9,1.6-44,1.7-65.4,5.7-7.9,1.5-14.4,12.1-20.8,19.2-8.8,9.8-16.7,20.5-25.5,30.4-4.3,4.8-14.5,11.4-13.8,12.7,20.2,36.5,8.7,64.5-21.7,88.4-1.8,1.3-2,4.8-2.6,7.4-8.7,33.4-15.4,65.9-6.2,101.5,7.5,29.4,11.7,60.8-10.8,89.3-41,52.1-96.7,52.6-152.1,40.5-39.8-8.7-77.5-28.4-115.2-45.3-43.2-19.3-85.4-40.9-128-61.5C1425.5,2153.9,1424.6,2149.9,1423.6,2145.9Zm401.7-468.3c-13.8,17.6-29,28.8-27.7,37.5s17.7,25.3,27.1,25,22.5-16,25.5-27.1C1852,1706,1838.1,1694.8,1825.3,1677.6Zm41.2-155.5c-13.7-10.4-23.1-21.9-28.1-20.3-8.9,2.9-20,13.2-21.2,21.6-.8,6.6,11.9,20.8,18.9,21S1852.4,1533.1,1866.5,1522.1Z" transform="translate(1.2 0.8)"/><path class="cls-3" d="M2570.1,2453.7l25.1-3.2c-28.8,26-64.8,47.5-84.6,79.1-32,51.1-53.4,108.7-79,163.7-6.4,13.7-11.5,28-17.3,42.1l-28.4,13.4c-.7-4.6-3.2-9.8-1.9-13.7,31.7-96.7,42.6-195.1,29.6-296.4-7-54.9-41.8-89.4-83-118.4-29.7-20.8-63-36.5-94.6-54.7-8.6-4.9-16.9-10.2-25.3-15.3-.2-1.7-.3-3.3-.4-4.9,43.1.2,86.3,1.2,129.4.1,10.5-.2,20.7-7.2,31.1-11l7.9.2c5.5,3.5,14,5.6,16.3,10.5,22.4,49,71.2,53.4,113.2,70.8,20.1,8.4,36.3,26.3,54.3,39.8q-36.3,73.6-72.7,147.2l9.8,6.2,42.8-35.7,8.1-6.6,7.3-5.5,9-5.8A13.5,13.5,0,0,1,2570.1,2453.7Z" transform="translate(1.2 0.8)"/><path class="cls-6" d="M1910.4,707.4c-2.4-3.3-5.2-5.8-4.7-6.8s3.6-4.6,6-6.1c.4-.3,4.7,3.3,4.4,4.3C1915.4,701.4,1913.1,703.6,1910.4,707.4Z" transform="translate(1.2 0.8)"/><path class="cls-6" d="M3616.5,2869.6c-.9,5.3-1.7,10.6-2.5,16C3614.8,2880.2,3615.6,2874.9,3616.5,2869.6Z" transform="translate(1.2 0.8)"/><path class="cls-6" d="M2422.6,1359c.9-2.9,1.8-5.8,0,.1h0Z" transform="translate(1.2 0.8)"/><path class="cls-6" d="M2266.6,2786.4l-3.3.3c-.2,0-.3-1.1-.4-1.7a18.7,18.7,0,0,1,3.2-.4C2266.3,2784.6,2266.4,2785.7,2266.6,2786.4Z" transform="translate(1.2 0.8)"/><path class="cls-6" d="M2090.5,1914.1l10.6,4.1Z" transform="translate(1.2 0.8)"/><path class="cls-6" d="M3454.7,2135.5l8.9,3.8Z" transform="translate(1.2 0.8)"/><path class="cls-5" d="M4416.8,4214.7c-35.2-.7-60.5-22-61-47.7-.3-18.9,22.2-37.2,44.9-36.4,32.2,1.2,55.2,23.8,54,54.1C4453.5,4212.3,4434.2,4215.5,4416.8,4214.7Z" transform="translate(1.2 0.8)"/><path class="cls-5" d="M4180,4058.2l1.6-.6c26.7-2.1,51.8-1,61.6,30.7,1.9,6.1,6.8,15.7,4.7,17.8-9.4,9-22.4,23.7-31.2,21.9-20.3-4-39.7-15.2-57.4-26.7-2.4-1.6,6.9-21.9,11.6-33.2C4172.6,4064.2,4176.9,4061.5,4180,4058.2Z" transform="translate(1.2 0.8)"/><path class="cls-5" d="M4082,4266l-2.2-2.1-4.9-5.6c-2.1-5.7-4.1-11.3-6.2-16.9.4-3,.7-6,1-8.9s.5-2.9.8-4.3c7.9-2.9,15.7-6.5,23.8-8.7,11.5-3,23.6-8,34.8-6.8,21.8,2.3,32.2,19.9,28.7,38.8-1.8,9.8-17.5,22.6-28.1,23.8C4114.4,4277.1,4098,4269.6,4082,4266Z" transform="translate(1.2 0.8)"/><path class="cls-3" d="M4069.7,4232.5c-.3,2.9-.6,5.9-1,8.9-1.6-1.8-3.3-3.5-5-5.2Z" transform="translate(1.2 0.8)"/><path class="cls-3" d="M4074.9,4258.3l4.9,5.6Z" transform="translate(1.2 0.8)"/><path class="cls-5" d="M4127.6,3387.9c-18.5,3.4-36.9,8.4-55.4,9.2-5.4.2-17.3-15.5-16-17.6,8.5-13.9,17.2-31.4,30.6-37.8,38.8-18.3,19,31.3,40.4,35.3Z" transform="translate(1.2 0.8)"/><path class="cls-3" d="M3925.6,2703.6c-5.2,28.8-14,49-40.3,47.5-9-.5-23-13.9-24.5-23.1-3.6-21.8,23.3-46.1,45.4-42.1C3914.3,2687.4,3920.6,2698.8,3925.6,2703.6Zm-6.7,17.2c-12.8-7.4-21-14.9-23.7-13.2-7.9,4.7-13.7,13.1-20.3,20.1,5.3,4.5,11.8,13.7,15.5,12.6C3898.6,2738,3905.4,2730.6,3918.9,2720.8Z" transform="translate(1.2 0.8)"/><path class="cls-3" d="M3889.2,2936.7c-12-17.8-24.5-30.6-22.3-34.1,6.9-11,18.4-20.5,30.2-25.8,3.6-1.6,21.5,15,20.1,19C3913.2,2907.9,3902.9,2917.9,3889.2,2936.7Z" transform="translate(1.2 0.8)"/><path class="cls-6" d="M3720.7,2818.6c-12.5-16.4-27.4-29.4-25.1-34.3,5.3-11.3,17.8-22.3,29.7-26.2,5.2-1.8,24,15.5,22.9,21.7C3746.2,2791.3,3734.1,2801,3720.7,2818.6Z" transform="translate(1.2 0.8)"/><path class="cls-3" d="M3749.8,2952.4c-14.3,10.1-22.5,18.8-32.3,21.3-4.5,1.2-12.2-9.8-18.5-15.3,8.3-8.1,15.7-17.9,25.4-23.2C3727.6,2933.5,3737.2,2943.5,3749.8,2952.4Z" transform="translate(1.2 0.8)"/><path class="cls-3" d="M2102.3,1478l15.3-25.9,10.3,6.6c-8.6,13.1-14.6,29.5-26.4,38.5-17.6,13.6-40.2,21.6-59.7,1.8-17.8-18.2-9.8-39,4-53.7,9.8-10.3,27-13.7,40.8-20.1l10.2,34Zm-30.5,28.7c7.6-9.3,16.4-15.6,18.4-23.6,2.6-10.1.4-21.7-1.1-32.5-.7-4.7-6.9-12.8-7.4-12.6-11.6,5.3-25.3,9.3-33.1,18.3-6.2,7-8.9,21.8-5.8,30.5S2058.5,1498.1,2071.8,1506.7Z" transform="translate(1.2 0.8)"/><path class="cls-5" d="M2071.3,1868.3c11.1-30.4,44.9-40.6,71-21.4l.2-.3c-.9,7-.7,14.4-3,20.9s-8.7,19-10.9,18.5c-19.4-4.5-38.2-11.2-57.2-17.3Z" transform="translate(1.2 0.8)"/><path class="cls-5" d="M4853,4040.1c22.8,3,46.1,4.5,68.3,9.9,6.8,1.7,10.8,14.2,12,25.4l-20.4-11.2c-2,2.5-3.6,3.6-3.5,4.5.7,7.9,1.7,15.8,2.6,23.8-12.2-1.5-26.9.7-35.9-5.5-12.7-8.6-21.2-23.4-31.4-35.5Z" transform="translate(1.2 0.8)"/><path class="cls-5" d="M4719.6,4073.2c7.9,5.9,17.5,10.6,23.2,18.2,4.2,5.7,6.3,16.3,3.9,22.5s-12.3,9.9-18.6,9.5c-16.8-1.1-33.4-5-50.1-7.7h0l-3.4-3.6-5.4-8.9c-1.4-30.5,21.1-29.9,41.5-32.1Z" transform="translate(1.2 0.8)"/><path class="cls-3" d="M4647.5,3952.1c-20.8-16.5-7.2-30.1,4.4-42.5,13.9-14.9,29.2-29.3,44.4,1.5l10.4-14.6,8.3,3.4c-6.3,15.2-9.2,33.9-20.1,44.4-8.9,8.5-27.3,7.2-41.5,10.2,8.2-2.4,18.8-2.4,23.9-7.7s7.7-17.4,11.3-26.4c-8.5.7-19.9-1.6-24.8,2.9C4656,3930.4,4652.7,3942.3,4647.5,3952.1Z" transform="translate(1.2 0.8)"/><path class="cls-6" d="M4896.5,3764.2c-12.8-17.2-27.4-31.5-25.3-34.7,11.2-16.7,26.6-30.7,40.5-45.6,10.6,12,32.3,29.2,29.6,35C4933.9,3734.7,4916.2,3745.6,4896.5,3764.2Zm1.5-9.3c13.4-14.2,24.1-23.9,31.8-35.5,1.4-2.1-9.2-12.2-14.3-18.7-11.1,11.1-22.4,21.9-32.5,33.7C4882.1,3735.5,4889.7,3743.7,4898,3754.9Z" transform="translate(1.2 0.8)"/><path class="cls-5" d="M4647.5,3952.1c5.2-9.8,8.5-21.7,16.3-28.8,4.9-4.5,16.3-2.2,24.8-2.9-3.6,9-5.1,19.9-11.3,26.4s-15.7,5.3-23.9,7.7Z" transform="translate(1.2 0.8)"/><path class="cls-3" d="M4710.7,4071.1c-20.4,2.2-42.9,1.6-41.5,32.1-.9-8.9-3.7-25.1-2.4-25.4C4681.1,4074.2,4696,4073,4710.7,4071.1Z" transform="translate(1.2 0.8)"/><path class="cls-3" d="M4674.6,4112.1l3.4,3.6Z" transform="translate(1.2 0.8)"/><path class="cls-5" d="M3479.2,1835c4.2-4.1,11.7-17.2,22.3-20.5,14.9-4.7,37.2,25.7,34,48.3-1.4,9.7-11.9,23.5-20.7,25.7C3497.2,1892.8,3478.8,1867.6,3479.2,1835Z" transform="translate(1.2 0.8)"/><path class="cls-6" d="M3334.9,1884.6c-6.8,6.4-16.2,22.3-25.3,22.1-28.7-.4-34.1-25.2-32-47.1,1.1-11.7,15.3-32.1,22.6-31.7C3328.4,1829.6,3328,1855.7,3334.9,1884.6Zm-59-21.5c13.8,11.4,23.3,20.4,34.3,27,2,1.2,15.2-10.3,14.6-11.4-7.7-14.4-16.9-27.9-25.7-41.7Z" transform="translate(1.2 0.8)"/><path class="cls-6" d="M3420.1,1834.4c1,.8,2.4,1.3,3.2,2.3,13.3,18,20.3,37.8,3.1,55.8-4.9,5.2-22.6,5.2-29.3.4-19.7-14-25.9-35.2-17.3-58.4,6-16,19.4-17.8,30.9-5.8-8.1,3.1-21.8,4.6-23.2,9.4-2.8,10.4.6,22.5,2.4,33.8.1.7,11.5,1.9,12.5,0C3409.1,1859.8,3414.3,1847,3420.1,1834.4Z" transform="translate(1.2 0.8)"/><path class="cls-5" d="M3420.1,1834.4c-5.8,12.6-11,25.4-17.7,37.5-1,1.9-12.4.7-12.5,0-1.8-11.3-5.2-23.4-2.4-33.8,1.4-4.8,15.1-6.3,23.2-9.4Z" transform="translate(1.2 0.8)"/><path class="cls-5" d="M2235.9,1723.2c-27-5.6-53.7-6-52.1-32.8s27.7-29.2,49-30.3c35.2-1.9,12.8,32.7,26.8,44.6Z" transform="translate(1.2 0.8)"/><path class="cls-5" d="M1984.3,1753.1c-4.5-26.1,15.2-28.9,32.5-32.6,14-3,28.5-5.1,27.4,17.8-.4,8,3.9,16.2,6.1,24.3-12.1.6-24.4,2.6-36.3,1.1-10.1-1.3-19.7-6.8-29.6-10.5Z" transform="translate(1.2 0.8)"/><path class="cls-5" d="M2142.3,1846.9l12.2,4.5-2.1,3.3-9.8-8.1C2142.5,1846.6,2142.3,1846.9,2142.3,1846.9Z" transform="translate(1.2 0.8)"/><path class="cls-3" d="M2350.2,1824.3c-2.7-6.2-5.4-12.5-8-18.7l7.2-3.6,9.8,18.1Z" transform="translate(1.2 0.8)"/><polygon class="cls-3" points="2340.4 1630.8 2340.5 1632.2 2339.2 1631.6 2340.4 1630.8"/><path class="cls-6" d="M4357.1,4308.9c.6,4.3,1.2,8.6,1.9,13.4-3.4-.3-5.7-.2-5.7-.5-.8-4.1-1.2-8.2-1.7-12.3Z" transform="translate(1.2 0.8)"/><path class="cls-3" d="M2816.2,2523.9c27.1,7.5,54.7,13.7,81,23.4,6.5,2.4,8.9,16,13.2,24.5-13.9,17.9-28.9,35.1-41.3,54-10.5,16.1-22.5,33.6-25.4,51.8s5.6,36.1,9.2,54.3c7.2,36.9-17.2,69.4-50.9,80.3-16.7,5.3-30.5,24.1-41.6,39.7-3.4,4.7,6.8,27.4,10,27.2,16.4-.9,35.1-2.7,48.4-11.3,34.9-22.3,53.1-16,56.3,29,3.1,42.8,23.6,64.1,63.9,70.1,4.4,39.8-14.2,55.9-61.9,53.4-19-34.2-41.2-63.2-80.9-77.9-56-20.8-76.4-48.7-68.9-88.7,3.5-19.2,11.6-38.1,20.3-55.8,30.7-61.9,65.4-122.5,71.2-193.1C2821,2578.1,2817.2,2550.9,2816.2,2523.9Z" transform="translate(1.2 0.8)"/><path class="cls-6" d="M2718.1,2631.6c-8.8-14.9-18.1-24.2-16.2-28.6,4.5-9.9,14.4-17.5,22.1-26,5.2,4.9,15.5,11.4,14.5,14.5C2735.1,2603,2727.9,2613.4,2718.1,2631.6Z" transform="translate(1.2 0.8)"/><path class="cls-6" d="M2625.8,2805.6c-5.2-10.4-10.5-16.5-9.1-19.1,3.6-6.6,10.1-11.7,15.4-17.4,2.9,3.7,8.8,8.4,8,11C2637.8,2787.3,2632.8,2793.6,2625.8,2805.6Z" transform="translate(1.2 0.8)"/><path class="cls-3" d="M2877.4,3020.5l-8.4,7.2Z" transform="translate(1.2 0.8)"/><path class="cls-5" d="M1825.3,1677.6c12.8,17.2,26.7,28.4,24.9,35.4-3,11.1-16.2,26.8-25.5,27.1s-25.7-14.9-27.1-25S1811.5,1695.2,1825.3,1677.6Z" transform="translate(1.2 0.8)"/><path class="cls-5" d="M1866.5,1522.1c-14.1,11-22.4,22.5-30.4,22.3s-19.7-14.4-18.9-21c1.2-8.4,12.3-18.7,21.2-21.6C1843.4,1500.2,1852.8,1511.7,1866.5,1522.1Z" transform="translate(1.2 0.8)"/><path class="cls-5" d="M2939,2966.9c-40.3-6-60.8-27.3-63.9-70.1-3.2-45-21.4-51.3-56.3-29-13.3,8.6-32,10.4-48.4,11.3-3.2.2-13.4-22.5-10-27.2,11.1-15.6,24.9-34.4,41.6-39.7,33.7-10.9,58.1-43.4,50.9-80.3-3.6-18.2-11.9-37.1-9.2-54.3s14.9-35.7,25.4-51.8c12.4-18.9,27.4-36.1,41.3-54,36.1,19.8,73.3,37.8,107.9,59.9,40,25.4,57.6,94.5,37.1,139.9-22.4,49.4-45,98.7-71,146.2C2974,2936.8,2954.4,2950.7,2939,2966.9Z" transform="translate(1.2 0.8)"/><path class="cls-5" d="M2557.8,2461.4l-7.3,5.5-8.1,6.6-42.8,35.7-9.8-6.2q36.3-73.5,72.7-147.2c13.6,9.3,26.8,19.2,40.8,27.6,22.7,13.6,25.6,28.6,5.4,46.6l-.5.2-38.1,23.5a13.5,13.5,0,0,0-3.3,1.9Z" transform="translate(1.2 0.8)"/><path class="cls-3" d="M2608.2,2430.2l.5-.2,1.9,3Z" transform="translate(1.2 0.8)"/><path class="cls-6" d="M2557.8,2461.4l9-5.8Z" transform="translate(1.2 0.8)"/><path class="cls-6" d="M2542.4,2473.5l8.1-6.6Z" transform="translate(1.2 0.8)"/><path class="cls-6" d="M3918.9,2720.8c-13.5,9.8-20.3,17.2-28.5,19.5-3.7,1.1-10.2-8.1-15.5-12.6,6.6-7,12.4-15.4,20.3-20.1C3897.9,2705.9,3906.1,2713.4,3918.9,2720.8Z" transform="translate(1.2 0.8)"/><path class="cls-5" d="M2071.8,1506.7c-13.3-8.6-26.4-12.4-29-19.9s-.4-23.5,5.8-30.5c7.8-9,21.5-13,33.1-18.3.5-.2,6.7,7.9,7.4,12.6,1.5,10.8,3.7,22.4,1.1,32.5C2088.2,1491.1,2079.4,1497.4,2071.8,1506.7Z" transform="translate(1.2 0.8)"/><path class="cls-5" d="M4898,3754.9c-8.3-11.2-15.9-19.4-15-20.5,10.1-11.8,21.4-22.6,32.5-33.7,5.1,6.5,15.7,16.6,14.3,18.7C4922.1,3731,4911.4,3740.7,4898,3754.9Z" transform="translate(1.2 0.8)"/><path class="cls-5" d="M3275.9,1863.1l23.2-26.1c8.8,13.8,18,27.3,25.7,41.7.6,1.1-12.6,12.6-14.6,11.4C3299.2,1883.5,3289.7,1874.5,3275.9,1863.1Z" transform="translate(1.2 0.8)"/></svg>