<svg id="Layer_1" data-name="Layer 1" xmlns="http://www.w3.org/2000/svg" viewBox="0 0 955.6 653.4"><defs><style>.cls-1{fill:#b2ab9d;}.cls-2{fill:#8e7e75;}.cls-3{fill:#815a43;}.cls-4{fill:#654832;}.cls-5{fill:#d1cfc6;}.cls-6{fill:#473329;}.cls-7{fill:#1f2023;}.cls-8{fill:#e8e9e1;}</style></defs><polyline class="cls-1" points="790.7 650.2 955.6 650.1 955.6 0"/><polygon class="cls-2" points="790.7 650.2 505.7 653.4 682.7 0 955.6 0 790.7 650.2"/><polygon class="cls-3" points="505.7 653.4 173.8 653.4 325.3 0 682.7 0 505.7 653.4"/><polygon class="cls-4" points="173.8 653.4 0 653.4 0 0 325.3 0 173.8 653.4"/><path class="cls-4" d="M53.4,473.6c10.5,2.6-1.4,67.8-.2,82.8"/><path class="cls-5" d="M107.2,360.3c13.7-26.5,9.1,75.4,10.3,95,11.3,6.9,20.7-12.3,25.3-5.9l26.8-67.5c-8.2-14,2.9-10.5,8.9-17.7,7.8-13.2,27.3-14.9,6.5-32.2,17.2,7.8,20-2.7,24.2-15.9,17.3-13.3-4.5-28.1-.3-38.7,6.2-16.1.9-23.2-16.9-36,23.9-6.7-23.2-8.1-35.7-3.8-8.6-9,27.6-39.7,40.5-62.9,2.8,13.9,3.7,18.1,5,24.4,17.2-6.5,19.7-18.3-1.3-16.6,6.2-6.9,22.6-15.8,24.5-2.7,8.9,6.7,9.8,3.2-.9,20,13.5,22.6,28.8,47.8,42.7,70.8-13.6-18.4-24.3-3.3-19.1,15.4-12.1-4.1-10.1,25.9-13.3,28-12.3,23.6-23.6,46-18.2,62.8-28.2,23.9-45.1,37.9-63.6,77.1-32.6,16.7-28.2,52-54.5,87.7,5.4,7.8-8.6,27.4-17.2,28.8,9.7-34.5,30.2-81,17.7-104.2-1.3-18.6,8.6,9.3,8.8-5.5C111.8,431.6,114.8,392.6,107.2,360.3Z"/><path class="cls-5" d="M462.4,421.7c-21.7-1.4-37.7-15.7-55.1-15.1-16.6,13.1-45.4,6.2-63.9-4.4,14-14.9-33.4-31.9-48.1-44.3.4,3.3.6,5.1,1.8,15.9l-12.5-26c27.4,8.8,48.1,2.2,27.1-33.2,28.4,3.4,27.3,18.7,34.7,39.6,31.1-4.4,33.3,30.6,46.7-18.7,8.3,19.1,92.1,52.8,55.1,45.8,36.8,33.5,15.2-11.3,5.3-31.8,2.3-20.2,21.7-19.1,8.2,2.3,26.8-2,13.8,18.6,28,29.6,13,5.2,19.8,51.9,31.6,25.6-20.9-22.9,9.5-10.3,25.3-15.4l38.9,51.9c-11-10.7-34,6.6-21.1-7.7-18.7-13.4-30.2-8.3-7.8,5.7C524,445.5,493.7,428.4,462.4,421.7Zm-98.3-56.9c-11.1-6.1-23.1-18.2-19.8,2.1,15.2-.1,22.8,9.9,35.2,23.8C389.1,385.2,371.7,359.4,364.1,364.8Z"/><path class="cls-1" d="M284.6,347.8l12.5,26c-1.2-10.8-1.4-12.6-1.8-15.9,14.7,12.4,62.2,29.5,48.1,44.3,18.4,10.6,47.4,17.5,63.9,4.4,8.4-2.3,14-3.1,15.6,6.1,8.4,2.5,37.2,5.7,20.3,7.1-.7,8.7-16.5-2.9-15.3,0-19.4,19.9-27.2,17.7-50,12.3l-17.3-6.3c6.7,3.5,5.1,2.6,2,1.1,2.2,6.5,4.4,8.9-2.3,11.3-30.5-78-63.4-45.9-83.3-83.4-5-.4-10.3-37-11.8-56.8-10,18.2-5.1,50.7-18.2,23.3-11.2,26.7-23.4,42.3-32,68.2-15.7,6.6-45.1,46.4-66,65.7,4.6,13.1-4.6,20.4-18.1,20,10.9,7.7,7,23-3,33.7-9.2,22.5-5.4,111.2-29,105.5-26.7-8.4,19.7-36.9,2.1-51.9-1.2,7.6-6.1,12.6,1.6,15.8C90,604,51.5,583,85.6,570c3.7-7.9,19.2-19.8,12.5-28.4,13.3-26.5,31.9-45.8,27.7-68.8,31.7-13.4,42-48.2,61.7-78.2,5,12.9,35.9-18.3,22.9-23.6C249.8,291.5,251.3,183.2,284.6,347.8Z"/><path class="cls-2" d="M98.9,614.4c29.5-5.6,14.6-59.6,23.2-87,6.8-11.5,23.8-45.6,8.8-52.2,13.3.4,22.8-6.9,18.1-20,20.9-19.2,50.3-59.2,66-65.7,6.8-11.4,7.7-30.4,18.7-38.4,23.7-64.6,12.4,20.6,31.5-53.2-5.6,20.6,39.2,113.9,10.6,81.3,8.7,10.4,6.4,41.1.7,20.6l-4.7,9.9c2.7-16.2-1.8-34.7-8.6-41.2-3.6-29.3-9-17.4-20-2.6,7.2,19.7,11.7,43.6-3.5,60.4,1.5-11.6-9.1-26.9,5.3-32.5H232c-7,10.7-52.3,34.2-25.3,38-3.9,8.1-4.6,16.4-7.8,3-16.9,5-27,17.7-43.4,25.3-5.2,35.5-36.2,79.9-18.7,119.3-13.5,19-8.9,5.3-12.5-4.9C123,594.9,114.2,649.7,98.9,614.4Z"/><path class="cls-1" d="M715.3,525.6c-13-31.6,36.7,47.7,46,42.3,22.2-15.3-50.6-53.9-12.6-70.7-1.5,6-2,11.6,0,10.7,26.5,38.6,2.9,23.9,34.2,73.8-10.3-9.1-10.1-6.3-13.3-15.2C744.8,585.6,732.4,538.1,715.3,525.6Z"/><path class="cls-1" d="M619.6,465.6c-52.2-15.3-105.6-26.1-157.2-43.9,31.3,6.7,61.6,23.8,94.2,19.8C575.8,433.9,598.2,451.4,619.6,465.6Z"/><path class="cls-2" d="M353.7,435.6c-21.2-18.4-10.7-51.1-37.6-16.4-7.9-27.3,21.8-4.1,2.4-37,27.5,7.1,27.7,54.2,46.9,53.1-.8-2.3-1.5-4.7-2.8-8.4,3.1,1.5,4.7,2.4-2-1.1C395.9,435.2,369.9,445.5,353.7,435.6Z"/><path class="cls-2" d="M811.7,543.1c7,7.5-5.6,22.7-4.3,34.9-7.5-.1-10.5-10-19.1-8.3,7.2-2.7,8.4-10.8,12.9-17.1C805.3,555.4,813.9,553.6,811.7,543.1Z"/><path class="cls-2" d="M237.6,507.3c9.7,3.4,26.8,19.9,21.1,27.5C244,533.3,239.3,518.7,237.6,507.3Z"/><path class="cls-4" d="M436.7,424c6.8-2.7,19.3-10.6,23.5.6C452.1,426.9,418.4,442.2,436.7,424Z"/><path class="cls-2" d="M436.7,424c-6.6,11.6-18.1,11.7-30.2,13.2C412.4,435.6,428.5,410.2,436.7,424Z"/><path class="cls-2" d="M71.8,587.6c28,6.9,26.2.9,29.2-25.1C117.2,576.4,77.2,610.8,71.8,587.6Z"/><path class="cls-2" d="M53.2,556.4c-.3-25.7,8.6-32.9,4-1C84.7,526.3,67.4,561.4,53.2,556.4Z"/><path class="cls-4" d="M71.5,546.2c7-17.9,11.2-7.9,22.4-13.8C92,546.7,82,544.7,71.5,546.2Z"/><path class="cls-4" d="M72,590.2c8.3,8.4,16.3,4.7,12,20.1C79.9,604.6,76,596.6,72,590.2Z"/><path class="cls-6" d="M98.9,614.4c4.8,1.7,7.5,9.2.5,8.7C91.1,618.5,87.8,607.9,98.9,614.4Z"/><path class="cls-4" d="M91.7,611.3c2.1,9.7-4.1,2-7.7-1.1C87.3,608.8,89.7,607.5,91.7,611.3Z"/><path class="cls-4" d="M425.6,434.4c4.2-1.8,2.8-.5,2.2,4.5C426.5,436.2,426.1,435.3,425.6,434.4Z"/><path class="cls-2" d="M71.8,581.3a12.4,12.4,0,0,0-1,2A12.4,12.4,0,0,1,71.8,581.3Z"/><path class="cls-6" d="M926.4,428.3c.4.3.1.3-.2.3Z"/><path class="cls-5" d="M861.3,381.7c79.3,10.1,13.3,12.4,33,24.6-11.8-1.5-9.9-14.3-17.1-4.1,6.6,5.5,24.9,9,16.4,18.2-10.2-12.4-22.5-11-9.5,5-9.7,1-37.2,2.7-34.4-10.9-11.5,4.6-17.2,4.5-21.6-6.2-2.8.7-4.5,1.2.6-.1-24.8-7.9-37.5-19.8-2.9-21.5-16.9-26.2-37.7-23-47.3-45.2C795.7,349.7,868,413.8,861.3,381.7Z"/><path class="cls-1" d="M893.6,420.4c6.4,18-18.8,13.3-25.3,7.3,5.1,21-46-14.6-60.9-21.6-10.7-10.9-8.9-20.1-13.4-43.2-.6-1.2-7.3-7.4,5-4.2,2.5,5.8,39.4,31.7,14.1,28-20,10.7-1.2,13.2,15.6,21.5-5.1,1.3-3.4.8-.6.1,4.4,10.7,10.1,10.8,21.6,6.2-2.8,13.6,24.7,11.9,34.4,10.9-9.5-14.2-7.2-16.4,7.3-9C880.7,414.8,886.5,425.9,893.6,420.4Z"/><path class="cls-7" d="M797.5,269.5c-27.8,44.2-17.3-22.5-29.7,33.6-6.8-24.5,9-64.8,19.8-79.5C792.2,237.8,787.3,262.9,797.5,269.5Z"/><path class="cls-1" d="M896.4,413.4c-16.2-6.8-28.9-22.6-2.1-7.1-16.6-18.9,9.6.5,7-15.8C917.2,403.1,936.3,423.4,896.4,413.4Z"/><path class="cls-4" d="M787.2,221.6c-17.3,41.9-14.9,19.9-8.1-17.6C771.7,179,794.7,208.5,787.2,221.6Z"/><path class="cls-4" d="M797.4,267.6c-8.6,1.1-4.8-19.8-8.1-27Z"/><path class="cls-4" d="M789.2,229.7c-.6-2-1.1-4.1-1.6-6.1C788.1,225.6,788.6,227.7,789.2,229.7Z"/><path class="cls-4" d="M789.5,234.6v0Z"/><path class="cls-7" d="M399.7,138.4c80-9,76.9-16.4,58,58.3-3,15.8-10.2,23.3-12.6,41-1.2,14.4-3.3,25.2-11.4,32.4,10.8,5.2-3.6,14.3-7,23.7C377.4,263.9,327.9,166,399.7,138.4ZM366.9,203Z"/><path class="cls-3" d="M568.6,40.6c10.9,10.9-14.7,21.9,15.3,19.1-10.8,35.7-43.7,28.7-42.7,66.6.6-40.3-33.8-13.4-8.3-32.2M515.3,81.6c-.1-1-.2-2-.2-3m23,2c11,5.2,25.1,11.8,21.3,2.9C580.6,68.2,556.4,75.2,538.1,80.6Z"/><path class="cls-5" d="M261.8,163.6c20.4-17.7,41.4-12.1,61.8-17.6-4,10.2-13.8,6.4,2,20.7,7.1-11.8,17.1-19.3,32.1-14.9-7.1,7.9,1.9,2.8,7.1,7.5-1,3.5-2.9,12.8-5.2,5.2-3.3.9-5.7,1.5.5-.1-26.3-2.1-27.5,14.9-42,4.7,1,5.3,3.3,7.4-.3,9.4,1.6,14.6-1.9,15.2-12.6,7.4-19.2,22.4-26.4-2.9-9.1-17.7-30.8.1-20,13.3-33,19.4C237.1,183.8,222.9,174.2,261.8,163.6Zm12.3-4.6-5,2.8C276,162.2,284.1,157.8,274.1,159Z"/><path class="cls-2" d="M582.5,66.5c5.2-13.5-10.1-1.3-16-10.6,27.7-24.7,87.7-39.5,116.7-10,14.8,12.3,12.5,13.5-7.7,6.7,12.9,8.3,39.5,43.9,10.1,26.9-22.4-23.1-15.5-23.3-4.8-38.8C599.1,28,617.9,33.4,582.5,66.5Z"/><path class="cls-2" d="M521.9,101.9c11-1,18.9,4.1,19.3,24.4,5.8-13.4-1.5-38.1,16-29.2,24.6-31,12.3-10.7.4,11.6-5.9,15.6-27.4,25.8-34,28-6.9-12.1-12.5-.4-20.8-9.1-17.6,22.2-26.1-2.9-33.7,19.1C471,117.4,483.5,152,521.9,101.9Zm16.7,18.6h0C538.1,123.8,538.1,124.4,538.6,120.5Z"/><path class="cls-1" d="M358.8,156.6c-9.5-.3,8.2-9.1-19.6-4.8-8.6,6.7-2.2-24.3,7.7-5.8-11.8-9.2,51.8-7.2,34.8,2.9C373.4,148.7,365.8,147.5,358.8,156.6Z"/><path class="cls-1" d="M238.9,171.8c.1,11.2-17.2,16.2-3.4,2.7-10.1,5.2-10.8,7.1-13.2-2.1C186.5,186.3,246.5,150.2,238.9,171.8Z"/><path class="cls-6" d="M497.9,127.6c-4,4.1-22.8,12.1-19.5,2C486.8,128,512,113.9,497.9,127.6Z"/><path class="cls-2" d="M238.9,171.8c2.2-8.3-.9-8.6-8.4-6.6,13.6-4.5,33.1-14.7,7.8,4.1C268,161.9,260,164.2,238.9,171.8Z"/><path class="cls-1" d="M331.8,155.7c1,16.2-16.9,7.3-15-3.1C318.2,158.9,327.5,154.5,331.8,155.7Z"/><path class="cls-1" d="M316.8,146.7c-8.7-.8-7.8,9.2-15,2.7C280.6,149.8,308.1,147.9,316.8,146.7Z"/><path class="cls-2" d="M399.7,138.4c-5.4,1.2-7.8,4.6-7.7-3.9Z"/><path class="cls-3" d="M518.5,104.7c-2.5,0-9.5.1-7.2-3.6Z"/><path class="cls-2" d="M381.9,148.7c1.5-2,3-4,4.4-6.1C387.6,144.8,383,146.8,381.9,148.7Z"/><path class="cls-1" d="M284.9,151.3l-6.2,1.2Z"/><path class="cls-1" d="M324.9,149.8c-.4-1.3-.8-2.5-1.3-3.8C326.6,147,327.6,147.5,324.9,149.8Z"/><path class="cls-3" d="M614.7,31.9l-2.2,2.6Z"/><path class="cls-3" d="M511.8,110l-1.9,1.9Z"/><path class="cls-1" d="M319.6,150.9l2.1-.4Z"/><path class="cls-1" d="M289.9,150.1l-2.1.7Z"/><path class="cls-6" d="M777.4,192.6c2,24.4-3,51.7-9.1,76.1-3,14.8-5.9,29.5-9.3,46.6-5.4-7.1-4.3-11.4-14.2-8.3,32.4,15.2,26.5,55.9,50.7,84.3-2.2,21-19.1,17.2-7.7-.6-39.2-87.4-13.4-20.6-63.4-59.5-60.5,66.3,17.6-82.9,10.2-117.7,2.5-3.7,7.6-7.9,6.9-10.9-24.6-77.3,2.5,31.2-32.1,25.2-23.5,24.5,21,8.4,4,38.4-6.5,15.3-17.9,48.8-24.5,12.7-9.4-17.6-4-12.7-19.9-6.5.8,13.4,15.3,24.6-10.5,21.2-21.5-7.9-1.5-42.3,2.3-66.4L635.2,254c20,26.5-48.8,3.2-34.9-14.5,6.4-13.3,15.5-4.8,12.7-14.5,15.3-3.1,14.5-21,13.9-29.2,12,2.4,4.5-10.9,14-11.2,7.8,11.1,11.3-4.2,18.6-12.5-23.1-41.3-11.1-6.8-33-15.6,12.5,1.6,15.3-29,8.1-9-4-11.8-5.4-9.4-11.8-17.6-18.5-22.5,16.6,5,25.5,10,6-38.4,37-18.9,42.9-37.8,12.5,11.3,7.8,13.2,6.5,33,10.2-22.2,15.2-43.6,13.8-11.4,1,11.3-5.6,36.4,6.1,39.9,6.4-30.5,32-35.4,35.9-2.6C771.4,169.5,781.2,172.6,777.4,192.6ZM666.7,166c-14.1,5.5-2,42-5.5,58.3C674.5,227.7,663.2,179.7,666.7,166Z"/><path class="cls-2" d="M737.5,138.7c-14.6,3.6-47.1-92.1-11.8-51.8,2.9-8.1.9-12.9-4.9-18.3,11.1,8.5,29.8,22.9,28.2,32.8,16.2,38.9-16.9-19-20.8,4.3-11.1-4.2,2.4,27.9-.7,17.4,2,5.4,1.5,3.9.9,2.5h6C733.9,113.6,757.8,127.5,737.5,138.7ZM718.7,93.4c-2.8-.8,5.9,8.5,9.4,9.6C723.3,100.2,722.3,97,718.7,93.4Z"/><path class="cls-4" d="M737.5,138.7c19.9-27.4,36.2,17,40,34.9C749.2,169.5,754.9,138.1,737.5,138.7Z"/><path class="cls-1" d="M726.5,81.7c.7,11.8-12-7-14-7-14.2,7.5-58-34.9-14.9-15.6-21.9-15.4-22-30.9.3-14.2C689.1,68,715.6,67.8,726.5,81.7Z"/><path class="cls-2" d="M778.5,168.6c-18.9-20.1-5.2-45.7-35-44C785.8,92.9,788.4,223.6,778.5,168.6Z"/><path class="cls-5" d="M726.5,81.7C715.6,67.8,689.1,68,697.9,44.9,706,57,727.6,67.1,726.5,81.7Z"/><path class="cls-1" d="M756,119.6c-14.6,11.5-33.2-7.1-24.2-23.1C740.5,105,748.6,111.5,756,119.6Z"/><path class="cls-1" d="M781.7,147.5c-9.3,16.7-9.6-17.6-11.2-25.4C774.2,130.6,777.9,139,781.7,147.5Z"/><path class="cls-5" d="M55.4,492.4c23.5-64.6,10.3,19.7,13.3,58.6C54.6,524.6,56.4,517.4,55.4,492.4Z"/><path class="cls-1" d="M56.9,525.4c30.4,70.4-8.6-98.4,26.6-61.1C89.5,495.7,60.2,595,56.9,525.4Z"/><path class="cls-3" d="M66.2,461.6c-11.4,38.8-3.6,9.1-12.8,12"/><path class="cls-2" d="M75,539.4c1.9-24.5,10.3-51.2,8.5-75.1-4.3-4.1-20.3-3-11.6-10C96.7,456.1,93.6,531,75,539.4Z"/><path class="cls-3" d="M87.6,525.6c-.9-25.3,4.2-40.5-3.6-66.2C101.1,456,93.3,518.7,87.6,525.6Z"/><path class="cls-1" d="M94,477.3c3-14.6-.4-18.3,10.4-6.8C104,480.5,101.7,500.1,94,477.3Z"/><path class="cls-2" d="M56.9,525.4c-3.5-7.8-.2-22.8-1.5-33Z"/><path class="cls-3" d="M84,459.4l-12.1-5.1C78.3,448.8,80.1,455.1,84,459.4Z"/><path class="cls-8" d="M150.9,236.6c51.3.6,34.6-15.8,63.1,31.3-18.7,12.2,13.4,27.6-4.8,53-9.5,10.1-5.6,18.6-24.2,11.1,23.4,18.6-5.2,27.1-19.1,41.2,6.9,16.4-16.7,60.9-24.4,74.4-39,30.2-19.8-36.7-24-60-7-13.4.9-32.1-8.3-39C103.7,302.9,138.2,269.7,150.9,236.6ZM138.2,376.8c-42.3,42.7,49.2-9.6,3.2,4.6Z"/><path class="cls-1" d="M150.9,236.6c-18.5,53-6.1-4.6,12-29,8.3-5.3,49.8-36.2,37.6-25.1,20.9-1.5,18.6,9.8,1.3,16.6C199.2,148.2,165.9,224,150.9,236.6Z"/><path class="cls-2" d="M150,231.6c-6.7,14.6-21.3,55.6-30.3,54C127.2,261.7,133.8,243.9,150,231.6Z"/><path class="cls-3" d="M150,231.6c-11.5,11.3-19.3,16.8-24.1,36.9C127.9,256,135.1,203.7,150,231.6Z"/><path class="cls-4" d="M132.9,232.5c-3.7,17.9-6,36.2-13.2,53.1C107.6,265.5,126.8,248.7,132.9,232.5Z"/><path class="cls-4" d="M149.7,229.5c-12-9.9,2.8-19.7,13.2-21.9C158.3,214.7,155.9,223.8,149.7,229.5Z"/><path class="cls-5" d="M109.7,326.4c-.2,7.4-.3,14.8-.5,22.1C107.3,341.4,109.6,333.8,109.7,326.4Z"/><path class="cls-5" d="M115.8,304.4l-6,19.1Z"/><path class="cls-3" d="M108.3,344.4c.4,2.4,2.3,8.6-.4,9C108,350.4,108.2,347.4,108.3,344.4Z"/><path class="cls-4" d="M138.8,224.5l-3.9,5Z"/><path class="cls-3" d="M107.2,360.3c0,1.1,0,2.2.1,3.3C107.2,362.5,107.2,361.4,107.2,360.3Z"/><path class="cls-8" d="M234.7,182.4c57.1,11,14.1-2.5,55-14.2h6.4c-7.2,9.5-17.1,19.6-4.7,29.2,18.1-23.3,30.5,11.8,26.7-28.3,14.4,10,15.7-6.7,42-4.7-6.2,1.6-3.8,1-.5.1-2.4,7.5-6.6,15.5-2.7,25.9,15.9,50.5,74.6,163.9,99,72,12.4,33.1,33.3,48.9,24.4,90.4-3.4,5.9-25.8-1.1-12.5-12.1-23.5-22.9-6,38.5,4.5,51.8-11.3,5.1-12.8-3.6-24.1-11.2,19.3,4.3,11.8-2.2-1.3-6.6-45.1-18-50.8-64.1-67-5.8-8.5-13.4-21.1-18-33.5-14.7-2.8-36.3-49-57.7-22.3-7.2-39.7,11.7-43.4-.4-47.3-36.1C280.2,263.3,210.8,221.6,234.7,182.4Z"/><path class="cls-4" d="M94,477.3c8.4,14.2,4,37.1-3.1,43.6C97.7,500.2,86.6,493.6,94,477.3Z"/><path class="cls-6" d="M91,521.4c13-28.2,5.9-6.6,2.9,11C78.7,540.7,84,529.9,91,521.4Z"/><path class="cls-1" d="M99.6,458.6c2.8-11.5,17-5.9,7.8,2.1C107.1,470.6,103.2,462.3,99.6,458.6Z"/><path class="cls-3" d="M225,179.8l10.5-5.3C231,181,223.9,186.4,225,179.8Z"/><path class="cls-2" d="M480.6,352.5c12.1-30.7-33-91.7,22.6-69.4,17.2-15.4,14.1-27.4,20.2-47.4,3.7,10.1,6.3,20,17.2,20.9-14.6,5,11.7,21.8,15.5,2.1-13.5-2.8-10.8-31.6.8-15.7,3.3-21.7,15.7-18.2,13.9,3.4,15.2,4.8,13.4-21.4,19.7-33.4,1.1-5-15.4-26.6-5.5-31.9-2.9-27.2-6.2-12.2,15.7-14.5,12.6,22.7-5,21.3-1.9,43.6-15.3-1.2-5.3,42.1-1.4,58.4,9.6,25.9,6.6,28.5-17.7,36.3-7.3,13.3-26.8,10.9-39.1,3.7-1.4,13.2-14.8,4.6-22.8,2.9-36.3-18.3-39-26.1-24.1,15.9C483.7,340,485.6,401,480.6,352.5Z"/><path class="cls-4" d="M483.2,375.7c1.5-22.3,9.3-32.8,29-45.5,11,7.3,3.9,22.9,12.8,23.3,19.5-26.8-24.1-30.4-2.4-40.9,7.5,7.5,24.7-2.3,29.7,15.3,8.1-22.4,8.9,6.8,12.7,16.8,12.5-19.8,11.5-.7,15.5-18.1-2.6,12-5.2,23.9-7.9,35.9,3.7-9.8,1-10.7-9.2-8.4-13.6-6.8-28.5,22.5-22.2,30.7C517.6,385.5,502.4,400.3,483.2,375.7Zm94.7-35.3c-2.8-.8-1.4,2.4-1.7,4.3C578.8,345.4,577.5,342,577.9,340.4Z"/><path class="cls-8" d="M585.5,443.5c-6.5-17.1-54.3-50.4-27-58.6,19-3.7,37.5-32.5,59.5-15.3-31.3,9.3-9.9,19.4-25.2,27,14,7.3,20,13.6,26.5,27.1l-24.2,16.2,20.3,3.8C615.2,454.4,592.6,446.2,585.5,443.5Z"/><path class="cls-6" d="M557.7,384.5c-28.2,14.5-63.4,10.3-16.5-4.4C531.9,349.6,604.3,336.8,557.7,384.5Z"/><path class="cls-1" d="M364.1,364.8c7.6-5.4,25,20.4,15.4,25.9-12.4-13.9-20-23.9-35.2-23.8C341,346.6,353,358.6,364.1,364.8Z"/><path class="cls-1" d="M495.6,386.5c14.2,4.8,34.3,14.6,18.3,32.1Z"/><path class="cls-8" d="M559.4,441.8c-5.7-2.2-22.5-10.3-14.2-16.2C551.1,430.3,570.6,433.6,559.4,441.8Z"/><path class="cls-4" d="M539.5,391.7l9.9-2.3C546.8,392.4,543.1,391.5,539.5,391.7Z"/><path class="cls-4" d="M527.6,393c1.9.2,5.4-1.8,5.4,1.1Z"/><path class="cls-2" d="M485.4,378.7l4.3,2.7Z"/><path class="cls-1" d="M533,394.1c-1.3-2.8,2-1.1,3.7-1.2Z"/><path class="cls-1" d="M489.6,381.6l3.2,2.7Z"/><path class="cls-2" d="M287.9,375.3c-.1-7.7,21.4.8,30.3,6.7C308.8,377.9,290.5,385.7,287.9,375.3Z"/><path class="cls-6" d="M89.1,608.3c-8.8,7.1-5.9-19.7,3-16.9C99.3,593.6,90,603.4,89.1,608.3Z"/><path class="cls-5" d="M269.9,283.5c3.3,13.1,6.8,26.1,9.6,39.3Z"/><path class="cls-4" d="M94.9,595.2c-4-6.2,2.4-9.4,7-15.8C99.6,584.7,97.2,589.9,94.9,595.2Z"/><path class="cls-4" d="M318,381.7l.5.5A.6.6,0,0,1,318,381.7Z"/><path class="cls-4" d="M700.6,346.4c11.1,16.8,13.2-35.7,43.7.3,31-18.5,25.8,23.8,43.5,44-12.3,26.4,2.4,5.2,11.6,20.8-14.6,10-43.5,2.3-63.8,6-3-13.7-28.5-30.2-36.1-49.1C713.4,366.6,701.5,354.2,700.6,346.4Z"/><path class="cls-5" d="M766.4,542.4c-1.8-20.5-21.6-27.7-17.7-45.2-28.3,8.1,9.8,53.1,21,61.6-22.5,26.3-32.2-24.9-56.1-41.5,13.4-3.1,5.2-19.6,7.3-26.2-3,.5-11.2,11-13.5,4,19.4-8.2,6.5-13.1,1.7-25.7-10.8,4.2-8.1-1.4-11.6-8.3,1.9-29.5,24.7,20.5,31.5-2.7,24.8,25.1,52.2,22.1,71,45.9-4.5,8.4-9.4,4.7-20.3,2.4,23,14.5,17.8,14.8-5.3,11.2-9.5,4.5,6.1,18.2,7.5,25.8C771.6,541.1,771.3,551.4,766.4,542.4Z"/><path class="cls-1" d="M770.4,547.7c25.3-10.4-8.8-18,4-29.8l25.9,3.2c-15.1-10.9-26.9-16.8-5.2-10.9,4.6-12.1,18.9,4.9,18.1,12.1-20.1-1-5.2,8.7-1.5,20.9,2.2,10.4-6.4,12.1-10.5,9.4C791.5,578.7,786.3,554.5,770.4,547.7Z"/><path class="cls-8" d="M729.8,449.2c13.6,7.8,80,46.2,32.4,32.8C756.2,474.4,719.5,461.6,729.8,449.2Z"/><path class="cls-2" d="M799.4,411.5c-2.8-7-23.7-69.3-8.7-54.2,7.2,12.5,6.7,32.2,9,38.8C808.1,407.1,813.8,409.6,799.4,411.5Z"/><path class="cls-2" d="M865.4,437.4c10.2,3.5-2.7-12.4,7.2-9.4-1.2,8.6,8.9,3.7,14.1,4.9C880.7,433.3,870.1,442.9,865.4,437.4Z"/><path class="cls-2" d="M837.6,425.3l21.9,4.8Z"/><path class="cls-4" d="M802.5,411.6c10-7.2,9.9-.7,17.6,0Z"/><path class="cls-5" d="M778.8,481.2l-3.5-5.8Z"/><path class="cls-2" d="M863.3,434.5l2.1,2.9Z"/><path class="cls-2" d="M862.7,433.4l.6,1.1Z"/><path class="cls-3" d="M770.4,547.7c13.3,7.2,12.9,23.1,29,25.6-16.4-6.9-18.9,19.3-25.7.8C796.7,595.1,736.7,504.4,770.4,547.7Z"/><path class="cls-6" d="M783.2,581.2c-5.1-11.3,15.9-10.7,19.7-3.3Z"/><path class="cls-6" d="M773.7,574.1c12.1,16.6-25.5-6.7-19.4-2.4C761.6,580.1,769.4,564.3,773.7,574.1Z"/><path class="cls-5" d="M588.4,445.7c18.5,5.8,44.5-.2,6.7-5.8,32.4-14.7,23.3-29.2-2.3-43.3,10.4-5.5,8-6.5,3.4-14.2,12.2-10,28.8-12,9.5-20.6l-47.2,23.1c56.5-5.3,11.9-84.2,67.4-42.7,7.1,10,27.7,20,14.3,30,17.7,15.7,57.1,17.7,57.3,39.2-12-5.5-11.6-3.4-15,10-26.7-1.8-67.2-56.2-57-12.4,8.3,24.5-4.1,17.2,31.8,29.1,9.7-2.6,20.5,19.8,25.6,2.2,31.6,12.4-14.7,24.6-6.6,39.5C648.9,465,613.9,470.3,588.4,445.7Zm72.4,16.9c4.5,9.1,12.9-5.8,19.1-8.5C675.2,444.7,667,459.7,660.8,462.6Z"/><path class="cls-8" d="M676.3,479.8c-7.5-9.9,20.4-31.1,24-12.6-2.7,9.5,11.6-3.9,12,10.3,20.1,7.5-21.3,28.7,8.6,13.6C723.6,551.1,700.7,482,676.3,479.8Z"/><path class="cls-1" d="M621.7,466l31,4.8Z"/><path class="cls-1" d="M656,471.9c6.1-2.9,8.8,1.1,12.7,4.7Z"/><path class="cls-1" d="M682.5,482.4c4.7.8,8.8,5.3,11.2,9.5Z"/><path class="cls-5" d="M705.7,501.3l3.7,6.2C706.2,507.9,705.1,504,705.7,501.3Z"/><path class="cls-1" d="M707,507.2c3.7-.6,2.7,3.8,3.6,6.4C708.4,513,708.3,509.1,707,507.2Z"/><path class="cls-1" d="M705.7,501.3l-.3,2.2C704.6,501.6,702.6,499.2,705.7,501.3Z"/><path class="cls-1" d="M697.5,495.4l2.2,1.6Z"/><path class="cls-5" d="M709.7,513.4c.5.1,1,0,.9.7S709.2,514.4,709.7,513.4Z"/><path class="cls-7" d="M178.8,508.2C145,522.8,172.4,612.5,129,615.4c8.9-32.8,7,12.1,13.7-20.2-4.2-29.6,24.7-208.7,47.9-125.1-13.5.5-18.9-1-10.9,9.9C183.6,492.8,158,508.3,178.8,508.2Z"/><path class="cls-1" d="M227.1,477c-38.8-22.1-10.6-45.3-32.9-49.2,10.3-12.3,55.8-47.9,43.3-29.4,6.4,31.4-3.6,25.3-12.7,32.6,17.4,9.4,53.2,51.4,21.1,63.4-14.8,10-3.2-7.6-12.3-7.3C236.2,511.9,230.1,488.2,227.1,477Zm-2-42.9c-12.7,8.8-16.9,22.9-2.5,29.7C247.9,461.7,242.7,448.5,225.1,434.1Z"/><path class="cls-3" d="M146.2,559.3c.2,6.1.5,7.1-7,6.1-.2,7.8,5.6,17-.8,24.9-11.6.2,2.1-19.7-6.5-38.5-8-16.2,21.2-68.9,23.6-85.6,27.1-38.9-1.9,26.3-6.9,44.4C145.3,525,145.9,549.1,146.2,559.3Z"/><path class="cls-4" d="M236.9,426.5c18.9-10.8,3.9,4.8,23,15.5,6.7-13,24.9-24.6,7.7-35.9-15.4,19.5-27.6-5.1-7.9-11-4.3-5.5-7.5-5.9-1.4-12,6.3,15.8,5.3,1.9,7.1-8.3,6,13.5,9.4,17,6.4,34.9,4.4-9.8,5-10.9,6-2.2-3.6,9.7-10.4,10.7-11,22.1,2.4,10.8-20.2,18.1-12.9,4.4C248.5,431.6,229.4,433.4,236.9,426.5Z"/><path class="cls-3" d="M268.9,381.4c-5.4-12.7-4,3.6-5.8,11.4l-4.8-9.7c-9.2,12.7,8.3,4.7-8.2,19.2-.5-23.1-13.6-35.8,8.2-56.3,1.5,7.2,2.7,12.6,4.9,22.5C262.5,366.9,271.1,375.2,268.9,381.4Z"/><path class="cls-3" d="M318.2,382c-3.1,38.5,2.2,2.5-33.2-1.5,17.8,26.1-2.2,22.4-9.2-1.3,11.4,20.8,7.1-5.3,12.9-.9S308.5,379,318.2,382Z"/><path class="cls-4" d="M277.8,407.5c6.2.3,5.4-.1,4.4-5.1,8.5,1.2,10.1,19.9-1.4,26.3C268.4,427.2,287.4,419.7,277.8,407.5Z"/><path class="cls-4" d="M202.7,451.4c22,28.2-14.7-.7-15.9-11.2C196.3,439.4,192.5,451,202.7,451.4Z"/><path class="cls-6" d="M290.7,411.6c-10.4.6,3-10.1-8.5-9.1C277.9,386.9,307.3,402.3,290.7,411.6Z"/><path class="cls-3" d="M202.7,451.4c-11-1.3-4.9-9.2-15.8-12.1C199.4,431.6,202.1,439.2,202.7,451.4Z"/><path class="cls-1" d="M128.6,591.3l-8.7,18.8C120.3,604.7,123.9,580.9,128.6,591.3Z"/><path class="cls-3" d="M249.9,419.7c-14,10.7-1.2-5.9.1-14.2C250.4,410.4,254.1,415.9,249.9,419.7Z"/><path class="cls-4" d="M125.6,587l-5.7,18.4C121,601.1,123.1,575.8,125.6,587Z"/><path class="cls-6" d="M125.2,583.3c-3.5.4-.4-6.3-.9-8.8C127.9,574.6,124.9,580.8,125.2,583.3Z"/><path class="cls-6" d="M282.1,404.5l2,2.6C280.3,407.8,280.8,407.3,282.1,404.5Z"/><path class="cls-4" d="M125.2,581.7c.2-.8.5-1.5.7-2.3C125.7,580.2,125.4,580.9,125.2,581.7Z"/><path class="cls-3" d="M230.9,493.4c13.2,19.4,3,18.4-15.2,13.6C219.2,498.5,222.2,495.1,230.9,493.4Z"/><path class="cls-6" d="M142.7,595.2c-1.2,9.1-8.8,24-4.6,5.9-8.6,3.3-4.5-3.2-8.7-15.1C137.7,596.7,134.1,597,142.7,595.2Z"/><path class="cls-3" d="M229.9,485.4l.6,6Z"/><path class="cls-6" d="M273.6,428.1c25.6-6.7,8.1,8.3,29.3,8.2,3.7-11.1,16.7-4,18.8-14.8-2.2,7.1,5.7,9.8-1.5,13.5-59.7,28.6,32.9,85.2-42.4,99.9-1-24.2,1-12.3,17.5.7,1.2-38.6-26.4-55.6-11.8-88.9C266.1,445.2,255.7,434.8,273.6,428.1Z"/><path class="cls-3" d="M289,493.3c11,73.2,4.3,21.6-32.1,15,8.9-6.8,3.1-15-6.8-9.6-10.1-8.3,23.5-1.8,17.5-21.1C270.8,492.3,285.5,536.4,289,493.3Z"/><path class="cls-7" d="M324.7,431.4c-6.4-3.6-3.8-20,4.6-20.7C342.7,416.3,340,431.5,324.7,431.4Z"/><path class="cls-6" d="M338.7,427.4c1.9-15.8-14-13.4-13.3-20.8C335.4,389.8,351.8,432.1,338.7,427.4Z"/><path class="cls-3" d="M257.5,527.5c-12.2-21,3-9.4,22.2-4.2Z"/><path class="cls-3" d="M260.8,534.3c0-3.5-.4-4.6,3.6-2.5Z"/><path class="cls-2" d="M245.9,494.5c.9,2.9-2.2,1.6-4.1,1.9Z"/><path class="cls-2" d="M805.5,530.5c-8.7-8.5.4-7.2,7.7-8.2C813.3,528.9,811.2,530.3,805.5,530.5Z"/><path class="cls-2" d="M811.1,541.6c-1.6-3.1-3.1-6.2-4.6-9.3C811.6,533.8,812.2,536.8,811.1,541.6Z"/><path class="cls-3" d="M770.7,570.1c-5,1.4-10.6,7.4-16.4,1.6C760.1,576.1,768.4,562.4,770.7,570.1Z"/><path class="cls-5" d="M585.5,443.5l2.8,2.1Z"/><path class="cls-3" d="M322.7,414.7c1.5,16.5-13.9,10.1-19.8,21.6-17.3,1.2-16.6-15.8,1-2.4,3.2-23.5-23.7.6-13.2-22.3,8.8-14.9,11.4-5.9,13.6,7.1C320.8,394.2,309.3,425.4,322.7,414.7Z"/><path class="cls-6" d="M314.6,406.6c-15.5,21.7-9.9-.5-15.3-12.3C310.2,386.4,314.8,393.9,314.6,406.6Z"/><path class="cls-4" d="M316.5,401.4c.5-5.9,1.1-11.9,1.7-17.8C325.3,389.3,329,414.9,316.5,401.4Z"/><path class="cls-5" d="M788.3,569.7c-5.3-4.7-6.9-11.4-9.8-17.3C781.3,557.8,797.9,566.8,788.3,569.7Z"/><path class="cls-8" d="M861.3,381.7c6.6,32-65.4-31.8-82.8-40.2C781.7,321.7,839.5,374.5,861.3,381.7Z"/><path class="cls-6" d="M767.8,303.1c6.2-6.6-.9-13.4,7.6-28.6,2.4,14.6,2,12.5,12,9C783.8,301.5,767.7,343.1,767.8,303.1Z"/><path class="cls-2" d="M769.6,322.2c4,3.4,14.9-29.2,10.8-6.6C776.5,342.9,778.3,359.6,769.6,322.2Z"/><path class="cls-5" d="M780.4,315.6c.8-6.4,1.8-12.9,3-19.3Z"/><path class="cls-3" d="M775.8,345.4c5.3,2.6,8.9,6.8,7.7,12.9C778.8,354.9,775.4,351.5,775.8,345.4Z"/><path class="cls-2" d="M893.6,420.4c-4.9,2.7-5.8,2.5-9.6-3.3C889.7,416.6,891.7,415.3,893.6,420.4Z"/><path class="cls-4" d="M810.5,407.5l-3.1-1.4Z"/><path class="cls-4" d="M762.8,314.6c-4,6.6-25.3-10.5-10.3-9,11.2,22.9,11.2-27.3,15.8-36.9C767.3,284.2,765.1,299.3,762.8,314.6Z"/><path class="cls-3" d="M762.8,314.6c4.6-38.3,5.9,12.4,11.1,27.2C765.1,333.5,764.3,324.6,762.8,314.6Z"/><path class="cls-6" d="M765.5,293.5c.3-1,.6-2,1-3C766.1,291.5,765.8,292.5,765.5,293.5Z"/><path class="cls-6" d="M518.2,246.5c-2.9,10.6-3.4,17.2-13.5,22.1-.8-10.9,14.2-35.6-3.5-32.4-5.9-15.3-49.9-4.9-16.7-3.6,3.8,5.7,14.6,17.5,15.1,11.9,5.8,21.5-21.4,2.3-26.7.3.7,6.7-8.9,7.8-11,13-8.8,31.2-7-26.4-16.8-20.1-.7-8.9,3.7-12.6,5.7-19.8,4.4,28.4,26.3-20.5,44.8,5.7C509.9,238.6,518.2,226.6,518.2,246.5Z"/><path class="cls-2" d="M482.6,214.3c-50.6,35-21.8-28.7-13.2-62.7-.2,20.2-7.2,45.8-15,74.6,22.9-12.4,66.4-104,54.1-56.7C501.7,189.6,473.1,197.8,482.6,214.3Z"/><path class="cls-3" d="M417.9,292.3c-32-28.3-16.2-19,8.8,1.5C446.1,254.2,438.2,302.7,417.9,292.3Z"/><path class="cls-5" d="M395.7,269.8c-10.4-12.6-39.1-64.7-36-78.1C358.4,219.4,384.1,243.8,395.7,269.8Z"/><path class="cls-6" d="M359.3,200.7c-.4-14.7-3.1-32.1,10.3-40.2C354.8,177,376.6,239.5,359.3,200.7Z"/><path class="cls-4" d="M445.1,237.7c13.8-4.1,1.1,28.1-7.7,27.9C441.9,258.5,444.8,249.8,445.1,237.7Z"/><path class="cls-3" d="M369.6,160.5c3.2-9.4-1.1-4.7-9-3.4C363,144.9,394.3,144.5,369.6,160.5Z"/><path class="cls-1" d="M468.8,170.7c1.3-8.4-4.3-20.5,3.1-26.2C470.8,152.5,476.2,167.7,468.8,170.7Z"/><path class="cls-3" d="M366,215.6c9.6,1.1,8.8,18.7,13.8,26.4Z"/><path class="cls-3" d="M394.1,267.8l-13.4-24Z"/><path class="cls-2" d="M438.2,278.6c.3-4.1-1.7-9.7,2.4-12.3C443.1,269.5,438.6,274.7,438.2,278.6Z"/><path class="cls-4" d="M438.9,267.6c-1,4.2-.6,5.9-5.2,2.5C436.3,268.7,436.8,267.3,438.9,267.6Z"/><path class="cls-6" d="M458.6,185.7l-1.2,8.8Z"/><path class="cls-6" d="M456,205.6l-2.3,6.8C452.5,209.2,451.6,206.6,456,205.6Z"/><path class="cls-6" d="M457.7,196.7c-.6,2-1.3,3.9-1.9,5.9C456.4,200.6,457.1,198.7,457.7,196.7Z"/><path class="cls-3" d="M438.9,267.6c-3.2-.7-.5-2.8,1.8-2.1C440.8,266.6,439.6,267,438.9,267.6Z"/><path class="cls-2" d="M468.7,148.7a14.6,14.6,0,0,1-.7,1.9A14.6,14.6,0,0,0,468.7,148.7Z"/><path class="cls-6" d="M366.9,203c-.4.6-.2.4,0,0Z"/><path class="cls-5" d="M565.4,94.5c35.6-69,66.4-33.1,10.2,13.2-13.6,9.4,10.6-18,14-25.3C584.6,74.9,572.6,91.9,565.4,94.5Z"/><path class="cls-4" d="M538.1,80.6c18.3-5.4,42.5-12.4,21.3,2.9C563.2,92.4,549.1,85.8,538.1,80.6Z"/><path class="cls-1" d="M358.3,174.6c-1,4.6,3.4,15.9-1.4,15.8C349.4,179.4,365.8,157.2,358.3,174.6Z"/><path class="cls-1" d="M360.6,157.1c4.8-.6,15.6-6.5,8.2,2.4C358.5,176.2,368.8,159.7,360.6,157.1Z"/><path class="cls-4" d="M274.1,159l5-.5C280.5,161,272.3,162.7,274.1,159Z"/><path class="cls-2" d="M274.1,159c.2,3.4-.7,2.2-5,2.8Z"/><path class="cls-4" d="M714.5,101.6c4.2,19.1-6.2,28.4-3,.9-7.8,17.3-16.4,44.5-11.6,9.2-8.1-13.2-17.2,3.6-37.9,1.6-9.7,14.3-9.7,28.9-25.6,20.9-23.4-14.3.3-15.7,13.9,4.8-9-26.1-14.8-30.4-25.4-46.7,12.5-9.9-16.6-15.7,2.1-16.5,17.8-44.7,27.2,5,58.6,3.7,7.5,7.3,14.6,4.1,6.6,18C707.5,77.1,707,84.9,714.5,101.6Z"/><path class="cls-3" d="M685.6,79.5c-28.6,3.3-40.5-48.8-58.7-3.3.9-3.7.5-2,.1-.4l-8.6.9c14.8,7,5.3,10.9,8.1,21.8-9.1,5.1-40.5,2.9-17.1-.9,21.6-13.9-.1-6.7-10.9-4.1,19.2-13.2,17-7.2,12.8-22.1,26.3-17.7,9.7-7.4,8.9-24.9-15.1,6.6-14,3.9-33.5,8.6,34.5-31.1,50.2-18.8,94.1-14.4C670.1,56.2,663.3,56.5,685.6,79.5Z"/><path class="cls-1" d="M611.3,71.4c-8.4,3.9-9.9,13.9-18.3,16.3,4.5-11.1,32.2-28,8.7-33.9C613.4,44.3,624.5,62,611.3,71.4Z"/><path class="cls-3" d="M714.5,101.6c-7.6-16.7-6.9-24.5-22.3-4.1C701.4,62.6,708.8,75.3,714.5,101.6Z"/><path class="cls-1" d="M482.4,211.4c-7.4-9.3,53-72.9,69.1-92.9-7.3,19.2-37.2,41.3-12,49.2-19.5,7.3-20.9,12,0,21.4-2.7-46.5,10.1,21.7,14.6-25.9,24.2-2.2,49.3,55.4,21.8,86.1-10.3-11-8.5-40.8-19-6.3-13.2-11.4-17.1,44.7-37.1-14.9,51.1,16.6-11.8-21.1,18.7-33.2-15.9-14.4-2.7,11.8-26.6-10.7-44,11.1,10.8,12-2.3,22.9C492.3,219.1,493.1,192.5,482.4,211.4Z"/><path class="cls-8" d="M471.6,170.6c-.3-20.7,41.6-64.1,40.2-22.6C496,182.3,438.8,262.4,471.6,170.6Z"/><path class="cls-5" d="M564.4,160c1.3,8.8-2.7,5.4-10.3,3.2-2.5,5.8.7,21.6-7.9,18.1-7.1-12-3.7-19.3-20.9-18.6,10.8-15.7,17.2-34,28.3-45-1.6,9.5-3.1,19-4.8,29.1l2.1.2c1.9,3.6,3.9,7.4,7,13.1C557.2,147.9,561,153.3,564.4,160Z"/><path class="cls-8" d="M558.4,151.6c.2,15.8-4.1-.4-7.5-4.6l-2.1-.2c1.2-24.4,15.7-67.7,40.8-64.4C575.4,103.9,556.3,127,558.4,151.6Z"/><path class="cls-4" d="M513.2,142.4c-11.2-26.1,19-7.4,8.5,13.2C503.7,177.4,510,160.6,513.2,142.4Z"/><path class="cls-5" d="M489.7,138.7c-10.3,6-11.7,16.8-16.9,25C471,149.1,468,131.1,489.7,138.7Z"/><path class="cls-3" d="M521.7,155.6c.6-6.3,1.3-12.6,1.9-18.9h-1.3C550.9,122.9,527.7,142.9,521.7,155.6Z"/><path class="cls-4" d="M482.8,134.8l7-1.8Z"/><path class="cls-5" d="M495.6,133.5l-5.3,4.9Z"/><path class="cls-1" d="M476.9,137.2c-3.5,0-5.6.8-2.7-3.2Z"/><path class="cls-1" d="M555.5,112.6c-1.1,1.9-.8,5.6-3.7,5.2Z"/><path class="cls-4" d="M492,130.8l3.4-1.3Z"/><path class="cls-1" d="M559.7,104.7l-2.1,4Z"/><path class="cls-3" d="M538.6,120.5c-.5,3.9-.5,3.3,0,0Z"/><path class="cls-1" d="M557.3,109.5l-1.8,3.1Z"/><path class="cls-4" d="M497.9,127.6l.7-1.8Z"/><path class="cls-4" d="M502.8,122.6l.7-.9Z"/><path class="cls-4" d="M600.7,166.6c-19.6,9.6-26-29-16-9.9,2.6,4.9,5.4,5.2,8.5,1.3,40.7,9.2,31.6-14.6,51,29-17.5-59.9,18.7-32.8,10.4-5.9-9.2-.3-3.1,16.4-13.7,3.5-9.3,1.3-2.3,11.2-14.4,13,5.1,22.1-11.7,24.8-26.2,41.9-9.7,13.5,19.2,19.2,25.2,30-18.6,11.4,34,64.3,14.7,48.5-9.7-8.4-21.2-31.2-22.5-6.3-15.4-3-13.6-10.7-2.3-15.5-1.5-18.8-9-6.2-7.7-19.8-15.2,9.6-13.4-38.2-18.3-50.8,21.7,2.3,2.8-.9,6.5-11.1,9.4,9.9,10.4-10.7,18.2,6.8-1.8-7.4-2.7-10.7-3.8-15.2,9.3,7.7,11.8-7.4,1.2-2.6,2.5-10.1,7.7-.4,12.3-14-10.5,4.3-11.1,7.2-19.7,5.1,6-12.6,6.5-10.7,18.1-5.6C618.7,189.2,610.4,158.5,600.7,166.6Z"/><path class="cls-2" d="M628.2,293.5c-26.6-25.8,17.2-1.6,23.9,11.9,10.6-12.1,27.7-21,43.4-9.8l6.3,13.2c.9-13,.2-13.4,2.7-22.3,24.2-4.1,21.4-60.3,27.9-38.8-14.8,32.2-19.1,70.1-37.4,89.4-6.7-9.3-14.1-4.9-16.6-18.7C654.2,321.9,645.1,302.4,628.2,293.5Z"/><path class="cls-7" d="M626.5,156.5c-36.5,23.2-73.2-30.2-23.8-38.7,23.2,1.5,21.3,16.2,4.3,30.9,13.5-4.9,24.6-20.4,27.6-1.2C641.8,127.6,638.9,158,626.5,156.5Z"/><path class="cls-7" d="M625.5,269.5c24.7-10.6-.6-13.2,35.3-42.3C648.3,255.2,655.6,325.7,625.5,269.5Z"/><path class="cls-4" d="M732.4,247.7c-10.7-26.5,2.4,21.7-12.9,21.9C704.5,245.2,741.3,178,732.4,247.7Z"/><path class="cls-4" d="M666.7,166v61.4C657.2,221.5,656.3,167.3,666.7,166Z"/><path class="cls-4" d="M693.5,295.4c-5.6-4-36-14-21.8-23.4C687.7,256.1,690,286.7,693.5,295.4Z"/><path class="cls-7" d="M721.5,228.6c-.4,17.9-5.8,18.4-22.9,14.9C705.2,235,711.5,218.7,721.5,228.6Z"/><path class="cls-3" d="M711.5,123.7c9.7-30,7.5.2,14.1,9.1C746.7,137.6,699.2,149.8,711.5,123.7Z"/><path class="cls-4" d="M710.6,134.7c1.9,12.9,10.7,1.1,17.9,3.9C718.4,169.5,709.6,165.8,710.6,134.7Z"/><path class="cls-7" d="M730.5,189.4c-12.6-42.1,23.7,11.1,4.1,24.1C732.1,206.9,735.7,196.7,730.5,189.4Z"/><path class="cls-2" d="M614.5,120.4c-12.7-4.4,14.8-3.3,24.6-5.2-1.7,5.1-1.7-8.2-3.5-10.7,3.7,8.8,7.4,17.5,14.7,34.5C635.8,120.8,633.3,124.6,614.5,120.4Z"/><path class="cls-3" d="M698.3,337.7c7.9-20.2-.4,17.5,8.8,27.8C692.9,374.8,695.2,346,698.3,337.7Z"/><path class="cls-3" d="M637.6,288.3c9.8,3.2,34.1,5.2,14.5,17.1C650.8,298.5,628,289.1,637.6,288.3Z"/><path class="cls-4" d="M776.7,352.4c11,7.7,12.1,22.5,17.7,34C780.9,381.9,782.6,363.4,776.7,352.4Z"/><path class="cls-3" d="M639.3,155.7c1.3,8.2,2.6,16.5,4.9,31.3C636,171.7,627.5,167.2,639.3,155.7Z"/><path class="cls-2" d="M626.5,138.6,607,148.7C615,139.4,627.3,120.2,626.5,138.6Z"/><path class="cls-3" d="M713.4,266.2c16.4,5.9-2.7,14.4-8.9,20.3C707.5,279.8,709.8,272.7,713.4,266.2Z"/><path class="cls-3" d="M734.1,198.7c-1.3,7.2,2.8,16.6-5.5,20.1C725.8,212.3,724.3,197.1,734.1,198.7Z"/><path class="cls-4" d="M734.1,198.7c-5.9-1.5-6.4,3.5-7.5,7.9C729.4,197.9,729.2,182,734.1,198.7Z"/><path class="cls-4" d="M702.7,293.5c-.2,3.2-.4,6.4-.9,15.3C696.9,297.1,691.9,295.4,702.7,293.5Z"/><path class="cls-4" d="M768.6,333.5c1.3,4.1,5.5,7.7-1.5,7.3C767.7,337.9,768.1,335.7,768.6,333.5Z"/><path class="cls-4" d="M762.7,326.4l5.8,6.9Z"/><path class="cls-4" d="M673.5,291.5l-8.1,3.7Z"/><path class="cls-4" d="M731.4,136.8c3.1-1.9,3.4-.1,4.1,2.7C732.8,140.8,731.8,139.5,731.4,136.8Z"/><path class="cls-3" d="M703.4,326.5l-1.8-1.5C705.1,324.7,706.3,324.2,703.4,326.5Z"/><path class="cls-4" d="M713.2,266.5l-1.7,3.1Z"/><path class="cls-4" d="M795,389.4c.4,1.5,1,2.3-1.1,1.4Z"/><path class="cls-4" d="M659.5,295.7c-1.3-2.1-.9-2.2,1.4-1.8Z"/><path class="cls-4" d="M762.8,317.3a17.7,17.7,0,0,0,1.6,2.2A17.7,17.7,0,0,1,762.8,317.3Z"/><path class="cls-4" d="M765.5,322.6l-1.9,2Z"/><path class="cls-4" d="M628.6,196.5l-1.7-.7C629.4,197,628.4,196.9,628.6,196.5Z"/><path class="cls-4" d="M733.5,214.6c.1-.9.1-1.6,1.1-1.1Z"/><path class="cls-4" d="M728.2,105.7c3.3,6.2,13.4,21.6.3,20C726.9,120.6,718.2,105,728.2,105.7Z"/><path class="cls-3" d="M747,125.7c15.1-4.4,24.6,15,12.3,10.8C771.1,125.3,746.2,135.7,747,125.7Z"/><path class="cls-3" d="M718.7,93.4c1.8,2.8,6,5.7,6.6,8.4C723.6,99.1,718.5,96.1,718.7,93.4Z"/><path class="cls-3" d="M728.4,125.6c.6,1.4,1.1,2.9-.9-2.5C727.8,130.8,726.6,122.7,728.4,125.6Z"/><path class="cls-1" d="M747,125.7c.6,3.8-2-.2-3.6-1.1Z"/><path class="cls-3" d="M718.2,94c-.8-.2-1.5-.4-.6-1.1S719,93.4,718.2,94Z"/><path class="cls-3" d="M725.6,101.5l2.5,1.5C725.9,101.9,725,102.2,725.6,101.5Z"/><path class="cls-3" d="M778.5,168.6c1.1.4,1.6.9.7,1.9Z"/><path class="cls-2" d="M712.5,74.7c-.2-.3-.4-.5-.1-.1S712.4,74.6,712.5,74.7Z"/><path class="cls-4" d="M103.9,453.1c-.9-.1-1.4.1-.6-1A3.7,3.7,0,0,1,103.9,453.1Z"/><path class="cls-4" d="M90.8,522.3c-1,1.4-2.1,2.7-3.1,4C87.4,524.6,89.9,523.7,90.8,522.3Z"/><path class="cls-1" d="M138.2,376.8l3.2,4.6C187.4,367.2,95.9,419.5,138.2,376.8Z"/><path class="cls-2" d="M149.7,229.5l2.3-1.8C151.1,228.8,150.5,232.3,149.7,229.5Z"/><path class="cls-7" d="M458.6,269.5c5-20.8,14.5-28.9,34.8-14.4,18.7-.1-4.9-23-15-20.9-21.3-10.9,20.2-7.4,22.8,2C532.6,245,475.6,310,458.6,269.5Z"/><path class="cls-5" d="M453.9,258.3c4.2,9.3-8.8,19.4-11.7,28.4,14.1,15.8-8.9,9.8-18.6,10.9C443.9,299.8,442.5,266.9,453.9,258.3Z"/><path class="cls-5" d="M466.7,280.5c5.2,2.6,18.8,30.3,6.5,21.4.3-5.7.4-6.7-5.8-5C469.3,290.7,465.8,287,466.7,280.5Z"/><path class="cls-1" d="M434.8,296.7c-6.8.9-12.6,1.8-16.9-4.4C423.5,293.9,429.4,295.1,434.8,296.7Z"/><path class="cls-5" d="M460.8,275.2l5.9,5.3Z"/><path class="cls-5" d="M482.5,343.5l-.9,2Z"/><path class="cls-5" d="M480.6,352.5c0,.7,0,1.3-.3.3S480.5,352.6,480.6,352.5Z"/><path class="cls-3" d="M597.4,268.6c3.2,6.3,3.2,16.6,10.3,7.8.3,4.5-1.8,12.4,4.3,5.8,11.2,15.4-20.9,23.5,5.7,29.5,1.3-25,12.9-2,22.5,6.3,1.6,9.5-12.3-7.8-19.1-12,2.3,18-17.7,30.8-23.6,11.6-12.2-36-11.5,34.6-16,41.8-3.8,3.7-17.6,19.6-10.8,7.1,8.1-22.6,15.9-64.2-5.7-21.8-12.5-51.2.8-5.6-26.4-29.4,2.1-12.9,22.9,5.3,34.2-2.5C591,291.5,613.4,306,597.4,268.6Z"/><path class="cls-3" d="M522.6,312.6c-27.3,9.2,23.4,14.5,4.8,29.4-6.2,29.9-6.3-7.5-15.3-11.8-21.1,19-33.6,26.3-18.4-2.8C485.6,306.7,510.7,316.4,522.6,312.6Z"/><path class="cls-3" d="M584.6,124.7c-4.3,12.2-36.7,36.7-7.9,25C609.4,224.6,525.9,143.5,584.6,124.7Z"/><path class="cls-3" d="M610.6,195.6c5.7-2.2,17-9.7,8.1,2.8-4.7-.3-6.4-.6-7.2,5.1,10.6-4.7,8.1,10.2-1.2,2.6,1.1,4.5,2,7.8,3.8,15.2-7.5-13.4-8.3-2.6-20.8-4.6-.3-5.7-2-11.4,5.5-6.5C598.1,189,599.5,187,610.6,195.6Z"/><path class="cls-3" d="M600.7,166.6c9.7-8,18,22.5,21.5,22.4C607.1,183.8,605.1,186.1,600.7,166.6Z"/><path class="cls-7" d="M505.4,314.2c-11.7,2.9-18.8-6.8-13.8-17.5C497.7,302.5,517.5,306.1,505.4,314.2Z"/><path class="cls-3" d="M540.6,256.6c13.2-8.7,18,5.4,6.6,14.7C542.1,265.6,527.4,259.2,540.6,256.6Z"/><path class="cls-4" d="M493.7,278.4c7.1-5,14.7-16.7,23.7-14.9C514.4,272.8,503.2,288.1,493.7,278.4Z"/><path class="cls-3" d="M519.8,234.4c15.7,10.9-15.9,15.5.7,4.5C505.2,229.6,505.9,226.5,519.8,234.4Z"/><path class="cls-3" d="M589.4,225.6c2.3,13.6,4.7,27.3,7.1,40.9C594.1,252.9,591.7,239.2,589.4,225.6Z"/><path class="cls-4" d="M491.6,296.7c-6.7,8.3,7.7,18,.2,17.8C487.3,306.2,473.2,293.6,491.6,296.7Z"/><path class="cls-3" d="M517.4,263.5c-7.3-.9,1.5-4.9-2.6-7C520.3,243.8,517.3,256.7,517.4,263.5Z"/><path class="cls-3" d="M593.6,217.7c3.6,3.1,7.9,4.8,6.6,11C595.3,225.4,588.4,223.9,593.6,217.7Z"/><path class="cls-4" d="M505.4,314.2c3.7-5.3,6.8-6.3,12.4-2.7C513.9,313,510.3,317.1,505.4,314.2Z"/><path class="cls-3" d="M486.4,362.3c-.8,4.1-1.7,8.2-2.6,12.2C484.7,370.5,485.6,366.4,486.4,362.3Z"/><path class="cls-3" d="M515.5,268.4c1.4-1.6,2.7-2,4.6-1C519.2,269.6,517.3,268.7,515.5,268.4Z"/><path class="cls-3" d="M529.6,315.7l-3.2,1.7C525.1,313.3,526.8,314.8,529.6,315.7Z"/><path class="cls-3" d="M591.5,221.6l-.2-.3C591.4,221.4,591.7,221.5,591.5,221.6Z"/><path class="cls-6" d="M572.6,331.5c1.9-5.9,2.3-12,7.9-4.9C578.8,332.9,577.9,339.4,572.6,331.5Z"/><path class="cls-6" d="M577.9,340.4c-.4,1.6.9,5-1.7,4.3C576.5,342.8,575.1,339.6,577.9,340.4Z"/><path class="cls-1" d="M597.5,317.6c5.2,17.2-9.8,69-39.8,66.9C580,368.8,589.7,342.8,597.5,317.6Z"/><path class="cls-2" d="M581.5,359.4l-20.1,22.9C566,373.1,574.8,367,581.5,359.4Z"/><path class="cls-3" d="M568.6,372.5l-3.9,4C565.7,374.9,566.2,371.4,568.6,372.5Z"/><path class="cls-4" d="M572.5,363.4l-1.8,3.1Z"/><path class="cls-4" d="M568.4,372.3c-2.9.6-.9-.5.1-1.8A10.9,10.9,0,0,1,568.4,372.3Z"/><path class="cls-1" d="M697.9,365.1c57.2,76.5-17.1,30.3-57.7,7.1,16.9-13.5-16.8-20.1-14-35.9-8,1.8-14.6,5.4-18.8-4.5,17.3-4.4,44,2.5,53.3,19.3-11.3,6.5,32.5,45.1,41.1,38.4C656,361.5,699.4,387.5,697.9,365.1Z"/><path class="cls-2" d="M697.5,411.4c21.8-11.9,60.3-.2,21.3,12.9-24.2,6.8,13.5,15.5-1.5,21-8.5-6.6-37.8-26.1-9.9-17.5C709.5,421.2,679.2,411,697.5,411.4Z"/><path class="cls-1" d="M693.5,410.5c-8.1,5.9,33.2,21.4,2.7,14.3-.2,19,48.8,16,28,41.7-10.5-5.1-25.7-26.3-26.7-5.4-6.8-2.6-7.6-34.1-18.9-12.8-44.2-25.8-48.1-1.7-57.1-59.1,28.2,8.9,28.4,24.9,61,32.2C685.8,412.8,684.3,403.1,693.5,410.5ZM658.2,417c-42.5-10.2-.8,15.1,12.3,2.3C660.6,420.2,658.7,423.5,658.2,417Z"/><path class="cls-3" d="M715.6,436.2c-15.6-8,9.6-13.5,15.5-18.4C736,422.7,719.2,430.7,715.6,436.2Z"/><path class="cls-2" d="M660.7,351.1c-4-12.3-25.4-15.8-31.2-21.4-14.8-.2-20.1,6.2-24.9-2.2,12.5-1.1,16.3-7.4,16.5-21.5C634.3,320.2,703.9,350.8,660.7,351.1Z"/><path class="cls-8" d="M660.8,462.6c6.2-2.9,14.4-17.9,19.1-8.5C673.7,456.8,665.3,471.7,660.8,462.6Z"/><path class="cls-5" d="M691.5,488.4l-2.3-2.5Z"/><path class="cls-5" d="M686.5,484.3l-2.8-2Z"/><path class="cls-5" d="M695.5,493.3c.3-.4.5-.8-.1.2C696.5,492.8,695.9,493.4,695.5,493.3Z"/><path class="cls-2" d="M191.6,469.4c15-8.8-11.1,49.8-24.3,36.7C187.3,485.4,170,488.9,191.6,469.4Z"/><path class="cls-1" d="M178.8,507.1c8.7-10.1,5-18.4,16.8-28.5C194.4,493,197.7,509,178.8,507.1Z"/><path class="cls-4" d="M191.6,469.4c3.2,5.5-8.5,6-11.9,10.6C169.1,466.4,182.6,472.3,191.6,469.4Z"/><path class="cls-4" d="M146.2,559.3l-2.1-.9C146.2,557.2,146.2,557.3,146.2,559.3Z"/><path class="cls-2" d="M289,493.3c-3.5,43.2-18.2-1-21.4-15.7.3,14.7-7.7,16.4-21.7,16.8,32.1-12-3.7-53.9-21.1-63.4C241.4,413.5,271.6,462.4,289,493.3Z"/><path class="cls-5" d="M225.1,434.1c17.6,14.5,22.8,27.6-2.5,29.7C208.2,457,212.4,442.9,225.1,434.1Z"/><path class="cls-7" d="M276.4,471.6c-5.4-10.9-19.5-20.5-19.1-32.7C280.8,444,286.9,448.2,276.4,471.6Z"/><path class="cls-6" d="M249.9,419.7c26.2-28.2,30.8,3.6,10,22.3C253.5,434.6,241.4,429.8,249.9,419.7Z"/><path class="cls-2" d="M273.6,428.1c-15.8,3.9,1.9-13.7,4.2-20.7C279.5,420.1,287.9,415,273.6,428.1Z"/><path class="cls-4" d="M307.6,388.4c-10.8,4.6-.4,20.7-12.7,12-8.2-14.6-12.1-23.2,8.1-13.5C303.9,380.2,305.7,384.5,307.6,388.4Z"/><path class="cls-4" d="M314.5,398.5l-3.6-4.9Z"/><path class="cls-4" d="M288.9,378.5l-.3.2C288.7,378.4,288.7,378.2,288.9,378.5Z"/><path class="cls-2" d="M286.9,421.3c5.8,2.2,9.2,3.9,14.6-1.4C309.5,437.5,290.7,432.3,286.9,421.3Z"/><path class="cls-2" d="M769.4,320.6c-.3-3-.7-6.1-1-9.1C768.7,314.5,769.1,317.6,769.4,320.6Z"/><path class="cls-3" d="M509.6,207.1c24.6-5.5,32.6,30.7,16.6,13.3l14.1-4-24.5,2.7C490.7,231.7,463.2,206.8,509.6,207.1Z"/><path class="cls-4" d="M495.6,223.6c19.2-.9,20.9-6.1,44.7-7.2C518,218,514.8,244.5,495.6,223.6Z"/><path class="cls-1" d="M453.9,258.3c-7.8,9.5-12.5,24.1-19.1,38.4C436.1,287.1,443.3,249.2,453.9,258.3Z"/><path class="cls-3" d="M471.7,220.3l5.9-4.5Z"/><path class="cls-4" d="M514.8,256.5c3.2,1.4-.3,5.4-2.6,3.3Z"/><path class="cls-4" d="M453.5,256.5c-1.6-.9-4.9-1.8-3.7-4Z"/><path class="cls-5" d="M465.8,181.6c-5.4,17.2,2.6,31.3-11.4,44.6C459.1,207.8,462.5,194.7,465.8,181.6Z"/><path class="cls-5" d="M471.6,170.6l-2.9,6C468.5,173.7,467.4,169.8,471.6,170.6Z"/><path class="cls-1" d="M468.4,172.4l.3,4.2C466.1,176.9,468.3,174,468.4,172.4Z"/><path class="cls-2" d="M438.3,280.5c-2.8,6.6-.7,18.9-10.6,14.6Z"/><path class="cls-2" d="M426,294.8l-2.4-1.2Z"/><path class="cls-3" d="M359.3,200.7c2.1,4.8,4.3,9.7,6.4,14.6C361.1,211,357.3,207.3,359.3,200.7Z"/><path class="cls-1" d="M359.7,191.7c.8.3.8.5,0,.8A1.1,1.1,0,0,1,359.7,191.7Z"/><path class="cls-3" d="M363,167.9l3.9-4.1C365.7,165,360.4,171.5,363,167.9Z"/><path class="cls-3" d="M358.3,174.6c-.1-.4-.6-.8.1-1A3.1,3.1,0,0,1,358.3,174.6Z"/><path class="cls-3" d="M360.8,170.3l.6-.7A.9.9,0,0,1,360.8,170.3Z"/><path class="cls-2" d="M449.5,252.7c.2,3.3-6.1,17.1-8.8,12.8C445.4,263,444.5,252.6,449.5,252.7Z"/><path class="cls-5" d="M472.7,165.6l-.9,2.1Z"/><path class="cls-4" d="M440.7,265.6l1.8,1.8C441.5,267.8,440.4,266.5,440.7,265.6Z"/><path class="cls-2" d="M584.6,124.7c-8,2.7-12.3,10.2-17,15,2.1-12.2-1.2-29.1,12.8-35.2,10.3,8.3,15.6-3,25.2-1.8C599.8,116,598,119.6,584.6,124.7Z"/><path class="cls-4" d="M600.6,102.4c-41.6,14-5.1-16.1,23.3-15.3C611.4,100.9,603.7,92.6,600.6,102.4Z"/><path class="cls-2" d="M598.5,93.5c-19.7,3.6,3.4-13.7,10.2-19.2C626.6,82.4,606.5,85.6,598.5,93.5Z"/><path class="cls-1" d="M571.5,109.6c-3,13.6,1,28.1-11.7,35.7C557.2,136.2,566.7,119.4,571.5,109.6Z"/><path class="cls-1" d="M575.6,107.7l-4.1,1.8Z"/><path class="cls-1" d="M602.4,110.6c8-22.5,38.3-6.5,36.7,4.6C626.9,114.5,595.1,125.1,602.4,110.6Z"/><path class="cls-2" d="M611.3,71.4c18-14.4-11.6-19.8,8.9-24.9C621,64,637.5,53.7,611.3,71.4Z"/><path class="cls-2" d="M528.4,210.8c-16.9-5-52.4-21.4-16.5-26.6,20.1,15.1-1.2-3.9-11.6,6,10.9-1.5,17.7,19,17.7,4.9,13.4,1.2,9.6-11.4,20.5-.2C533.9,199.1,528.8,202,528.4,210.8Z"/><path class="cls-2" d="M539.5,167.7c1.8,19.8-.7,23.6-20.1,9.8Z"/><path class="cls-2" d="M516.5,229.7c8.1-16.1,23.5,7.7,15.9-17.9C549.4,240.2,524.3,229.3,516.5,229.7Z"/><path class="cls-3" d="M522.2,194.3c-9,3.6-2.6,11.6-11.9-1.3C488.1,187.7,519.8,182.9,522.2,194.3Z"/><path class="cls-2" d="M494.5,210.7c-3.7-2.5-7-3.8-10.7-1C489.1,201.8,492.6,200,494.5,210.7Z"/><path class="cls-2" d="M571.9,171.3l8.6,12.3Z"/><path class="cls-2" d="M509.6,207.1l-10.7,3.8Z"/><path class="cls-3" d="M513.7,163.6l7.4-7.1Z"/><path class="cls-2" d="M568,167.4c2.5,2.4,3.7,3.1-.8,2.8C567.5,169,567.8,168.2,568,167.4Z"/><path class="cls-2" d="M509.5,135.6l3.3,5.8Z"/><path class="cls-2" d="M513.2,142.4c-.5,1.8-.9,3.6-1.3,5.4C512.3,146,512.7,144.2,513.2,142.4Z"/><path class="cls-1" d="M559.7,149.6l3.8,8C562.4,155.7,555.4,150.1,559.7,149.6Z"/><path class="cls-5" d="M562.2,133.5c-1.5,2.7-2.9,5.5-4.4,8.3C555,137.4,559.6,135.8,562.2,133.5Z"/><path class="cls-5" d="M568.3,114.5c-1.4,3.7-2.7,7.4-4,11.1C565.6,121.9,566.9,118.2,568.3,114.5Z"/><path class="cls-5" d="M559.7,149.6c-2.6.3-1.2-4.3-1.9-6.2C560.3,144.8,559.9,147.1,559.7,149.6Z"/><path class="cls-5" d="M563.2,129.5l-.9,2.1Z"/><path class="cls-1" d="M668.2,355.6c19.9-21.7-36-32.8-39.9-62.1C649.6,314.7,744.2,344.5,668.2,355.6Z"/><path class="cls-6" d="M577.7,151.6c-.4-4-.4-.4,1.8-10.4-2.5,7.6-2.6,8-2.7,8.5l-15,4.9,17.8-21.9C573.5,141.1,588.3,150.1,577.7,151.6Z"/><path class="cls-6" d="M637.6,288.3c-9.9-.1-19.6-9.4-12.1-18.8C628.4,279.5,633.9,282.4,637.6,288.3Z"/><path class="cls-6" d="M583.7,154.6c.8-1.3,1.7-2.5,2.6-3.8C589.6,150.8,584.1,159.4,583.7,154.6Z"/><path class="cls-3" d="M626.5,197.6c-.8.2-1.7.3.1,0C624.7,197,625.8,197.2,626.5,197.6Z"/><path class="cls-3" d="M719.5,269.6l6.9-3.1Z"/><path class="cls-6" d="M642.5,290.5l-3.1-1.8Z"/><path class="cls-2" d="M720.5,122.6h-.2C720.4,122.5,720.5,122.7,720.5,122.6Z"/><path class="cls-4" d="M733.7,205.6c.1-1.3.3-2.7.4-4.1C734,202.9,733.8,204.3,733.7,205.6Z"/><path class="cls-2" d="M669.3,356.8c33.6-23.2,42.5,29.7,3.6,15.5l28.9,17.2c-16.6,5.3-31-24.5-46.2-33.1C666.8,363.4,690.8,382.4,669.3,356.8Z"/><path class="cls-2" d="M695.9,346.7l.7-2.2Z"/><path class="cls-2" d="M696.7,341.6l1.6-2.3Z"/><path class="cls-2" d="M728.5,125.7l-1.1-1.1Z"/><path class="cls-2" d="M597.5,317.6c-5,14.1-9.4,28.4-16,41.8C586,352.3,585.3,281.5,597.5,317.6Z"/><path class="cls-4" d="M579.5,325.5l-4-3.1Z"/><path class="cls-4" d="M497.6,314.5h0Z"/><path class="cls-4" d="M576.8,149.7c.1-.5.2-.9,2.7-8.5C577.1,149.4,578.4,149.5,576.8,149.7Z"/><path class="cls-4" d="M610.6,195.6v.2S610.4,195.6,610.6,195.6Z"/><path class="cls-3" d="M669.3,356.8c2.5,3.4,5.1,6.7,13.4,17.5C662.8,365.6,646.1,344,669.3,356.8Z"/><path class="cls-2" d="M658.2,417c.5,6.5,2.4,3.2,12.3,2.3C657.4,432.1,615.7,406.8,658.2,417Z"/><path class="cls-3" d="M602.4,110.6l-1.8,1.1Z"/><path class="cls-3" d="M600.6,111.7c-.3.6-.7,1.3-1,2S600.3,112.3,600.6,111.7Z"/></svg>