<svg id="Layer_1" data-name="Layer 1" xmlns="http://www.w3.org/2000/svg" viewBox="0 0 1442.9 1037"><defs><style>.cls-1{fill:#1a5475;}.cls-2{fill:#132a3e;}.cls-3{fill:#070d14;}.cls-4{fill:#0a131c;}.cls-5{fill:#7994a7;}</style></defs><rect class="cls-1" width="1442.9" height="1037.03"/><path class="cls-2" d="M1244.8,551.5c-8.4-4.5-15.7-11.2-24.3-15.4-6.4-3.1-14.1-3.2-21-5.4a26.6,26.6,0,0,1-10.7-6.7c-2.3-2.4-2.9-6.4-4.9-11.5l-17.4,11.1c3.4,7.6,6.4,13.5,8.6,19.7.6,1.7-1.2,6-2.1,6-10.3.5-12.4,6-11.3,17.3-3.6-2.1-8.3-3.5-10.6-6.6-9.1-12.1-17.3-24.8-26-37.1-1.3-1.8-3.5-3-5.4-4.5l-4.9,2.6-6.2-.9c-1.2,7.4-2.4,14.7-3.5,21.9l-6.3,5.1c-2.7-7.6-5.3-15.1-7.9-22.6l-5.1,4.3-.4,4.2c11.1,7.6,12.8,37.5,1.8,44.5l-12.8-19.9-10.6,4.4c3.4,12,6.3,24.4,10.4,36.3s10.9,23.8,3.9,36.3c-5.6,9.9,2.3,13.8,9.2,20.8,1.9-4.7,5.6-9.6,5.1-14-1.6-13.9-5.2-27.5-7.2-41.3-.8-6.1.4-12.5.7-18.8l4.9-.7c3.8,11.1,8.6,22.1,11,33.5,1.8,8.2,4.2,11.4,12.9,10.7,3.3-.2,7.5,3.9,10.3,6.9s1,5,1.5,7.6l-13.7,1.8c-1,4.5-2,8.8-3,13.1.9.8,1.7,1.7,2.5,2.5l12.4-6.4a21.7,21.7,0,0,1-.7-2.4l10.4,2.5c-3,7.7-5.6,14.4-8.2,20.7,1.1,1.7,1.7,2.7,2.4,3.6,9.6,12.2,6,22.9-7.7,30.7-10,5.8-18.4,14.4-27.1,22.2-6.4,5.8-11.2,15.6-18.5,17.9s-18.4-1.1-27.7-2l-.2-4.7-38.8,14.1c-1.1.3-2.3,1.4-3.2,1.2-20.2-3.7-20.4,14.1-27.2,24.9-5.3,8.5-11.2,16.6-16.5,25-1.3,2.2-1.4,5.1-2.2,7.6s-1.2,3.3-1.8,5c-9.5-10.4-9.1,10.8-19.4,2.5,4.4,13-17.3,19.7-1.3,31l-11.6,1.8c2.5,6.8,4.3,12,6.8,18.7,1.9-2.5,2.5-3.3,3-4.1l4.8,7.1c.2,1,.9,3.5,1.5,6a27.1,27.1,0,0,0,.1,2.9l-5.3,7.9-33.7-12.9c-14.4,2.5-30.5,13.6-50.3,9.8l7-5.5c2-5.8,3.7-11.1,5.7-17.3l10.4,8.2c1.2-4.8,2.1-8.2,3.6-13.8-6.2-.8-11.3-1.1-16.3-2.2-3.2-.7-6.7-1.7-9-3.8-8.6-7.8-10.3-27.8-3.1-34.2l13.1,10.7,17-11.4-.9-1.5,9.6-2-28.1-15.7-4.7,5.6c-.2,1.6-.4,3.4-.8,6.5l-5.8-2.6,1.9-4.1c-1.8-16.7-14.3-21.4-26.7-26.1l23.1-5.5a6.8,6.8,0,0,0-.2-1.4h5.6c.1-.6.1-1.3.2-1.9l-38-3.5-4.4,3.5c.4,2.8.9,5.8,1.6,10.5l-19.5,3.6-9.2-20.1,27.1,2.7c0-.5.1-1,.1-1.6L790.4,761V675.2h-3.2c.5-1.3,1-2.6,2.4-6.6l-33.6,8c.2.8.3,1.5.5,2.3l26.5-7.4c1.8,4.6,3.3,8.1,4.8,11.6l1.6-.2v78.2l-9.1-1.5c.7-4.6,2.1-9.2,2.1-13.8.1-11.6-11-10.7-17.7-14.4-.7-.4-4.3,3.4-6,5.7a79.9,79.9,0,0,0-4.9,8.6V637h-3v21.6l-35.1-2.9v-.6l-11.4-1.2c.1.4.2,1.5.4,1.5l45.7,7.7v15.5l-10,3.7.5,1,9.8-2.4c-.2,3.9-.3,7-.5,11l-20.7-8.3c-5.2,17.7-4.5,32,1.4,33.5l19.7-22.9v39.5l-3,2.7,3.2,3.4v8.9c-1.2-2.3-2.5-4.5-4-7.2l-10.5-2L746.7,719l-6.5-5.9-4.5,17.2-1.9-.2c-.5,3.1-.9,6.3-1.4,9.4-5.6-4.3-11-8.8-16.7-12.9-3.5-2.5-7.5-4.4-11.3-6.6-1.6,3.1-4.8,6.4-4.6,9.4a166.1,166.1,0,0,0,3.8,27.3c.6,2.9,3.9,6.3,6.6,7.2s4.7-3.5,4.7-3.4l25.7-2.1a7.5,7.5,0,0,1,.4,1.6l-23.5,8.8-6.1,3.7h-6.6a5.9,5.9,0,0,0-.2,1.4l6.3,2.4-5,9.1-5.9,3.3c-.6,1.3-1.2,2.7-2.1,4.9l-6.5-3.9-3.6.9c-.3-1.8-.6-3.3-1-5.4h3.3l14.1-8.7-3.2-4.6-8.8,3.3-6.5-4.5,2.9,6.2h-7.5c-.5-1.5-1.1-3.3-1.8-5s-1.9-2.9-3-3c-17.4-1.8-34.7-3.5-52.1-5.1-3.3-.3-6.6-.3-11.6-.6l3.4,2.5,45.4,4.5c-7.3.8-14.7,1.9-22.1,2.5-5.9.6-12.1,1.6-17.8.7-4.1-.7-7.9-4-11.5-6.6-1-.7-.9-2.9-1.4-5.1l-8.3,2.3c-.9-2.3-1.6-4.6-2.4-6.7,6.2-4.4,7.1-18.4,2-24.7s-15.7-3.6-22.1,2.6l-12.2-1.6c-1.1-2.4-2.6-5.4-4.7-9.8-.1-.1-1.8-.9-5.2-2.3.3,4.8.5,8.3.7,12.5l-6.6-2.9-6.2,14.6V658.6l-5.8-.9.2,3.2-36.3,3,11.2,17.3c1-1,2-1.9,2.9-2.9l13.1,10.3-1.6,2.9h9.9c1.7,5.6,4.6,11.6,4.8,17.7.6,12.5-.3,25.2-.6,37.8-2.5,8.8-6.1,14.8-17.5,14-19.2-1.5-38.6-1.1-57.9-1.3a22.3,22.3,0,0,0-4.7.7c-1.1,3.2-2.1,6.3-3.4,10.3l-17.1-3.2c-.3-1.7-.7-3.7-1.5-7.6-3.2,1.3-6.2,1.9-8.5,3.7-9.1,6.9-19.1,10.1-30.5,8.2-.5-.1-.8-1.2-1.3-1.9l29.2-6.9c-.2-.8-.3-1.6-.5-2.3l-28.9,7c-.2-4.9-.2-9.9-.6-14.8-.2-3.4-.8-6.8-1.2-10.2l3.3-4.2c1.5-22,3.1-43.8,4.7-66.6L389.8,676c-1.8,16.9-3.7,33.3-5.5,49.7l-11.6-16.3,5.7-5-5.9-29.7,11.6-4.5-9.9-6.4,14.4-20,14.1-.8-17.5-21.6-5.1,1.5c-2.7-5.5-5.4-10.8-9.2-18.6-8.6-1.3-14.3-22.3-31.5-7.8l-11.7-18.2,9.1-3.8c.6-1.8,1.3-4.1,2.8-8.5-10.2-2.8-20-5.1-29.6-8.1-12.1-3.8-24-8.1-35.9-12.4-1.2-.4-1.7-2.6-2.5-4l39.9-28.2-1.2-1.8-27.5,19c7.8-7.8,15.8-15.4,23.4-23.5,2.7-2.9,5.5-6.5,6.3-10.1a201,201,0,0,0,3.8-26.8c.6-8.2.1-16.4.1-26.1l-17.5,5.9c-1.6-4.6-2.9-8.5-4.3-12.8l-11.9,4.8c.5-4.2.9-8.3,1.3-12.5-2.1,2.6-2.6,5.4-3,8.2-4.4,34.4-8.9,68.7-13.3,103.1-1-1.1-2.9-2.4-2.8-3.4,1.1-12.9,2.6-25.6,2.1-38.7,1.7-10.9,3.3-21.9,5-32.8l2.2.3c-.8-3.5-1.7-7.1-2.6-10.8l4.6-9.5c-3.5-4.5-5.6-7-11.4-1.2s-14.4,9.2-22.7,12.5l23.8-20.2L255,429.6l19.2-5.5c-4.1-4.2-6.2-7.5-9.2-9.1a166.9,166.9,0,0,0-20.1-9.4c-2.7-1.1-5.8-.9-8.7-1.3.2,3.1-.5,6.6.7,9.2,2.7,5.7,6.9,10.7,9.6,16.5,1.2,2.5.4,5.9.5,9l-9.8-3.4-4.9,5.9,3.9,5,7.4,1c-4.9,3.5-9.4,7.9-14.8,10.3-17.6,7.8-35.5,14.8-53.2,22.2-2.2.9-4.1,2.2-6.1,2.8-16.2,5.6-30-14.8-46.3-3.8-11.4-2.7-22.4-6-33.6-7.5-5.6-.8-11.8,1.2-17.5,2.6-7.6,1.8-22.2-10.1-22.3-18.3a108.1,108.1,0,0,0-1-18c-.5-2.7-3-5.6-5.3-7.5-6.1-5.2-12.9-9.6-19-14.9-1.8-1.5-2.1-4.8-3.5-8.3,15.7-5.9,36.6,1.5,43.2-21.3l-14.6-3.9c.4-7.9,3.1-8.2,20.5-3.4l3.6-9.6,19.4-2.2c-4.1-2.9-6.6-4.7-9.1-6.3l-7.8-5,6.1-7,.7-.8-40.9-8.7-1.3-9.3-16.2-1.3c-.1-.9-.1-1.7-.2-2.5l15.7-2.6-30.4-7v-1.4H40.7c.1-.7.3-1.3.4-2l-13-5.9.4-2.3H49.1l-21-12.1L45,290.2c0-.6-.1-1.2-.1-1.8l16.6,5.4c.6-2.2,1-3.8,1.5-5.8l4.8-2-6,34.9-7,11.3,15.1,2.2,3.3,1c27.2,10.6,54.5,21.3,81.8,31.8,1.1.4,2.6-.5,4-.8l6.7-.8c2.5-5.4,5.1-11.4,7.7-17.3L171.9,365h1c5.2-32.9,10.3-65.9,15.9-101.3-1.6,3.2-2,4.1-2.5,4.9l-8.2-2.1c-1.4,0-3-.4-4.2.1l-45.1,20.5c2.2-8.7,4.9-16.5,16.5-16.6,5.3-.1,10.5-2.6,15.8-4l.3-3.2c-4.6-1.8-9.3-3.1-13.5-5.3-10.4-5.3-22.8-9-30.4-17.1s-14.2-15.3-25.2-17.8c-.7-.2-1-2.4-1.4-3.7L178,257c-1.3-2.9-3.5-4-5.6-5l-31.8-15.9c2.6.1,5.3-.4,7.7.3,13.6,4.5,26.9,9.8,40.7,13.4,4.9,1.2,10.9-1.7,17.1-2.9.2-1.5.6-3.3.9-4.7-16.5-7.3-33.1-13.4-44.7-32.2,7.9.4,13.2-.7,17.4,1,14.6,6.2,28.5,13.9,43.2,19.7,5.1,2,11.7.3,16.6.3,4.7-9-11.1-26.8-26.6-32.3.2-2.5.3-5.2.6-9.7,17.5,12.6,33.7,24.2,56.8,28.2-3.5-3.4-4.8-4.5-6.2-5.8l3-4.7c-3.6-5.9-7.3-11.9-12.1-19.5l9.5-1-1.3,3.1c6.8,3.8,14.1,7,20.2,11.6,2.5,2,2.7,7,4.3,11.6l8.9-5.1-26.1-23.9,2-2.3,9,7.9-15.6-28.5,5.6-3.7,35.2,46,5.4-4.5,15-7.3,10.3,30.4c1.8-5.6,3-9.3,4.3-13.6l9.5-1.4L349,210c7.5,6.2,14.7,12.7,22.5,18.4,1.7,1.3,6.8,1,7.8-.4s2.1-6.2,2.4-9.5c.7-6.5,1-13,1.5-19.4.2-2.6.5-5.2-1.7-6.7-2.6-4.3-5.2-8.5-9.1-15.1h19.9l-10.7-15.2-35.9,17.7-1.2-2.2L376.7,158l-1.6-2.7,14.5-5.5-10.9-8.2c-.4-2.9-.9-7.1-1.8-13.4l10.6,7.9,12.4-27.3c1,.7,4.7,4.1,9,6s10.1,2.2,14.9,4,6.7,4.3,10.2,6.2c1.6.9,3.4,1,5.7,1.6-.2-2.4-.2-4.1-.5-8.7l11.1,9.2,25.4-34-9-9.9c.2-1,.4-2.1.7-3.2l14.3,1-6-8.9c1.1-3.2,2.1-6.1,3.4-10.2l15.1,4.5c-.6,3.8-1,6.1-1.5,9l5.8,2.3c1.1-5.7,2-10.9,2.9-16.1l3.9-.5c1.5,3.9,2.4,8.3,4.6,11.7s6.2,6.2,9.7,9.5c-.5,1.8-.9,4-1.8,7.8,14.4-5.1,14.7,8.5,21.6,16.4,3.5-6.1,6.2-11,8.4-14.9l-6.3-16.7,8.5-.4,3.3,9,1.6-1.6,17,12.3c.6-3.6,1.1-7,1.9-11.5-2.6-1.8-5.6-3.9-10.9-7.8l15.6-11.3,1.1,1.9,9.7-11.2,27.8,33.9c1.3-5.8,2.6-11.4,4.5-19.6,2,7,3.3,11.8,4.7,16.7h4.3c2.1,5.6,4.1,11,6,16.3l-.9.4q11.4,31.2,22.9,62.4l2.7-.4a96.6,96.6,0,0,0-1.4-10.8c-2.6-11.5-6.6-22.8-7.8-34.5-.8-7.6,3.7-15.8,3.3-23.6-.4-9.7-3.4-19.3-5.9-31.7l2-2.8h11c-.8-4.2-1.5-7.5-2.3-11.5h8.2c.3,2.9.5,5.4.8,7.9l3.3,2.8c1.8-5.9,3.7-11.8,5.5-17.6,16.7,16.6,16.7,16.6,35.5,9l5.6,23.4,11.4,1.2c-1.2,2.3-2,3.8-3,5.5l17.7,1.3c-1.7,8.3-3.9,15.4-4.5,22.6-.3,3.7,2.2,7.6,6.2,10.9l-2.9,7.4,4.6,15,5,1.9,1.1,8.5,43.2-33.3,1.3,4.7,7.1,3.2c-.5,1.6-1.6,3.2-1.6,4.8q1.5,55.3,3.1,110.8a30.7,30.7,0,0,0,.7,4.2l-.7-.2V124.5l8.3,6a5.5,5.5,0,0,0,1.8-2.2c4.6-10.5,10.2-6.6,17.4-2.4s15.5,6.1,24.3,6.7l2.5,2.3c5.8-4,10.8-8.2,16.5-11,2-.9,5.7,1.7,8.8,2.7-1.3,3.5-2.1,5.6-3,8.2l5.8,1.2,4.7,7.6,2.4-1.2L869.7,80.7l9.8-11.6c-.2-1.2-.5-2.8-.7-3.8,2.9-1.5,5.4-3.3,8.2-3.9a13,13,0,0,1,8.3.7c1.6.8,1.6,4.2,2.8,6.1,2.7,4.2,4.8,9.8,8.7,11.8s9.5.5,14.7.5V73.1l12,7.8-2,1.2c5.1,7.6,11.1,14.9,14.9,23.1,2.8,6.1,1.7,13.8,4,20.1s6.8,11.7,11.8,17.3c2.5-22.3,12.5-43.5,6.8-67.4l19.2-11.7,3.5,6.2c15.6-.8,13.4-9.8,8.1-19.9l11.9-5.5c1.6,9.6,3.1,18.2,4.9,28.9l-1,2.2c3.9,8.1-2.8,25.8,17.3,18.4l17.9-14.4-14.6-9.9,13.5-3.1c-.3-2.1-.6-4.8-1.1-8.1l6.4-4.2,18.1,11.1,2.8-2.7c.6,2.5,1.9,5,1.8,7.5-.5,7.9-1.9,15.9-2.3,23.9-.3,6.3,2.7,10.1,9.8,9.1l6,20,2.9,1.3,11.3-25.9-20.2,4.7c2.2-2.6,4.5-5.1,7.4-8.4l-6.6-8.6,17.7-36.5,11.4,3.5c0,4.3-.2,8.6.1,13s.7,9,2.2,13.1,4.3,5.2,6.6,7.7c1.8-2.3,3.9-4.5,5.5-7,4.1-6.2,7.5-12.9,12.2-18.5,1.6-2,6.4-2.7,9.1-1.9,8.8,2.5,13.4-.2,14.9-9.1.3-1.6,1.6-3.1,2.3-4.3l19.5,13.1c-2.1,4.9-4.7,11.4-7.6,18.3,2.5,12.2,24.1,18.9,9.7,40.7l20-2.8-1.1-.7c10.5,0,19,1.8,26.2-.5s10-9,15.2-13.5c3-2.6,6.5-4.6,10.2-7.2l5.2,21.7,1.1-.4-.6,12.9h14.8c6.4,9.1,3.2,19.6-2.7,30.1s-10.5,19.2-16.9,30.9l23.3-9.4,1.4,2.8c-1.7,1.5-3.3,3.4-5.3,4.6-9,5.5-12.8,13.7-10.8,23.7.4,2.1,6,5.1,8.6,4.5,6.7-1.4,13-4.8,19.6-6.9,1.9-.5,5.6.3,6.3,1.7,3,5.7,6.2,10,13.6,8.9,1.1-.1,2.5,1.4,3.6,2,2.4,18.2-15,21.9-21,33.7l-3.4-1c.7,7.8,1,15.7,2.5,23.4.2,1.2,5.8,2.2,8.7,1.8,4.4-.7,8.6-2.7,13.3-3.4l15.3-4.5c4,8.2-1.3,22.5-9.1,28.3-10.9,8-22.1,15.8-32.5,24.3-3.2,2.7-4.4,7.7-6.6,11.7l2.9,2,7.8-2.8,17.2,4.1c1.2,5.2,1.2,11.5,3,12,4.1,1.2,9-.4,13.7-3.5l6.9,4.5-17.1,14.4c3.2,2.7,6.6,4.6,8.5,7.5s2.3,6.8,3.3,10l6.4.9,2.2,6.1,15.9,3,8,12.4c-.6,3.7-1.3,8-2.3,13.8-9.2-4.5-18.5-9.4-23.8,2.4l6.5,10.9-2.9,2.8-10.5-6.3-87.2,6.5c.2-.8,0,.6-.4,2s-.7,2.6-.2.8l18.9,18.5-2.1,2.3c.3,1.6.6,3.2.7,3.4m-30.6,30.2,9.3,9.9-8.5,4.1c5.1,7.2,10.4,13.8,14.5,21a51.5,51.5,0,0,1,6.2,17.2m6.7-69.1c-3.1-1.7-7.5-1.3-14.4-2.3M430.1,583l.2-.4v.4c.2,9.3,12.2,20.9,19.5,19.5l6.5-8.4c-6-3.3-12-7-18.4-10.2C435.6,582.9,432.7,583.3,430.1,583ZM315.7,506.3c-.8,2.5-1.7,5-2.4,7.3,5.7,9.2,12.8,9.3,20.8.7l90.8,22.2a24.6,24.6,0,0,0,.7-2.9l-36.5-8.7c2.1-21.7,4.1-42.6,6.1-63.5h-1c-2.1,20.8-4.2,41.7-6.4,63l-53.3-11.6-.8-8.1-2.2-.9-2.3,5.7-3.7-5.5-8.1,2.5q8.4-58.9,16.7-117.8l-2.6-.3c-2.1,14.8-4.1,29.6-6.3,45.2l-33.7-8-.6,2,33.6,8.5C321.5,459.8,318.6,483,315.7,506.3ZM220.5,246.5l33.6-17.4a18.6,18.6,0,0,0-1-2l-62.9,31.3.9,1.9,15.2-6.9c1.8,9.3,25.3,21.2,38.1,21.9l16.5-3.3c-3.5-4-6.4-9.2-10.8-11.7C240.7,255,230.5,251,220.5,246.5ZM938.8,698.3c-1.1-.2-2.2-.5.2.1-2.4-.2-1.3-.1-.2,0-1,3.2-1.6,6.7-3.2,9.8-2.5,4.9-6.8,9.1-8.2,14.2-3.8,13.2-6.3,26.7-9.5,40.8l44,38.3c2.3-4.1,3.9-6.6,5.2-9.4,3.2-7.1,9.7-14.7,8.9-21.3a535.2,535.2,0,0,0-13.6-65.2c-1.3-4.7-8.3-8.6-13.5-11C946.6,693.5,942.2,696.9,938.8,698.3ZM716,435.6c.2-.6.3-1.3.5-2l-59.7-16.2,3.5-17.1c-4.9.6-7.3,2.2-9.2,4.3s-3.3,5.5-5.7,6.8-5.5.9-8.3.7a68.8,68.8,0,0,1-7.9-1.5L629,412l11.2,4.5c-.3.8-.7,1.7-1,2.6l-20.2-7v77l-15.3,3.7-3.3-8.4c-5.1,2.8-9.7,5.2-14.2,7.9s-10.2,6.3-15.5,9c-1.6.8-4-.1-4.7-.2l-2.9,20.6,2.7,1.8,7.2-2.6v31l-21.7,10,1.1,2.4,18.6-8.1c-.9,3.6-1.5,6.1-2.2,9.1l7.7,5.1c-.3-2.7-.4-4.1-.5-5.5l1.3.3c1.3-4,2.5-8,4.4-14l11.1-4.7,5,2.9v-2.9l22.6-19.3,4.7,3.4L642.4,514l-20.8-5.2c-.2,4.7-.4,8.5-.6,12.2h.5V441.6H623l.6,5.6,3,3.3-2.7,1.4c2.3,4.8,5.1,14,7,13.8,15.9-1.5,4.1-13,6.8-20.9l2.9-1.7-2.7-1.7,11.5-22.5Zm301.2-220.5h-.7c.8,12.1,1.6,24.2,2.7,39.4-1.8-4.9-2.4-6.8-3.1-8.7l-1.4,1-8.7-10.1-5.9,3L993.6,228l-7.2,11.3-3.6-.7-9.2,2.9,1.4,2.1-12.1,7.9a12.6,12.6,0,0,1-.1,2.7h-2V284l3.8,2,13.9,17.6,5.4-.7,3.5,3.9,4.6-2.1,8.5,2c1.6-2.5,2.7-4.4,3.9-6.2l5.7.6-.5-2.1,13.1-3.9c1,11.6,1.8,21.1,2.6,30.5l2.8-.2V278c2.4-3.4,3.4-4.8,2.4-3.5C1025.7,253.2,1021.5,234.1,1017.2,215.1ZM539.9,632.3l-5.5,5c-3.9-6.1-6.7-12.9-11.5-17.4-6.9-6.4-15.4-11-23-16.7-9.8-7.1-19.5-6.8-29.3,1.5.6,16.6,4.7,31.8,22.6,43.1l-40.9-4.2-.3,3.7,92.5,8.2C542.6,646,541.4,640,539.9,632.3ZM689.1,277.7,679,262.4l-3.1,2.3-3.8-2.8-12.6,5.2,2.3,5.8-13.9-7-2.3,3.4,21.3,13.2-16.9.8c-.1,1.4-.1,2.9-.1,4.4l29.9,6.4c.3,3.9.5,6.8.6,8.4l14.5.7,14.6-8.2,4.8,6.2V186.5h-2.4v98.8l-10.1,3,8.6-9.2c-.1-1.1-.3-2.8-.5-4.8l-3.7,1.9-13.1-31.1c-3.5,3.3-5,4.6-6.7,6.3C687.2,258.8,688,266.4,689.1,277.7Zm53.1,349.1a59.3,59.3,0,0,1,4.9-6.4c4.6-4.9,9.6-9.5,14-14.7,1-1.2,1.2-5.1.1-6.1-8.3-7.9-17.5-15-25.4-23.3-6.1-6.5-12.5-4.2-16.3,0s-2.2,10-1.1,14.7c2.7,11.3,6.5,22.3,10,33.8L713,636.4c.5,1.3.9,2.7,1.4,4.1s-2,3.3-3.2,5.1l-8.2-3.1.3-.9-5.9-2.1a14.2,14.2,0,0,1-.8,1.8l5.8,4.4-10.4,9,29.4-10,3.9,5.4c-.6-3.6-.8-4.9-1.1-6.4,4.1-1.6,8-3.1,12-4.8-1.4-2.3-2.5-4-4-6.6Zm-338.5,108L437,697.7c-1.1,19.8-2.1,38.2-3.2,56.5h1.8l7.2-106.4-1.7-.2c-.5,3.8-1,7.6-1.4,10.8-5.1.9-10,.6-13.6,2.6-5.9,3.4-10.9,8.3-18.5,14.4C406.6,691.5,405.3,711.5,403.7,734.8Zm661.7-323.6c2.2-11.2,4-20.9,5.8-30.6l-1.2-.3-10.3,29c-1.7-4.1-2.7-6.7-4.6-11.5-.6,5-.9,7.5-1.5,11.5l-9.2-16.4c-.6,4.4-1.1,7.5-1.6,11.3l-10.6-5.1,19,22.3-15.4,2.7,8.4,3.9-7.2,5.1v7.4l16.3-10.8c1.1,5.7,1.9,10.1,2.7,14.2,1.4-3.5,2.8-6.9,4.6-11.7l11,7.2-1.6-5.8,10.6,5.5a6.1,6.1,0,0,0,.7-1l-9.1-8.4,12.2,1.6a6.9,6.9,0,0,1,.5-1.3l-9.3-4.8,24.4-3.6v-1.9l-12.6-2.7-2.2-1.9-11.2-1.9,6-8.3-1.4-1.6Zm-177.7-4.1c-.6,1.3-1.2,2.7-1.9,4l15.4,8.7-63.9-15.4-1.1-1.6-24.7-4a8.8,8.8,0,0,1-.2,1.6l97.4,23.5,1.3-3.4,3.8-.8c1.6,7.7,3.2,15.3,4.8,23.1l4.7-2.9,5.7,2.6c.8-2.2,1.3-3.7,2.1-5.7l9.1,4.7,11.7-1.3,3.2-4.1h6.5c0-.3.1-.7.1-1l-23.2-6,9.3-5.5-6.4-.7c-1-1.7-1.9-3.3-2.1-3.8.2-3.8.4-6.6.8-11.3l-7.2,6.3h-6.5c-.7-3.1-1.4-6.4-2.1-9.7h-2c-.6,2.7-1.2,5.4-1.8,7.9l-7.6,1.2-4.2-1.8-2.3,2.2ZM854.1,644.6l-1.8-3.4-16,3.2.3,1.8-20.3-3c.2,1.6.4,2.7.7,5-6.4,0-12.6.9-18.3-.3s-11.8-4.6-17.4-6.8l-4.4,4a4.1,4.1,0,0,1-.5-.9l-6.5,3.6,5.5,3.7c.4,1.8.8,3.4,1.1,5l1,5.2c24.7,14.4,45.5-6.7,68.9-7.6a28.8,28.8,0,0,0-.2-3.1Zm-667-331.5c18.6,5.7,28.1,2.1,40.3-17.1l-24.6-11.7,4.3-10.8L193.7,268c-.8,2.5-1.5,4.4-2.2,6.4,6.2,3.9,8.9,7.3.6,11.3-1.7.8-2.6,4.2-2.9,6.5C188.2,299,187.8,305.9,187.1,313.1ZM1173.4,231l-13.9,13.3-2.4-6.9-10.9-4c-.2,2.7-.4,4.6-.5,6.4-.3,7.3-.3,14.6-1.1,21.8s2.6,10.4,9.6,10.2c3.3-.1,6.7-.6,11.2-1.1l2.2-2.7h9.6c-1.2-3.8-2.1-6.9-3.2-10.4l-7.3-.9,9.8-19.3ZM931.9,828.8l-19-13.8c-7.8,10.9-15.5,20.3-21.5,30.8-1.6,2.7,1.8,12.2,3.2,12.3C911.7,858.7,927.8,845.9,931.9,828.8ZM636.5,599.6V605l5.1.8-8.4,5.6-8.4-.6c-2.1,6.9-4.1,13.7-6.1,20.6l20.5,7.9a22.9,22.9,0,0,1,.7-2.9l4.4.6c1.5-7.2,2.9-14.1,3.6-17.7l8.6-11.9-8.3-4.5c-.8-3.9-1.2-6.2-1.6-8.3ZM648,646.3l-.4.3-21-2.6v-.5l-9.2-.5c.5-2.4.8-4,1.1-5.6l-2.8.3c-3.5-23.3-6.9-46.7-10.5-70.8l-3.8-.4c2.3,16.2,4.5,31.8,6.8,47.9h-5.8l5.7,7c-3.1,6.3-6.5,12.9-10.1,19.9l79.5,10.8v-.4ZM805.1,401.4h-2.3v52.4l-57.4-11.8-.2,1,59.1,13.2c.5,10,1.3,20.8,1.6,31.6s0,21.2,0,31.8l4.3-.2ZM628.6,235.8h-2V343.1h2Zm288.3-63.7-2.9.3q2.7,58.9,5.5,118l3.3-.2Q919.8,231.3,916.9,172.1ZM881,626.4l-15.8-1.9,2.5-3.8-3.3-2.8-2.2-7.3-12.8,4.8-3.2-5.8-2.9,1.9c2.3,5.9,3,14.6,7.2,16.8,7.1,3.8,16.4,3.4,25.3,4.8Zm-32.1,85,2.2-4.1-44.5-27.2c-1.7,3.8-2.7,5.8-4.8,10.6Zm362.3-295.8c-6.1-3.9-11.2-8.3-17.1-10.2-1.9-.6-8,5.1-8.6,8.5-1.5,8.7,4.1,12.5,12.5,12.8Zm-662,142.8,3.2.3c2.1-36.5,4.3-72.9,6.4-109.3l-3.3-.2ZM445.1,537.2c-.3,1-.5,2-.8,3.1L538,563.2c.2-1,.5-2.1.7-3.1Zm-2.5-71.5c-2.4,22.9-4.7,45.4-7,67.8l3,.2,10.8-112.5-2.2-.2c-1.5,13.9-3,27.9-4.6,42.1l-4.9.4C439.7,464.5,440.9,465,442.6,465.7ZM856.4,655.5h-1V765.2h2.9V754.3l4.7-1.2c-.3-2-.5-3.7-.7-5.4l-5.9-.8ZM414.1,255h1.6l9-113.9-1.5-.2Q418.7,198.1,414.1,255ZM920,542.1h1.2c-2.5-36.7-5-73.5-7.6-110.2l-1.9.2C914.5,468.7,917.2,505.4,920,542.1Zm-2.2,8.8.9-2.7L815.9,526.3l-.6,2.8ZM432,269.4a20.3,20.3,0,0,1-1.1,2.6l81.2,34.7c.5-1.2.9-2.3,1.4-3.4ZM373.7,393.6v.3l-22.5-5c-.2.8-.3,1.6-.5,2.4l83.1,22.1.6-2.1Zm95.8,57.9,15.3-10.3-11.4-15.6-4,6-5.6,15Zm-9.1-33.7c-.3.9-.6,1.8-1,2.8l85.1,24.1.8-2.7ZM930.7,294.9l-.9,2.6,91.7,33c.3-1,.7-2,1-3ZM702.2,311.5l-1.7-2.9-73.2,37.8,1.3,2.7Zm27,131.1h-.7V551.4h.7ZM671.4,545.5v-2.7l-42.9-7.1c-.1.5-.1.9-.2,1.4l86.9,19.8.3-1.1Zm-42.3-316,1.5,2.6,70.1-41.8-1.3-2.1ZM805,216.8l.7-2.4-84.4-31.2c-.3.8-.5,1.7-.8,2.5Zm119.2-47.6-.9,2.1,91.1,37,.9-2.2ZM823.9,127.4l-.8,2,81.1,33.9.9-2.1ZM330.4,435.1c-.1.6-.3,1.3-.4,1.9l52.4,13.7c-8.9-.8-10.8-23.5-24.9-9.6ZM719.7,175.7l1.4,2.2,76.7-51-1.3-2ZM801.9,254l-1.2-2-79.3,45.8,1.5,2.5ZM334.4,300.3l.9,2.1L407,267.5l-1-2Zm475.2,36.8a17.2,17.2,0,0,1,.7-2.1l-87.6-29.8-.8,2.4ZM512.1,179.4a20,20,0,0,0,1-2.1L442,144l-.9,2ZM900.4,176l-1-2-79,43.3a16.2,16.2,0,0,0,1,1.8ZM731.3,557.5a24.4,24.4,0,0,0,1,2.4L797,532.8a24.4,24.4,0,0,1-1-2.4Zm174.9-258-80.6,37.8a5.4,5.4,0,0,1,.5,1.1l71.1-32.7.3,1.1ZM132.5,436.1l-7.9,10.2c6.3,1,11,2,15.7,2.1,1,.1,3.2-4.4,3-4.6C140,441.1,136.4,438.7,132.5,436.1ZM821.8,311.7l4.6-1.8-4.9-1.8c-.8-14.1-1.6-27.9-2.5-41.8h.3V291l-4.8,3.2,5.8,8v24.3h1.5ZM557.7,443.6c.5.9,1,1.9,1.6,2.8q26.1-15.3,52.4-30.4l-1.8-3.1ZM833.1,225.7l-.8,1.7,72.6,31.5a10.8,10.8,0,0,1,.8-1.9ZM481.6,676.5l-12-17.9-7.8,8.8,3.4,1.6c-.4,1.7-.7,3.3-1.4,6Zm379,163.9c.2-.7.7-2.2,1.1-4l-3.6-1-7.1-7.5-2.1,1.4,5.9,20.1,8.6,2.3ZM173.7,369.7l.7,1.5L239.1,345l-.7-1.8ZM829.3,256.1l-.3,1.1L909.2,289a6.1,6.1,0,0,0,.5-1.2Zm-151,428.3,12.5-24.9c-13.2-3.1-14,11.6-22.5,12.8l2.3,5.1,4.5.8Zm-89.8-40.2h-1.3v83.5h1.3ZM846.9,284.3l-18.5-6.5c-.6,2.7-1,4.1-1.5,6.5C833.3,283.5,837.2,295.5,846.9,284.3ZM468.1,129.4l12.1,1.6-14.7-18c-1.8,8.9-3,14.3-4.1,19.8l3.8,1.2ZM251.2,286.3l.6-1.6-47.6-18.4c-.4.9-.7,1.8-1,2.7Zm428,400.9-12.5,20.7a41.4,41.4,0,0,0,2.1,4l17.6-14.5Zm110-250.1,6-2.1c.2-2.6.4-4.8.7-8.3l-13.5,1-3.2-.9c-.4,1.8-1.4,4.1-1,4.4,2,1.4,4.4,2.2,9.3,4.5ZM408,563.7l-4.4-3.3c-2.8,2.9-6.4,5.4-8.2,8.8s-.3,6.2-.3,9.3l3.5.7ZM328.4,388.8l-1.3-1.5-40,32.9,1.2,1.4Zm55.5,177.6,1,1.9L428,543.2l-1.1-1.9Zm268.8-52.5,3.1,2.7,9-8.6-1.2-1.8L674,504l-8.2-1.7-3.3,2.5-5.6-1.5Zm203.7,49.9,7.6.5c-.6-5.4-1.3-10.7-1.9-16.2l-8.7,7.9C854.5,558.7,855.3,561,856.4,563.8ZM628.8,569l4.5-1.7c1.3,2.4,2.3,4.5,3.2,6.2l9.1,5.8a11.4,11.4,0,0,0,1.1-1.1c-4.2-5.3-8.3-10.7-12.8-16.5l-8.3,1.6Zm-46.5,74.5-.6-2-34.5,12.2.7,1.9Zm-58.9,17.9c.1-1.3.3-2.6.4-3.9l-25.6-3.2c-.1,1.2-.3,2.3-.5,3.5Zm-87.8-14.1a10.1,10.1,0,0,0-.7-1.5l-27.3,11.5.5,1.2ZM92.2,349.4c.1-.4.3-.8.4-1.2l-1.9-.5-.3.8ZM696.6,72.3l-.5-.3-.6,1,.5.4Zm-2.9-6.7,1.2-1.2-.8-.8-1.3,1.2ZM478.9,89.5l.4-.3a1,1,0,0,0-.5-.4l-.2.4Z"/><path class="cls-3" d="M317,876.5c1.6-4.8,3.1-9.6,4.7-14.4v-.2c-.2-.7-.4-1.4-.6-2.3l2.3-1c-.3,6-.8,12.1-1,18.1,0,.9,1.5,1.9,2.3,2.9l3.9-2.4c-.6,8.1-1.1,15.1-1.7,22.1h2c.8-9.3,1.7-18.6,2.5-27.8.4-1,.7-2,1-3l2.1-21v-4l9.2-5.7c-5.7-7.8-9.6-13-13.4-18.3l-.6-5.9,4.8-2.2h4.8c4.8,2.5,9.3,6.1,14.3,7.3,6.8,1.7,14.4,1.1,13.6,11.6-.1,1.3,1.9,2.9,2.9,4.3a11.5,11.5,0,0,1-.1,1.9l-11,.7c1.1,8.3,2.2,16.3,3.3,24.3h0l-1.1,1.9c1,4,1.9,8.1,2.8,12.1h2.7l-3.5,10.5,2.8,9.9,1.6-.3c.3-2,.7-4.1,1-6.1l7.6-4.2c-.4-2.3-1-5.3-1.7-8.4l-2.2-8.2,2.9-1.5,11.2,16.3h-.1l-1.9,2.1c0,.6-.1,1.3-.1,1.9l-2,2c-.3,1.3-.7,2.7-1.1,4l1.1,2h0v9.7l-4.3,1.3c.1,1,.3,2.1.4,3.1l34.8-2.7-2.8-4.7c1.6-3.9,3.3-7.8,4.9-11.8h3c1,3.5,2,7,2.9,10.5l5.2,3.6,30.9-3.8h3l3.3-1.1-3.3-3.4,12-12.6,6.1,1.6,7.3,5.2c2.8,1.8,5.7,3.5,8.6,5.2l-3.9-.2-1,.7-2.9.4-3.9-.2c.9,2.6,1.7,4.6,2.8,7.8l6.9-1.8,3-.8,3,.8,7.8-1c.7-4.3.9-8.7,2.1-12.9s3.6-9.8,5.4-14.6l4.6,1.4c-.2,3-.5,6-.7,9.3,7.8,18.9,21.7,19.8,37.7,11.6l7.4,2.8c.9,3.4,1.7,6.9,2.6,10.4-5.6.7-11.5,2.5-16.9,1.5s-9.3-4.7-14.4-7.4c-.7,11.3-1.4,22.6-2.2,34.9h-10c.3-3.4.6-6,.8-8.4l2.4-1.4C524,924,523,920,522,915.9l1.7-.4c-.8-3.3-1.5-6.7-2.2-9.9L506,903.7c-.2,1.8-.4,3.4-.9,7.2l-11.8-2.1.3-1.7L392.2,911a14.9,14.9,0,0,0,.2,2.1L367.5,910v1.7h-9l3.6-2c-12.8-1.4-25.1-.1-37.4,1.4-.5.1-.7,2.1-1.1,3.3-.8-2.5-1.7-5-2.6-7.4l.9-.5c-1.4-5.4-2.9-10.7-3.4-12.6"/><path class="cls-3" d="M766.3,985.9V960h-3.7c.9-13,1.8-26,2.7-39.9l9.9,2.6c-5.7-5.4-15.8-8.4-7.9-19.2.7,2.8,1.3,5.6,2,8.8l20.5,12c.5,3,1.1,6.5,1.8,11L818.2,920l12.1,5.5c-2.3,2.6-4.1,4.6-6.2,6.8l16.2,13.6-5.2,5.5,1.4,2.5,14.7-7.5-11.1-5.7,36.2-4.1c1.5-7.2,3.1-14.4,5.2-24,10.8,0,22.7-2.2,33.2.6s18.1,10.3,28.1,16.4c-.2-4.2-.3-8.1-.5-12.1,1.9,5.7,4.2,11.3,5.4,17.2,1,4.4.4,9.2.5,13.8l-4.5-3c-.6,1.6-1.1,2.6-1.5,3.7l-2.9.4c-2.9,2.5-8.5,5.4-8.3,7.6.8,7.1,3.7,14.1,5.7,21.1a9.9,9.9,0,0,0,3.9-7.5c.5-3.8,1.1-7.5,1.6-11.3.2,1.8.5,3.6.6,4.7l20.3,6.9-7.6,6.4c.7,4.2,1.5,8.7,2.4,14.2l11.3-3.2m-34.7,3.1c-1.3-7.2-2.1-14.5-3.5-24.5-2.8,4.1-3.8,7.1-5.2,7.3a66,66,0,0,1-15.4.2c-5.8-.7-11.5-3.4-17.3-3.4-15.7.1-31.4.8-47,2.1a386,386,0,0,0-38.7,4.9c-2.7.5-4.7,5.1-6.3,7-5.9-3.3-12.2-6.9-18.8-10.1-.5-.2-2.8,3.3-4.2,5.1l3.7,1.1"/><path class="cls-3" d="M650.6,919.6l8-6.8a101.6,101.6,0,0,0,7.4,8.6c1.2,1.1,3.6.9,5.4,1.3h3.8l4.1.2-.7,1.7,37.3,9.9c-.1,1.2-.2,2.5-.4,3.7L691.1,945c.3,1,.5,2.1.8,3.1l41.6,6.2c1.7-30.3,3.3-59.8,5-89.1l4.1-2.3,8.8-26,3.6.5-7.4-6.3c4-7.1,13.9-6.4,28.9,1.9v-5.2l-5.9-2.5c.3-3.9.6-7.9,1.1-14,6,4.3,10.1,7.1,14.3,10.2l8.5-8.9,3.3,1.1c-1.2,4.7-2.3,9.3-3.4,14l-2.1,8.9c-2.4,8-4,16.3-7.3,23.9-5.7,13-12.4,25.4-18.7,38.1-2.7-4.4-5.5-8.7-6.5-10.2l-20.2,15,3,4.5c-1.2,10.1-2.3,19-3.6,29.4l-7,25.5-38.7,3.3c-2.5,4.2-3.6,6.9-5.6,8.8s-3.2-.8-5.5-1.4l3.8-7.8c-14.4-10.3-87.9-19.3-97.7-13,1.2,7.9,2.3,15.3,3.4,22.7l-2.5.6-10.6-20.3-19.1,4.1c-.3-1.5-.7-2.9-1.1-4.3l11.2-4.6-11.4-4.7c1.2-4.1,2.7-9.2,4.1-14.3s3.8-13,5.3-19.6c.3-1.3-1.4-3.1-2.2-4.7,1.3-2.5,2.7-4.9,4.1-7.6,9.9,1.5,19.6,2.4,28.9,4.7,1.9.5,2.3,6.7,3.3,10.3l-3,3.7,25.3,4.2.4-2.6,9.8,4.4,14.2-4.7Z"/><path class="cls-3" d="M792,994.5l3.9-4.2"/><path class="cls-3" d="M491.7,936.4l7.2,3.2c.3-5.9.5-10.8.8-15.6l2.7-2,9.5,13.4c-.6,1.4-1.2,2.7-1.9,4.1l-18.6.9Z"/><path class="cls-4" d="M942.2,959.5c-.5,3.8-1.1,7.5-1.6,11.3a9.9,9.9,0,0,1-3.9,7.5c-2-7-4.9-14-5.7-21.1-.2-2.2,5.4-5.1,8.3-7.6-6.7,7-7.5,13.2-2.7,16.6,2.2-5.3,4.5-10.6,7-16.4l-1.4-.6c.4-1.1.9-2.1,1.5-3.7l4.5,3Z"/><path class="cls-2" d="M323.6,914.4c.4-1.2.6-3.2,1.1-3.3,12.3-1.5,24.6-2.8,37.4-1.4l-3.6,2-18,1.8-16.9.9Z"/><path class="cls-3" d="M323.6,914.4l16.9-.9Z"/><path class="cls-3" d="M929.7,997.9c-1.8-3.1-3.5-6.2-5.2-9.4l2.4-1.4c1.8,3.2,3.7,6.3,5.5,9.4Z"/><path class="cls-3" d="M751.8,937.5l-2.7,1.6-.7-.9,2.5-1.9Z"/><path class="cls-3" d="M1283.6,952.4l1.6,1.7-.7.9-2.1-1.5Z"/><path class="cls-2" d="M645.1,896.5l-4.4-5.4-2.3.6c.9,3.8,1.8,7.7,2.7,12-4.6,5.8-9.9,3.5-17.7-9l7-1.2-9.6-14.3,12.4-6.4-1.2-2.9-5.8,1.8-24.8-16.8c-1.1,17.6-2,31.4-2.9,45.1l-3.3.4c-1.5-2.5-2.9-5.1-4.1-7.2.5-2.8.8-5,1.2-7.7l-16.2,5.6-4.2,6c-1.1-4.1-2.4-6.5-2.3-8.9.5-20.6,1-41.2,2.1-61.8.6-12.6,4.8-16.1,14.9-13.5,2.3.6,4,3.2,8.8,7.3L576.7,819c.3,3,.4,5.3.7,8.6l11.3-4.6L577,835.5l9.6,5.3c-.2-.4.4.9,2,4,2.5-3,5-5.1,6.3-7.7s1.4-5.9,4.6-8.7c.5,4.3,1.1,8.7,1.9,15.1l11.9-6V826.2l-8.2-7.5,45.8-7.6.6,2.5-18.3,4.7.3,1.9h9.1l9.4,13.7c-1.5-.9.1,0,1.7.9v9.7l-4.1,1.3c-4,5.5-7.2,9.2-9.5,13.4-4.3,8.1-.9,14.7,5,20.7,2.1,2.2,4,5.5,4.1,8.3S646.9,893.2,645.1,896.5Zm-3.5-64.4,1.2-1.9-3.7-1.8c-.3.5-.5,1-.8,1.4Z"/><path class="cls-2" d="M852,66.6l8.7-1.4c.7,3.5,1.4,6.3,2,9.4l6.6-.6-5.5,4.8c2.6,5.6,6.5,11.2,7.6,17.3s7.9,12.4-3.4,16.2l-5.2-9.5-20.1-6.6c1.1,11.8,18,18.8,6.7,33.5-3.9-2.6-9-4.7-12-8.4-6.8-8.7-14-15.1-26.3-10.8-.2,1.2-.5,2.8-.7,4.3-4.5,1.1-4.5,1.1-3.5-21.7l-4.4-2.6,1.3-2.4,11.6,4.6-2.9-27.6,13.7,4L818,79.9l6.7,4.5L843.6,77l4.1,6.4,15-1.3Z"/><path class="cls-2" d="M478.6,885.4l-6.1-1.6c.6-11.8.8-23.6,2-35.3S469,836,460.1,835.1c.7-3.6,1.3-7.4,2.6-14.4l-19.4,1v1H428.2l13.1-6.1-.5-1.1,11.6-2.9c-3.5-3.7-5.5-6.2-7.8-8.2s-5.3-3.6-8.5-5.8c10.6-7,35.4-9.6,45.9-4.9-1.8,26.2-3.6,52.9-5.5,79.7l12.8-1.8,2.3,4.2Z"/><path class="cls-5" d="M541.4,747c.3-12.6,1.2-25.3.6-37.8-.2-6.1-3.1-12.1-4.8-17.7h-9.9l1.6-2.9-13.1-10.3c-.9,1-1.9,1.9-2.9,2.9l-11.2-17.3,36.3-3-.2-3.2,5.8.9v87.1Z"/><path class="cls-5" d="M384.3,725.7c1.8-16.4,3.7-32.8,5.5-49.7l15.2-4.1c-1.6,22.8-3.2,44.6-4.7,66.6l-3.3,4.2-2.9,2.4-4.6-7.6-5.8,1C383.9,734.1,384.1,729.9,384.3,725.7Z"/><path class="cls-5" d="M750.8,748.7v-8.9l-3.2-3.4,3-2.7V694.2l-19.7,22.9c-5.9-1.5-6.6-15.8-1.4-33.5l20.7,8.3c.2-4,.3-7.1.5-11l-9.8,2.4-.5-1,10-3.7V663.1l-45.7-7.7c-.2,0-.3-1.1-.4-1.5l11.4,1.2v.6l35.1,2.9V637h3V745.7c-.1,1.4-.3,2.8-.6,5.2Z"/><path class="cls-2" d="M1114.3,746.9l-15.3.8c.7-3.1.6-4.7,1.3-5.2,12.8-9.7,25.6-19.4,38.7-28.7,1.4-1,5.8.1,6.9,1.5s.9,5.7-.5,7.2a70.1,70.1,0,0,1-12.7,11.6c-8.7,6.2-9.1,10.2-1.4,17.4a102.8,102.8,0,0,1,7.1,7.6L1136,762Z"/><path class="cls-5" d="M935.2,866.5c-.5.8-1.1,1.6-3,4.1-2.5-6.7-4.3-11.9-6.8-18.7l11.6-1.8c-16-11.3,5.7-18,1.3-31,10.3,8.3,9.9-12.9,19.4-2.5-5.2,11.2-10.5,22.4-15.6,33.6C939.6,855.6,937.5,861.1,935.2,866.5Z"/><path class="cls-2" d="M792.3,836.6l2.1-8.9,11-6.3c2.1,3.5,4.4,7.5,6.7,11.5l-2.6,1.6,12,11.1,9.5-1.8-6.1,5.6c-.1,1.6-.3,3.4-.7,6.9l-13.1-1.8,6.9-5.6-3.7-3.3h-.1c-.4-.2-.1-.1.1.1l-1.2,3.5-5.4-1.3c.3,2.7.5,4.7.7,6.8l-16.1-3.9Z"/><path class="cls-5" d="M267.7,540.7c4.4-34.4,8.9-68.7,13.3-103.1.4-2.8.9-5.6,3-8.2-.4,4.2-.8,8.3-1.3,12.5s-.7,6.6-1,10c-4.1,28.7-8.1,57.5-12.4,88.7l11.6-8.7,1.9-1.4,27.5-19,1.2,1.8-39.9,28.2Z"/><path class="cls-5" d="M780.3,759.6l9.1,1.5V682.9l-1.6.2c-1.5-3.5-3-7-4.8-11.6l-26.5,7.4c-.2-.8-.3-1.5-.5-2.3l33.6-8c-1.4,4-1.9,5.3-2.4,6.6h3.2V761l21.2,3.4c0,.6-.1,1.1-.1,1.6l-27.1-2.7-9.7-2.5Z"/><path class="cls-5" d="M807.8,124.5V243.1l.7.2a30.7,30.7,0,0,1-.7-4.2q-1.6-55.5-3.1-110.8c0-1.6,1.1-3.2,1.6-4.8Z"/><path class="cls-2" d="M692.3,884.6c-6.1-2.4-7.8-10-4-15.9,2.4-3.7,2.4-8.9,3.8-15,3.3,3.5,5.8,6.1,8.4,9l6.5-2.4c-.5,6.9-1,12.7-1.3,16.8Z"/><path class="cls-5" d="M61.8,320.9l6-34.9c4-22.1,8-44.1,12.1-66.2l2.7.5c-6.2,34.5-12.3,69-18.9,105.9C62.5,323,62.2,321.9,61.8,320.9Z"/><path class="cls-2" d="M661.5,852.8V902h-2.4V819.7h3.4c0,5.3-.4,10.7.1,15.9.3,2.5,2.1,5.1,3.8,7.1s5,4.3,7.5,6.4l-8.9,5.4Z"/><path class="cls-2" d="M370.2,836.5a11.5,11.5,0,0,0,.1-1.9c.7-6.7,1.5-13.4,2.2-20.2l2.7.3c-2.2,25-4.3,49.9-6.4,74.9-.3,2-.7,4.1-1,6.1l-1.6.3-2.8-9.9,3.5-10.5h-2.7c-.9-4-1.8-8.1-2.8-12.1l1.1-1.9h0c1.9-1.8,5.1-3.3,5.6-5.4C369.4,849.7,369.6,843.1,370.2,836.5Z"/><path class="cls-5" d="M225.7,566.9l14.1-102,2.5.3L228,567.2Z"/><path class="cls-5" d="M140.6,236.1,172.4,252c2.1,1,4.3,2.1,5.6,5L90.9,219.5l-1.6-2.9Z"/><path class="cls-5" d="M159,366.4c-1.4.3-2.9,1.2-4,.8-27.3-10.5-54.6-21.2-81.8-31.8l-3.3-1c1.1-.6,2.5-1.8,3.3-1.5Z"/><path class="cls-5" d="M186.3,268.7c.5-.8.9-1.7,2.5-4.9-5.6,35.4-10.7,68.4-15.9,101.3h-1l1.5-16.7,11.7-73.9C185.4,272.5,185.9,270.6,186.3,268.7Z"/><path class="cls-2" d="M418.5,890.6h-3c2-28.9,3.9-57.8,5.9-86.8l3.5.3C422.8,832.8,420.6,861.7,418.5,890.6Z"/><path class="cls-5" d="M705.9,785.4l5-9.1-6.3-2.4a5.9,5.9,0,0,1,.2-1.4h6.6l52.5,6c3.1.4,6.1,1.2,9.2,1.7l-2,1.9h-1.7l-6.1-.5-2.9-.4-3.1-.3-5-.4-1.9-.3-5-.5-3-.4-26.1-2.8-3,4.9h-.1l-2.6,3.7Z"/><path class="cls-2" d="M473.9,782.6,427,792.5l7.8-8.3c.1-1.1.3-2.7.6-5.1l8.6-3.2,4.2,7.7,25-4.5C473.4,780.2,473.6,781.4,473.9,782.6Z"/><path class="cls-2" d="M497.9,843.6l13.9-3.4-5.3-7.6-3.5-3,9.3-5.5c.2-1,.9-3.9,1.6-6.8l2.7.2c0,5.1.2,10.1-.1,15.2s-.3,9.5-2.1,13.5-5.3,4.8-8.2,4.8S501.9,847.4,497.9,843.6Z"/><path class="cls-2" d="M674.5,922.7h-3.1l-3.6-2.2c.1-.9.3-1.8.4-2.7l65.1,6.3-.3,3.8L679.3,923l-4.1-.2Z"/><path class="cls-2" d="M586.1,793.8,651.8,804l-.6,3.7-65.8-10.1C585.6,796.3,585.9,795.1,586.1,793.8Z"/><path class="cls-2" d="M1135.1,626.6c2.9,2.5,6.3,4,7.2,6.4,1.9,5.5,2.7,11.4,4.1,17.3C1134.7,651.8,1129.9,640.7,1135.1,626.6Z"/><path class="cls-5" d="M815.9,765.8l38,3.5c-.1.6-.1,1.3-.2,1.9h-5.6a6.8,6.8,0,0,1,.2,1.4l-23.1,5.5-3.9.4-4.9.7-1.3-1.5,2.2-2,25.1-3.1v-2.1l-24.8-3.4Z"/><path class="cls-5" d="M661.4,770.2,616,765.7l-3.4-2.5c5,.3,8.3.3,11.6.6,17.4,1.6,34.7,3.3,52.1,5.1,1.1.1,2,1.9,3,3l-6.8-.8-3.2-.3Z"/><path class="cls-2" d="M731.4,819.7l-61.3-9.2.5-3.3,61.3,9C731.8,817.4,731.6,818.6,731.4,819.7Z"/><path class="cls-2" d="M712.3,903.7l-7.9-3.9,7-5.5-1.5-19.9,3.2-1.1c1.7,1.5,4.8,3.2,4.6,4.4C716.4,886,714.4,894.1,712.3,903.7Z"/><path class="cls-2" d="M536.2,790.2l-42-7c.2-1.3.4-2.6.7-4l41.9,6.9Z"/><path class="cls-5" d="M243.6,447.5l-7.4-1-3.9-5,4.9-5.9L247,439c-.1.2,0,.3.3.4l1.9,2.6c0,1.4.1,2.8.1,4.2l-4.3.9Z"/><path class="cls-5" d="M128.8,287.2l45.1-20.5c1.2-.5,2.8-.1,4.2-.1l-55.7,25.8-.7-1.5Z"/><path class="cls-2" d="M410.6,902.3l2.8,4.7-34.8,2.7c-.1-1-.3-2.1-.4-3.1l4.3-1.3Z"/><path class="cls-5" d="M720,823.1c-.3,5-.6,9-.9,12.9l-4.4,1.2L707,821.9Z"/><path class="cls-5" d="M732.4,739.5c.5-3.1.9-6.3,1.4-9.4l1.9.2,4.5-17.2,6.5,5.9-10.4,20.5Z"/><path class="cls-2" d="M650.6,919.6l-2.2.4-44-6.1c3.9-1.6,4.8-2.5,5.7-2.4,12.3,1.4,24.7,2.9,37.1,4.6C648.5,916.3,649.5,918.4,650.6,919.6Z"/><path class="cls-2" d="M460.5,896.4l3.3,3.4-3.3,1.1h-3l-30.9,3.8-5.2-3.6Z"/><path class="cls-2" d="M380.9,799.1l36.9-8c.3,1.1.5,2.1.8,3.2l-36.9,8.5C381.5,801.6,381.2,800.3,380.9,799.1Z"/><path class="cls-2" d="M339.5,811.4h-4.8c.5-1,.8-2.7,1.5-2.9l33-7.6c.4.9.7,1.9,1.1,2.8-1.8,1-3.5,2.4-5.4,2.8C356.5,808.4,348,809.8,339.5,811.4Z"/><path class="cls-2" d="M379.6,850.3l9.6,16.4-7.3,3.9-7.2-17.9Z"/><path class="cls-5" d="M226.2,571.1l33.4-23.5,1,1.4-33.3,23.7Z"/><path class="cls-2" d="M606.2,900.1c-.7-4.9-1.5-9.7-2.2-14.6l3.9-1.6c2.2,2.9,5.4,5.5,6.1,8.7s-2.4,5.5-3.7,8.3Z"/><path class="cls-2" d="M365.6,711.2,355.1,716l-2.1-4,16.6-9.4,2.3,2.4c-.6,2.4-1.2,4.7-1.8,7.3Z"/><path class="cls-5" d="M398.8,767.7l28.9-7c.2.7.3,1.5.5,2.3L399,769.9C398.9,769.2,398.9,768.4,398.8,767.7Z"/><path class="cls-2" d="M817.5,767.1l24.8,3.4v2.1l-25.1,3.1C817.3,772.8,817.4,770,817.5,767.1Z"/><path class="cls-2" d="M400.5,840.5,388,848.1c1.4-7.7,2.2-11.9,3.7-19.7Z"/><path class="cls-2" d="M381.4,893.6c.4-1.3.8-2.7,1.1-4l2-2c0-.6.1-1.3.1-1.9l1.9-2.1h.1l4.5.4c4.1,8.1,1.4,11.5-8.6,11.6h0Z"/><path class="cls-2" d="M356.7,633.3c-1.6-3.8-2.2-5.3-3.3-7.7l11.5-7.6c1,1.2,2,2.3,3.1,3.4Z"/><path class="cls-2" d="M443.4,858.3c1.5,5.9,2,8,2.6,10.1l-11.2,5.4-2.1-2Z"/><path class="cls-2" d="M506.3,901.5l-7.8,1-3-.8-3,.8c-2-1.9-3.9-3.9-5.8-5.8l2.9-.4,1-.7,3.9.2Z"/><path class="cls-2" d="M740.1,858V831.6h1.6V858Z"/><path class="cls-2" d="M713.4,787.5l5.8-3.2c.6,4.4,1.3,8.4,1.9,12.4l-2.4,1Z"/><path class="cls-5" d="M808.4,854.6c-.2-2.1-.4-4.1-.7-6.8l5.4,1.3,1.2-3.5h0l3.7,3.3-6.9,5.6Z"/><path class="cls-2" d="M824.9,842.3l-6.9-7.2,11.8.9Z"/><path class="cls-2" d="M771.1,782.1l2-1.9h8.5l-.3,3.5Z"/><path class="cls-2" d="M840.2,866.5l-7.1-4.9c3.2-.7,5.1-1.6,5.7-1.1s2.2,3,3.2,4.6Z"/><path class="cls-2" d="M715.5,750.9l-.9-9h3.5l-.7,8.9Z"/><path class="cls-2" d="M820.6,829.4l1-6.8,2.3.2c-.2,2.3-.4,4.6-.5,7Z"/><path class="cls-2" d="M763.3,781.7l6.1.5c-.3,1.9-.6,3.8-1.4,8.4Z"/><path class="cls-2" d="M677.8,794.1l4.4,1.1c-.2.7-.3,1.5-.5,2.2l-4.6-.8A23.3,23.3,0,0,0,677.8,794.1Z"/><path class="cls-2" d="M711.9,753c.7.8,1.3,1.7,1.9,2.5l-2.2,2.1-2.1-2.3Z"/><path class="cls-2" d="M816.4,779.2l4.9-.7-3.6,5.9C817.1,781.8,816.7,780.5,816.4,779.2Z"/><path class="cls-2" d="M713.3,781.5l3-4.9Z"/><path class="cls-2" d="M249.2,442l-1.9-2.6,2.7-.4C249.6,440.3,249.4,441.1,249.2,442Z"/><path class="cls-2" d="M669.3,770.8l3.2.3Z"/><path class="cls-2" d="M742.4,779.4l3,.4a21.7,21.7,0,0,0-1,2.1C743.3,780.5,742.8,780,742.4,779.4Z"/><path class="cls-2" d="M757.3,781l3.1.3Z"/><path class="cls-2" d="M245,447.1l4.3-.9Z"/><path class="cls-2" d="M710.6,785.3l2.6-3.7Z"/><path class="cls-2" d="M750.4,780.3l1.9.3c-.1.4-.3.9-.6,1.7Z"/><path class="cls-2" d="M321.8,861.9v0Z"/><path class="cls-5" d="M716,435.6l-66.6-16.8-11.5,22.5,2.7,1.7-2.9,1.7c-2.7,7.9,9.1,19.4-6.8,20.9-1.9.2-4.7-9-7-13.8l2.7-1.4-3-3.3-.6-5.6h-1.5V521H621c.2-3.7.4-7.5.6-12.2l20.8,5.2-17.3,16.6-4.7-3.4-22.6,19.3v2.9l-5-2.9-11.1,4.7c-1.9,6-3.1,10-4.4,14l-1.3-.3c.1,1.4.2,2.8.5,5.5l-7.7-5.1c.7-3,1.3-5.5,2.2-9.1l-18.6,8.1-1.1-2.4,21.7-10v-31l-7.2,2.6-2.7-1.8,2.9-20.6c.7.1,3.1,1,4.7.2,5.3-2.7,10.3-6.1,15.5-9s9.1-5.1,14.2-7.9l3.3,8.4,15.3-3.7v-77l20.2,7c.3-.9.7-1.8,1-2.6L629,412l.2-1.4a68.8,68.8,0,0,0,7.9,1.5c2.8.2,6.1.6,8.3-.7s3.7-4.6,5.7-6.8,4.3-3.7,9.2-4.3l-3.5,17.1,59.7,16.2C716.3,434.3,716.2,435,716,435.6ZM617.1,498l-12.6,2.2-.9,2.8,13.5,5.4Z"/><path class="cls-5" d="M1017.2,215.1c4.3,19,8.5,38.1,13.3,59.4,1-1.3,0,.1-2.4,3.5v47.4l-2.8.2c-.8-9.4-1.6-18.9-2.6-30.5l-13.1,3.9.5,2.1-5.7-.6c-1.2,1.8-2.3,3.7-3.9,6.2l-8.5-2-4.6,2.1-3.5-3.9-5.4.7L964.6,286l-3.8-2V254.2h2a12.6,12.6,0,0,0,.1-2.7l12.1-7.9-1.4-2.1,9.2-2.9,3.6.7,7.2-11.3,6.5,11.8,5.9-3,8.7,10.1,1.4-1c.7,1.9,1.3,3.8,3.1,8.7-1.1-15.2-1.9-27.3-2.7-39.4Z"/><path class="cls-5" d="M938.8,698.3c3.4-1.4,7.8-4.8,10.1-3.7,5.2,2.4,12.2,6.3,13.5,11A535.2,535.2,0,0,1,976,770.8c.8,6.6-5.7,14.2-8.9,21.3-1.3,2.8-2.9,5.3-5.2,9.4l-44-38.3c3.2-14.1,5.7-27.6,9.5-40.8,1.4-5.1,5.7-9.3,8.2-14.2,1.6-3.1,2.2-6.6,3.2-9.8Z"/><path class="cls-5" d="M539.9,632.3c1.5,7.7,2.7,13.7,4.6,23.2L452,647.3l.3-3.7,40.9,4.2c-17.9-11.3-22-26.5-22.6-43.1,9.8-8.3,19.5-8.6,29.3-1.5,7.6,5.7,16.1,10.3,23,16.7,4.8,4.5,7.6,11.3,11.5,17.4Z"/><path class="cls-5" d="M689.1,277.7c-1.1-11.3-1.9-18.9-2.7-26.3,1.7-1.7,3.2-3,6.7-6.3l13.1,31.1,3.7-1.9c.2,2,.4,3.7.5,4.8l-8.6,9.2,10.1-3V186.5h2.4V301.2l-4.8-6.2-14.6,8.2-14.5-.7c-.1-1.6-.3-4.5-.6-8.4l-29.9-6.4c0-1.5,0-3,.1-4.4l16.9-.8-21.3-13.2,2.3-3.4,13.9,7-2.3-5.8,12.6-5.2,3.8,2.8,3.1-2.3Z"/><path class="cls-5" d="M742.2,626.8l-10,5.5c1.5,2.6,2.6,4.3,4,6.6-4,1.7-7.9,3.2-12,4.8.3,1.5.5,2.8,1.1,6.4l-3.9-5.4-29.4,10,10.4-9-5.8-4.4a14.2,14.2,0,0,0,.8-1.8l5.9,2.1-.3.9,8.2,3.1c1.2-1.8,2.2-3.4,3.2-5.1s-.9-2.8-1.4-4.1l15.4-11.6c-3.5-11.5-7.3-22.5-10-33.8-1.1-4.7-1.6-11.8,1.1-14.7s10.2-6.5,16.3,0c7.9,8.3,17.1,15.4,25.4,23.3,1.1,1,.9,4.9-.1,6.1-4.4,5.2-9.4,9.8-14,14.7A59.3,59.3,0,0,0,742.2,626.8Z"/><path class="cls-5" d="M403.7,734.8c1.6-23.3,2.9-43.3,3.9-59.3,7.6-6.1,12.6-11,18.5-14.4,3.6-2,8.5-1.7,13.6-2.6.4-3.2.9-7,1.4-10.8l1.7.2-7.2,106.4h-1.8c1.1-18.3,2.1-36.7,3.2-56.5Z"/><path class="cls-5" d="M1065.4,411.2l13.2-7.9,1.4,1.6-6,8.3,11.2,1.9,2.2,1.9,12.6,2.7v1.9l-24.4,3.6,9.3,4.8a6.9,6.9,0,0,0-.5,1.3l-12.2-1.6,9.1,8.4a6.1,6.1,0,0,1-.7,1l-10.6-5.5,1.6,5.8-11-7.2c-1.8,4.8-3.2,8.2-4.6,11.7-.8-4.1-1.6-8.5-2.7-14.2L1037,440.5v-7.4l7.2-5.1-8.4-3.9,15.4-2.7-19-22.3,10.6,5.1c.5-3.8,1-6.9,1.6-11.3l9.2,16.4c.6-4,.9-6.5,1.5-11.5,1.9,4.8,2.9,7.4,4.6,11.5l10.3-29,1.2.3C1069.4,390.3,1067.6,400,1065.4,411.2Z"/><path class="cls-5" d="M887.7,407.1l18.7,6.9,2.3-2.2,4.2,1.8,7.6-1.2c.6-2.5,1.2-5.2,1.8-7.9h2c.7,3.3,1.4,6.6,2.1,9.7h6.5l7.2-6.3c-.4,4.7-.6,7.5-.8,11.3.2.5,1.1,2.1,2.1,3.8l6.4.7-9.3,5.5,23.2,6c0,.3-.1.7-.1,1h-6.5l-3.2,4.1-11.7,1.3-9.1-4.7c-.8,2-1.3,3.5-2.1,5.7l-5.7-2.6-4.7,2.9c-1.6-7.8-3.2-15.4-4.8-23.1l-3.8.8-1.3,3.4-97.4-23.5a8.8,8.8,0,0,0,.2-1.6l24.7,4,1.1,1.6,63.9,15.4-15.4-8.7C886.5,409.8,887.1,408.4,887.7,407.1Z"/><path class="cls-5" d="M854.1,644.6l-7.9,6.4a28.8,28.8,0,0,1,.2,3.1c-23.4.9-44.2,22-68.9,7.6l-1-5.2c-.3-1.6-.7-3.2-1.1-5l-5.5-3.7,6.5-3.6a4.1,4.1,0,0,0,.5.9l4.4-4c5.6,2.2,11.3,5.5,17.4,6.8s11.9.3,18.3.3c-.3-2.3-.5-3.4-.7-5l20.3,3-.3-1.8,16-3.2Z"/><path class="cls-5" d="M1173.4,231l3.1,6.4-9.8,19.3,7.3.9c1.1,3.5,2,6.6,3.2,10.4h-9.6l-2.2,2.7c-4.5.5-7.9,1-11.2,1.1-7,.2-10.3-2.7-9.6-10.2s.8-14.5,1.1-21.8c.1-1.8.3-3.7.5-6.4l10.9,4,2.4,6.9Z"/><path class="cls-5" d="M931.9,828.8c-4.1,17.1-20.2,29.9-37.3,29.3-1.4-.1-4.8-9.6-3.2-12.3,6-10.5,13.7-19.9,21.5-30.8Z"/><path class="cls-5" d="M636.5,599.6l10.1-5c.4,2.1.8,4.4,1.6,8.3l8.3,4.5-8.6,11.9c-.7,3.6-2.1,10.5-3.6,17.7l-4.4-.6a22.9,22.9,0,0,0-.7,2.9l-20.5-7.9c2-6.9,4-13.7,6.1-20.6l8.4.6,8.4-5.6-5.1-.8Z"/><path class="cls-5" d="M648,646.3l29.6,5.4v.4l-79.5-10.8c3.6-7,7-13.6,10.1-19.9l-5.7-7h5.8c-2.3-16.1-4.5-31.7-6.8-47.9l3.8.4c3.6,24.1,7,47.5,10.5,70.8l2.8-.3c-.3,1.6-.6,3.2-1.1,5.6l9.2.5v.5l21,2.6Z"/><path class="cls-5" d="M805.1,401.4l5.1,118.1-4.3.2c0-10.6.3-21.2,0-31.8s-1.1-21.6-1.6-31.6l-59.1-13.2.2-1,57.4,11.8V401.5Z"/><path class="cls-5" d="M334.5,512.7l53.3,11.6c2.2-21.3,4.3-42.2,6.4-63h1c-2,20.9-4,41.8-6.1,63.5l36.5,8.7a24.6,24.6,0,0,1-.7,2.9l-90.8-22.2C334.2,513.8,334.4,513.3,334.5,512.7Z"/><path class="cls-5" d="M315.7,506.3c2.9-23.3,5.8-46.5,8.8-70.3l-33.6-8.5.6-2,33.7,8c2.2-15.6,4.2-30.4,6.3-45.2l2.6.3q-8.2,58.9-16.7,117.8Z"/><path class="cls-5" d="M628.6,235.8V343.1h-2V235.8Z"/><path class="cls-5" d="M916.9,172.1q3,59.1,5.9,118.1l-3.3.2q-2.8-58.9-5.5-118Z"/><path class="cls-5" d="M881,626.4l-5.2,6.7c-8.9-1.4-18.2-1-25.3-4.8-4.2-2.2-4.9-10.9-7.2-16.8l2.9-1.9,3.2,5.8,12.8-4.8,2.2,7.3,3.3,2.8-2.5,3.8Z"/><path class="cls-5" d="M848.9,711.4l-47.1-20.7c2.1-4.8,3.1-6.8,4.8-10.6l44.5,27.2Z"/><path class="cls-5" d="M1211.2,415.6,1198,426.7c-8.4-.3-14-4.1-12.5-12.8.6-3.4,6.7-9.1,8.6-8.5C1200,407.3,1205.1,411.7,1211.2,415.6Z"/><path class="cls-5" d="M549.2,558.4l6.3-109.2,3.3.2c-2.1,36.4-4.3,72.8-6.4,109.3Z"/><path class="cls-5" d="M445.1,537.2l93.6,22.9c-.2,1-.5,2.1-.7,3.1l-93.7-22.9C444.6,539.2,444.8,538.2,445.1,537.2Z"/><path class="cls-5" d="M442.6,465.7c-1.7-.7-2.9-1.2-4.9-2.2l4.9-.4c1.6-14.2,3.1-28.2,4.6-42.1l2.2.2L438.6,533.7l-3-.2C437.9,511.1,440.2,488.6,442.6,465.7Z"/><path class="cls-5" d="M856.4,655.5v91.4l5.9.8c.2,1.7.4,3.4.7,5.4l-4.7,1.2v10.8h-2.9V655.6Z"/><path class="cls-5" d="M414.1,255q4.6-57,9.1-114.1l1.5.2-9,113.9Z"/><path class="cls-5" d="M920,542.1c-2.8-36.7-5.5-73.4-8.3-110l1.9-.2c2.6,36.7,5.1,73.5,7.6,110.2Z"/><path class="cls-5" d="M430.1,583c2.6.3,5.5-.1,7.7.9,6.4,3.2,12.4,6.9,18.4,10.2l-6.5,8.4c-7.3,1.4-19.3-10.2-19.5-19.5Z"/><path class="cls-5" d="M917.8,550.9,815.3,529.1l.6-2.8,102.8,21.9Z"/><path class="cls-5" d="M432,269.4l81.5,33.9c-.5,1.1-.9,2.2-1.4,3.4L430.9,272A20.3,20.3,0,0,0,432,269.4Z"/><path class="cls-5" d="M373.7,393.6l60.7,17.7-.6,2.1-83.1-22.1c.2-.8.3-1.6.5-2.4l22.5,5Z"/><path class="cls-5" d="M469.5,451.5l-5.7-4.9,5.6-15,4-6,11.4,15.6Z"/><path class="cls-5" d="M460.4,417.8,545.3,442l-.8,2.7-85.1-24.1C459.8,419.6,460.1,418.7,460.4,417.8Z"/><path class="cls-5" d="M930.7,294.9l91.8,32.6c-.3,1-.7,2-1,3l-91.7-33Z"/><path class="cls-5" d="M702.2,311.5l-73.6,37.6-1.3-2.7,73.2-37.8Z"/><path class="cls-5" d="M729.2,442.6V551.4h-.7V442.7Z"/><path class="cls-5" d="M671.4,545.5l44.1,10.3-.3,1.1-86.9-19.8c.1-.5.1-.9.2-1.4l42.9,7.1Z"/><path class="cls-5" d="M629.1,229.5l70.3-41.3,1.3,2.1-70.1,41.8Z"/><path class="cls-5" d="M805,216.8l-84.5-31.1c.3-.8.5-1.7.8-2.5l84.4,31.2Z"/><path class="cls-5" d="M924.2,169.2l91.1,36.9-.9,2.2-91.1-37Z"/><path class="cls-5" d="M823.9,127.4l81.2,33.8-.9,2.1-81.1-33.9Z"/><path class="cls-5" d="M330.4,435.1l27.1,6c14.1-13.9,16,8.8,24.9,9.6L330,437C330.1,436.4,330.3,435.7,330.4,435.1Z"/><path class="cls-5" d="M719.7,175.7l76.8-50.8,1.3,2-76.7,51Z"/><path class="cls-5" d="M801.9,254l-79,46.3-1.5-2.5L800.7,252Z"/><path class="cls-5" d="M334.4,300.3,406,265.5l1,2-71.7,34.9Z"/><path class="cls-5" d="M809.6,337.1l-87.7-29.5.8-2.4L810.3,335A17.2,17.2,0,0,0,809.6,337.1Z"/><path class="cls-5" d="M512.1,179.4l-71-33.4.9-2,71.1,33.3A20,20,0,0,1,512.1,179.4Z"/><path class="cls-5" d="M900.4,176l-79,43.1a16.2,16.2,0,0,1-1-1.8l79-43.3Z"/><path class="cls-5" d="M731.3,557.5,796,530.4a24.4,24.4,0,0,0,1,2.4l-64.7,27.1A24.4,24.4,0,0,1,731.3,557.5Z"/><path class="cls-5" d="M906.2,299.5l-8.7,7.3-.3-1.1-71.1,32.7a5.4,5.4,0,0,0-.5-1.1Z"/><path class="cls-5" d="M132.5,436.1c3.9,2.6,7.5,5,10.8,7.7.2.2-2,4.7-3,4.6-4.7-.1-9.4-1.1-15.7-2.1Z"/><path class="cls-5" d="M821.8,311.7v14.7h-1.5V302.2l-5.8-8,4.8-3.2V266.3H819c.9,13.9,1.7,27.7,2.5,41.8l4.9,1.8Z"/><path class="cls-5" d="M220.5,246.5l-14.2,6.9-15.2,6.9-.9-1.9,62.9-31.3a18.6,18.6,0,0,1,1,2Z"/><path class="cls-5" d="M557.7,443.6l52.2-30.7,1.8,3.1q-26.2,15.2-52.4,30.4C558.7,445.5,558.2,444.5,557.7,443.6Z"/><path class="cls-5" d="M833.1,225.7,905.7,257a10.8,10.8,0,0,0-.8,1.9l-72.6-31.5Z"/><path class="cls-5" d="M481.6,676.5,463.8,675c.7-2.7,1-4.3,1.4-6l-3.4-1.6,7.8-8.8Z"/><path class="cls-5" d="M860.6,840.4l2.8,11.3-8.6-2.3-5.9-20.1,2.1-1.4,7.1,7.5,3.6,1C861.3,838.2,860.8,839.7,860.6,840.4Z"/><path class="cls-5" d="M173.7,369.7l64.7-26.5.7,1.8-64.7,26.2Z"/><path class="cls-5" d="M829.3,256.1l80.4,31.7a6.1,6.1,0,0,1-.5,1.2L829,257.2Z"/><path class="cls-5" d="M678.3,684.4l-3.2-6.2-4.5-.8-2.3-5.1c8.5-1.2,9.3-15.9,22.5-12.8Z"/><path class="cls-5" d="M588.5,644.2v83.5h-1.3V644.1Z"/><path class="cls-5" d="M846.9,284.3c-9.7,11.2-13.6-.8-20,0,.5-2.4.9-3.8,1.5-6.5Z"/><path class="cls-5" d="M251.2,286.3l-48-17.3c.3-.9.6-1.8,1-2.7l47.6,18.4Z"/><path class="cls-5" d="M679.2,687.2l7.2,10.2-17.6,14.5a41.4,41.4,0,0,1-2.1-4Z"/><path class="cls-5" d="M789.2,437.1l-1.7-1.4c-4.9-2.3-7.3-3.1-9.3-4.5-.4-.3.6-2.6,1-4.4l3.2.9,13.5-1c-.3,3.5-.5,5.7-.7,8.3Z"/><path class="cls-5" d="M408,563.7l-9.4,15.5-3.5-.7c0-3.1-1-6.8.3-9.3s5.4-5.9,8.2-8.8Z"/><path class="cls-5" d="M328.4,388.8l-40.1,32.8-1.2-1.4,40-32.9Z"/><path class="cls-5" d="M383.9,566.4l43-25.1,1.1,1.9-43.1,25.1Z"/><path class="cls-5" d="M652.7,513.9l4.2-10.6,5.6,1.5,3.3-2.5L674,504l-10.4,2.2,1.2,1.8-9,8.6Z"/><path class="cls-5" d="M856.4,563.8c-1.1-2.8-1.9-5.1-3-7.8l8.7-7.9c.6,5.5,1.3,10.8,1.9,16.2Z"/><path class="cls-5" d="M628.8,569l-3.2-5.7,8.3-1.6c4.5,5.8,8.6,11.2,12.8,16.5a11.4,11.4,0,0,1-1.1,1.1l-9.1-5.8c-.9-1.7-1.9-3.8-3.2-6.2Z"/><path class="cls-5" d="M582.3,643.5l-34.4,12.1-.7-1.9,34.5-12.2Z"/><path class="cls-5" d="M523.4,661.4l-25.7-3.6c.2-1.2.4-2.3.5-3.5l25.6,3.2C523.7,658.8,523.5,660.1,523.4,661.4Z"/><path class="cls-5" d="M435.6,647.3l-27.5,11.2-.5-1.2,27.3-11.5A10.1,10.1,0,0,1,435.6,647.3Z"/><path class="cls-5" d="M938.8,698.4c-1.1-.1-2.2-.2.2,0-2.4-.6-1.3-.3-.2-.1Z"/><path class="cls-4" d="M92.2,349.4l-1.8-.9.3-.8,1.9.5C92.5,348.6,92.3,349,92.2,349.4Z"/><path class="cls-4" d="M696.6,72.3l-.6,1.1-.5-.4.6-1Z"/><path class="cls-4" d="M693.7,65.6l-.9-.8,1.3-1.2.8.8Z"/><path class="cls-4" d="M478.9,89.5l-.3-.3a.5.5,0,0,1,.2-.4,1,1,0,0,1,.5.4Z"/><path class="cls-5" d="M430.2,583v-.4a.5.5,0,0,1-.2.4Z"/><path class="cls-4" d="M327.8,852.6l2.7-33c3.8,5.3,7.7,10.5,13.4,18.3l-9.2,5.7-1.6-2.9c-.7,4.9-1.1,8.4-1.6,11.9Z"/><path class="cls-4" d="M370.2,836.5c-.6,6.6-.8,13.2-2.1,19.6-.5,2.1-3.7,3.6-5.6,5.4-1.1-8-2.2-16-3.3-24.3Z"/><path class="cls-4" d="M324.8,879.6c.9-8,1.9-16,2.9-23.9.9,1.9,1.9,3.9,2.8,5.9s.7,6.7,1,10c-.8,9.2-1.7,18.5-2.5,27.8h-2c.6-7,1.1-14,1.7-22.1Z"/><path class="cls-2" d="M331.5,871.6c-.3-3.3-.6-6.7-1-10s.7-6,1-9,.9-7,1.6-11.9l1.6,2.9c-.1,1.3-.1,2.7-.1,4l-2.1,21C332.2,869.6,331.9,870.6,331.5,871.6Z"/><path class="cls-4" d="M426.6,904.7l30.9-3.8Z"/><path class="cls-4" d="M332.5,868.6l2.1-21Z"/><path class="cls-4" d="M486.7,896.7c1.9,1.9,3.8,3.9,5.8,5.8l-6.9,1.8c-1.1-3.2-1.9-5.2-2.8-7.8Z"/><path class="cls-4" d="M460.5,900.9l3.3-1.1Z"/><path class="cls-4" d="M495.5,901.7l3,.8Z"/><path class="cls-4" d="M381.4,893.6l1.1,2Z"/><path class="cls-4" d="M384.5,887.6l-2,2Z"/><path class="cls-4" d="M386.5,883.6l-1.9,2.1Z"/><path class="cls-4" d="M362.5,861.6l-1.1,1.9Z"/><path class="cls-4" d="M490.6,895.6l-1,.7Z"/><path class="cls-2" d="M942.2,949.2l1.4.6c-2.5,5.8-4.8,11.1-7,16.4-4.8-3.4-4-9.6,2.7-16.6Z"/><path class="cls-4" d="M674.5,922.7h0Z"/><path class="cls-5" d="M641.6,832.1l-3.3-2.3c.3-.4.5-.9.8-1.4l3.7,1.8Z"/><path class="cls-3" d="M331.5,852.6c-.3,3-.6,6-1,9-.9-2-1.9-4-2.8-5.9s0-2.1.1-3.1Z"/><path class="cls-5" d="M814.3,845.6c-.2-.2-.5-.3-.1-.1Z"/><path class="cls-2" d="M281.7,451.9c1.2,2.7,3.6,5.4,3.5,8.1a141.7,141.7,0,0,1-2.2,22.5c-1.5,8.6-3.9,17.1-5.4,25.8-1.2,6.2-1.7,12.6-2.5,18.7l5.8,4.9-11.6,8.7C273.6,509.4,277.6,480.6,281.7,451.9Z"/><path class="cls-2" d="M617.1,498v10.4L603.6,503l.9-2.8Z"/><path class="cls-2" d="M286.7,450.5l1.5-7.9,3.1.6-1.5,8Z"/></svg>